<svg xmlns="http://www.w3.org/2000/svg" viewBox="0 0 227.49 29.85"><defs><style>.a{fill:#fff;}</style></defs><title>copy_four_4</title><path class="a" d="M.21.15H2.08V10.88H.21Z"/><path class="a" d="M4,.15H5.73L7.61,5.58V.15H9.44V10.88H7.78l-2-5.69v5.69H4Z"/><path class="a" d="M11.31.15h1.74c2.39,0,3.76,1.73,3.76,5.18V5.7c0,3.45-1.37,5.18-3.76,5.18H11.31Zm1.94,9c.89,0,1.66-.78,1.66-3.46V5.33c0-2.68-.77-3.46-1.66-3.46h-.07V9.16Z"/><path class="a" d="M18.52.15h1.87V10.88H18.52Z"/><path class="a" d="M23.79.12h2l2,10.76H26L25.6,8.75H23.9l-.34,2.13H21.75Zm1.53,6.94-.56-3.54-.58,3.54Z"/><path class="a" d="M29.15.15H30.9l1.89,5.43V.15h1.82V10.88H33L31,5.19v5.69H29.15Z"/><path class="a" d="M38,.12h2l2,10.76H40.14l-.35-2.13h-1.7l-.34,2.13H35.94Zm1.53,6.94-.57-3.54-.58,3.54Z"/><path class="a" d="M42.79,4a1.47,1.47,0,0,0,1.28-1.73h-1V.15h2.12V1.9a2.55,2.55,0,0,1-2.3,2.86Z"/><path class="a" d="M46.94,10.51V8.56a3.4,3.4,0,0,0,1.68.6.88.88,0,0,0,1-.92v0c0-.49-.15-.86-1-1.87-1.27-1.44-1.79-2.13-1.79-3.43v0a2.57,2.57,0,0,1,2.6-2.8A3.33,3.33,0,0,1,51,.41v2a2.61,2.61,0,0,0-1.42-.49.9.9,0,0,0-1,.92v0c0,.5.15.69,1,1.71,1.47,1.71,1.79,2.36,1.79,3.59v0A2.64,2.64,0,0,1,48.84,11,4.29,4.29,0,0,1,46.94,10.51Z"/><path class="a" d="M56.12.15h1.74l1.89,5.43V.15h1.82V10.88H59.92l-2-5.69v5.69H56.12Z"/><path class="a" d="M63.44.15h4.1V1.93H65.31V4.6h2V6.37h-2V9.1h2.28v1.78H63.44Z"/><path class="a" d="M70.58,5.41,68.89.15h2l.85,3.1.86-3.1h1.94L72.85,5.41l1.74,5.47h-2l-.9-3.27-.92,3.27h-2Z"/><path class="a" d="M77,1.93H75.63V.15h4.51V1.93H78.82v9H77Z"/><path class="a" d="M84.89.15h1.86v9h2v1.78H84.89Z"/><path class="a" d="M90.25.15h4.1V1.93H92.12V4.6h2V6.37h-2V9.1H94.4v1.78H90.25Z"/><path class="a" d="M95.53.15h1.9l1,7,1-7h1.84L99.38,10.91H97.45Z"/><path class="a" d="M102.63.15h4.1V1.93H104.5V4.6h2V6.37h-2V9.1h2.28v1.78h-4.15Z"/><path class="a" d="M108.45.15h1.87v9h2v1.78h-3.84Z"/><path class="a" d="M116.71,10.82V9a2.48,2.48,0,0,0,.88.19c.6,0,1-.33,1-1.11V.15h1.9v8c0,1.9-1,2.79-2.57,2.79A5.31,5.31,0,0,1,116.71,10.82Z"/><path class="a" d="M122.11,5.79V5.24C122.11,1.7,123.26,0,125,0s2.85,1.7,2.85,5.24v.55c0,3.54-1.15,5.24-2.85,5.24S122.11,9.33,122.11,5.79Zm3.8,0V5.24c0-2.76-.38-3.52-1-3.52s-.95.76-.95,3.52v.55c0,2.76.39,3.52.95,3.52S125.91,8.55,125.91,5.79Z"/><path class="a" d="M129.5.15h1.62c1.81,0,3.5.74,3.5,2.73V3a2.53,2.53,0,0,1-1.55,2.42,2.43,2.43,0,0,1,1.68,2.39v.14c0,1.89-1.47,3-3.55,3h-1.7Zm1.9,4.51a1.28,1.28,0,0,0,1.38-1.41v0a1.22,1.22,0,0,0-1.38-1.34h0V4.66Zm0,4.49a1.34,1.34,0,0,0,1.47-1.4V7.67a1.34,1.34,0,0,0-1.47-1.39h0V9.15Z"/><path class="a" d="M136.07,10.51V8.56a3.4,3.4,0,0,0,1.69.6.88.88,0,0,0,1-.92v0c0-.49-.15-.86-1-1.87-1.27-1.44-1.79-2.13-1.79-3.43v0a2.58,2.58,0,0,1,2.6-2.8,3.4,3.4,0,0,1,1.66.33v2a2.66,2.66,0,0,0-1.43-.49.9.9,0,0,0-1,.92v0c0,.5.15.69,1,1.71,1.47,1.71,1.79,2.36,1.79,3.59v0A2.64,2.64,0,0,1,138,11,4.29,4.29,0,0,1,136.07,10.51Z"/><path class="a" d="M145.25.15h1.67c2,0,3.46,1.11,3.46,3.62v0c0,2.42-1.35,3.57-3.25,3.71h0v3.37h-1.87Zm1.88,5.63c.78,0,1.38-.62,1.38-1.92v0c0-1.36-.52-1.95-1.33-1.95h-.06v3.9Z"/><path class="a" d="M151.91.15h1.93c1.92,0,3.31,1,3.31,3.42v.14a3.37,3.37,0,0,1-1.25,2.82l1.43,4.35h-2l-1.21-3.74h-.35v3.74h-1.87Zm2,5.3c.81,0,1.41-.47,1.41-1.73V3.6c0-1.35-.64-1.7-1.45-1.7h-.05V5.45Z"/><path class="a" d="M158.59,5.79V5.24c0-3.54,1.15-5.24,2.85-5.24s2.85,1.7,2.85,5.24v.55c0,3.54-1.15,5.24-2.85,5.24S158.59,9.33,158.59,5.79Zm3.8,0V5.24c0-2.76-.38-3.52-.95-3.52s-.95.76-.95,3.52v.55c0,2.76.38,3.52.95,3.52S162.39,8.55,162.39,5.79Z"/><path class="a" d="M165.79,5.7V5.33c0-3.46,1.47-5.25,3.59-5.25a3.31,3.31,0,0,1,1.42.3v2a2.55,2.55,0,0,0-1.36-.46c-1.07,0-1.75,1.07-1.75,3.38v.53c0,2.8.83,3.44,1.59,3.44h.17V6.46h-.92V4.79h2.62v5.7a4.42,4.42,0,0,1-1.94.46C167.34,11,165.79,9.44,165.79,5.7Z"/><path class="a" d="M173,.15h1.93c1.91,0,3.31,1,3.31,3.42v.14a3.37,3.37,0,0,1-1.26,2.82l1.44,4.35h-2l-1.21-3.74h-.35v3.74H173Zm2,5.3c.81,0,1.41-.47,1.41-1.73V3.6c0-1.35-.65-1.7-1.46-1.7h0V5.45Z"/><path class="a" d="M181.31.12h2l2,10.76h-1.87l-.35-2.13h-1.7l-.34,2.13h-1.81Zm1.53,6.94-.56-3.54-.59,3.54Z"/><path class="a" d="M186.67.15h1.86l1.32,3.93L191.16.15H193V10.88h-1.8V4.4l-1.36,4.06h0L188.47,4.4v6.48h-1.8Z"/><path class="a" d="M198.09.15H200V4.6h1.62V.15h1.87V10.88h-1.87V6.37H200v4.51h-1.87Z"/><path class="a" d="M205.32.15h4.1V1.93h-2.23V4.6h2V6.37h-2V9.1h2.28v1.78h-4.15Z"/><path class="a" d="M211.14.15H213v9h2v1.78h-3.85Z"/><path class="a" d="M216.5.15h1.67c2,0,3.46,1.11,3.46,3.62v0c0,2.42-1.34,3.57-3.24,3.71h0v3.37H216.5Zm1.89,5.63c.78,0,1.38-.62,1.38-1.92v0c0-1.36-.53-1.95-1.34-1.95h-.06v3.9Z"/><path class="a" d="M222.94,10.51V8.56a3.4,3.4,0,0,0,1.68.6.88.88,0,0,0,1-.92v0c0-.49-.16-.86-1-1.87-1.28-1.44-1.8-2.13-1.8-3.43v0a2.58,2.58,0,0,1,2.61-2.8A3.36,3.36,0,0,1,227,.41v2a2.61,2.61,0,0,0-1.42-.49.91.91,0,0,0-1,.92v0c0,.5.16.69,1,1.71,1.48,1.71,1.8,2.36,1.8,3.59v0a2.64,2.64,0,0,1-2.65,2.8A4.26,4.26,0,0,1,222.94,10.51Z"/><path class="a" d="M0,24.61v-.55c0-3.54,1.15-5.24,2.85-5.24s2.85,1.7,2.85,5.24v.55c0,3.54-1.15,5.24-2.85,5.24S0,28.15,0,24.61Zm3.8,0v-.55c0-2.76-.38-3.53-.95-3.53s-1,.77-1,3.53v.55c0,2.76.38,3.52,1,3.52S3.8,27.37,3.8,24.61Z"/><path class="a" d="M7.38,19h3.91v1.78h-2v2.69H11v1.78H9.25v4.47H7.38Z"/><path class="a" d="M12.9,19h3.91v1.78h-2v2.69h1.78v1.78H14.77v4.47H12.9Z"/><path class="a" d="M18.19,29.33V27.38a3.47,3.47,0,0,0,1.68.6.88.88,0,0,0,1-.92v0c0-.49-.16-.86-1.05-1.87C18.55,23.72,18,23,18,21.73v0a2.59,2.59,0,0,1,2.61-2.81,3.35,3.35,0,0,1,1.65.34v1.95a2.61,2.61,0,0,0-1.42-.49.91.91,0,0,0-1,.92v0c0,.5.15.69,1,1.71,1.47,1.7,1.8,2.36,1.8,3.59v0a2.65,2.65,0,0,1-2.66,2.8A4.25,4.25,0,0,1,18.19,29.33Z"/><path class="a" d="M24.16,19h4.11v1.78H26v2.66h2v1.78H26v2.73h2.28v1.77H24.16Z"/><path class="a" d="M31,20.75H29.66V19h4.5v1.78H32.85v8.94H31Z"/><path class="a" d="M39.91,20.75H38.59V19H43.1v1.78H41.78v8.94H39.91Z"/><path class="a" d="M44.64,19h1.87v4.44h1.63V19H50V29.69H48.14v-4.5H46.51v4.5H44.64Z"/><path class="a" d="M51.87,19H56v1.78H53.74v2.66h2v1.78h-2v2.73H56v1.77H51.87Z"/><path class="a" d="M60.71,24.52v-.37c0-3.77,1.4-5.26,3.14-5.26a2.63,2.63,0,0,1,1.23.25v1.93a2,2,0,0,0-1-.35c-.83,0-1.43.73-1.43,3.41v.4c0,2.84.6,3.42,1.46,3.42a2.11,2.11,0,0,0,1-.34v1.84a2.63,2.63,0,0,1-1.38.32C62,29.77,60.71,28.25,60.71,24.52Z"/><path class="a" d="M66.24,24.61v-.55c0-3.54,1.15-5.24,2.85-5.24s2.85,1.7,2.85,5.24v.55c0,3.54-1.15,5.24-2.85,5.24S66.24,28.15,66.24,24.61Zm3.8,0v-.55c0-2.76-.38-3.53-1-3.53s-1,.77-1,3.53v.55c0,2.76.39,3.52,1,3.52S70,27.37,70,24.61Z"/><path class="a" d="M73.32,29.33V27.38A3.5,3.5,0,0,0,75,28a.88.88,0,0,0,1-.92v0c0-.49-.15-.86-1-1.87-1.27-1.44-1.79-2.13-1.79-3.43v0a2.58,2.58,0,0,1,2.6-2.81,3.35,3.35,0,0,1,1.65.34v1.95A2.61,2.61,0,0,0,76,20.69a.91.91,0,0,0-1,.92v0c0,.5.16.69,1,1.71,1.47,1.7,1.79,2.36,1.79,3.59v0a2.64,2.64,0,0,1-2.65,2.8A4.26,4.26,0,0,1,73.32,29.33Z"/><path class="a" d="M80.06,20.75H78.74V19h4.5v1.78H81.93v8.94H80.06Z"/><path class="a" d="M87.81,24.61v-.55c0-3.54,1.15-5.24,2.85-5.24s2.85,1.7,2.85,5.24v.55c0,3.54-1.15,5.24-2.85,5.24S87.81,28.15,87.81,24.61Zm3.8,0v-.55c0-2.76-.38-3.53-1-3.53s-1,.77-1,3.53v.55c0,2.76.38,3.52,1,3.52S91.61,27.37,91.61,24.61Z"/><path class="a" d="M95.19,19H99.1v1.78h-2v2.69h1.78v1.78H97.06v4.47H95.19Z"/><path class="a" d="M103.41,19h1.91l.78,6.57L107,19h1.73l.92,6.57.79-6.57h1.87l-1.62,10.75h-2l-.89-6.35L107,29.72h-2Z"/><path class="a" d="M113.41,24.61v-.55c0-3.54,1.15-5.24,2.85-5.24s2.85,1.7,2.85,5.24v.55c0,3.54-1.15,5.24-2.85,5.24S113.41,28.15,113.41,24.61Zm3.8,0v-.55c0-2.76-.38-3.53-.95-3.53s-1,.77-1,3.53v.55c0,2.76.38,3.52,1,3.52S117.21,27.37,117.21,24.61Z"/><path class="a" d="M120.79,19h1.94c1.91,0,3.3,1,3.3,3.42v.13a3.34,3.34,0,0,1-1.25,2.82l1.44,4.35h-2L123,26h-.36v3.73h-1.87Zm2,5.3c.81,0,1.41-.47,1.41-1.73v-.12c0-1.35-.65-1.7-1.46-1.7h0v3.55Z"/><path class="a" d="M127.66,19h1.87v4.49L131,19h2.12l-1.81,4.53,1.84,6.19H131.1l-1.16-4.06-.41,1.18v2.88h-1.87Z"/><path class="a" d="M134.6,19h4.1v1.78h-2.23v2.66h2v1.78h-2v2.73h2.28v1.77H134.6Z"/><path class="a" d="M140.42,19h1.93c1.92,0,3.31,1,3.31,3.42v.13a3.32,3.32,0,0,1-1.26,2.82l1.44,4.35h-2L142.64,26h-.35v3.73h-1.87Zm2,5.3c.81,0,1.41-.47,1.41-1.73v-.12c0-1.35-.64-1.7-1.46-1.7h0v3.55Z"/><path class="a" d="M151.48,20.75h-1.32V19h4.51v1.78h-1.32v8.94h-1.87Z"/><path class="a" d="M156.22,19h1.93c1.91,0,3.3,1,3.3,3.42v.13a3.34,3.34,0,0,1-1.25,2.82l1.44,4.35h-2L158.44,26h-.36v3.73h-1.86Zm2,5.3c.81,0,1.41-.47,1.41-1.73v-.12c0-1.35-.65-1.7-1.46-1.7h0v3.55Z"/><path class="a" d="M164.58,18.94h2l2,10.75h-1.87l-.35-2.13h-1.7l-.34,2.13h-1.81Zm1.53,6.94-.56-3.54L165,25.88Z"/><path class="a" d="M170,19h1.87V29.69H170Z"/><path class="a" d="M173.74,19h1.75l1.88,5.42V19h1.83V29.69h-1.66l-2-5.68v5.68h-1.82Z"/><path class="a" d="M181.1,19H183V29.69H181.1Z"/><path class="a" d="M184.86,19h1.75l1.88,5.42V19h1.83V29.69h-1.66l-2-5.68v5.68h-1.83Z"/><path class="a" d="M192,24.52v-.37c0-3.46,1.47-5.26,3.59-5.26a3.28,3.28,0,0,1,1.42.31v1.95a2.55,2.55,0,0,0-1.36-.46c-1.07,0-1.75,1.07-1.75,3.38v.52c0,2.81.83,3.45,1.6,3.45l.17,0V25.28h-.92V23.61h2.62v5.7a4.65,4.65,0,0,1-2,.46C193.55,29.77,192,28.25,192,24.52Z"/><path class="a" d="M199.22,27.56h2.11v2.13h-2.11Z"/></svg>