<svg xmlns="http://www.w3.org/2000/svg" xmlns:xlink="http://www.w3.org/1999/xlink" viewBox="0 0 140 23.69"><defs><style>.a{fill:none;}.b{clip-path:url(#a);}.c{fill:#ffc530;}.d{fill:#fff;}</style><clipPath id="a"><rect class="a" width="140" height="23.69"/></clipPath></defs><title>logo</title><g class="b"><rect class="c" x="26.35" y="18.15" width="1.22" height="5.54"/><polygon class="c" points="33.38 18.15 33.38 21.56 30.79 18.15 29.66 18.15 29.66 23.69 30.87 23.69 30.87 20.16 33.55 23.69 34.59 23.69 34.59 18.15 33.38 18.15"/><rect class="c" x="43.59" y="18.15" width="1.22" height="5.54"/><path class="c" d="M49.35,19.57l.74,1.8H48.61Zm-.55-1.46-2.37,5.58h1.24l.51-1.25h2.34L51,23.69H52.3l-2.37-5.58Z"/><polygon class="c" points="57.59 18.15 57.59 21.56 54.99 18.15 53.87 18.15 53.87 23.69 55.08 23.69 55.08 20.16 57.76 23.69 58.8 23.69 58.8 18.15 57.59 18.15"/><path class="c" d="M63.28,19.57l.74,1.8H62.55Zm-.54-1.46-2.38,5.58h1.25l.5-1.25h2.35l.5,1.25h1.28l-2.38-5.58Z"/><g class="b"><path class="c" d="M20.24,17.62H16.83V14.57h3.41Zm-4.33,5H12.78L4.38,11a.46.46,0,0,0-.51-.17.47.47,0,0,0-.32.44V22.65H.91v-17H3.86L13.4,18.32a.44.44,0,0,0,.5.16h2Zm-2.59-17h2.59v8.07H13.32Zm7.35,8.07H16.83V5.19a.46.46,0,0,0-.46-.45H13.32V2.4h1a.38.38,0,0,0,.3-.64L12.86,0,11,1.85a.34.34,0,0,0,.28.57h1.2V14.15a.42.42,0,0,0,.42.42h3v3.05h-2L12,14.87,4.45,4.92a.44.44,0,0,0-.36-.18H.46A.45.45,0,0,0,0,5.19V23.1a.46.46,0,0,0,.46.46H4a.46.46,0,0,0,.45-.46V12.7l7.72,10.67a.44.44,0,0,0,.36.19h3.83a.47.47,0,0,0,.46-.46V18.47h3.84a.42.42,0,0,0,.42-.42v-3.9a.42.42,0,0,0-.42-.43"/><polygon class="d" points="26.35 4.84 29.06 4.84 33.38 10.38 33.38 4.84 36.26 4.84 36.26 15.33 33.71 15.33 29.23 9.58 29.23 15.33 26.35 15.33 26.35 4.84"/><polygon class="d" points="48.66 11.24 45.97 7.22 49.05 7.22 50.25 9.22 51.45 7.22 54.46 7.22 51.79 11.22 54.52 15.33 51.46 15.33 50.2 13.25 48.93 15.33 45.93 15.33 48.66 11.24"/><path class="d" d="M55.79,12.81V9.52h-1V7.22h1v-2h2.85V7.22h1.89v2.3H58.64v2.74c0,.57.26.81.78.81a2.54,2.54,0,0,0,1.08-.27V15a4,4,0,0,1-2,.47c-1.71,0-2.73-.75-2.73-2.69"/><polygon class="d" points="62.26 15.33 62.26 4.84 64.57 4.84 64.57 13.23 69.8 13.23 69.8 15.33 62.26 15.33"/><path class="d" d="M74.73,9A1.79,1.79,0,0,0,73,10.69h3.44A1.73,1.73,0,0,0,74.73,9m3.89,3.13H73a1.87,1.87,0,0,0,2,1.57,2.66,2.66,0,0,0,2-.82L78.24,14a4.24,4.24,0,0,1-7.48-2.65v0a4,4,0,0,1,4-4.18c2.69,0,3.92,2.08,3.92,4.36v0c0,.22,0,.36,0,.57"/><polygon class="d" points="84.48 15.39 82.41 15.39 79.24 7.3 81.66 7.3 83.46 12.68 85.27 7.3 87.64 7.3 84.48 15.39"/><path class="d" d="M92.09,9a1.79,1.79,0,0,0-1.74,1.71h3.44A1.73,1.73,0,0,0,92.09,9M96,12.11h-5.6a1.87,1.87,0,0,0,2,1.57,2.66,2.66,0,0,0,2-.82L95.6,14a4.24,4.24,0,0,1-7.48-2.65v0a4,4,0,0,1,4-4.18c2.69,0,3.92,2.08,3.92,4.36v0c0,.22,0,.36,0,.57"/><rect class="d" x="97.81" y="4.39" width="2.28" height="10.95"/><path class="d" d="M104.19,13.9l1.89-1.79a2.15,2.15,0,0,0,1.66,1c.74,0,1.21-.5,1.21-1.49V4.89h2.93v6.74a4,4,0,0,1-1,3,4,4,0,0,1-2.92,1.08,4.31,4.31,0,0,1-3.73-1.8"/><path class="d" d="M119.32,11.44v0a1.78,1.78,0,0,0-1.74-1.85,1.72,1.72,0,0,0-1.72,1.82v0a1.78,1.78,0,0,0,1.75,1.86,1.73,1.73,0,0,0,1.71-1.83m-6.27,0v0a4.55,4.55,0,0,1,9.08,0v0a4.55,4.55,0,0,1-9.08,0"/><path class="d" d="M129.45,11.41v0a1.69,1.69,0,1,0-3.36,0v0a1.69,1.69,0,1,0,3.36,0m-3.3,3.1v1h-2.88V4.43h2.88v4a3,3,0,0,1,2.49-1.27c2,0,3.65,1.62,3.65,4.25v0c0,2.67-1.69,4.3-3.63,4.3a3.11,3.11,0,0,1-2.51-1.19"/><path class="d" d="M132.76,14.48l1.08-1.74a5.34,5.34,0,0,0,2.82.94c.5,0,.73-.16.73-.44v0c0-.32-.46-.46-1.32-.7-1.63-.43-2.92-1-2.92-2.63v0c0-1.75,1.4-2.72,3.3-2.72a6.38,6.38,0,0,1,3.38,1l-1,1.82a5.58,5.58,0,0,0-2.43-.76c-.44,0-.67.17-.67.4v0c0,.32.47.47,1.33.73,1.63.45,2.92,1,2.92,2.61v0c0,1.8-1.35,2.75-3.36,2.75a6.62,6.62,0,0,1-3.88-1.22"/><path class="d" d="M43.07,10.42C43,9.52,42.44,9,41.66,9s-1.26.58-1.41,1.47Zm-5.52.7v0a4.07,4.07,0,0,1,4.09-4.24c2.81,0,4.1,2.05,4.1,4.44,0,.17,0,.38,0,.58H40.29a1.68,1.68,0,0,0,1.76,1.33,2.46,2.46,0,0,0,1.8-.82l1.57,1.3a4.24,4.24,0,0,1-3.52,1.65,4.08,4.08,0,0,1-4.35-4.21"/><path class="c" d="M40.46,20.92a1.59,1.59,0,0,0-1.67-1.67h-.94v3.34h.94a1.57,1.57,0,0,0,1.67-1.65Zm-1.67,2.77H36.63V18.15h2.16a2.77,2.77,0,0,1,3,2.76h0a2.78,2.78,0,0,1-3,2.77"/></g></g></svg>