<svg xmlns="http://www.w3.org/2000/svg" viewBox="0 0 73.89 22.9"><defs><style>.a{fill:#fff;}.b{fill:#09436b;}</style></defs><title>button</title><rect class="a" width="73.89" height="22.9"/><path class="b" d="M11.81,8H13v5.84h1.29V15H11.81Z"/><path class="b" d="M16.41,8h2.68V9.11H17.63v1.74h1.29V12H17.63v1.78h1.49V15H16.41Z"/><path class="b" d="M22.29,7.93h1.3l1.33,7H23.7l-.23-1.39H22.36L22.14,15H21Zm1,4.53-.37-2.31-.38,2.31Z"/><path class="b" d="M26.89,8h1.26a2,2,0,0,1,2.16,2.23v.09a2.18,2.18,0,0,1-.82,1.84L30.43,15h-1.3l-.79-2.44h-.23V15H26.89Zm1.28,3.46c.53,0,.92-.31.92-1.13V10.2c0-.88-.42-1.11-.95-1.11h0v2.32Z"/><path class="b" d="M32.47,8h1.14l1.23,3.54V8H36v7H35l-1.29-3.71V15H32.47Z"/><path class="b" d="M41.54,8h1.21l.86,2.56L44.47,8h1.21v7H44.51V10.72l-.89,2.65h0l-.89-2.65V15H41.54Z"/><path class="b" d="M47.88,11.63v-.36c0-2.31.75-3.42,1.86-3.42S51.6,9,51.6,11.27v.36c0,2.31-.75,3.42-1.86,3.42S47.88,13.94,47.88,11.63Zm2.48,0v-.36c0-1.8-.25-2.3-.62-2.3s-.62.5-.62,2.3v.36c0,1.8.25,2.3.62,2.3S50.36,13.43,50.36,11.63Z"/><path class="b" d="M53.8,8h1.26a2,2,0,0,1,2.16,2.23v.09a2.18,2.18,0,0,1-.82,1.84L57.34,15H56l-.79-2.44H55V15H53.8Zm1.28,3.46c.53,0,.92-.31.92-1.13V10.2c0-.88-.42-1.11-1-1.11h0v2.32Z"/><path class="b" d="M59.38,8h2.68V9.11H60.6v1.74h1.29V12H60.6v1.78h1.49V15H59.38Z"/></svg>