<svg xmlns="http://www.w3.org/2000/svg" viewBox="0 0 176.08 70.88"><defs><style>.a{fill:#ffc530;}.b{fill:#09436b;}</style></defs><title>copy_four</title><rect class="a" width="176.08" height="70.88"/><path class="b" d="M13.91,18.6v-.36c0-3.39,1.44-5.15,3.51-5.15a3.22,3.22,0,0,1,1.4.3V15.3a2.56,2.56,0,0,0-1.34-.45c-1.05,0-1.71,1.05-1.71,3.31v.51c0,2.75.81,3.38,1.56,3.38l.17,0V19.35h-.9V17.71h2.56v5.58a4.42,4.42,0,0,1-1.9.45C15.43,23.74,13.91,22.26,13.91,18.6Z"/><path class="b" d="M21.07,13.17h4v1.74H22.9v2.61h1.93v1.74H22.9v2.67h2.24v1.74H21.07Z"/><path class="b" d="M27.89,14.91H26.6V13.17H31v1.74H29.72v8.76H27.89Z"/><path class="b" d="M36,13.17h3.83v1.74h-2v2.64h1.74v1.74H37.79v4.38H36Z"/><path class="b" d="M41.52,13.17H43.4c1.88,0,3.24,1,3.24,3.34v.14a3.29,3.29,0,0,1-1.23,2.76l1.41,4.26h-2L43.69,20h-.34v3.66H41.52Zm1.91,5.19c.8,0,1.38-.47,1.38-1.7v-.12c0-1.32-.63-1.66-1.42-1.66h0v3.48Z"/><path class="b" d="M48.39,13.17h4v1.74H50.22v2.61h1.93v1.74H50.22v2.67h2.23v1.74H48.39Z"/><path class="b" d="M54.23,13.17h4v1.74H56.06v2.61H58v1.74H56.06v2.67H58.3v1.74H54.23Z"/><path class="b" d="M64.34,14.91H63.05V13.17h4.41v1.74H66.17v8.76H64.34Z"/><path class="b" d="M69.13,13.17H71c1.87,0,3.24,1,3.24,3.34v.14A3.29,3.29,0,0,1,73,19.41l1.41,4.26h-2L71.3,20H71v3.66H69.13Zm1.92,5.19c.79,0,1.38-.47,1.38-1.7v-.12c0-1.32-.63-1.66-1.43-1.66h0v3.48Z"/><path class="b" d="M77.47,13.14h2l2,10.53H79.58l-.34-2.09H77.57l-.33,2.09H75.47ZM79,19.93l-.56-3.46-.57,3.46Z"/><path class="b" d="M82.9,13.17h1.83v10.5H82.9Z"/><path class="b" d="M86.74,13.17h1.71l1.84,5.31V13.17h1.79v10.5H90.46L88.52,18.1v5.57H86.74Z"/><path class="b" d="M94.09,13.17h1.83v10.5H94.09Z"/><path class="b" d="M97.93,13.17h1.71l1.84,5.31V13.17h1.79v10.5h-1.62L99.71,18.1v5.57H97.93Z"/><path class="b" d="M105.07,18.6v-.36c0-3.39,1.44-5.15,3.51-5.15a3.17,3.17,0,0,1,1.39.3V15.3a2.52,2.52,0,0,0-1.33-.45c-1,0-1.71,1.05-1.71,3.31v.51c0,2.75.81,3.38,1.56,3.38l.16,0V19.35h-.9V17.71h2.57v5.58a4.42,4.42,0,0,1-1.91.45C106.58,23.74,105.07,22.26,105.07,18.6Z"/><path class="b" d="M116.48,14.91h-1.29V13.17h4.41v1.74h-1.29v8.76h-1.83Z"/><path class="b" d="M121.27,13.17h1.83v4.35h1.59V13.17h1.83v10.5h-1.83V19.26H123.1v4.41h-1.83Z"/><path class="b" d="M128.5,13.17h1.89c1.87,0,3.24,1,3.24,3.34v.14a3.29,3.29,0,0,1-1.23,2.76l1.41,4.26h-1.95L130.67,20h-.34v3.66H128.5Zm1.92,5.19c.79,0,1.38-.47,1.38-1.7v-.12c0-1.32-.63-1.66-1.43-1.66h0v3.48Z"/><path class="b" d="M135.19,18.69v-.54c0-3.47,1.12-5.13,2.79-5.13s2.79,1.66,2.79,5.13v.54c0,3.46-1.13,5.13-2.79,5.13S135.19,22.15,135.19,18.69Zm3.72,0v-.54c0-2.7-.38-3.45-.93-3.45s-.93.75-.93,3.45v.54c0,2.7.37,3.45.93,3.45S138.91,21.39,138.91,18.69Z"/><path class="b" d="M142.54,20.61V13.17h1.81v7.62c0,.94.33,1.32.8,1.32s.79-.38.79-1.32V13.17h1.82v7.44c0,2.2-1.11,3.19-2.61,3.19S142.54,22.81,142.54,20.61Z"/><path class="b" d="M149.53,18.6v-.36c0-3.39,1.44-5.15,3.51-5.15a3.17,3.17,0,0,1,1.39.3V15.3a2.52,2.52,0,0,0-1.33-.45c-1,0-1.71,1.05-1.71,3.31v.51c0,2.75.81,3.38,1.56,3.38l.16,0V19.35h-.9V17.71h2.57v5.58a4.42,4.42,0,0,1-1.91.45C151,23.74,149.53,22.26,149.53,18.6Z"/><path class="b" d="M156.68,13.17h1.83v4.35h1.59V13.17h1.83v10.5H160.1V19.26h-1.59v4.41h-1.83Z"/><path class="b" d="M14.12,30.17H16v10.5H14.12Z"/><path class="b" d="M18,30.17h1.71l1.85,5.31V30.17H23.3v10.5H21.68L19.75,35.1v5.57H18Z"/><path class="b" d="M25.28,30.17H27c2.34,0,3.68,1.69,3.68,5.07v.36c0,3.37-1.34,5.07-3.68,5.07H25.28ZM27.19,39c.87,0,1.62-.77,1.62-3.39v-.36c0-2.63-.75-3.39-1.62-3.39h-.08V39Z"/><path class="b" d="M32.5,30.17h1.83v10.5H32.5Z"/><path class="b" d="M37.81,30.14h1.95l2,10.53H39.92l-.34-2.09H37.91l-.33,2.09H35.81Zm1.5,6.79-.56-3.46-.57,3.46Z"/><path class="b" d="M43.21,30.17h1.71l1.84,5.31V30.17h1.79v10.5H46.93L45,35.1v5.57H43.21Z"/><path class="b" d="M52,30.14h2l2,10.53H54.11l-.34-2.09H52.1l-.33,2.09H50Zm1.5,6.79-.56-3.46-.57,3.46Z"/><path class="b" d="M56.86,34a1.46,1.46,0,0,0,1.26-1.7h-.93V30.17h2.07v1.71A2.5,2.5,0,0,1,57,34.68Z"/><path class="b" d="M61.07,40.31V38.4a3.38,3.38,0,0,0,1.65.59.87.87,0,0,0,1-.9v0c0-.48-.15-.84-1-1.83-1.25-1.41-1.76-2.09-1.76-3.36v0a2.54,2.54,0,0,1,2.55-2.75,3.34,3.34,0,0,1,1.62.33v1.91a2.58,2.58,0,0,0-1.39-.48.89.89,0,0,0-1,.9v0c0,.49.15.67,1,1.68,1.44,1.66,1.76,2.31,1.76,3.51v0a2.59,2.59,0,0,1-2.6,2.74A4.29,4.29,0,0,1,61.07,40.31Z"/><path class="b" d="M70.36,30.17h1.71l1.84,5.31V30.17H75.7v10.5H74.08L72.14,35.1v5.57H70.36Z"/><path class="b" d="M77.68,30.17h4v1.74H79.51v2.61h1.93v1.74H79.51v2.67h2.23v1.74H77.68Z"/><path class="b" d="M84.82,35.31l-1.65-5.14h2l.82,3,.84-3h1.91L87,35.31l1.71,5.36h-2l-.89-3.2-.9,3.2h-1.9Z"/><path class="b" d="M91.2,31.91H89.91V30.17h4.41v1.74H93v8.76H91.2Z"/><path class="b" d="M99.27,30.17h1.83v8.76H103v1.74H99.27Z"/><path class="b" d="M104.67,30.17h4v1.74H106.5v2.61h1.94v1.74H106.5v2.67h2.24v1.74h-4.07Z"/><path class="b" d="M110,30.17h1.86l1,6.84,1-6.84h1.8L113.76,40.7h-1.89Z"/><path class="b" d="M117.09,30.17h4v1.74h-2.19v2.61h1.94v1.74h-1.94v2.67h2.24v1.74h-4.07Z"/><path class="b" d="M122.94,30.17h1.83v8.76h1.94v1.74h-3.77Z"/><path class="b" d="M131.33,40.61V38.79a2.37,2.37,0,0,0,.87.18c.58,0,.94-.31.94-1.08V30.17H135V38c0,1.86-1,2.73-2.52,2.73A5.18,5.18,0,0,1,131.33,40.61Z"/><path class="b" d="M136.77,35.69v-.54c0-3.47,1.13-5.13,2.79-5.13s2.79,1.66,2.79,5.13v.54c0,3.46-1.12,5.13-2.79,5.13S136.77,39.15,136.77,35.69Zm3.72,0v-.54c0-2.7-.37-3.45-.93-3.45s-.93.75-.93,3.45v.54c0,2.7.38,3.45.93,3.45S140.49,38.39,140.49,35.69Z"/><path class="b" d="M144.15,30.17h1.59c1.77,0,3.42.72,3.42,2.67v.07a2.45,2.45,0,0,1-1.51,2.37,2.4,2.4,0,0,1,1.65,2.34v.14c0,1.86-1.44,2.91-3.48,2.91h-1.67ZM146,34.58a1.25,1.25,0,0,0,1.35-1.38v0A1.19,1.19,0,0,0,146,31.86h0v2.72ZM146,39a1.31,1.31,0,0,0,1.44-1.36v-.08A1.31,1.31,0,0,0,146,36.17H146V39Z"/><path class="b" d="M150.74,40.31V38.4a3.31,3.31,0,0,0,1.65.59.86.86,0,0,0,1-.9v0c0-.48-.15-.84-1-1.83-1.24-1.41-1.75-2.09-1.75-3.36v0a2.53,2.53,0,0,1,2.55-2.75,3.37,3.37,0,0,1,1.62.33v1.91a2.61,2.61,0,0,0-1.4-.48.88.88,0,0,0-.94.9v0c0,.49.15.67,1,1.68,1.44,1.66,1.75,2.31,1.75,3.51v0a2.58,2.58,0,0,1-2.59,2.74A4.25,4.25,0,0,1,150.74,40.31Z"/><path class="b" d="M14.1,47.17h1.63c2,0,3.39,1.08,3.39,3.54v0c0,2.37-1.32,3.49-3.18,3.63h0v3.3H14.1Zm1.84,5.5c.76,0,1.35-.6,1.35-1.87v0c0-1.34-.51-1.91-1.31-1.91h-.05v3.81Z"/><path class="b" d="M20.77,47.17h1.89c1.87,0,3.24,1,3.24,3.34v.14a3.29,3.29,0,0,1-1.23,2.76l1.41,4.26H24.13L22.94,54H22.6v3.66H20.77Zm1.92,5.19c.79,0,1.38-.47,1.38-1.7v-.12c0-1.32-.63-1.66-1.43-1.66h0v3.48Z"/><path class="b" d="M27.46,52.69v-.54c0-3.47,1.12-5.13,2.79-5.13S33,48.68,33,52.15v.54c0,3.46-1.13,5.13-2.79,5.13S27.46,56.15,27.46,52.69Zm3.72,0v-.54c0-2.7-.38-3.45-.93-3.45s-.93.75-.93,3.45v.54c0,2.7.37,3.45.93,3.45S31.18,55.39,31.18,52.69Z"/><path class="b" d="M34.66,52.6v-.36c0-3.39,1.44-5.15,3.51-5.15a3.17,3.17,0,0,1,1.39.3V49.3a2.52,2.52,0,0,0-1.33-.45c-1,0-1.71,1-1.71,3.31v.51c0,2.75.81,3.38,1.56,3.38l.16,0V53.35h-.9V51.71h2.57v5.58a4.42,4.42,0,0,1-1.91.45C36.17,57.74,34.66,56.26,34.66,52.6Z"/><path class="b" d="M41.81,47.17H43.7c1.88,0,3.24,1,3.24,3.34v.14a3.29,3.29,0,0,1-1.23,2.76l1.41,4.26H45.17L44,54h-.35v3.66H41.81Zm1.92,5.19c.8,0,1.38-.47,1.38-1.7v-.12c0-1.32-.63-1.66-1.42-1.66h0v3.48Z"/><path class="b" d="M50.15,47.14h2l2,10.53H52.27l-.35-2.09H50.26l-.33,2.09H48.16Zm1.5,6.79-.55-3.46-.57,3.46Z"/><path class="b" d="M55.55,47.17h1.82L58.66,51,60,47.17h1.81v10.5H60V51.32l-1.34,4h0l-1.33-4v6.35H55.55Z"/><path class="b" d="M63.58,55.58h2.07v2.09H63.58Z"/></svg>