<svg xmlns="http://www.w3.org/2000/svg" viewBox="0 0 135.92 40.28"><defs><style>.a{fill:#09436b;}.b{fill:#fff;}</style></defs><title>copy_one 2</title><rect class="a" width="135.92" height="40.28"/><path class="b" d="M19.17,21.9l-5.33-8.76h4.43l2.88,5.1,2.9-5.1h4.34l-5.32,8.7v5.3h-3.9Z"/><path class="b" d="M28.8,20.18v0a7.33,7.33,0,0,1,7.56-7.28,7.27,7.27,0,0,1,7.52,7.24v0a7.33,7.33,0,0,1-7.56,7.28A7.27,7.27,0,0,1,28.8,20.18Zm11.12,0v0a3.64,3.64,0,0,0-3.6-3.78,3.57,3.57,0,0,0-3.54,3.74v0a3.63,3.63,0,0,0,3.58,3.78A3.57,3.57,0,0,0,39.92,20.18Z"/><path class="b" d="M46.72,21V13.14h3.94v7.78c0,2,1,3,2.58,3S55.82,23,55.82,21V13.14h3.94V20.9c0,4.52-2.58,6.5-6.56,6.5S46.72,25.38,46.72,21Z"/><path class="b" d="M69.12,20.18v0a7.19,7.19,0,0,1,7.38-7.28,6.85,6.85,0,0,1,5.94,2.92L79.52,18a3.75,3.75,0,0,0-3.06-1.64,3.46,3.46,0,0,0-3.34,3.7v0a3.46,3.46,0,0,0,3.34,3.74,3.82,3.82,0,0,0,3.16-1.7l2.92,2.08a7.37,7.37,0,0,1-13.42-4.08Z"/><path class="b" d="M89.92,13h3.74l6,14.1H95.46l-1-2.5H89l-1,2.5H84Zm3.4,8.58-1.56-4-1.58,4Z"/><path class="b" d="M102,13.14h3.62l5.76,7.4v-7.4h3.84v14h-3.4l-6-7.68v7.68H102Z"/><path class="b" d="M118.3,23.24h4v3.9h-4Z"/></svg>