<svg xmlns="http://www.w3.org/2000/svg" viewBox="0 0 205.29 35.03"><defs><style>.a{fill:#ffc530;}.b{fill:#09436b;}</style></defs><title>copy_two</title><rect class="a" width="205.29" height="35.03"/><path class="b" d="M13.87,20.4l1.27-1.52a4.31,4.31,0,0,0,2.68,1c.61,0,.94-.22.94-.57v0c0-.34-.27-.53-1.39-.79-1.76-.4-3.11-.9-3.11-2.6v0c0-1.53,1.21-2.64,3.19-2.64a5.2,5.2,0,0,1,3.4,1.1L19.7,15.94a4.1,4.1,0,0,0-2.31-.81c-.55,0-.82.23-.82.53v0c0,.38.28.54,1.43.8,1.89.42,3.07,1,3.07,2.57v0c0,1.68-1.33,2.68-3.33,2.68A5.75,5.75,0,0,1,13.87,20.4Z"/><path class="b" d="M22.49,17.52v0a4.31,4.31,0,0,1,4.45-4.29,4.27,4.27,0,0,1,4.43,4.26v0a4.32,4.32,0,0,1-4.45,4.29A4.28,4.28,0,0,1,22.49,17.52Zm6.55,0v0a2.15,2.15,0,0,0-2.12-2.23,2.1,2.1,0,0,0-2.09,2.2v0a2.14,2.14,0,0,0,2.11,2.23A2.11,2.11,0,0,0,29,17.52Z"/><path class="b" d="M36.45,13.37h2.42l1.44,4.78,1.59-4.8h2l1.59,4.8,1.43-4.78h2.37l-2.75,8.31h-2l-1.66-4.75L41.2,21.68h-2Z"/><path class="b" d="M50.76,13.37h2.29v3.09H56V13.37h2.29v8.25H56V18.49H53.05v3.13H50.76Z"/><path class="b" d="M62.7,18.54l-3.14-5.17h2.61l1.69,3,1.71-3h2.56L65,18.5v3.12H62.7Z"/><path class="b" d="M73,17.52v0a4.23,4.23,0,0,1,4.35-4.29,4,4,0,0,1,3.5,1.72l-1.72,1.33a2.23,2.23,0,0,0-1.81-1,2,2,0,0,0-2,2.18v0a2,2,0,0,0,2,2.2,2.28,2.28,0,0,0,1.87-1l1.72,1.23A4.35,4.35,0,0,1,73,17.52Z"/><path class="b" d="M85.25,13.31h2.21L91,21.62H88.52l-.6-1.47H84.73l-.58,1.47H81.74Zm2,5.06L86.34,16l-.93,2.35Z"/><path class="b" d="M92.36,13.37h2.13l3.4,4.36V13.37h2.26v8.25h-2L94.62,17.1v4.52H92.36Z"/><path class="b" d="M101.74,16.78c.79-.08,1.21-.47,1.18-1.11H102v-2.3h2.33v1.88c0,1.74-.95,2.34-2.42,2.39Z"/><path class="b" d="M108.15,15.38h-2.47v-2h7.23v2h-2.47v6.24h-2.29Z"/><path class="b" d="M118.4,13.37h2.3v8.25h-2.3Z"/><path class="b" d="M126.37,17.52v0a4.28,4.28,0,0,1,4.44-4.29,4.82,4.82,0,0,1,3.35,1.2L132.82,16a2.93,2.93,0,0,0-2-.77,2.17,2.17,0,0,0-2.11,2.26v0A2.18,2.18,0,0,0,131,19.82a2.39,2.39,0,0,0,1.32-.34v-1h-1.63V16.8h3.8v3.72a5.66,5.66,0,0,1-3.59,1.27A4.24,4.24,0,0,1,126.37,17.52Z"/><path class="b" d="M136.31,13.37h6.63v2h-4.37v1.25h4v1.8h-4v1.31H143v1.94h-6.69Z"/><path class="b" d="M146.77,15.38H144.3v-2h7.23v2h-2.47v6.24h-2.29Z"/><path class="b" d="M156.69,17.52v0a4.32,4.32,0,0,1,4.46-4.29,4.27,4.27,0,0,1,4.43,4.26v0a4.45,4.45,0,0,1-8.89,0Zm6.56,0v0a2.15,2.15,0,0,0-2.12-2.23,2.1,2.1,0,0,0-2.09,2.2v0a2.14,2.14,0,0,0,2.11,2.23A2.11,2.11,0,0,0,163.25,17.52Z"/><path class="b" d="M167.36,13.37h2.13l3.4,4.36V13.37h2.26v8.25h-2l-3.53-4.52v4.52h-2.26Z"/><path class="b" d="M177.2,13.37h6.64v2h-4.38v1.25h4v1.8h-4v1.31h4.44v1.94h-6.7Z"/><path class="b" d="M186.88,17l.09-.11c1.37-.12,1.85-.43,1.85-.94h0c0-.4-.32-.65-.88-.65a2.66,2.66,0,0,0-1.72.78L185,14.48a4.15,4.15,0,0,1,3.05-1.24c1.73,0,2.95.95,2.95,2.48v0c0,1.49-1,2.12-2.3,2.44l-.14.76h-1.43Zm-.19,2.65H189v2h-2.32Z"/></svg>