<svg xmlns="http://www.w3.org/2000/svg" viewBox="0 0 149.72 10.42"><defs><style>.a{fill:#fff;}</style></defs><title>Artboard 3</title><path class="a" d="M1.82,5H0V3.79H5V5H3.22v5.13H1.82Z"/><path class="a" d="M6.74,3.79h1.4V6.17h2.73V3.79h1.41v6.37H10.87V7.41H8.14v2.75H6.74Z"/><path class="a" d="M14.22,7a3.66,3.66,0,0,1,.26-1.39,3.24,3.24,0,0,1,.71-1.06,3.27,3.27,0,0,1,1.09-.67,4.08,4.08,0,0,1,1.38-.23A4,4,0,0,1,19,3.86a3.17,3.17,0,0,1,1.09.67,3.11,3.11,0,0,1,.72,1.06A3.66,3.66,0,0,1,21.1,7a3.57,3.57,0,0,1-.26,1.38,2.93,2.93,0,0,1-.72,1.06,3,3,0,0,1-1.09.67,3.79,3.79,0,0,1-1.37.24,3.85,3.85,0,0,1-1.38-.24,3.12,3.12,0,0,1-1.09-.67,3,3,0,0,1-.71-1.06A3.57,3.57,0,0,1,14.22,7Zm1.46,0a2.17,2.17,0,0,0,.14.82,1.73,1.73,0,0,0,.4.65,1.82,1.82,0,0,0,.62.43,2.18,2.18,0,0,0,.82.15,2.09,2.09,0,0,0,.81-.15,2,2,0,0,0,.63-.43,2,2,0,0,0,.4-.65,2.47,2.47,0,0,0,0-1.64,2,2,0,0,0-.4-.65,1.81,1.81,0,0,0-.63-.43,2.09,2.09,0,0,0-.81-.15,2.18,2.18,0,0,0-.82.15,1.69,1.69,0,0,0-.62.43,1.73,1.73,0,0,0-.4.65A2.17,2.17,0,0,0,15.68,7Z"/><path class="a" d="M28.41,7.71a3,3,0,0,1-.17,1,2.22,2.22,0,0,1-.51.83,2.27,2.27,0,0,1-.84.55,3.16,3.16,0,0,1-1.16.2,3.26,3.26,0,0,1-1.17-.2,2.27,2.27,0,0,1-.84-.55,2.22,2.22,0,0,1-.51-.83,3.19,3.19,0,0,1-.17-1V3.79h1.4V7.65a1.63,1.63,0,0,0,.1.55,1.28,1.28,0,0,0,.26.44,1.33,1.33,0,0,0,.41.29,1.27,1.27,0,0,0,.52.1,1.19,1.19,0,0,0,.51-.1,1.33,1.33,0,0,0,.41-.29,1.28,1.28,0,0,0,.26-.44,1.42,1.42,0,0,0,.1-.55V3.79h1.4Z"/><path class="a" d="M37.49,5.35A1,1,0,0,0,37,5a1.6,1.6,0,0,0-.55-.1,1.73,1.73,0,0,0-.32,0,1.33,1.33,0,0,0-.3.11.7.7,0,0,0-.24.21.55.55,0,0,0,.13.74,1.94,1.94,0,0,0,.54.27L37,6.5a2.64,2.64,0,0,1,.71.31,1.71,1.71,0,0,1,.54.53,1.65,1.65,0,0,1,.22.89,2.12,2.12,0,0,1-.2.93,1.8,1.8,0,0,1-.54.65,2,2,0,0,1-.78.39,3.62,3.62,0,0,1-.94.13,3.51,3.51,0,0,1-1.15-.19,2.86,2.86,0,0,1-1-.61l1-1.1a1.37,1.37,0,0,0,.54.44,1.51,1.51,0,0,0,.68.16,1.45,1.45,0,0,0,.35,0,1.43,1.43,0,0,0,.31-.12A.77.77,0,0,0,37,8.66a.56.56,0,0,0,.08-.3.52.52,0,0,0-.22-.45,1.89,1.89,0,0,0-.55-.28l-.72-.24a3.33,3.33,0,0,1-.72-.31,1.77,1.77,0,0,1-.56-.53,1.53,1.53,0,0,1-.22-.85,1.92,1.92,0,0,1,.75-1.55,2.43,2.43,0,0,1,.77-.39,3.13,3.13,0,0,1,.91-.13,3.7,3.7,0,0,1,1,.15,2.45,2.45,0,0,1,.91.52Z"/><path class="a" d="M40.5,3.79h1.4V6.17h2.73V3.79H46v6.37h-1.4V7.41H41.9v2.75H40.5Z"/><path class="a" d="M50.42,3.79h1.16l2.77,6.37H52.77l-.55-1.35H49.74l-.53,1.35H47.66ZM51,5.65l-.78,2h1.56Z"/><path class="a" d="M56,3.79h1.41V8.87H60v1.29H56Z"/><path class="a" d="M62.2,5H60.38V3.79h5V5H63.6v5.13H62.2Z"/><path class="a" d="M70.77,3.79h1.91l2.71,4.43h0V3.79h1.4v6.37H75L72.2,5.63h0v4.53H70.77Z"/><path class="a" d="M78.76,7A3.66,3.66,0,0,1,79,5.59a3.26,3.26,0,0,1,.72-1.06,3.27,3.27,0,0,1,1.09-.67,4.23,4.23,0,0,1,2.75,0,3.17,3.17,0,0,1,1.09.67,3.11,3.11,0,0,1,.72,1.06A3.66,3.66,0,0,1,85.63,7a3.57,3.57,0,0,1-.25,1.38,2.93,2.93,0,0,1-.72,1.06,3,3,0,0,1-1.09.67,4.06,4.06,0,0,1-2.75,0,3.12,3.12,0,0,1-1.09-.67A3.06,3.06,0,0,1,79,8.36,3.57,3.57,0,0,1,78.76,7Zm1.46,0a2.17,2.17,0,0,0,.14.82,1.73,1.73,0,0,0,.4.65,1.82,1.82,0,0,0,.62.43A2.14,2.14,0,0,0,82.2,9,2.09,2.09,0,0,0,83,8.88a2,2,0,0,0,.63-.43A2,2,0,0,0,84,7.8a2.47,2.47,0,0,0,0-1.64,2,2,0,0,0-.4-.65A1.81,1.81,0,0,0,83,5.08a2.09,2.09,0,0,0-.81-.15,2.14,2.14,0,0,0-.82.15,1.69,1.69,0,0,0-.62.43,1.73,1.73,0,0,0-.4.65A2.17,2.17,0,0,0,80.22,7Z"/><path class="a" d="M88.81,5H87V3.79h5V5H90.21v5.13h-1.4Z"/><path class="a" d="M99.15.25h3.31l1.37,6.47h0l3.2-6.47h3.29L109,10.16h-2.19l1.07-7.6h0l-3.67,7.6h-1.67L101,2.56h0L100,10.16H97.77Z"/><path class="a" d="M117.17.25H119l2.92,9.91h-2.46l-.56-2.1H115l-1.12,2.1H111.5Zm.43,2.89L116,6.22h2.42Z"/><path class="a" d="M126.42,5.94,123.5.25h2.71L127.8,4,130.54.25h2.59l-4.52,5.69L128,10.16h-2.18Z"/><path class="a" d="M134.15,5.21a6.18,6.18,0,0,1,.71-2.16,6,6,0,0,1,1.34-1.64,5.87,5.87,0,0,1,1.84-1,6.68,6.68,0,0,1,2.2-.36,5.73,5.73,0,0,1,2.09.36,4.1,4.1,0,0,1,1.54,1,4,4,0,0,1,.88,1.64,5.31,5.31,0,0,1,.1,2.16,6.25,6.25,0,0,1-.7,2.15A5.75,5.75,0,0,1,142.8,9a5.85,5.85,0,0,1-1.84,1,6.54,6.54,0,0,1-2.19.37,5.76,5.76,0,0,1-2.09-.37,4,4,0,0,1-1.55-1,4,4,0,0,1-.88-1.65A5.25,5.25,0,0,1,134.15,5.21Zm2.27,0a3.4,3.4,0,0,0,0,1.28,2.63,2.63,0,0,0,.48,1,2.35,2.35,0,0,0,.88.66,2.93,2.93,0,0,0,1.23.24,3.46,3.46,0,0,0,1.3-.24,3.55,3.55,0,0,0,1.07-.66,3.63,3.63,0,0,0,.76-1,4.16,4.16,0,0,0,.4-1.28,3.63,3.63,0,0,0,0-1.28,2.31,2.31,0,0,0-.48-1,2.35,2.35,0,0,0-.88-.67A3.17,3.17,0,0,0,140,2a3.66,3.66,0,0,0-1.3.23,3.28,3.28,0,0,0-1.07.67,3.49,3.49,0,0,0-.76,1A4,4,0,0,0,136.42,5.21Z"/><path class="a" d="M147.13,9a1.74,1.74,0,0,1,.17-.5,1.7,1.7,0,0,1,.33-.42,1.68,1.68,0,0,1,.45-.27,1.55,1.55,0,0,1,.52-.1,1.07,1.07,0,0,1,.85.38,1.13,1.13,0,0,1,.26.91,1.43,1.43,0,0,1-.18.5,1.53,1.53,0,0,1-.34.42,1.79,1.79,0,0,1-.44.27,1.54,1.54,0,0,1-.51.1,1.26,1.26,0,0,1-.49-.1,1,1,0,0,1-.59-.69A1,1,0,0,1,147.13,9Z"/></svg>