<svg xmlns="http://www.w3.org/2000/svg" viewBox="0 0 101.76 13.02"><defs><style>.a{fill:#fff;}</style></defs><title>pastrami</title><path class="a" d="M4.81,12.6H0V0H7.14c3,0,5.44,2.07,5.44,4.6S10.15,9.23,7.14,9.23H4.81ZM5.88,3.37H4.81V5.92H5.88c1.14,0,1.68-.63,1.68-1.3S7,3.37,5.88,3.37Z"/><path class="a" d="M25.07,12.49c-1.58,0-2.58.51-4.11.51-3.38,0-6.14-2-6.14-4.38S17.58,4.23,21,4.23c1.53,0,2.53.5,4.11.5a2,2,0,0,0,1.43-.5V13A2.36,2.36,0,0,0,25.07,12.49ZM21.5,7.36c-1.07,0-1.8.56-1.8,1.26s.73,1.26,1.8,1.26a2.58,2.58,0,0,0,.6-.07V7.46A2.29,2.29,0,0,0,21.5,7.36Z"/><path class="a" d="M33.78,12.36v-.67c.75,0,1.07-.54.39-1.17l-.83-.71L31.62,12.6H27.91L33.3,3.91l5,4.2A2.77,2.77,0,0,1,38.66,12C37.82,12.92,36.33,13.56,33.78,12.36Z"/><path class="a" d="M47.09,9.83h1V12.6H44.91a2.78,2.78,0,0,1-2.77-2.77V7.73H40.77V4.62h1.37V0h4.4v4.6h2.15V7.73H46.54V9.28A.55.55,0,0,0,47.09,9.83Z"/><path class="a" d="M55.42,12.6H51V4.23a2.7,2.7,0,0,0,2.09,1c2.33,0,2.86-1,5-1a2.31,2.31,0,0,1,2.33,2.09,2.11,2.11,0,0,1-3.93,1.06.62.62,0,0,0-.19,0,1.27,1.27,0,0,0-.93.44Z"/><path class="a" d="M72.42,12.49c-1.58,0-2.59.51-4.12.51-3.38,0-6.13-2-6.13-4.38s2.75-4.39,6.13-4.39c1.53,0,2.54.5,4.12.5a2.05,2.05,0,0,0,1.43-.5V13A2.38,2.38,0,0,0,72.42,12.49ZM68.85,7.36c-1.07,0-1.8.56-1.8,1.26s.73,1.26,1.8,1.26a2.48,2.48,0,0,0,.59-.07V7.46A2.2,2.2,0,0,0,68.85,7.36Z"/><path class="a" d="M83,8.82c-.22,0-.34.22-.43.38L81,12.6H77.16v-8h4.42v2.6l.12-.28a3.86,3.86,0,0,1,3.57-2.72A2.54,2.54,0,0,1,87.8,6.78v.44l.12-.28a3.91,3.91,0,0,1,3.59-2.72A2.54,2.54,0,0,1,94,6.78V12.6H89.66V9.21a.38.38,0,0,0-.4-.39c-.22,0-.35.22-.42.38l-1.63,3.4H83.42V9.21A.37.37,0,0,0,83,8.82Z"/><path class="a" d="M99.53,5.35a3.81,3.81,0,0,0,2.23-.73v8H97.34v-8A3.56,3.56,0,0,0,99.53,5.35Zm0-2a1.68,1.68,0,1,1,1.7-1.68A1.67,1.67,0,0,1,99.53,3.35Z"/></svg>