<svg xmlns="http://www.w3.org/2000/svg" viewBox="0 0 106.18 10.25"><defs><style>.a{fill:#fff;}</style></defs><title>Artboard 3</title><path class="a" d="M6.12,6.81a3,3,0,0,0,2.11-1l2,1.73a5.54,5.54,0,0,1-4.86,2.68A5.25,5.25,0,0,1,0,5.1,5.25,5.25,0,0,1,5.38,0a5.46,5.46,0,0,1,4.86,2.67l-2,1.71a3.12,3.12,0,0,0-2.11-1,1.85,1.85,0,0,0-2,1.71A1.84,1.84,0,0,0,6.12,6.81Z"/><path class="a" d="M16.42,10.25c-2.59,0-4.69-1.51-4.69-3.36s2.1-3.35,4.69-3.35S21.11,5,21.11,6.89,19,10.25,16.42,10.25Zm0-4.32a1,1,0,1,0,1,1A1,1,0,0,0,16.42,5.93Z"/><path class="a" d="M26.69,9.93H23.31V3.54a2.08,2.08,0,0,0,1.6.75c1.78,0,2.18-.75,3.86-.75a1.76,1.76,0,0,1,1.78,1.6,1.62,1.62,0,0,1-1.63,1.59,1.6,1.6,0,0,1-1.37-.79H27.4a1,1,0,0,0-.71.34Z"/><path class="a" d="M35.06,9.93H32.15V3.83h3.38v2l.09-.14c.94-1.39,1.77-2.16,3.2-2.16a2,2,0,0,1,1.93,2V9.93H37.4V7.35a.29.29,0,0,0-.31-.3c-.17,0-.25.11-.37.3Z"/><path class="a" d="M48.05,8.18a3.55,3.55,0,0,0,2.22-.73l1.24,1.34a5.33,5.33,0,0,1-3.84,1.46C45.08,10.25,43,8.74,43,6.89s2.1-3.35,4.69-3.35A5.5,5.5,0,0,1,51.48,5L50.18,6.4a4.16,4.16,0,0,0-2.43-.8,2.77,2.77,0,0,0-1.3.3l2.83.65v.68l-2.74.61A3.32,3.32,0,0,0,48.05,8.18Z"/><path class="a" d="M58.54.31h3.37v9.94a1.75,1.75,0,0,0-1.1-.4c-1.21,0-2,.4-3.14.4-2.59,0-4.7-1.51-4.7-3.36s2.11-3.35,4.7-3.35a7.85,7.85,0,0,1,.87,0Zm-.46,5.62c-.82,0-1.37.43-1.37,1s.55,1,1.37,1a1.72,1.72,0,0,0,.46,0V6A1.53,1.53,0,0,0,58.08,5.93Z"/><path class="a" d="M68.82.31h6.11C76.82.31,78.36,1.5,78.36,3a2.33,2.33,0,0,1-.88,1.76,2.75,2.75,0,0,1,1.18,2.17c0,1.68-1.77,3-4,3H68.82Zm4.76,2H72.5v1.3h1.08c.55,0,.84-.28.84-.65S74.13,2.31,73.58,2.31Zm0,3.79H72.5V7.67h1.13c.81,0,1.16-.35,1.16-.78S74.44,6.1,73.63,6.1Z"/><path class="a" d="M85.71,8.18a3.55,3.55,0,0,0,2.22-.73l1.24,1.34a5.33,5.33,0,0,1-3.84,1.46c-2.59,0-4.69-1.51-4.69-3.36s2.1-3.35,4.69-3.35A5.5,5.5,0,0,1,89.14,5L87.84,6.4a4.16,4.16,0,0,0-2.43-.8,2.77,2.77,0,0,0-1.3.3l2.83.65v.68l-2.74.61A3.32,3.32,0,0,0,85.71,8.18Z"/><path class="a" d="M95.71,8.18a3.55,3.55,0,0,0,2.22-.73l1.23,1.34a5.29,5.29,0,0,1-3.83,1.46c-2.59,0-4.69-1.51-4.69-3.36s2.1-3.35,4.69-3.35A5.5,5.5,0,0,1,99.14,5L97.84,6.4a4.16,4.16,0,0,0-2.43-.8,2.74,2.74,0,0,0-1.3.3l2.83.65v.68l-2.74.61A3.29,3.29,0,0,0,95.71,8.18Z"/><path class="a" d="M103.31.31h2.4V2.44H105a.43.43,0,0,0-.42.42v1h1.64V6.21h-1.64V9.93h-3.36V6.21h-1V3.83h1V2.44A2.14,2.14,0,0,1,103.31.31Z"/></svg>