<?xml version="1.0" encoding="utf-8"?>
<!-- Generator: Adobe Illustrator 22.1.0, SVG Export Plug-In . SVG Version: 6.00 Build 0)  -->
<svg version="1.1" id="Layer_1" xmlns="http://www.w3.org/2000/svg" xmlns:xlink="http://www.w3.org/1999/xlink" x="0px" y="0px"
	 viewBox="0 0 171.9 10.4" style="enable-background:new 0 0 171.9 10.4;" xml:space="preserve">
<style type="text/css">
	.st0{fill:#FFFFFF;}
</style>
<title>Artboard 5</title>
<g>
	<path class="st0" d="M0,3.8h1.5l1,4.1l0,0l1.4-4.1h1.3L6.5,8l0,0l1.1-4.2H9l-1.8,6.4H5.9L4.5,5.7l0,0l-1.4,4.4H1.9L0,3.8z"/>
	<path class="st0" d="M10.7,3.8h1.4v2.4h2.7V3.8h1.4v6.4h-1.4V7.4h-2.7v2.8h-1.4L10.7,3.8z"/>
	<path class="st0" d="M20.6,3.8h1.2l2.8,6.4h-1.6l-0.5-1.4h-2.5l-0.5,1.4h-1.5L20.6,3.8z M21.1,5.6l-0.8,2h1.6L21.1,5.6z"/>
	<path class="st0" d="M26.5,5h-1.8V3.8h5V5h-1.8v5.1h-1.4V5z"/>
	<path class="st0" d="M32.3,6.3h-1.2l0.7-2.5h1.3L32.3,6.3z"/>
	<path class="st0" d="M38.3,5.3C38.1,5.2,38,5.1,37.8,5c-0.2-0.1-0.4-0.1-0.6-0.1h-0.3c-0.1,0-0.2,0.1-0.3,0.1
		c-0.1,0.1-0.2,0.1-0.2,0.2c-0.1,0.1-0.1,0.2-0.1,0.3c0,0.2,0.1,0.3,0.2,0.4c0.2,0.1,0.4,0.2,0.5,0.3l0.7,0.2
		c0.3,0.1,0.5,0.2,0.7,0.3c0.2,0.1,0.4,0.3,0.5,0.5c0.2,0.3,0.2,0.6,0.2,0.9c0,0.3-0.1,0.6-0.2,0.9c-0.1,0.3-0.3,0.5-0.5,0.6
		c-0.2,0.2-0.5,0.3-0.8,0.4c-0.3,0.1-0.6,0.1-0.9,0.1c-0.4,0-0.8-0.1-1.2-0.2c-0.4-0.1-0.7-0.3-1-0.6l1-1.1c0.1,0.2,0.3,0.3,0.5,0.4
		C36.4,8.9,36.6,9,36.8,9c0.1,0,0.2,0,0.3,0c0.1,0,0.2-0.1,0.3-0.1c0.1-0.1,0.2-0.1,0.2-0.2c0.1-0.1,0.1-0.2,0.1-0.3
		c0-0.2-0.1-0.3-0.2-0.4c-0.2-0.1-0.4-0.2-0.6-0.3l-0.7-0.2c-0.3-0.1-0.5-0.2-0.7-0.3c-0.2-0.1-0.4-0.3-0.5-0.5
		c-0.2-0.3-0.2-0.6-0.2-0.8c0-0.3,0.1-0.6,0.2-0.9c0.1-0.3,0.3-0.5,0.5-0.7c0.2-0.2,0.5-0.3,0.8-0.4c0.3-0.1,0.6-0.1,0.9-0.1
		c0.3,0,0.7,0.1,1,0.2c0.3,0.1,0.6,0.3,0.9,0.5L38.3,5.3z"/>
	<path class="st0" d="M46.5,7.4l-2.4-3.7h1.8l1.3,2.4l1.4-2.4h1.7l-2.4,3.7v2.7h-1.4V7.4z"/>
	<path class="st0" d="M51.7,3.8h1.4v6.4h-1.4V3.8z"/>
	<path class="st0" d="M55.4,3.8h2.1c0.5,0,1,0.1,1.5,0.2c0.4,0.1,0.8,0.3,1.2,0.6c0.3,0.3,0.6,0.6,0.8,1C61.2,6,61.3,6.5,61.3,7
		c0,0.9-0.4,1.8-1.1,2.4C59.8,9.6,59.4,9.9,59,10c-0.4,0.1-0.9,0.2-1.4,0.2h-2.2V3.8z M56.8,8.9h0.7c0.3,0,0.6,0,0.9-0.1
		c0.3-0.1,0.5-0.2,0.7-0.3c0.2-0.2,0.4-0.4,0.5-0.6c0.1-0.3,0.2-0.6,0.2-0.9c0-0.3,0-0.6-0.2-0.8c-0.1-0.2-0.3-0.4-0.5-0.6
		c-0.2-0.2-0.4-0.3-0.7-0.3c-0.3-0.1-0.6-0.1-0.8-0.1h-0.8L56.8,8.9z"/>
	<path class="st0" d="M63.2,3.8h2.1c0.5,0,1,0.1,1.5,0.2c0.4,0.1,0.8,0.3,1.2,0.6c0.3,0.3,0.6,0.6,0.8,1C69,6,69.1,6.5,69.1,7
		c0,0.9-0.4,1.8-1.1,2.4c-0.3,0.3-0.7,0.5-1.1,0.6c-0.4,0.1-0.9,0.2-1.4,0.2h-2.3V3.8z M64.6,8.9h0.7c0.3,0,0.6,0,0.9-0.1
		c0.3-0.1,0.5-0.2,0.8-0.3c0.2-0.2,0.4-0.4,0.5-0.6c0.1-0.3,0.2-0.6,0.2-0.9c0-0.3,0-0.6-0.2-0.8c-0.1-0.2-0.3-0.4-0.5-0.6
		c-0.2-0.2-0.4-0.3-0.7-0.3c-0.3-0.1-0.6-0.1-0.8-0.1h-0.8L64.6,8.9z"/>
	<path class="st0" d="M71,3.8h1.4v6.4H71V3.8z"/>
	<path class="st0" d="M77.8,5.3c-0.1-0.2-0.3-0.3-0.5-0.3c-0.2-0.1-0.4-0.1-0.6-0.1L76.5,5c-0.1,0-0.2,0.1-0.3,0.1
		C76.1,5.2,76,5.2,76,5.3c-0.1,0.1-0.1,0.2-0.1,0.3c0,0.2,0.1,0.3,0.2,0.4c0.2,0.1,0.4,0.2,0.6,0.3l0.7,0.2c0.2,0.1,0.5,0.2,0.7,0.3
		c0.2,0.1,0.4,0.3,0.6,0.5c0.2,0.3,0.2,0.6,0.2,0.9c0,0.3-0.1,0.6-0.2,0.9c-0.1,0.3-0.3,0.5-0.5,0.6c-0.2,0.2-0.5,0.3-0.8,0.4
		c-0.7,0.2-1.4,0.2-2.1-0.1c-0.4-0.1-0.7-0.3-1-0.6l1-1.1c0.3,0.4,0.8,0.6,1.2,0.6c0.1,0,0.2,0,0.3,0C76.9,9,77,9,77.1,8.9
		c0.1-0.1,0.2-0.1,0.2-0.2c0.1-0.1,0.1-0.2,0.1-0.3c0-0.2-0.1-0.3-0.2-0.4c-0.2-0.1-0.4-0.2-0.6-0.3l-0.7-0.2
		c-0.3-0.1-0.5-0.2-0.7-0.3C75,7,74.8,6.8,74.6,6.6c-0.2-0.3-0.2-0.6-0.2-0.8c0-0.3,0.1-0.6,0.2-0.9c0.1-0.3,0.3-0.5,0.5-0.7
		c0.2-0.2,0.5-0.3,0.8-0.4c0.3-0.1,0.6-0.1,0.9-0.1c0.3,0,0.7,0.1,1,0.2c0.3,0.1,0.6,0.3,0.9,0.5L77.8,5.3z"/>
	<path class="st0" d="M80.8,3.8h1.4v2.4H85V3.8h1.4v6.4H85V7.4h-2.8v2.8h-1.4V3.8z"/>
	<path class="st0" d="M92.4,3.8h4.3v1.3h-2.9v1.3h2.7v1.3h-2.7v2.5h-1.4L92.4,3.8z"/>
	<path class="st0" d="M98.3,7c0-0.5,0.1-0.9,0.2-1.4c0.2-0.4,0.4-0.8,0.7-1.1c0.3-0.3,0.7-0.5,1.1-0.7c0.9-0.3,1.9-0.3,2.8,0
		c0.4,0.1,0.8,0.4,1.1,0.7c0.3,0.3,0.6,0.7,0.7,1.1c0.2,0.4,0.3,0.9,0.2,1.4c0,0.5-0.1,0.9-0.2,1.4c-0.2,0.4-0.4,0.8-0.7,1.1
		c-0.3,0.3-0.7,0.5-1.1,0.7c-0.9,0.3-1.9,0.3-2.8,0c-0.4-0.1-0.8-0.4-1.1-0.7c-0.3-0.3-0.6-0.7-0.7-1.1C98.4,7.9,98.3,7.5,98.3,7z
		 M99.8,7c0,0.3,0,0.6,0.1,0.8c0.1,0.2,0.2,0.5,0.4,0.7c0.2,0.2,0.4,0.3,0.6,0.4c0.3,0.1,0.5,0.2,0.8,0.1c0.3,0,0.6,0,0.8-0.1
		c0.2-0.1,0.4-0.2,0.6-0.4c0.2-0.2,0.3-0.4,0.4-0.7c0.1-0.3,0.1-0.5,0.1-0.8c0-0.3,0-0.6-0.1-0.8c-0.1-0.2-0.2-0.5-0.4-0.7
		c-0.2-0.2-0.4-0.3-0.6-0.4c-0.3-0.1-0.5-0.2-0.8-0.2c-0.3,0-0.6,0-0.8,0.2c-0.2,0.1-0.5,0.2-0.6,0.4c-0.2,0.2-0.3,0.4-0.4,0.7
		C99.8,6.4,99.7,6.7,99.8,7z"/>
	<path class="st0" d="M107.1,3.8h2.5c0.3,0,0.6,0,0.9,0.1c0.3,0.1,0.5,0.2,0.8,0.3c0.2,0.2,0.4,0.4,0.5,0.6c0.1,0.3,0.2,0.6,0.2,0.9
		c0,0.4-0.1,0.8-0.4,1.2c-0.2,0.3-0.6,0.5-1,0.6l1.6,2.7h-1.7l-1.3-2.5h-0.7v2.5h-1.4L107.1,3.8z M108.5,6.4h1.2
		c0.1,0,0.3,0,0.4-0.1c0.1,0,0.2-0.1,0.3-0.2c0.1-0.1,0.1-0.3,0.1-0.4c0-0.1,0-0.3-0.1-0.4c-0.1-0.1-0.2-0.2-0.2-0.2
		c-0.1,0-0.2-0.1-0.3-0.1h-0.4h-0.9L108.5,6.4z"/>
	<g>
		<path class="st0" d="M119.4,0.3h1.8l-1.6,3.9h-2L119.4,0.3z M122.4,0.3h1.8l-1.6,3.9h-2L122.4,0.3z"/>
		<path class="st0" d="M127.5,5.9l-2.9-5.7h2.7l1.6,3.7l2.7-3.7h2.6l-4.5,5.7l-0.6,4.2h-2.2L127.5,5.9z"/>
		<path class="st0" d="M142.4,6.3c-0.1,0.6-0.2,1.1-0.5,1.6c-0.2,0.5-0.6,0.9-1,1.3c-0.4,0.4-0.9,0.6-1.4,0.9
			c-0.6,0.2-1.2,0.3-1.8,0.3c-0.7,0-1.3-0.1-1.8-0.3c-0.5-0.2-0.9-0.5-1.2-0.9c-0.3-0.4-0.5-0.8-0.6-1.3c-0.1-0.5-0.1-1,0-1.6
			l0.9-6.1h2.2l-0.8,6c0,0.3,0,0.6,0,0.9s0.2,0.5,0.3,0.7c0.2,0.2,0.3,0.3,0.6,0.4c0.2,0.1,0.5,0.2,0.8,0.2s0.6-0.1,0.8-0.2
			s0.5-0.3,0.7-0.4c0.2-0.2,0.4-0.4,0.5-0.7c0.1-0.3,0.2-0.5,0.3-0.9l0.8-6h2.2L142.4,6.3z"/>
		<path class="st0" d="M145.3,0.3h3.3l1.4,6.5h0l3.2-6.5h3.3l-1.4,9.9h-2.2l1.1-7.6h0l-3.7,7.6h-1.7l-1.4-7.6h0l-1.1,7.6h-2.2
			L145.3,0.3z"/>
		<path class="st0" d="M159.4,4.2h-1.8l1.6-3.9h2L159.4,4.2z M162.4,4.2h-1.8l1.6-3.9h2L162.4,4.2z"/>
		<path class="st0" d="M167,6.3c0-0.3,0.1-0.5,0.2-0.7c0.1-0.2,0.3-0.4,0.4-0.5c0.3-0.3,0.6-0.5,0.8-0.7c0.2-0.2,0.5-0.4,0.6-0.5
			c0.2-0.2,0.3-0.3,0.4-0.5s0.2-0.3,0.2-0.5c0-0.3,0-0.5-0.2-0.7c-0.2-0.2-0.4-0.3-0.7-0.3c-0.4,0-0.8,0.1-1,0.4
			c-0.3,0.2-0.4,0.5-0.5,0.9L165.2,3c0.2-1,0.7-1.7,1.4-2.3c0.7-0.5,1.5-0.8,2.5-0.8c0.4,0,0.8,0.1,1.2,0.2s0.7,0.3,0.9,0.5
			s0.4,0.5,0.6,0.9c0.1,0.3,0.1,0.7,0.1,1.2c0,0.3-0.1,0.5-0.2,0.7s-0.2,0.4-0.4,0.7c-0.2,0.2-0.4,0.4-0.6,0.7
			c-0.3,0.2-0.6,0.5-0.9,0.7c-0.2,0.2-0.4,0.3-0.5,0.5c-0.1,0.2-0.2,0.3-0.2,0.5L169,6.9h-2.1L167,6.3z M166.4,9
			c0-0.2,0.1-0.3,0.2-0.5s0.2-0.3,0.3-0.4s0.3-0.2,0.4-0.3c0.2-0.1,0.3-0.1,0.5-0.1c0.4,0,0.6,0.1,0.9,0.4c0.2,0.3,0.3,0.6,0.3,0.9
			c0,0.2-0.1,0.3-0.2,0.5c-0.1,0.2-0.2,0.3-0.3,0.4c-0.1,0.1-0.3,0.2-0.4,0.3c-0.2,0.1-0.3,0.1-0.5,0.1c-0.2,0-0.3,0-0.5-0.1
			c-0.1-0.1-0.3-0.2-0.4-0.3c-0.1-0.1-0.2-0.3-0.2-0.4C166.3,9.3,166.3,9.1,166.4,9z"/>
	</g>
</g>
</svg>
