<svg xmlns="http://www.w3.org/2000/svg" viewBox="0 0 246.91 35"><defs><style>.a{fill:#09436b;}.b{fill:#fff;}</style></defs><title>copy_one</title><rect class="a" width="246.91" height="35"/><path class="b" d="M13.91,13.3h2.34v8.41H13.91Z"/><path class="b" d="M22.32,13.3h2.33v3.41l2.9-3.41h2.76l-3.18,3.62,3.29,4.79h-2.8l-2.11-3.12-.86.95v2.17H22.32Z"/><path class="b" d="M31.7,13.3h2.17l3.46,4.45V13.3h2.31v8.41h-2L34,17.1v4.61H31.7Z"/><path class="b" d="M41.45,17.53v0a4.53,4.53,0,0,1,9.06,0v0A4.41,4.41,0,0,1,46,21.88,4.36,4.36,0,0,1,41.45,17.53Zm6.68,0v0A2.18,2.18,0,0,0,46,15.24a2.14,2.14,0,0,0-2.12,2.24v0A2.18,2.18,0,0,0,46,19.78,2.15,2.15,0,0,0,48.13,17.53Z"/><path class="b" d="M51.28,13.3h2.46l1.47,4.87,1.62-4.89h2l1.62,4.89,1.46-4.87h2.42l-2.81,8.47h-2l-1.7-4.84-1.68,4.84h-2Z"/><path class="b" d="M71.86,15.35H69.33v-2h7.38v2H74.19v6.36H71.86Z"/><path class="b" d="M78.34,13.3h2.33v3.15h3V13.3H86v8.41H83.66V18.52h-3v3.19H78.34Z"/><path class="b" d="M88.08,13.3h6.77v2H90.39v1.27h4V18.4h-4v1.33h4.52v2H88.08Z"/><path class="b" d="M96.7,13.3h4a3.68,3.68,0,0,1,2.74.92,2.61,2.61,0,0,1,.74,2v0a2.65,2.65,0,0,1-1.73,2.58l2,2.93h-2.69l-1.7-2.54H99v2.54H96.7Zm3.87,4c.79,0,1.25-.38,1.25-1v0c0-.66-.48-1-1.26-1H99v2Z"/><path class="b" d="M105.94,13.3h6.77v2h-4.46v1.27h4V18.4h-4v1.33h4.52v2h-6.83Z"/><path class="b" d="M121.4,13.24h2.25l3.58,8.47h-2.5l-.61-1.5h-3.25l-.6,1.5h-2.45Zm2,5.16L122.51,16l-1,2.39Z"/><path class="b" d="M128.65,13.3h4a3.68,3.68,0,0,1,2.74.92,2.61,2.61,0,0,1,.74,2v0a2.65,2.65,0,0,1-1.73,2.58l2,2.93H133.7L132,19.17h-1v2.54h-2.33Zm3.87,4c.79,0,1.25-.38,1.25-1v0c0-.66-.48-1-1.26-1H131v2Z"/><path class="b" d="M137.89,13.3h6.77v2H140.2v1.27h4V18.4h-4v1.33h4.52v2h-6.83Z"/><path class="b" d="M150.15,17.53v0a4.38,4.38,0,0,1,4.53-4.38,4.92,4.92,0,0,1,3.42,1.23L156.73,16a3,3,0,0,0-2-.8,2.2,2.2,0,0,0-2.15,2.31v0a2.22,2.22,0,0,0,2.28,2.34,2.42,2.42,0,0,0,1.34-.35v-1h-1.65V16.8h3.86v3.78a5.61,5.61,0,0,1-3.65,1.3A4.32,4.32,0,0,1,150.15,17.53Z"/><path class="b" d="M160,17.53v0a4.53,4.53,0,0,1,9.06,0v0a4.41,4.41,0,0,1-4.54,4.37A4.36,4.36,0,0,1,160,17.53Zm6.68,0v0a2.18,2.18,0,0,0-2.16-2.27,2.14,2.14,0,0,0-2.13,2.24v0a2.19,2.19,0,0,0,2.15,2.27A2.14,2.14,0,0,0,166.68,17.53Z"/><path class="b" d="M170.59,17.53v0a4.53,4.53,0,0,1,9.06,0v0a4.41,4.41,0,0,1-4.55,4.37A4.36,4.36,0,0,1,170.59,17.53Zm6.68,0v0a2.18,2.18,0,0,0-2.17-2.27A2.14,2.14,0,0,0,173,17.48v0a2.18,2.18,0,0,0,2.15,2.27A2.15,2.15,0,0,0,177.27,17.53Z"/><path class="b" d="M181.47,13.3h3.24c3,0,4.75,1.73,4.75,4.16v0c0,2.43-1.77,4.23-4.8,4.23h-3.19Zm3.28,6.35a2.06,2.06,0,0,0,2.31-2.13v0a2.06,2.06,0,0,0-2.31-2.13h-.95v4.28Z"/><path class="b" d="M194.49,20.44,196,19a1.68,1.68,0,0,0,1.31.78c.58,0,1-.39,1-1.17V13.3h2.32v5.34a3.12,3.12,0,0,1-.83,2.36,3.16,3.16,0,0,1-2.31.86A3.41,3.41,0,0,1,194.49,20.44Z"/><path class="b" d="M202.28,17.53v0a4.41,4.41,0,0,1,4.55-4.38,4.37,4.37,0,0,1,4.51,4.35v0a4.53,4.53,0,0,1-9.06,0Zm6.68,0v0a2.18,2.18,0,0,0-2.16-2.27,2.14,2.14,0,0,0-2.13,2.24v0a2.19,2.19,0,0,0,2.16,2.27A2.14,2.14,0,0,0,209,17.53Z"/><path class="b" d="M213.16,13.3h4.32a3.11,3.11,0,0,1,2.29.76,1.84,1.84,0,0,1,.54,1.36v0a2,2,0,0,1-1.3,1.88,2,2,0,0,1,1.67,2.05v0c0,1.45-1.17,2.32-3.18,2.32h-4.34Zm3.74,3.36c.71,0,1.1-.24,1.1-.74v0c0-.46-.36-.72-1.05-.72h-1.52v1.48Zm.33,3.18c.71,0,1.12-.28,1.12-.77v0c0-.46-.36-.76-1.14-.76h-1.78v1.55Z"/><path class="b" d="M221.72,20.46l1.3-1.55a4.33,4.33,0,0,0,2.73,1c.62,0,1-.21,1-.57v0c0-.35-.28-.54-1.42-.8-1.79-.41-3.17-.92-3.17-2.65v0c0-1.56,1.23-2.69,3.25-2.69a5.25,5.25,0,0,1,3.46,1.12l-1.16,1.64a4.23,4.23,0,0,0-2.36-.83c-.56,0-.84.24-.84.54v0c0,.38.29.55,1.46.82,1.93.42,3.13,1,3.13,2.61v0c0,1.72-1.36,2.74-3.4,2.74A5.85,5.85,0,0,1,221.72,20.46Z"/><path class="b" d="M230.57,19.37H233v2.34h-2.38Z"/></svg>