<svg xmlns="http://www.w3.org/2000/svg" viewBox="0 0 280.21 16.07"><defs><style>.a{fill:#fff;}</style></defs><title>copy_two </title><path class="a" d="M0,.31H5.94c5.5,0,8.69,3.17,8.69,7.61V8c0,4.45-3.23,7.75-8.78,7.75H0ZM6,11.93c2.55,0,4.24-1.41,4.24-3.9V8c0-2.47-1.69-3.9-4.24-3.9H4.27v7.84Z"/><path class="a" d="M17.4,8.05V8a8.07,8.07,0,0,1,8.32-8A8,8,0,0,1,34,8V8a8.07,8.07,0,0,1-8.31,8A8,8,0,0,1,17.4,8.05Zm12.24,0V8a4,4,0,0,0-4-4.16A3.92,3.92,0,0,0,21.78,8V8a4,4,0,0,0,3.94,4.16A3.94,3.94,0,0,0,29.64,8.05Z"/><path class="a" d="M44.59.31h4.29v15.4H44.59Z"/><path class="a" d="M60,.31h4.27V6.07h5.48V.31H74v15.4H69.74V9.86H64.26v5.85H60Z"/><path class="a" d="M83.16.2h4.11l6.56,15.51H89.25L88.13,13H82.19l-1.1,2.75H76.6ZM86.9,9.64,85.18,5.26,83.45,9.64Z"/><path class="a" d="M93,.31h4.78l3.49,9.75,3.5-9.75h4.69L103.2,15.82h-4Z"/><path class="a" d="M112,.31h12.39V3.94h-8.16V6.27h7.39V9.64h-7.39v2.44h8.27v3.63H112Z"/><path class="a" d="M139.5,4.1h-4.62V.36h13.51V4.1h-4.62V15.76H139.5Z"/><path class="a" d="M150.17,8.11v0a8.3,8.3,0,0,1,16.59,0v0a8.3,8.3,0,0,1-16.59,0Zm12.24,0v0a4,4,0,0,0-4-4.15A3.92,3.92,0,0,0,154.55,8v0a4,4,0,0,0,3.94,4.16A3.93,3.93,0,0,0,162.41,8.11Z"/><path class="a" d="M176.11,13.48l2.38-2.84a7.91,7.91,0,0,0,5,1.85c1.14,0,1.76-.4,1.76-1.06v0c0-.64-.51-1-2.6-1.48-3.27-.75-5.8-1.67-5.8-4.84V5c0-2.86,2.26-4.93,6-4.93a9.72,9.72,0,0,1,6.34,2l-2.14,3a7.74,7.74,0,0,0-4.31-1.52c-1,0-1.54.44-1.54,1v0c0,.7.53,1,2.66,1.49,3.54.77,5.74,1.92,5.74,4.8v0c0,3.15-2.48,5-6.22,5A10.78,10.78,0,0,1,176.11,13.48Z"/><path class="a" d="M192.72.36h12.39V4h-8.17V6.33h7.4V9.69h-7.4v2.44h8.28v3.63h-12.5Z"/><path class="a" d="M212.26,4.1h-4.63V.36h13.51V4.1h-4.62V15.76h-4.26Z"/><path class="a" d="M227.88,4.1h-4.63V.36h13.51V4.1h-4.62V15.76h-4.26Z"/><path class="a" d="M239.73.36H244V12h7.46v3.74H239.73Z"/><path class="a" d="M254.38.36h12.39V4h-8.16V6.33H266V9.69h-7.39v2.44h8.27v3.63h-12.5Z"/><path class="a" d="M272.45,7.07l.17-.19c2.56-.22,3.46-.82,3.46-1.76v0c0-.74-.6-1.21-1.65-1.21a5.08,5.08,0,0,0-3.22,1.45L269,2.43a7.76,7.76,0,0,1,5.7-2.31c3.24,0,5.5,1.76,5.5,4.62v0c0,2.77-1.84,4-4.29,4.55l-.26,1.41H273ZM272.09,12h4.34v3.74h-4.34Z"/></svg>