<svg xmlns="http://www.w3.org/2000/svg" viewBox="0 0 124.03 8.64"><defs><style>.a{fill:#fff;}</style></defs><title>copy_one_2</title><path class="a" d="M0,.12H1.46v8.4H0Z"/><path class="a" d="M5.32,4.46V4.17C5.32,1.22,6.41.06,7.77.06a2.06,2.06,0,0,1,1,.19V1.76a1.53,1.53,0,0,0-.81-.27c-.65,0-1.12.57-1.12,2.67v.31c0,2.22.47,2.68,1.14,2.68a1.68,1.68,0,0,0,.82-.27V8.32a2,2,0,0,1-1.08.26C6.34,8.58,5.32,7.39,5.32,4.46Z"/><path class="a" d="M11.27.1h1.56l1.59,8.42H13l-.28-1.67H11.35l-.26,1.67H9.67Zm1.2,5.43L12,2.76l-.45,2.77Z"/><path class="a" d="M15.47.12h1.36l1.48,4.25V.12h1.43v8.4h-1.3L16.9,4.07V8.52H15.47Z"/><path class="a" d="M21.07,3.14a1.16,1.16,0,0,0,1-1.35h-.74V.12H23V1.49a2,2,0,0,1-1.8,2.24Z"/><path class="a" d="M25.28,1.51h-1V.12h3.53V1.51h-1v7H25.28Z"/><path class="a" d="M31.5.12h3.06V1.51H33V3.62h1.39V5H33V8.52H31.5Z"/><path class="a" d="M35.84.12h1.47v8.4H35.84Z"/><path class="a" d="M38.8.12h1.36l1.48,4.25V.12h1.42v8.4H41.77L40.22,4.07V8.52H38.8Z"/><path class="a" d="M44.53.12H45.9c1.87,0,2.94,1.36,2.94,4.05v.29c0,2.7-1.07,4.06-2.94,4.06H44.53Zm1.52,7.05c.7,0,1.3-.61,1.3-2.71V4.17c0-2.1-.6-2.71-1.3-2.71H46V7.17Z"/><path class="a" d="M52.49,8.23V6.7a2.68,2.68,0,0,0,1.32.47.69.69,0,0,0,.78-.72v0c0-.39-.12-.67-.82-1.47-1-1.12-1.4-1.66-1.4-2.68v0a2,2,0,0,1,2-2.19A2.64,2.64,0,0,1,55.7.32V1.85a2,2,0,0,0-1.11-.39.71.71,0,0,0-.76.72v0c0,.39.12.54.82,1.34,1.15,1.33,1.4,1.85,1.4,2.81v0A2.07,2.07,0,0,1,54,8.58,3.41,3.41,0,0,1,52.49,8.23Z"/><path class="a" d="M57.17.12h1.46V3.63L59.82.12h1.65L60.06,3.67,61.5,8.52H59.87L59,5.34l-.32.92V8.52H57.17Z"/><path class="a" d="M62.63.12h1.46v8.4H62.63Z"/><path class="a" d="M65.58.12H67v7h1.55v1.4h-3Z"/><path class="a" d="M69.78.12h1.46v7h1.55v1.4h-3Z"/><path class="a" d="M74,.12h3.21V1.51H75.44V3.6H77V5H75.44V7.12h1.79v1.4H74Z"/><path class="a" d="M78.54.12h1.37c1.87,0,2.93,1.36,2.93,4.05v.29c0,2.7-1.06,4.06-2.93,4.06H78.54Zm1.52,7.05c.7,0,1.3-.61,1.3-2.71V4.17c0-2.1-.6-2.71-1.3-2.71H80V7.17Z"/><path class="a" d="M86.28.12h1.5l.61,5.15L89.12.12h1.36l.72,5.15L91.82.12h1.46L92,8.54H90.48l-.7-5-.69,5H87.55Z"/><path class="a" d="M94.11,4.53V4.1c0-2.77.9-4.1,2.24-4.1s2.23,1.33,2.23,4.1v.43c0,2.77-.9,4.11-2.23,4.11S94.11,7.3,94.11,4.53Zm3,0V4.1c0-2.16-.3-2.76-.74-2.76s-.75.6-.75,2.76v.43c0,2.16.3,2.76.75,2.76S97.09,6.69,97.09,4.53Z"/><path class="a" d="M99.9.12h1.51A2.38,2.38,0,0,1,104,2.79V2.9a2.63,2.63,0,0,1-1,2.21l1.12,3.41h-1.56l-.94-2.93h-.28V8.52H99.9Zm1.53,4.15c.64,0,1.11-.37,1.11-1.36V2.82c0-1.06-.51-1.33-1.14-1.33h0V4.27Z"/><path class="a" d="M105.27.12h1.47V3.63L107.93.12h1.65l-1.41,3.55,1.43,4.85H108l-.91-3.18-.32.92V8.52h-1.47Z"/><path class="a" d="M110.71.12h3.21V1.51h-1.75V3.6h1.55V5h-1.55V7.12H114v1.4h-3.25Z"/><path class="a" d="M115.27.12h1.51a2.38,2.38,0,0,1,2.59,2.67V2.9a2.63,2.63,0,0,1-1,2.21l1.13,3.41H118L117,5.59h-.28V8.52h-1.46Zm1.54,4.15c.63,0,1.1-.37,1.1-1.36V2.82c0-1.06-.51-1.33-1.14-1.33h0V4.27Z"/><path class="a" d="M120.47,8.23V6.7a2.68,2.68,0,0,0,1.32.47.68.68,0,0,0,.77-.72v0c0-.39-.11-.67-.81-1.47-1-1.12-1.4-1.66-1.4-2.68v0a2,2,0,0,1,2-2.19,2.64,2.64,0,0,1,1.29.26V1.85a2,2,0,0,0-1.12-.39.71.71,0,0,0-.75.72v0c0,.39.12.54.81,1.34C123.78,4.88,124,5.4,124,6.36v0A2.08,2.08,0,0,1,122,8.58,3.4,3.4,0,0,1,120.47,8.23Z"/></svg>