<svg xmlns="http://www.w3.org/2000/svg" viewBox="0 0 157.22 40.28"><defs><style>.a{fill:#ffc530;}.b{fill:#09436b;}</style></defs><title>copy_three</title><rect class="a" width="157.22" height="40.28"/><path class="b" d="M18.86,22.12,13.3,13h4.62l3,5.33L24,13H28.5l-5.56,9.09V27.6H18.86Z"/><path class="b" d="M28.47,20.32v0a7.66,7.66,0,0,1,7.9-7.61,7.6,7.6,0,0,1,7.86,7.57v0a7.67,7.67,0,0,1-7.9,7.61A7.59,7.59,0,0,1,28.47,20.32Zm11.62,0v0a3.8,3.8,0,0,0-3.76-4,3.73,3.73,0,0,0-3.7,3.91v0a3.79,3.79,0,0,0,3.74,3.95A3.73,3.73,0,0,0,40.09,20.32Z"/><path class="b" d="M46.73,21.18V13h4.12V21.1c0,2.11,1.07,3.11,2.7,3.11s2.69-1,2.69-3V13h4.12v8.11c0,4.72-2.69,6.79-6.86,6.79S46.73,25.76,46.73,21.18Z"/><path class="b" d="M69.72,13h5.64c5.23,0,8.26,3,8.26,7.23v0c0,4.22-3.07,7.36-8.34,7.36H69.72Zm5.71,11c2.42,0,4-1.34,4-3.7v0c0-2.34-1.61-3.7-4-3.7H73.77V24Z"/><path class="b" d="M85.79,20.32v0a7.89,7.89,0,0,1,15.76,0v0a7.67,7.67,0,0,1-7.9,7.61A7.59,7.59,0,0,1,85.79,20.32Zm11.62,0v0a3.8,3.8,0,0,0-3.76-4A3.73,3.73,0,0,0,90,20.24v0a3.79,3.79,0,0,0,3.74,3.95A3.73,3.73,0,0,0,97.41,20.32Z"/><path class="b" d="M104.24,13H108l6,7.73V13h4V27.6H114.5l-6.25-8v8h-4Z"/><path class="b" d="M120.42,19c1.4-.15,2.15-.84,2.09-2h-1.59V13H125v3.32c0,3.09-1.67,4.16-4.28,4.24Z"/><path class="b" d="M131.32,16.52h-4.38V13h12.83v3.55h-4.39V27.6h-4.06Z"/><path class="b" d="M139.64,23.52h4.14V27.6h-4.14Z"/></svg>