<svg xmlns="http://www.w3.org/2000/svg" viewBox="0 0 66.61 6.66"><defs><style>.a{fill:#fff;}</style></defs><title>learn_more</title><path class="a" d="M0,6.55V.16H1.3V5.47H4.54V6.55Z"/><path class="a" d="M6.27,6.55V.11h4.78V1.2H7.57V2.63h3.24V3.71H7.57V5.47h3.6V6.55Z"/><path class="a" d="M18.89,6.55H17.48l-.56-1.46H14.34l-.53,1.46H12.43L14.94.11h1.38ZM16.5,4l-.89-2.39L14.74,4Z"/><path class="a" d="M20.39,6.55V.11h2.74a4.86,4.86,0,0,1,1.5.17,1.56,1.56,0,0,1,.75.62,1.86,1.86,0,0,1,.28,1,1.67,1.67,0,0,1-.43,1.19,2,2,0,0,1-1.27.6,2.76,2.76,0,0,1,.69.54,7.2,7.2,0,0,1,.75,1l.78,1.25H24.63l-.94-1.4a10.79,10.79,0,0,0-.69-1,.87.87,0,0,0-.39-.26A2.09,2.09,0,0,0,22,3.86h-.26V6.55Zm1.3-3.72h1a5.3,5.3,0,0,0,1.17-.07.75.75,0,0,0,.37-.28A.9.9,0,0,0,24.32,2a.77.77,0,0,0-.18-.53.8.8,0,0,0-.48-.25c-.11,0-.43,0-.95,0h-1Z"/><path class="a" d="M27.7,6.55V.11H29l2.64,4.3V.11h1.21V6.55H31.5l-2.59-4.2v4.2Z"/><path class="a" d="M38.28,6.55V.11h1.95L41.4,4.5,42.55.11h2V6.55H43.29V1.48L42,6.55H40.76L39.49,1.48V6.55Z"/><path class="a" d="M46.33,3.37a4,4,0,0,1,.3-1.65,2.75,2.75,0,0,1,.6-.88,2.41,2.41,0,0,1,.83-.58A3.52,3.52,0,0,1,49.45,0a3,3,0,0,1,2.28.88,3.43,3.43,0,0,1,.85,2.46,3.36,3.36,0,0,1-.85,2.44,3,3,0,0,1-2.27.88,3.05,3.05,0,0,1-2.28-.87A3.32,3.32,0,0,1,46.33,3.37Zm1.34,0A2.41,2.41,0,0,0,48.18,5a1.74,1.74,0,0,0,2.56,0,2.46,2.46,0,0,0,.5-1.68,2.43,2.43,0,0,0-.49-1.65,1.62,1.62,0,0,0-1.29-.55,1.68,1.68,0,0,0-1.3.55A2.5,2.5,0,0,0,47.67,3.33Z"/><path class="a" d="M54.41,6.55V.11h2.74a4.86,4.86,0,0,1,1.5.17A1.56,1.56,0,0,1,59.4.9a2,2,0,0,1,.28,1,1.67,1.67,0,0,1-.43,1.19,2,2,0,0,1-1.27.6,2.76,2.76,0,0,1,.69.54,7.2,7.2,0,0,1,.75,1l.78,1.25H58.65l-.94-1.4a10.79,10.79,0,0,0-.69-1,.87.87,0,0,0-.39-.26A2.09,2.09,0,0,0,56,3.86h-.26V6.55Zm1.3-3.72h1a5.3,5.3,0,0,0,1.17-.07.75.75,0,0,0,.37-.28A.9.9,0,0,0,58.34,2a.82.82,0,0,0-.17-.53.85.85,0,0,0-.5-.25c-.1,0-.42,0-.94,0h-1Z"/><path class="a" d="M61.71,6.55V.11h4.77V1.2H63V2.63h3.23V3.71H63V5.47h3.6V6.55Z"/></svg>