<?xml version="1.0" encoding="utf-8"?>
<!-- Generator: Adobe Illustrator 22.1.0, SVG Export Plug-In . SVG Version: 6.00 Build 0)  -->
<svg version="1.1" id="Layer_1" xmlns="http://www.w3.org/2000/svg" xmlns:xlink="http://www.w3.org/1999/xlink" x="0px" y="0px"
	 viewBox="0 0 267.5 77" style="enable-background:new 0 0 267.5 77;" xml:space="preserve">
<style type="text/css">
	.st0{clip-path:url(#SVGID_2_);}
	.st1{clip-path:url(#SVGID_4_);}
	.st2{fill:#003963;}
	.st3{fill:#FFFFFF;}
	.st4{fill:#E8B909;}
</style>
<title>logo</title>
<g>
	<defs>
		<rect id="SVGID_1_" width="267.5" height="77"/>
	</defs>
	<clipPath id="SVGID_2_">
		<use xlink:href="#SVGID_1_"  style="overflow:visible;"/>
	</clipPath>
	<g class="st0">
		<g>
			<defs>
				<rect id="SVGID_3_" width="267.5" height="77"/>
			</defs>
			<clipPath id="SVGID_4_">
				<use xlink:href="#SVGID_3_"  style="overflow:visible;"/>
			</clipPath>
			<g class="st1">
				<path class="st2" d="M7.3,73.7c0,0.5-0.1,0.8,0,0.9C7.8,75,8,75.5,7.4,75.9c-0.3,0.1-0.7,0.2-1,0.3l-0.4-1.3
					c-1,0.5-2.2,0.9-3-0.7l-0.2,0.3c0,0.3,0,0.7-0.1,1s0,1-0.2,1.3s-0.9,0.1-1.3,0c-0.4-0.1-0.8-0.3-1.1-0.6L1,76l-1-1.3l1.1,0.1
					v-2.9c0.9-0.2,1.4-1.1,1.2-2c-0.1-0.3-0.2-0.5-0.3-0.7c-0.4-0.6-0.1-1.5,0.5-1.8c0.4-0.2,0.9-0.2,1.3,0l1.9-3.5
					c1.2-0.2,0.7-1.8,1.4-2.7c0.3-0.3,0.4-0.9,0.7-1c0.9-0.3,1.3-1.3,1-2.2c0-0.1-0.1-0.2-0.1-0.3c-0.4-0.7-0.4-1.6-0.1-2.3
					c0.1-0.2,0.1-0.4,0-0.6c-0.5-1-1-2-1.6-2.9c-0.4-0.3-0.4-0.9-0.1-1.3C7,50.7,7,50.6,7.1,50.6c0.5-0.5,0.8-0.9,0.3-1.6
					c-0.2-0.5-0.1-1,0.2-1.4c0.7-0.4,0.7-0.9,0.7-1.5C8.4,31.2,8.5,16.3,8.6,1.5c0-0.1,0.1-0.2,0.1-0.3c0.8,0.6,1.6,1.1,2.5,1.5
					c2.4,0.7,4.5-0.5,6.4-1.7c1-0.6,2.2-1,3.4-1c9,0,17.9,0,26.8,0c1.2,0,1.4,0.3,1.4,1.4C49.2,18,49.1,34.5,49,51
					c0,0.5-0.2,1-0.6,1.3c-0.7,0.5-0.7,0.9-0.2,1.6c0.2,0.2,0.4,0.8,0.2,0.9c-0.9,1-0.4,1.3,0.7,1.5c-0.2,0.6-0.3,1.1-0.5,1.7
					c-1.4-0.1-2.9,0.3-4,1.3c-0.4,0.6-1.2,0.7-1.8,0.2c-0.1-0.1-0.2-0.2-0.2-0.2c-0.5-0.5-1.8-0.2-2.8-0.1c-0.2,0-0.2,0.9-0.3,1.4
					c0,0.3,0,0.6,0,0.8c0.2,0.6,0.9,1.3-0.2,1.8c-0.6,0.3-1.1,0.7-1.6,1.1c-0.4,0.3-0.8,0.7-1.1,1.1c-0.2,0.4-0.2,1-0.5,1.5
					c-0.2,0.5-0.6,0.8-1.1,1c-1.8,0.4-2.3,1-2.5,2.9c-0.1,0.8,0.1,2-1.4,2.2c-0.2,0-0.4,0.5-0.4,0.5l-2.1-0.7
					c-1-0.3-1.6-0.8-1.7-1.9c0-0.5-0.5-1-0.8-1.6l-0.4,0.3l1.1,0.7l-2.3,0.7c0.3,0.4,0.7,1-0.5,1.3c-0.2,0.1-0.5,0.6-0.5,0.9
					s0,0.8-0.2,1.1l-1.8,2.1v-1.6c-2,0.9-1.6-1.1-2.3-1.6c-1,0.4-1.9,0.9-2.8,1.5c-0.3,0.2-0.3,0.8-0.6,1.2
					c-0.3,0.4-0.5,0.8-0.9,1.2c-0.3-0.3-0.6-0.5-0.9-0.8c-1.2-0.7-2.4-1.4-3.6-2.1c-0.2-0.1-0.8,0.1-1.1,0.2
					C8.4,74.9,8.1,74.8,7.3,73.7"/>
				<path class="st3" d="M41.1,31.1c0,6.7-5.4,12.2-12.1,12.2c-6.7,0-12.2-5.4-12.2-12.1c0-6.7,5.4-12.2,12.1-12.2c0,0,0,0,0.1,0
					C35.6,19,41.1,24.4,41.1,31.1"/>
				<polygon class="st4" points="22.3,40.3 28.9,20 35.4,40.3 18.2,27.8 39.5,27.8 				"/>
				<path class="st2" d="M62.9,37.9V0h16.1c4.1,0,7,0.3,8.8,1c1.8,0.7,3.4,2,4.4,3.6c1.1,1.8,1.7,3.9,1.7,6c0.1,2.6-0.8,5.1-2.5,7.1
					c-1.7,1.8-4.2,3-7.5,3.5c1.5,0.8,2.9,1.9,4.1,3.2c1.6,1.9,3.1,4,4.4,6.2l4.6,7.4h-9.2l-5.5-8.3c-1.2-1.9-2.5-3.8-4-5.6
					c-0.6-0.7-1.4-1.3-2.3-1.6c-1.3-0.3-2.6-0.5-3.9-0.4h-1.5v15.8H62.9z M70.6,16h5.7c3.7,0,6-0.2,6.9-0.5c0.9-0.3,1.6-0.8,2.2-1.6
					c0.5-0.8,0.8-1.8,0.8-2.9c0.1-1.1-0.3-2.2-1-3.1c-0.8-0.8-1.8-1.4-2.9-1.5c-0.6-0.1-2.5-0.1-5.6-0.1h-6L70.6,16z"/>
				<polygon class="st2" points="101.2,37.9 101.2,0 129.3,0 129.3,6.4 108.8,6.4 108.8,14.8 127.9,14.8 127.9,21.2 108.8,21.2 
					108.8,31.5 130,31.5 130,37.9 				"/>
				<path class="st2" d="M170.8,37.9h-8.3l-3.3-8.6h-15.2l-3.1,8.6h-8.1L147.5,0h8.1L170.8,37.9z M156.6,22.9l-5.2-14.1l-5.1,14.1
					L156.6,22.9z"/>
				<polygon class="st2" points="175,37.9 175,0.3 182.7,0.3 182.7,31.5 201.7,31.5 201.7,37.9 				"/>
				<rect x="220.7" class="st3" width="7.7" height="37.9"/>
				<path class="st3" d="M235.7,0h14c2.4-0.1,4.9,0.2,7.2,0.7c2.2,0.6,4.2,1.8,5.7,3.5c1.6,1.8,2.9,3.9,3.6,6.1c0.9,2.9,1.3,6,1.2,9
					c0.1,2.7-0.3,5.5-1.2,8.1c-0.8,2.5-2.2,4.8-4.1,6.7c-1.5,1.4-3.4,2.4-5.4,3c-2.2,0.6-4.5,0.9-6.8,0.8h-14.4V0z M243.3,6.4v25.1
					h5.7c1.6,0.1,3.1-0.1,4.6-0.4c1.1-0.3,2.2-0.8,3.1-1.6c1-1,1.7-2.3,2-3.7c0.6-2.3,0.9-4.6,0.8-6.9c0.1-2.3-0.2-4.6-0.8-6.8
					c-0.4-1.4-1.2-2.6-2.2-3.7c-1-0.9-2.2-1.5-3.5-1.8c-2.1-0.3-4.2-0.4-6.3-0.4L243.3,6.4z"/>
				<rect x="64.1" y="46.8" class="st2" width="2.2" height="10.7"/>
				<path class="st2" d="M67.7,54l2.1-0.2c0.1,0.6,0.3,1.1,0.8,1.6c0.4,0.4,1,0.5,1.6,0.5c0.6,0,1.1-0.1,1.6-0.5
					c0.3-0.2,0.5-0.6,0.5-1c0-0.2-0.1-0.5-0.2-0.7c-0.2-0.2-0.5-0.4-0.8-0.5c-0.2-0.1-0.8-0.2-1.7-0.5c-0.9-0.2-1.7-0.5-2.4-1.1
					c-0.6-0.5-1-1.3-1-2.2c0-0.6,0.2-1.1,0.5-1.6c0.3-0.5,0.8-0.9,1.3-1.1c0.7-0.3,1.4-0.4,2.1-0.3c1.1-0.1,2.1,0.2,3,0.9
					c0.7,0.6,1.1,1.5,1.1,2.4L74,49.9c0-0.5-0.3-0.9-0.6-1.2c-0.4-0.3-0.9-0.4-1.4-0.4c-0.5,0-1,0.1-1.5,0.4
					c-0.2,0.2-0.3,0.4-0.3,0.7c0,0.3,0.1,0.5,0.3,0.7c0.6,0.4,1.3,0.6,2,0.7c0.8,0.2,1.6,0.4,2.3,0.8c0.5,0.3,0.9,0.6,1.2,1.1
					c0.3,0.5,0.4,1.1,0.4,1.7c0,0.6-0.2,1.2-0.5,1.7c-0.3,0.5-0.9,1-1.4,1.2c-0.7,0.3-1.5,0.4-2.3,0.4c-1.1,0.1-2.2-0.3-3.1-0.9
					C68.2,56,67.8,55,67.7,54"/>
				<polygon class="st2" points="84.8,57.5 84.8,53 80.9,46.8 83.4,46.8 85.9,51 88.4,46.8 90.9,46.8 87,53 87,57.5 				"/>
				<path class="st2" d="M91.5,52.2c0-0.9,0.2-1.9,0.5-2.8c0.2-0.5,0.6-1,1-1.4c0.4-0.4,0.9-0.8,1.4-1c0.7-0.3,1.5-0.4,2.3-0.4
					c1.4-0.1,2.8,0.5,3.8,1.5c1,1.1,1.5,2.6,1.4,4.1c0.1,1.5-0.4,3-1.4,4.1c-1,1-2.4,1.5-3.8,1.5c-1.4,0.1-2.8-0.5-3.8-1.5
					C91.9,55.1,91.4,53.7,91.5,52.2 M93.7,52.2c-0.1,1,0.2,2,0.8,2.8c0.5,0.6,1.3,1,2.1,0.9c0.8,0,1.6-0.3,2.1-0.9
					c0.6-0.8,0.9-1.8,0.8-2.8c0.1-1-0.2-2-0.8-2.8c-0.5-0.6-1.3-0.9-2.2-0.9c-0.8,0-1.6,0.3-2.2,0.9C94,50.2,93.7,51.2,93.7,52.2"/>
				<path class="st2" d="M103.5,46.8h2.2v5.8c0,0.6,0,1.2,0.1,1.8c0.1,0.4,0.3,0.8,0.7,1.1c0.4,0.3,0.9,0.4,1.4,0.4
					c0.5,0,1-0.1,1.4-0.4c0.3-0.2,0.5-0.6,0.6-0.9c0.1-0.6,0.1-1.2,0.1-1.8v-5.9h2.2v5.6c0,0.9,0,1.8-0.2,2.7
					c-0.1,0.5-0.3,1-0.7,1.3c-0.3,0.4-0.8,0.7-1.3,0.9c-0.7,0.2-1.4,0.4-2.1,0.3c-0.8,0-1.6-0.1-2.3-0.4c-0.5-0.2-0.9-0.5-1.3-0.9
					c-0.3-0.3-0.5-0.8-0.6-1.2c-0.2-0.9-0.2-1.8-0.2-2.7L103.5,46.8z"/>
				<path class="st2" d="M114.3,57.5V46.8h4.6c0.8,0,1.7,0.1,2.5,0.3c0.5,0.2,1,0.5,1.2,1c0.3,0.5,0.5,1.1,0.5,1.7
					c0,0.7-0.2,1.4-0.7,2c-0.6,0.6-1.3,0.9-2.1,1c0.4,0.2,0.8,0.5,1.2,0.9c0.5,0.5,0.9,1.1,1.2,1.7l1.3,2.1h-2.6l-1.6-2.3
					c-0.3-0.6-0.7-1.1-1.2-1.6c-0.2-0.2-0.4-0.4-0.7-0.4c-0.4-0.1-0.7-0.1-1.1-0.1h-0.4v4.5L114.3,57.5z M116.4,51.3h1.6
					c0.7,0,1.3,0,2-0.1c0.2-0.1,0.5-0.2,0.6-0.5c0.2-0.2,0.2-0.5,0.2-0.8c0-0.7-0.4-1.2-1.1-1.3c-0.2,0-0.7,0-1.6,0h-1.7L116.4,51.3
					z"/>
				<polygon class="st2" points="129.2,57.5 129.2,46.8 131.4,46.8 131.4,55.7 136.7,55.7 136.7,57.5 				"/>
				<rect x="138.1" y="46.8" class="st2" width="2.2" height="10.7"/>
				<path class="st2" d="M149.2,53.5l2.1,0.7c-0.2,1-0.8,1.9-1.6,2.6c-0.8,0.6-1.8,0.9-2.9,0.8c-1.3,0-2.6-0.5-3.5-1.5
					c-1-1.1-1.5-2.5-1.4-4c-0.1-1.5,0.4-3,1.4-4.2c1-1,2.3-1.6,3.7-1.5c1.2-0.1,2.3,0.4,3.2,1.2c0.5,0.6,0.9,1.2,1.1,2l-2.1,0.5
					c-0.1-0.5-0.4-1-0.8-1.3c-0.4-0.3-0.9-0.5-1.5-0.5c-0.7,0-1.5,0.3-1.9,0.9c-0.6,0.8-0.8,1.8-0.7,2.8c-0.1,1,0.2,2,0.7,2.9
					c0.5,0.6,1.2,0.9,1.9,0.9c0.5,0,1.1-0.2,1.5-0.5C148.8,54.8,149.1,54.2,149.2,53.5"/>
				<polygon class="st2" points="153.1,57.5 153.1,46.8 161,46.8 161,48.6 155.2,48.6 155.2,51 160.6,51 160.6,52.8 155.2,52.8 
					155.2,55.7 161.2,55.7 161.2,57.5 				"/>
				<polygon class="st2" points="163,57.5 163,46.8 165.1,46.8 169.5,53.9 169.5,46.8 171.5,46.8 171.5,57.5 169.4,57.5 165,50.5 
					165,57.5 				"/>
				<path class="st2" d="M173.2,54l2.1-0.2c0.1,0.6,0.3,1.1,0.8,1.6c1,0.6,2.2,0.6,3.1,0c0.3-0.2,0.5-0.6,0.5-1
					c0-0.2-0.1-0.5-0.2-0.7c-0.2-0.2-0.5-0.4-0.8-0.5c-0.2-0.1-0.8-0.2-1.7-0.5c-0.9-0.2-1.7-0.5-2.4-1.1c-0.6-0.5-1-1.3-1-2.2
					c0-0.5,0.2-1.1,0.5-1.5c0.3-0.5,0.8-0.9,1.3-1.1c0.7-0.3,1.4-0.4,2.1-0.4c1.1-0.1,2.1,0.2,3,0.9c0.7,0.6,1.1,1.5,1.1,2.4
					l-2.2,0.1c-0.1-0.5-0.3-0.9-0.6-1.2c-0.4-0.3-0.9-0.4-1.4-0.4c-0.5,0-1,0.1-1.5,0.4c-0.2,0.2-0.4,0.4-0.4,0.7
					c0,0.3,0.1,0.5,0.3,0.7c0.6,0.4,1.3,0.6,2,0.7c0.8,0.2,1.6,0.4,2.3,0.8c0.5,0.2,0.9,0.6,1.2,1.1c0.3,0.5,0.5,1.1,0.4,1.7
					c0,0.6-0.2,1.2-0.5,1.7c-0.3,0.5-0.9,1-1.4,1.2c-0.7,0.3-1.5,0.4-2.3,0.4c-1.1,0.1-2.2-0.3-3.1-0.9C173.7,56,173.3,55,173.2,54"
					/>
				<polygon class="st2" points="183.7,57.5 183.7,46.8 191.6,46.8 191.6,48.6 185.9,48.6 185.9,51 191.2,51 191.2,52.8 185.9,52.8 
					185.9,55.7 191.9,55.7 191.9,57.5 				"/>
				<path class="st2" d="M197.1,54l2.1-0.2c0.1,0.6,0.3,1.1,0.8,1.6c0.4,0.4,1,0.5,1.6,0.5c0.6,0,1.1-0.1,1.6-0.5
					c0.3-0.2,0.5-0.6,0.5-1c0-0.2-0.1-0.5-0.2-0.7c-0.2-0.2-0.5-0.4-0.8-0.5c-0.2-0.1-0.8-0.2-1.7-0.5c-0.9-0.2-1.7-0.5-2.4-1.1
					c-0.6-0.5-1-1.3-1-2.2c0-0.6,0.2-1.1,0.5-1.6c0.3-0.5,0.8-0.9,1.3-1.1c0.7-0.3,1.4-0.4,2.1-0.4c1.1-0.1,2.1,0.2,3,0.9
					c0.7,0.6,1.1,1.5,1.1,2.4l-2.2,0.1c0-0.5-0.3-0.9-0.6-1.2c-0.4-0.3-0.9-0.4-1.4-0.4c-0.5,0-1,0.1-1.5,0.4
					c-0.2,0.2-0.4,0.4-0.4,0.7c0,0.3,0.1,0.5,0.3,0.7c0.6,0.4,1.3,0.6,2,0.7c0.8,0.2,1.6,0.4,2.3,0.8c0.5,0.2,0.9,0.6,1.2,1.1
					c0.3,0.5,0.4,1.1,0.4,1.7c0,0.6-0.2,1.2-0.5,1.7c-0.3,0.5-0.9,1-1.4,1.2c-0.7,0.3-1.5,0.4-2.3,0.4c-1.1,0.1-2.2-0.3-3.1-0.9
					C197.7,56,197.2,55,197.1,54"/>
				<polygon class="st2" points="207.6,57.5 207.6,46.8 215.6,46.8 215.6,48.6 209.8,48.6 209.8,51 215.2,51 215.2,52.8 209.8,52.8 
					209.8,55.7 215.8,55.7 215.8,57.5 				"/>
				<path class="st2" d="M224.4,53.5l2.1,0.7c-0.2,1-0.8,1.9-1.6,2.6c-0.8,0.6-1.8,0.9-2.9,0.8c-1.3,0-2.6-0.5-3.5-1.5
					c-1-1.1-1.5-2.5-1.4-4c-0.1-1.5,0.4-3,1.4-4.2c0.9-1,2.3-1.5,3.6-1.5c1.2-0.1,2.3,0.4,3.2,1.2c0.5,0.6,0.9,1.2,1.1,2l-2.1,0.5
					c-0.2-1.1-1.2-1.8-2.3-1.8c-0.7,0-1.5,0.3-1.9,0.9c-0.6,0.8-0.8,1.8-0.7,2.8c-0.1,1,0.2,2,0.7,2.9c0.5,0.6,1.2,0.9,1.9,0.9
					c0.5,0,1.1-0.2,1.5-0.5C224,54.8,224.3,54.2,224.4,53.5"/>
				<path class="st2" d="M228.3,46.8h2.2v5.8c0,0.6,0,1.2,0.1,1.8c0.1,0.4,0.3,0.8,0.7,1.1c0.4,0.3,0.9,0.4,1.4,0.4
					c0.5,0,1-0.1,1.4-0.4c0.3-0.2,0.5-0.6,0.6-0.9c0.1-0.6,0.1-1.2,0.1-1.8v-5.9h2.2v5.6c0,0.9,0,1.8-0.2,2.7
					c-0.1,0.5-0.3,1-0.6,1.3c-0.3,0.4-0.8,0.7-1.3,0.9c-0.7,0.2-1.4,0.4-2.1,0.3c-0.8,0-1.6-0.1-2.3-0.4c-0.5-0.2-0.9-0.5-1.3-0.9
					c-0.3-0.3-0.5-0.8-0.6-1.2c-0.2-0.9-0.2-1.8-0.2-2.7V46.8z"/>
				<path class="st2" d="M239.1,57.5V46.8h4.6c0.8,0,1.7,0.1,2.5,0.3c0.5,0.2,1,0.5,1.2,1c0.3,0.5,0.5,1.1,0.5,1.7
					c0,0.7-0.2,1.5-0.7,2c-0.6,0.6-1.3,0.9-2.1,1c0.4,0.2,0.8,0.5,1.2,0.9c0.5,0.5,0.9,1.1,1.2,1.7l1.3,2.1h-2.6l-1.6-2.3
					c-0.3-0.6-0.7-1.1-1.1-1.6c-0.2-0.2-0.4-0.4-0.6-0.4c-0.4-0.1-0.7-0.1-1.1-0.1h-0.4v4.5L239.1,57.5z M241.2,51.3h1.6
					c0.6,0,1.3,0,1.9-0.1c0.3-0.1,0.5-0.2,0.6-0.5c0.2-0.2,0.2-0.5,0.2-0.8c0-0.7-0.4-1.2-1.1-1.3c-0.2,0-0.7,0-1.6,0h-1.7V51.3z"/>
				<polygon class="st2" points="249.8,57.5 249.8,46.8 257.8,46.8 257.8,48.6 252,48.6 252,51 257.4,51 257.4,52.8 252,52.8 
					252,55.7 258,55.7 258,57.5 				"/>
				<path class="st2" d="M264.2,54.7h-1.9c0-0.3,0-0.4,0-0.5c0-0.5,0.1-1,0.3-1.5c0.3-0.5,0.7-1,1.2-1.3c0.4-0.3,0.7-0.6,1.1-1
					c0.4-0.6,0.3-1.4-0.2-1.8c-0.4-0.3-0.8-0.5-1.3-0.4c-0.5,0-0.9,0.1-1.3,0.4c-0.4,0.4-0.6,0.8-0.7,1.4l-1.9-0.2
					c0.1-0.9,0.5-1.7,1.1-2.2c0.8-0.6,1.7-1,2.7-0.9c1-0.1,2,0.3,2.8,0.9c0.6,0.5,1,1.3,1,2.2c0,0.5-0.1,0.9-0.4,1.3
					c-0.5,0.6-1,1.2-1.6,1.7c-0.3,0.2-0.6,0.5-0.8,0.9C264.2,53.9,264.1,54.3,264.2,54.7 M262.3,55.4h2v2.1h-2V55.4z"/>
			</g>
		</g>
	</g>
</g>
</svg>
