<svg xmlns="http://www.w3.org/2000/svg" viewBox="0 0 84 29.39"><defs><style>.a{fill:#acb8ab;}.b{fill:#020202;}.c{fill:#fdfdfd;}.d{fill:#fff;}</style></defs><title>Artboard 7</title><path class="a" d="M81.62,7.84a6.11,6.11,0,0,0-1.28-.13H53.58a.54.54,0,0,1-.21,0,.75.75,0,0,1-.31-1.09c.1-.14.19-.28.28-.43a12.52,12.52,0,0,0,.72-1.19H44.31a.83.83,0,0,1-.77-.4C43,3.72,42.48,2.92,42,2.11a.72.72,0,0,0-.19.24L40.43,4.47a.89.89,0,0,1-.84.48c-2.92,0-5.84,0-8.76,0h-.91a.42.42,0,0,0,.1.27c.26.45.54.9.81,1.35a.73.73,0,0,1-.65,1.14H3.61a7.15,7.15,0,0,0-1,.08A1.75,1.75,0,0,0,2,8a.65.65,0,0,0-.33.38,1.78,1.78,0,0,0-.1.69c.06.45.09.9.15,1.35,0,.22,0,.44.08.65.1.48.13,1,.2,1.46s.11.9.17,1.35c.09.67.19,1.35.29,2,0,.22.06.44.09.65.07.44.15.87.2,1.31s.13.79.17,1.2.19,1,.27,1.55a12.1,12.1,0,0,0,.36,1.53,1.15,1.15,0,0,0,1,.84,5.51,5.51,0,0,0,1.07.08h9.24a.37.37,0,0,0,.25,0,3.25,3.25,0,0,1,.82-2h52a3.87,3.87,0,0,1,.78,2h9.71A5.57,5.57,0,0,0,79.56,23a1,1,0,0,0,.84-.62,5.89,5.89,0,0,0,.21-.59c.21-.76.29-1.55.43-2.33.1-.6.15-1.19.24-1.79s.19-1.25.28-1.88c.07-.46.11-.93.17-1.39.09-.63.19-1.26.28-1.88s.14-1.27.25-1.9c0-.21,0-.41.07-.62a5,5,0,0,0,.13-1.09,1,1,0,0,0-.84-1"/><path class="b" d="M84,8.37a2.28,2.28,0,0,0-1.51-1.88,5.22,5.22,0,0,0-2-.3H55.59a1.08,1.08,0,0,1-.43,0q.18-.27.33-.54a3.69,3.69,0,0,0,.46-1,1,1,0,0,0-.45-1.1,1.43,1.43,0,0,0-.67-.18H44.64L43.37,1.44l-.64-1a1,1,0,0,0-1.64,0L41,.66c-.28.46-.56.93-.85,1.39s-.56.89-.84,1.34H30.84l-1.63,0a1.36,1.36,0,0,0-.74.21.91.91,0,0,0-.46.86,1.34,1.34,0,0,0,.2.66c.14.25.27.5.4.75s.17.19.1.34H3a3.73,3.73,0,0,0-1.54.32A2.29,2.29,0,0,0,.1,8.08a4.86,4.86,0,0,0,0,1.7c.06.51.12,1,.2,1.53s.1,1,.17,1.43c.13,1,.28,1.94.42,2.92s.25,1.72.38,2.58.29,2,.46,3a7.2,7.2,0,0,0,.5,1.8A2.46,2.46,0,0,0,3.8,24.4a6.7,6.7,0,0,0,1.79.22c3.05,0,6.11,0,9.16,0a1.07,1.07,0,0,1,.4,0,4.22,4.22,0,0,0,.79,1.55H39.45l1.69,2.75a.86.86,0,0,0,.55.45h.45a1.1,1.1,0,0,0,.65-.58c.57-.86,1.12-1.74,1.68-2.62H67.74a4.22,4.22,0,0,0,.8-1.58h9.87a6.78,6.78,0,0,0,1.68-.2,2.51,2.51,0,0,0,1.84-1.71,9.68,9.68,0,0,0,.46-2c.09-.58.2-1.16.28-1.75s.16-1.21.24-1.82.19-1.21.28-1.82c.06-.44.1-.88.17-1.32.09-.65.17-1.31.27-2,.06-.43.12-.87.17-1.31s.11-.8.17-1.2a3.83,3.83,0,0,0,0-1.15M39.76,3.09c.5-.84,1-1.66,1.52-2.51,0-.1.14-.22.29-.17s0,.15.14.18a.76.76,0,0,0-.1.14c-.4.65-.79,1.3-1.19,1.94-.13.21-.25.42-.37.63a.25.25,0,0,1-.32.13.29.29,0,0,1,0-.34M28.39,4.84a.22.22,0,0,1,.09-.34.32.32,0,0,1,.21.16c.22.39.43.79.66,1.18a.32.32,0,0,1,0,.34.21.21,0,0,1-.26-.1c-.24-.41-.47-.83-.7-1.24m-26,17.61a.35.35,0,0,1-.22-.27c-.13-.78-.24-1.56-.39-2.34s-.22-1.4-.34-2.09c-.07-.41-.12-.83-.18-1.24L1,14.71.77,13.4C.71,12.94.63,12.48.58,12S.44,11.08.4,10.6.26,9.66.25,9.18c0-.09,0-.17,0-.25s.14,0,.22,0a.84.84,0,0,1,.1.32,5.51,5.51,0,0,0,.1.91c.05.5.13,1,.19,1.49,0,.23,0,.46.09.69.08.49.14,1,.21,1.49s.11.77.16,1.16l.21,1.37c.06.4.11.8.17,1.2s.13.84.2,1.26.11.74.17,1.12c.11.66.23,1.32.34,2a2.58,2.58,0,0,1,0,.4c0,.09-.07.12-.13.17m39.23,6.39a.33.33,0,0,1-.25-.12,3.3,3.3,0,0,1-.26-.39c-.32-.51-.62-1-1-1.53a.5.5,0,0,1,0-.36c.15-.07.24,0,.33.11.27.47.56.92.84,1.37l.44.71c0,.08-.07.14-.1.21M80.4,22.35a1,1,0,0,1-.84.62,5.57,5.57,0,0,1-1.22.09H68.63a3.87,3.87,0,0,0-.78-2h-52a3.31,3.31,0,0,0-.82,2,.37.37,0,0,1-.25,0H5.57A4.83,4.83,0,0,1,4.5,23a1.15,1.15,0,0,1-1-.84,11.71,11.71,0,0,1-.36-1.53c-.08-.52-.21-1-.27-1.55s-.12-.8-.17-1.2-.13-.87-.2-1.31c0-.21,0-.43-.09-.65-.1-.68-.2-1.36-.29-2C2.07,13.42,2,13,2,12.52s-.1-1-.2-1.46c-.05-.21-.05-.43-.08-.65-.06-.45-.09-.9-.15-1.35a1.81,1.81,0,0,1,.1-.69A.72.72,0,0,1,2,8a1.75,1.75,0,0,1,.62-.21,7.13,7.13,0,0,1,1-.07H30.19a.72.72,0,0,0,.64-1.13c-.27-.46-.55-.91-.81-1.36a.42.42,0,0,1-.1-.27h9.67a.88.88,0,0,0,.84-.48l1.33-2.12A.72.72,0,0,1,42,2.11c.53.81,1.07,1.61,1.59,2.43a.83.83,0,0,0,.77.4h9.76a12.57,12.57,0,0,1-.73,1.19,4,4,0,0,1-.28.43.75.75,0,0,0,.31,1.09.54.54,0,0,0,.22,0H80.34a6.11,6.11,0,0,1,1.28.13,1,1,0,0,1,.84,1A5,5,0,0,1,82.33,10c0,.21,0,.41-.07.62-.11.63-.16,1.27-.25,1.9s-.19,1.25-.28,1.88c-.06.46-.1.93-.17,1.39-.09.63-.19,1.25-.28,1.88s-.14,1.2-.24,1.79c-.14.78-.22,1.57-.43,2.33a5.89,5.89,0,0,1-.21.59M83.05,9c0,.53-.11,1.05-.2,1.56,0,.22,0,.44-.08.66-.08.45-.11.92-.18,1.38-.08.63-.21,1.25-.27,1.88s-.18,1.18-.25,1.78-.19,1.2-.28,1.8c-.06.43-.1.87-.16,1.3-.1.65-.21,1.3-.32,1.95,0,.2-.09.4-.12.61a.51.51,0,0,1-.2.36.27.27,0,0,1-.22-.19,7.43,7.43,0,0,0,.21-1c.07-.39.14-.78.2-1.18,0-.22.06-.44.09-.65.09-.61.15-1.21.25-1.82s.2-1.34.3-2c.07-.52.14-1,.22-1.55.1-.72.21-1.43.3-2.14s.18-1.3.27-1.95c0-.28.07-.57.09-.85s0-.22.32-.21a.29.29,0,0,1,0,.24"/><path class="c" d="M81,22.29a.27.27,0,0,1-.22-.19,7.43,7.43,0,0,0,.21-1c.07-.39.14-.79.2-1.18,0-.22.06-.44.09-.65.09-.61.15-1.21.25-1.82s.2-1.34.3-2c.07-.52.14-1,.22-1.55.1-.72.21-1.43.3-2.14s.18-1.3.27-1.95c0-.28.07-.57.09-.85s0-.22.32-.21a.29.29,0,0,1,0,.24c0,.53-.11,1-.2,1.56,0,.22,0,.44-.08.66-.08.45-.11.92-.18,1.38-.08.63-.21,1.25-.27,1.88s-.18,1.18-.25,1.78-.19,1.2-.28,1.8c-.06.43-.1.87-.16,1.3-.1.65-.21,1.3-.32,1.95,0,.2-.09.4-.12.61a.51.51,0,0,1-.2.36"/><path class="c" d="M2.35,22.45a.35.35,0,0,1-.22-.27c-.13-.78-.24-1.56-.39-2.34s-.22-1.4-.34-2.09c-.07-.41-.12-.83-.18-1.24L1,14.71.77,13.4C.71,12.94.63,12.48.58,12S.44,11.08.4,10.6.26,9.66.25,9.18c0-.09,0-.17,0-.25s.14,0,.22,0a.84.84,0,0,1,.1.32,5.51,5.51,0,0,0,.1.91c.05.5.13,1,.19,1.49,0,.23,0,.46.09.69.08.49.14,1,.21,1.49s.11.77.16,1.16l.21,1.37c.06.4.11.8.17,1.2s.13.84.2,1.26.11.74.17,1.12c.11.66.23,1.32.34,2a2.58,2.58,0,0,1,0,.4c0,.09-.07.12-.13.17"/><path class="c" d="M64,22.24h.52l1,1.59V22.24H66v2.58h-.49c-.32-.49-.65-1-1-1.54v1.31c0,.18-.1.3-.25.31s-.27-.12-.27-.32V22.24"/><path class="c" d="M17.69,24.84v-2.6a4.42,4.42,0,0,1,1.15.06,1.3,1.3,0,0,1,.6,2.14,1.11,1.11,0,0,1-.85.4c-.29,0-.59,0-.9,0m.53-2V24.3c.63,0,1-.26,1-.75s-.42-.77-1-.71"/><path class="d" d="M57.35,22.71l-.37.34c-.39-.46-.91-.36-1-.14s.31.33.51.38a2.69,2.69,0,0,1,.45.16.73.73,0,0,1,.44.7.69.69,0,0,1-.43.63,1.31,1.31,0,0,1-1.65-.43c-.07-.15-.06-.27,0-.34a.29.29,0,0,1,.35,0,.53.53,0,0,1,.14.12.8.8,0,0,0,.64.23c.21,0,.36-.19.27-.34s-.32-.18-.5-.23a1,1,0,0,1-.71-.48.69.69,0,0,1,.37-1,1.21,1.21,0,0,1,1.45.38"/><path class="d" d="M53,22.71l-.37.34c-.4-.46-.91-.36-1-.14s.32.33.51.38a2.18,2.18,0,0,1,.45.16.72.72,0,0,1,0,1.33A1.32,1.32,0,0,1,51,24.35.26.26,0,0,1,51,24a.29.29,0,0,1,.35,0,.75.75,0,0,1,.14.12.79.79,0,0,0,.64.23c.21,0,.36-.19.26-.34s-.31-.18-.5-.23a1,1,0,0,1-.7-.48.68.68,0,0,1,.37-1,1.21,1.21,0,0,1,1.45.38"/><path class="c" d="M40.6,24.7l-.48.16-.21-.57H38.79l-.14.42a.27.27,0,0,1-.33.16.26.26,0,0,1-.16-.34c.16-.46.51-1.45.68-1.92l.12-.36h.76Zm-1.26-2-.33,1,.76.22Z"/><path class="c" d="M61.5,22.24v.51H60.34v.52h.59a.27.27,0,0,1,0,.54h-.6v.5h1.18l-.19.51H59.81V22.24H61.5"/><path class="c" d="M48.7,22.24v.51H47.54v.52h.59a.27.27,0,0,1,0,.54h-.6v.5h1.18l-.19.51H47V22.24H48.7"/><path class="c" d="M23.6,23.78a6.06,6.06,0,0,1-.75,0v.5H24c-.06.18-.1.33-.16.51H22.33V22.26H24v.49H22.86a1.87,1.87,0,0,0,0,.53h.52c.35,0,.43.17.24.5"/><path class="c" d="M43.87,22.76v2.06h-.52v-2h-.69v-.54h1.75a.26.26,0,0,1,0,.52Z"/><path class="c" d="M41.57.41c.07.05,0,.15.14.18a.76.76,0,0,0-.1.14c-.4.65-.79,1.3-1.19,1.94-.13.21-.25.42-.37.63a.25.25,0,0,1-.32.13.29.29,0,0,1,0-.34c.5-.84,1-1.66,1.52-2.51,0-.1.14-.22.29-.17"/><path class="c" d="M41.68,28.62c0,.08-.07.15-.1.22a.33.33,0,0,1-.25-.12,3.3,3.3,0,0,1-.26-.39c-.32-.51-.62-1-1-1.53a.5.5,0,0,1,0-.36c.15-.07.24,0,.33.11.27.47.56.92.84,1.37l.44.7"/><path class="c" d="M28.48,4.5a.34.34,0,0,1,.21.16c.22.39.43.79.66,1.18a.32.32,0,0,1,0,.34.21.21,0,0,1-.26-.1c-.24-.41-.47-.83-.7-1.24a.22.22,0,0,1,.09-.34"/><path class="b" d="M79.49,19.53A6.32,6.32,0,0,1,70,20c.33-.59.64-1.22,1-1.83a6.08,6.08,0,0,0,2.3,1.15,4.43,4.43,0,0,0,1.45.07.25.25,0,0,0,0-.23l-2.25-3.71-2.36-3.89c-.15-.23-.15-.24,0-.44a6.67,6.67,0,0,1,2.74-1.82,5.32,5.32,0,0,1,2.32-.2A8.69,8.69,0,0,1,78,9.93c.28.14.55.32.85.5-.29.66-.57,1.3-.85,2a6.72,6.72,0,0,0-3.24-.89.16.16,0,0,0,0,.22c.71,1.16,1.41,2.33,2.11,3.49l2,3.36.58,1m-9-8.23a.35.35,0,0,0,0,.37c.16.25.31.5.46.75L72.55,15l1.56,2.54c.31.51.62,1,.94,1.53.11.19.12.18.38.11.09-.19-.05-.33-.14-.47-.56-.93-1.13-1.86-1.7-2.79s-1.09-1.82-1.65-2.73c-.36-.58-.72-1.16-1.06-1.75a.29.29,0,0,0-.39-.16"/><path class="b" d="M9.81,19.43c-1.62-2.67-3.23-5.32-4.84-8a8,8,0,0,1,.88-.87A6.1,6.1,0,0,1,8,9.38a4,4,0,0,1,1.19-.2,7,7,0,0,1,3.09.54,6.86,6.86,0,0,1,1.55.84c-.27.64-.55,1.27-.83,1.93a6.29,6.29,0,0,0-3.32-.83c1.6,2.69,3.22,5.33,4.82,8a4.67,4.67,0,0,1-1,1.06,6.53,6.53,0,0,1-2.61,1.19,6.19,6.19,0,0,1-1.55.1,5.91,5.91,0,0,1-2.93-.83,10.59,10.59,0,0,1-1.23-.88A.42.42,0,0,1,5,20.07c.31-.55.63-1.14.94-1.71.17-.06.26.05.35.12a5.23,5.23,0,0,0,2.08.94,2.29,2.29,0,0,0,1.44,0m.57-.33a3,3,0,0,0-.15-.31L8.06,15.25,6.29,12.33c-.2-.32-.41-.64-.6-1-.07-.12-.16-.1-.25-.07a.18.18,0,0,0-.1.25,2.15,2.15,0,0,0,.14.26l1.86,3c.77,1.27,1.54,2.56,2.32,3.83a1.66,1.66,0,0,0,.43.59l.09,0a.58.58,0,0,0,.2-.21"/><path class="b" d="M56.81,15.81l1.75,2.69H56.34a.63.63,0,0,1-.19-.23c-.37-.57-.75-1.13-1.11-1.7a.38.38,0,0,0-.41-.23c-.2,0-.4,0-.62,0,0,.37,0,.72,0,1.08v1a23.78,23.78,0,0,1-3,0c0-.33-.05-7.62,0-8.29.07-.07.16,0,.25,0H55A3.05,3.05,0,0,1,58,12.5a2.73,2.73,0,0,1,.13.9,3.35,3.35,0,0,1-.73,1.88c-.16.19-.36.33-.54.53M54,14.31c.6.08,1.11,0,1.41-.57a1.13,1.13,0,0,0-.06-1.21c-.34-.52-.84-.47-1.35-.42Zm-2.77,0v3.73c0,.15.07.22.19.22s.18-.06.2-.22V10.79a1.51,1.51,0,0,0,0-.3.18.18,0,0,0-.21-.11.16.16,0,0,0-.15.14,2.35,2.35,0,0,0,0,.26v3.54"/><path class="b" d="M67.19,11.31v6a4.39,4.39,0,0,1-2.43,1.34,4.16,4.16,0,0,1-4.19-2,.76.76,0,0,1-.1-.39c0-1.31,0-2.63,0-3.94a1.08,1.08,0,0,1,.21-.58,4.11,4.11,0,0,1,2.69-1.83,4,4,0,0,1,3,.64,4.25,4.25,0,0,1,.81.73m-1.87.39a2.38,2.38,0,0,0-1.56-.27.16.16,0,0,0-.15.18v5c0,.08,0,.17,0,.25a2.52,2.52,0,0,0,1.67-.17Zm-4.2.43c-.29-.07-.33-.05-.35.19v3.87a1.62,1.62,0,0,0,0,.22.18.18,0,0,0,.19.15.17.17,0,0,0,.17-.16,1.62,1.62,0,0,0,0-.22V12.42c0-.1,0-.2,0-.29"/><path class="b" d="M38.56,16.34v2.15h-3v-8.3c.08-.07.18,0,.27,0h3.65A2.85,2.85,0,0,1,42,11.44a3,3,0,0,1,.59,2.19,3,3,0,0,1-2.48,2.69,4.4,4.4,0,0,1-.89,0h-.65m-2.33,1.9a.53.53,0,0,0,0-.12v-7.4a1.21,1.21,0,0,0,0-.19.18.18,0,0,0-.29-.1c-.16.1-.13.25-.13.39v7.07a1.61,1.61,0,0,0,0,.22c0,.09.15.23.22.23l.19-.1m2.34-3.91h.62a.69.69,0,0,0,.28-.08A1.22,1.22,0,0,0,40.12,13a1.18,1.18,0,0,0-.83-.94,1.93,1.93,0,0,0-.72,0Z"/><path class="b" d="M22.89,18.49h-1.7V17.1H19.26v1.39H16.61c-.06-.26-.08-7.72,0-8.32h2.67v5h1.91a8.18,8.18,0,0,0,0-1c0-.33,0-.67,0-1v-3h1.7Zm-5.65-4.12V10.83a1.48,1.48,0,0,0,0-.3.19.19,0,0,0-.32-.09.43.43,0,0,0-.1.31c0,2.38,0,4.77,0,7.15a.76.76,0,0,0,0,.15.27.27,0,0,0,.27.22c.13,0,.16-.13.16-.25a1.77,1.77,0,0,1,0-.23Z"/><path class="b" d="M30.94,17.24H28.61c-.21.39-.25.86-.48,1.25H25.51l2.89-8.32h1.73c1,2.74,1.93,5.52,2.91,8.33-.29,0-.56,0-.84,0h-.82l-.44-1.27m-4.92,1c.16,0,.25,0,.32-.2.41-1.23.84-2.46,1.26-3.69s.81-2.37,1.22-3.55c0-.11.08-.21,0-.3s-.18-.07-.29,0c-.17.49-.36,1-.53,1.47-.32.92-.63,1.84-.94,2.76L26,17.9a.3.3,0,0,0,.05.36m4.28-2.91c-.2-.51-.32-1-.55-1.52-.18.55-.34,1-.51,1.52Z"/><path class="b" d="M48,10.17v8.29a22.2,22.2,0,0,1-2.74,0V10.17Zm-2.2.23c-.29,0-.31,0-.32.27v7.41a.22.22,0,0,0,.36.15c.08-.06.07-.15.07-.23V10.85a.6.6,0,0,0-.11-.45"/><path class="b" d="M68.58,12.17c-.16,0-.22-.16-.34-.19-.12-.37.32-.61.18-1a.83.83,0,0,0-.21-.09,1,1,0,0,1-.73-1.07A.88.88,0,0,1,68.29,9a.86.86,0,0,1,1,.6,2.09,2.09,0,0,1-.6,2.49l-.09.05"/><path class="c" d="M70.49,11.3a.29.29,0,0,1,.39.16c.34.59.7,1.17,1.06,1.75.56.91,1.1,1.82,1.65,2.73s1.14,1.86,1.7,2.79c.09.14.23.28.14.47-.26.07-.27.08-.38-.11-.32-.51-.63-1-.94-1.53L72.55,15,71,12.42c-.15-.25-.3-.5-.46-.75a.35.35,0,0,1,0-.37"/><path class="c" d="M10.38,19.1a.58.58,0,0,1-.2.21l-.09,0a1.66,1.66,0,0,1-.43-.59c-.78-1.27-1.55-2.56-2.32-3.83l-1.86-3a2.15,2.15,0,0,1-.14-.26.18.18,0,0,1,.1-.25c.09,0,.18,0,.25.07.19.33.4.65.6,1l1.77,2.92,2.17,3.54a3,3,0,0,1,.15.31"/><path class="a" d="M54,14.31v-2.2c.51,0,1-.1,1.35.42a1.13,1.13,0,0,1,.06,1.21c-.3.59-.81.65-1.41.57"/><path class="c" d="M51.23,14.32V10.78a2.35,2.35,0,0,1,0-.26.16.16,0,0,1,.15-.14.18.18,0,0,1,.21.11,1.51,1.51,0,0,1,0,.3v7.26c0,.16-.08.22-.2.22s-.18-.07-.19-.22V14.32Z"/><path class="a" d="M65.32,11.7v5a2.52,2.52,0,0,1-1.67.17c-.07-.08,0-.17,0-.25v-5a.16.16,0,0,1,.15-.18,2.38,2.38,0,0,1,1.56.27"/><path class="c" d="M61.12,12.13c.05.09,0,.19,0,.29v3.76a1.62,1.62,0,0,1,0,.22.17.17,0,0,1-.17.16.18.18,0,0,1-.19-.15,1.62,1.62,0,0,1,0-.22V12.32c0-.24.06-.26.35-.19"/><path class="c" d="M36.23,18.24l-.19.1c-.07,0-.21-.14-.22-.23a1.61,1.61,0,0,1,0-.22V10.82c0-.14,0-.29.13-.39a.18.18,0,0,1,.29.1,1.21,1.21,0,0,1,0,.19v7.4a.53.53,0,0,1,0,.12"/><path class="a" d="M38.57,14.33V12a1.93,1.93,0,0,1,.72,0,1.18,1.18,0,0,1,.83.94,1.22,1.22,0,0,1-.65,1.25.69.69,0,0,1-.28.08h-.62"/><path class="c" d="M17.24,14.37v3.42a1.77,1.77,0,0,0,0,.23c0,.12,0,.22-.16.25a.27.27,0,0,1-.27-.22.76.76,0,0,1,0-.15c0-2.38,0-4.77,0-7.15a.43.43,0,0,1,.1-.31.19.19,0,0,1,.32.09,1.48,1.48,0,0,1,0,.3v3.54"/><path class="c" d="M26,18.26A.3.3,0,0,1,26,17.9l1.08-3.18c.31-.92.62-1.84.94-2.76.17-.49.36-1,.53-1.47.11,0,.2-.06.29,0s.05.19,0,.3C28.41,12,28,13.19,27.6,14.37s-.85,2.46-1.26,3.69c-.07.2-.16.22-.32.2"/><path class="a" d="M30.3,15.35H29.24c.17-.5.33-1,.51-1.52.23.52.35,1,.55,1.52"/><path class="c" d="M45.82,10.4a.6.6,0,0,1,.11.45V18c0,.08,0,.17-.07.23a.22.22,0,0,1-.36-.15V10.67c0-.25,0-.26.32-.27"/><path class="a" d="M46.27,6.05c.2,0,.26.06.27.26s-.06.26-.26.27S46,6.51,46,6.32s.07-.26.26-.27"/><path class="a" d="M41.46,6.63a2,2,0,0,1-.59,0c.23-.33.39-.33.59,0"/><path class="c" d="M35.39,24A.75.75,0,0,1,34,23.75a.75.75,0,0,1,.73-.95.77.77,0,0,1,.56.25.26.26,0,0,0,.34,0,.27.27,0,0,0,.07-.41,1.31,1.31,0,0,0-1.29-.4,1.29,1.29,0,0,0-.95,1,1.31,1.31,0,0,0,2.36,1,.27.27,0,0,0-.1-.39.27.27,0,0,0-.36.07"/><path class="c" d="M30.9,24.82h-.53V22.41a.27.27,0,0,1,.53,0Z"/><path class="c" d="M27,24.32V22.41a.27.27,0,0,0-.53,0v2.41h1.42l.18-.5Z"/><path class="b" d="M78.81,28a1.46,1.46,0,1,1,1.46-1.46A1.46,1.46,0,0,1,78.81,28m0-2.59a1.13,1.13,0,1,0,1.13,1.13,1.13,1.13,0,0,0-1.13-1.13"/><path d="M79.05,27.36l-.28-.68h-.25v.68H78.2V25.72h.63a.63.63,0,0,1,.19,0l.16.1a.44.44,0,0,1,.12.15.59.59,0,0,1,0,.2.45.45,0,0,1-.08.26.4.4,0,0,1-.19.15l.34.75Zm0-1.25a.15.15,0,0,0,0-.06.12.12,0,0,0-.08,0l-.09,0h-.26v.43h.35l.08,0a.18.18,0,0,0,0-.07.2.2,0,0,0,0-.09.3.3,0,0,0,0-.1"/></svg>