<svg xmlns="http://www.w3.org/2000/svg" viewBox="0 0 161.21 8.15"><defs><style>.a{fill:#806811;}</style></defs><title>copy_one</title><path class="a" d="M0,8V.14H3a8.75,8.75,0,0,1,1.2.07,2.49,2.49,0,0,1,1,.37,2,2,0,0,1,.63.76A2.44,2.44,0,0,1,6,2.42a2.41,2.41,0,0,1-.64,1.7,3.08,3.08,0,0,1-2.31.69H1V8ZM1,3.88h2a2.15,2.15,0,0,0,1.43-.37,1.36,1.36,0,0,0,.43-1.06,1.49,1.49,0,0,0-.25-.85A1.18,1.18,0,0,0,4,1.14a4.25,4.25,0,0,0-1-.07H1Z"/><path class="a" d="M9.34,8V.14H15v.93H10.38V3.48h4.36V4.4H10.38V7.08h4.83V8Z"/><path class="a" d="M17.77,8l3-7.87h1.13L25.14,8H24L23,5.63H19.74L18.88,8ZM20,4.78h2.67L21.89,2.6c-.25-.66-.44-1.21-.56-1.63a10.51,10.51,0,0,1-.42,1.5Z"/><path class="a" d="M33.57,5.25l1,.27a3.5,3.5,0,0,1-1.18,2,3.25,3.25,0,0,1-2.08.68,3.69,3.69,0,0,1-2.07-.52,3.24,3.24,0,0,1-1.21-1.5A5.33,5.33,0,0,1,27.65,4a4.7,4.7,0,0,1,.47-2.15A3.21,3.21,0,0,1,29.46.48,3.86,3.86,0,0,1,31.37,0a3.21,3.21,0,0,1,2,.6A3.09,3.09,0,0,1,34.48,2.3l-1,.24a2.46,2.46,0,0,0-.79-1.25A2.14,2.14,0,0,0,31.35.9a2.53,2.53,0,0,0-1.52.43A2.31,2.31,0,0,0,29,2.5,4.83,4.83,0,0,0,28.72,4,4.73,4.73,0,0,0,29,5.77a2.17,2.17,0,0,0,.91,1.12,2.59,2.59,0,0,0,1.33.37,2.25,2.25,0,0,0,1.49-.51A2.55,2.55,0,0,0,33.57,5.25Z"/><path class="a" d="M37.89,8V.14h5.69v.93H38.93V3.48h4.35V4.4H38.93V7.08h4.83V8Z"/><path class="a" d="M51.9,4.18A4.28,4.28,0,0,1,53,1.11,3.58,3.58,0,0,1,55.67,0a3.77,3.77,0,0,1,2,.52A3.39,3.39,0,0,1,59,2a4.69,4.69,0,0,1,.46,2.12A4.65,4.65,0,0,1,59,6.23a3.32,3.32,0,0,1-1.37,1.43,3.85,3.85,0,0,1-1.91.49,3.69,3.69,0,0,1-2-.54,3.44,3.44,0,0,1-1.33-1.47A4.4,4.4,0,0,1,51.9,4.18ZM53,4.2a3.17,3.17,0,0,0,.77,2.24,2.67,2.67,0,0,0,3.86,0,3.37,3.37,0,0,0,.76-2.35A4,4,0,0,0,58,2.4a2.52,2.52,0,0,0-1-1.11A2.62,2.62,0,0,0,55.68.9a2.66,2.66,0,0,0-1.91.76A3.39,3.39,0,0,0,53,4.2Z"/><path class="a" d="M62.81,8V.14h5.31v.93H63.85V3.51h3.69v.93H63.85V8Z"/><path class="a" d="M76.46,8V.14H78l1.87,5.57c.17.52.3.91.37,1.17q.13-.43.42-1.26L82.57.14H84V8H83V1.42L80.68,8h-.94l-2.28-6.7V8Z"/><path class="a" d="M87.8,8V.14h1V8Z"/><path class="a" d="M92.65,8V.14h1.06l4.14,6.18V.14h1V8H97.78L93.64,1.83V8Z"/><path class="a" d="M102.57,8V.14h2.71a7,7,0,0,1,1.4.11,2.69,2.69,0,0,1,1.16.57,3.3,3.3,0,0,1,.93,1.34A5.2,5.2,0,0,1,109.08,4a5.47,5.47,0,0,1-.21,1.59,3.73,3.73,0,0,1-.54,1.15,2.81,2.81,0,0,1-.71.71,2.87,2.87,0,0,1-.94.4,5.39,5.39,0,0,1-1.27.13Zm1-.93h1.68a4,4,0,0,0,1.22-.14,1.69,1.69,0,0,0,.71-.41,2.52,2.52,0,0,0,.58-1A4.87,4.87,0,0,0,108,4a3.66,3.66,0,0,0-.4-1.9,2,2,0,0,0-1-.89,4,4,0,0,0-1.34-.16h-1.66Z"/><path class="a" d="M117.7,8V.14h1V8Z"/><path class="a" d="M122.2,5.48l1-.08a2.22,2.22,0,0,0,.33,1,1.8,1.8,0,0,0,.79.61,2.94,2.94,0,0,0,1.21.23,3,3,0,0,0,1-.17,1.43,1.43,0,0,0,.68-.49,1.12,1.12,0,0,0,.22-.67,1,1,0,0,0-.21-.65,1.57,1.57,0,0,0-.71-.47,14,14,0,0,0-1.4-.38,7.06,7.06,0,0,1-1.52-.49,2.1,2.1,0,0,1-.84-.73,1.78,1.78,0,0,1-.28-1,2,2,0,0,1,.34-1.12,2,2,0,0,1,1-.79A3.69,3.69,0,0,1,125.27,0a3.93,3.93,0,0,1,1.55.28,2.22,2.22,0,0,1,1,.83,2.39,2.39,0,0,1,.39,1.24l-1,.07a1.62,1.62,0,0,0-.54-1.13,2.16,2.16,0,0,0-1.38-.38,2.19,2.19,0,0,0-1.37.35,1,1,0,0,0-.44.84.9.9,0,0,0,.31.69,4.17,4.17,0,0,0,1.57.57,9.42,9.42,0,0,1,1.74.5,2.42,2.42,0,0,1,1,.8,1.94,1.94,0,0,1,.33,1.12A2.12,2.12,0,0,1,128.11,7a2.43,2.43,0,0,1-1,.87,3.67,3.67,0,0,1-1.51.31,4.63,4.63,0,0,1-1.79-.31,2.52,2.52,0,0,1-1.14-.94A2.67,2.67,0,0,1,122.2,5.48Z"/><path class="a" d="M138.7,8V1.07h-2.59V.14h6.24v.93h-2.61V8Z"/><path class="a" d="M145.43,8V.14h1V3.37h4.09V.14h1.05V8h-1.05V4.3h-4.09V8Z"/><path class="a" d="M155.33,8V.14H161v.93h-4.66V3.48h4.36V4.4h-4.36V7.08h4.84V8Z"/></svg>