<?xml version="1.0" encoding="UTF-8"?>
<svg width="20px" height="135px" viewBox="0 0 20 135" version="1.1" xmlns="http://www.w3.org/2000/svg" xmlns:xlink="http://www.w3.org/1999/xlink">
    <!-- Generator: Sketch 52.5 (67469) - http://www.bohemiancoding.com/sketch -->
    <title>arrow</title>
    <desc>Created with Sketch.</desc>
    <g id="00.-Symbols" stroke="none" stroke-width="1" fill="none" fill-rule="evenodd">
        <g id="Icon-/-Scroll-Direction-/-Down" transform="translate(-8.000000, 1.000000)" fill="#F5F0ED">
            <g id="arrow" transform="translate(8.000000, 0.000000)">
                <path id="Line" d="M11.4247868,2 L11.4247868,7.5 C11.4247868,8.32842712 10.7532139,9 9.92478675,9 C9.09635963,9 8.42478675,8.32842712 8.42478675,7.5 L8.42478675,2 L1.92478675,2 C1.09635963,2 0.424786754,1.32842712 0.424786754,0.5 C0.424786754,-0.328427125 1.09635963,-1 1.92478675,-1 L17.9247868,-1 C18.7532139,-1 19.4247868,-0.328427125 19.4247868,0.5 C19.4247868,1.32842712 18.7532139,2 17.9247868,2 L11.4247868,2 Z M8.42478675,14.5 C8.42478675,13.6715729 9.09635963,13 9.92478675,13 C10.7532139,13 11.4247868,13.6715729 11.4247868,14.5 L11.4247868,21.5 C11.4247868,22.3284271 10.7532139,23 9.92478675,23 C9.09635963,23 8.42478675,22.3284271 8.42478675,21.5 L8.42478675,14.5 Z M8.42478675,28.5 C8.42478675,27.6715729 9.09635963,27 9.92478675,27 C10.7532139,27 11.4247868,27.6715729 11.4247868,28.5 L11.4247868,35.5 C11.4247868,36.3284271 10.7532139,37 9.92478675,37 C9.09635963,37 8.42478675,36.3284271 8.42478675,35.5 L8.42478675,28.5 Z M8.42478675,42.5 C8.42478675,41.6715729 9.09635963,41 9.92478675,41 C10.7532139,41 11.4247868,41.6715729 11.4247868,42.5 L11.4247868,49.5 C11.4247868,50.3284271 10.7532139,51 9.92478675,51 C9.09635963,51 8.42478675,50.3284271 8.42478675,49.5 L8.42478675,42.5 Z M8.42478675,56.5 C8.42478675,55.6715729 9.09635963,55 9.92478675,55 C10.7532139,55 11.4247868,55.6715729 11.4247868,56.5 L11.4247868,63.5 C11.4247868,64.3284271 10.7532139,65 9.92478675,65 C9.09635963,65 8.42478675,64.3284271 8.42478675,63.5 L8.42478675,56.5 Z M8.42478675,70.5 C8.42478675,69.6715729 9.09635963,69 9.92478675,69 C10.7532139,69 11.4247868,69.6715729 11.4247868,70.5 L11.4247868,77.5 C11.4247868,78.3284271 10.7532139,79 9.92478675,79 C9.09635963,79 8.42478675,78.3284271 8.42478675,77.5 L8.42478675,70.5 Z M8.42478675,84.5 C8.42478675,83.6715729 9.09635963,83 9.92478675,83 C10.7532139,83 11.4247868,83.6715729 11.4247868,84.5 L11.4247868,91.5 C11.4247868,92.3284271 10.7532139,93 9.92478675,93 C9.09635963,93 8.42478675,92.3284271 8.42478675,91.5 L8.42478675,84.5 Z M8.42478675,98.5 C8.42478675,97.6715729 9.09635963,97 9.92478675,97 C10.7532139,97 11.4247868,97.6715729 11.4247868,98.5 L11.4247868,105.5 C11.4247868,106.328427 10.7532139,107 9.92478675,107 C9.09635963,107 8.42478675,106.328427 8.42478675,105.5 L8.42478675,98.5 Z M8.42478675,112.5 C8.42478675,111.671573 9.09635963,111 9.92478675,111 C10.7532139,111 11.4247868,111.671573 11.4247868,112.5 L11.4247868,119.5 C11.4247868,120.328427 10.7532139,121 9.92478675,121 C9.09635963,121 8.42478675,120.328427 8.42478675,119.5 L8.42478675,112.5 Z M8.42478675,126.5 C8.42478675,125.671573 9.09635963,125 9.92478675,125 C10.7532139,125 11.4247868,125.671573 11.4247868,126.5 L11.4247868,130.505859 C11.4247868,131.334286 10.7532139,132.005859 9.92478675,132.005859 C9.09635963,132.005859 8.42478675,131.334286 8.42478675,130.505859 L8.42478675,126.5 Z" fill-rule="nonzero"></path>
                <path d="M7.82842712,117.899495 L15,117.899495 C16.1045695,117.899495 17,118.794925 17,119.899495 L17,127.071068 C17,128.175637 16.1045695,129.071068 15,129.071068 C14.469567,129.071068 13.9608592,128.860354 13.5857864,128.485281 L6.41421356,121.313708 C5.63316498,120.53266 5.63316498,119.26633 6.41421356,118.485281 C6.78928632,118.110209 7.29799415,117.899495 7.82842712,117.899495 Z" id="Rectangle" transform="translate(10.000000, 124.899495) rotate(-225.000000) translate(-10.000000, -124.899495) "></path>
            </g>
        </g>
    </g>
</svg>