<?xml version="1.0" encoding="UTF-8"?>
<svg width="96px" height="96px" viewBox="0 0 96 96" version="1.1" xmlns="http://www.w3.org/2000/svg" xmlns:xlink="http://www.w3.org/1999/xlink">
    <!-- Generator: Sketch 52.5 (67469) - http://www.bohemiancoding.com/sketch -->
    <title>Icon / Illustration / Camping Lantern</title>
    <desc>Created with Sketch.</desc>
    <defs>
        <polygon id="path-1" points="0 86.8507803 67 86.8507803 67 1.01464394 0 1.01464394"></polygon>
    </defs>
    <g id="Icon-/-Illustration-/-Camping-Lantern" stroke="none" stroke-width="1" fill="none" fill-rule="evenodd">
        <g id="Group-93" transform="translate(15.000000, 4.000000)">
            <path d="M35.4832,45.6028394 L35.2385485,45.6028394 C35.2233212,45.6028394 35.2091091,45.6028394 35.1959121,45.6008091 C26.9660788,45.4972636 23.0069879,40.9108091 22.740003,31.1927636 C22.4953515,22.2492788 21.8436242,19.7195212 21.2528061,18.0516273 C20.830503,16.8567939 20.8822758,15.8771727 21.4081242,15.1401727 C22.2791242,13.9179303 24.1277152,13.936203 24.1835485,13.9219909 L27.8726091,13.9128545 L27.8736242,13.9128545 C28.1527909,13.9128545 28.3801848,14.1392333 28.3812,14.4194152 C28.3822152,14.699597 28.1548212,14.9269909 27.8746394,14.9280061 L24.180503,14.9371424 C24.1541091,14.9371424 22.7907606,14.9442485 22.2324273,15.7320061 C21.9126545,16.1837485 21.9055485,16.8496879 22.2111091,17.7125667 C22.8557303,19.5337485 23.5064424,22.0726424 23.7551545,31.1653545 C24.0079273,40.4001879 27.5893818,44.5450515 35.3613818,44.5876879 C43.1323667,44.5450515 46.7138212,40.4001879 46.9665939,31.1653545 C47.2153061,22.0726424 47.8660182,19.5337485 48.5106394,17.7125667 C48.8172152,16.8476576 48.8090939,16.180703 48.4883061,15.7289606 C47.9330182,14.9513545 46.5747455,14.9371424 46.5473364,14.9371424 L46.5463212,14.9371424 L42.8471091,14.9280061 C42.5669273,14.9269909 42.3395333,14.699597 42.3405485,14.4194152 C42.3415636,14.1392333 42.5679424,13.9128545 42.8481242,13.9128545 L42.8491394,13.9128545 L46.5442909,13.9219909 C46.6275333,13.9260515 48.4477,13.9240212 49.3136242,15.1401727 C49.8394727,15.8771727 49.8912455,16.8567939 49.4679273,18.0516273 C48.8771091,19.7195212 48.226397,22.2492788 47.9817455,31.1927636 C47.7147606,40.9108091 43.7546545,45.4972636 35.5268515,45.6008091 C35.5116242,45.6028394 35.4984273,45.6028394 35.4832,45.6028394" id="Fill-1" fill="#79655C"></path>
            <path d="M36.1762439,2.15699394 C36.1762439,2.78841818 35.6646076,3.29903939 35.0341985,3.29903939 C34.4027742,3.29903939 33.892153,2.78841818 33.892153,2.15699394 C33.892153,1.52658485 34.4027742,1.01494848 35.0341985,1.01494848 C35.6646076,1.01494848 36.1762439,1.52658485 36.1762439,2.15699394" id="Fill-3" fill="#79655C"></path>
            <path d="M21.3186894,33.7535848 C21.3186894,46.1049333 30.5393106,50.6731152 35.2770227,50.6731152 C40.0147348,50.6731152 48.9815682,46.1049333 48.9815682,33.4155394 C48.9815682,20.7261455 43.144447,13.5348121 35.1501288,13.5348121 C27.1558106,13.5348121 21.3186894,21.4022364 21.3186894,33.7535848" id="Fill-5" fill="#F4C9A1"></path>
            <path d="M35.1491136,14.0428955 C27.1791591,14.0428955 21.82525,21.9641227 21.82525,33.7540924 C21.82525,46.0333652 31.0631288,50.1650318 35.2760076,50.1650318 C39.5812652,50.1650318 48.4729773,46.0709258 48.4729773,33.4150318 C48.4729773,21.6473955 43.2429167,14.0428955 35.1491136,14.0428955 M35.2760076,51.1801833 C30.7443712,51.1801833 20.8100985,46.7926985 20.8100985,33.7540924 C20.8100985,21.3570621 26.5731136,13.0277439 35.1491136,13.0277439 C43.8601288,13.0277439 49.4881288,21.0301833 49.4881288,33.4150318 C49.4881288,46.8383803 39.9122045,51.1801833 35.2760076,51.1801833" id="Fill-7" fill="#79655C"></path>
            <path d="M17.7656591,19.0338879 L52.8726439,19.0338879 C53.4340227,19.0338879 53.8877955,19.4886758 53.8877955,20.0490394 C53.8877955,20.609403 53.4340227,21.0641909 52.8726439,21.0641909 L17.7656591,21.0641909 C17.2042803,21.0641909 16.7505076,20.609403 16.7505076,20.0490394 C16.7505076,19.4886758 17.2042803,19.0338879 17.7656591,19.0338879" id="Fill-9" fill="#829182"></path>
            <path d="M17.7646439,19.5414636 C17.4854773,19.5414636 17.2570682,19.7688576 17.2570682,20.0490394 C17.2570682,20.3292212 17.4854773,20.5566152 17.7646439,20.5566152 L52.8726439,20.5566152 C53.1518106,20.5566152 53.3802197,20.3292212 53.3802197,20.0490394 C53.3802197,19.7688576 53.1518106,19.5414636 52.8726439,19.5414636 L17.7646439,19.5414636 Z M52.8726439,21.5717667 L17.7646439,21.5717667 C16.9251136,21.5717667 16.2419167,20.8885697 16.2419167,20.0490394 C16.2419167,19.2095091 16.9251136,18.5263121 17.7646439,18.5263121 L52.8726439,18.5263121 C53.7121742,18.5263121 54.3953712,19.2095091 54.3953712,20.0490394 C54.3953712,20.8885697 53.7121742,21.5717667 52.8726439,21.5717667 Z" id="Fill-11" fill="#79655C"></path>
            <path d="M43.1573394,16.5876773 C47.6280667,19.0341924 51.4348848,19.0341924 51.4348848,19.0341924 L19.0342939,19.0341924 C21.3183848,19.0341924 27.2905212,16.6496015 27.2905212,16.6496015 L43.1573394,16.5876773 Z" id="Fill-13" fill="#829182"></path>
            <path d="M23.5621742,18.5263121 L46.293447,18.5263121 C45.2843864,18.1811606 44.1809167,17.7172364 43.0297348,17.0959636 L27.3882803,17.1568727 C26.9781591,17.3182818 25.3478258,17.9527515 23.5621742,18.5263121 M51.4341742,19.5414636 L19.0335833,19.5414636 C18.7534015,19.5414636 18.5260076,19.3140697 18.5260076,19.0338879 C18.5260076,18.7537061 18.7534015,18.5263121 19.0335833,18.5263121 C21.1938258,18.5263121 27.0431288,16.2016152 27.1009924,16.1782667 C27.1608864,16.1549182 27.2238258,16.1427364 27.2877803,16.1417212 L43.1556136,16.079797 L43.1576439,16.079797 C43.2429167,16.079797 43.3261591,16.1011152 43.4012803,16.1427364 C47.6923258,18.4907818 51.3976288,18.5263121 51.4351894,18.5263121 C51.7143561,18.5263121 51.94175,18.7537061 51.94175,19.0338879 C51.94175,19.3100091 51.7214621,19.5343576 51.4473712,19.5414636 L51.4443258,19.5414636 C51.4443258,19.5414636 51.43925,19.5414636 51.4341742,19.5414636" id="Fill-15" fill="#79655C"></path>
            <path d="M27.2906227,16.649703 C27.2906227,16.649703 26.8175621,10.4024606 29.7777439,10.4024606 L40.5221076,10.4024606 C43.2640318,10.4024606 43.1574409,16.5877788 43.1574409,16.5877788 L27.2906227,16.649703 Z" id="Fill-17" fill="#829182"></path>
            <path d="M29.777947,10.9097318 C29.3921894,10.9097318 29.0734318,11.051853 28.8013712,11.3452318 C27.8654015,12.3542924 27.734447,14.8251712 27.7720076,16.1397924 L42.6460076,16.0819288 C42.6064167,14.7429439 42.340447,12.2629288 41.38925,11.2944742 C41.134447,11.0356106 40.8502045,10.9097318 40.5212955,10.9097318 L29.777947,10.9097318 Z M27.2898106,17.1569742 C27.0238409,17.1569742 26.803553,16.9529288 26.78325,16.6879742 C26.770053,16.512353 26.4756591,12.3603833 28.0572652,10.6549288 C28.52525,10.1503985 29.1038864,9.8945803 29.777947,9.8945803 L40.5212955,9.8945803 C41.1283561,9.8945803 41.6633409,10.12705 42.1120379,10.5838682 C43.721053,12.2213076 43.6682652,16.4189591 43.6652197,16.5966106 C43.6601439,16.8727318 43.4357955,17.0940348 43.1596742,17.09505 L27.2918409,17.1569742 L27.2898106,17.1569742 Z" id="Fill-19" fill="#79655C"></path>
            <mask id="mask-2" fill="white">
                <use xlink:href="#path-1"></use>
            </mask>
            <g id="Clip-22"></g>
            <polygon id="Fill-21" fill="#829182" mask="url(#mask-2)" points="29.7784545 10.40175 40.2893333 10.40175 40.2893333 5.7097197 29.7784545 5.7097197"></polygon>
            <path d="M30.2860303,9.89417424 L39.7817576,9.89417424 L39.7817576,6.21729545 L30.2860303,6.21729545 L30.2860303,9.89417424 Z M40.2883182,10.9093258 L29.7784545,10.9093258 C29.4972576,10.9093258 29.2708788,10.682947 29.2708788,10.40175 L29.2708788,5.7097197 C29.2708788,5.42953788 29.4972576,5.20214394 29.7784545,5.20214394 L40.2883182,5.20214394 C40.5685,5.20214394 40.7958939,5.42953788 40.7958939,5.7097197 L40.7958939,10.40175 C40.7958939,10.682947 40.5685,10.9093258 40.2883182,10.9093258 Z" id="Fill-23" fill="#79655C" mask="url(#mask-2)"></path>
            <path d="M41.463153,5.71002424 L28.7737591,5.71002424 C28.3372439,5.71002424 27.9809258,5.35269091 27.9809258,4.91719091 C27.9809258,4.48067576 28.3372439,4.12435758 28.7737591,4.12435758 L41.463153,4.12435758 C41.8996682,4.12435758 42.2559864,4.48067576 42.2559864,4.91719091 C42.2559864,5.35269091 41.8996682,5.71002424 41.463153,5.71002424" id="Fill-24" fill="#829182" mask="url(#mask-2)"></path>
            <path d="M28.7727439,4.63142576 C28.6184409,4.63142576 28.4874864,4.7623803 28.4874864,4.91668333 C28.4874864,5.07200152 28.6184409,5.20194091 28.7727439,5.20194091 L41.4621379,5.20194091 C41.6164409,5.20194091 41.7473955,5.07200152 41.7473955,4.91668333 C41.7473955,4.7623803 41.6164409,4.63142576 41.4621379,4.63142576 L28.7727439,4.63142576 Z M41.4621379,6.21709242 L28.7727439,6.21709242 C28.056047,6.21709242 27.4723348,5.63439545 27.4723348,4.91668333 C27.4723348,4.19998636 28.056047,3.61627424 28.7727439,3.61627424 L41.4621379,3.61627424 C42.1788348,3.61627424 42.762547,4.19998636 42.762547,4.91668333 C42.762547,5.63439545 42.1788348,6.21709242 41.4621379,6.21709242 Z" id="Fill-25" fill="#79655C" mask="url(#mask-2)"></path>
            <path d="M29.777947,4.12385 C29.777947,4.12385 31.7442955,2.15750152 35.0344015,2.15750152 C38.3224773,2.15750152 40.2888258,4.12385 40.2888258,4.12385 L29.777947,4.12385 Z" id="Fill-26" fill="#829182" mask="url(#mask-2)"></path>
            <path d="M31.3601621,3.61627424 L38.6986924,3.61627424 C37.8520561,3.14828939 36.5993591,2.66507727 35.0329803,2.66507727 C33.4554348,2.66507727 32.203753,3.14828939 31.3601621,3.61627424 M40.2884197,4.63142576 L29.7775409,4.63142576 C29.5724803,4.63142576 29.3877227,4.50757727 29.3085409,4.31774394 C29.2303742,4.12791061 29.2740258,3.91066818 29.4191924,3.76448636 C29.5054803,3.67921364 31.5743591,1.64992576 35.0329803,1.64992576 C38.4916015,1.64992576 40.5604803,3.67921364 40.6467682,3.76448636 C40.7919348,3.91066818 40.8355864,4.12791061 40.7574197,4.31774394 C40.679253,4.50757727 40.4934803,4.63142576 40.2884197,4.63142576" id="Fill-27" fill="#79655C" mask="url(#mask-2)"></path>
            <polygon id="Fill-28" fill="#829182" mask="url(#mask-2)" points="24.1951212 48.55825 46.1061515 48.55825 46.1061515 46.1899015 24.1951212 46.1899015"></polygon>
            <path d="M24.702697,48.0506742 L45.5975606,48.0506742 L45.5975606,46.6974773 L24.702697,46.6974773 L24.702697,48.0506742 Z M46.1051364,49.0658258 L24.1951212,49.0658258 C23.9139242,49.0658258 23.6875455,48.8384318 23.6875455,48.55825 L23.6875455,46.1888864 C23.6875455,45.9087045 23.9139242,45.6813106 24.1951212,45.6813106 L46.1051364,45.6813106 C46.3853182,45.6813106 46.6127121,45.9087045 46.6127121,46.1888864 L46.6127121,48.55825 C46.6127121,48.8384318 46.3853182,49.0658258 46.1051364,49.0658258 Z" id="Fill-29" fill="#79655C" mask="url(#mask-2)"></path>
            <polygon id="Fill-30" fill="#F4C9A1" mask="url(#mask-2)" points="27.9806212 53.5487348 42.256697 53.5487348 42.256697 48.5572348 27.9806212 48.5572348"></polygon>
            <path d="M28.4871818,53.0411591 L41.7481061,53.0411591 L41.7481061,49.0648106 L28.4871818,49.0648106 L28.4871818,53.0411591 Z M42.2556818,54.0563106 L27.9796061,54.0563106 C27.6994242,54.0563106 27.4720303,53.8299318 27.4720303,53.5487348 L27.4720303,48.55825 C27.4720303,48.277053 27.6994242,48.0506742 27.9796061,48.0506742 L42.2556818,48.0506742 C42.5358636,48.0506742 42.7632576,48.277053 42.7632576,48.55825 L42.7632576,53.5487348 C42.7632576,53.8299318 42.5358636,54.0563106 42.2556818,54.0563106 Z" id="Fill-31" fill="#79655C" mask="url(#mask-2)"></path>
            <path d="M27.9806212,53.5490394 C27.9806212,53.5490394 17.2575758,56.4249636 17.2575758,68.1844788 L17.2575758,83.1579636 L53.4649848,83.1579636 L53.4649848,68.3529939 C53.4649848,68.3529939 53.4649848,55.8331303 42.256697,53.5490394 L27.9806212,53.5490394 Z" id="Fill-32" fill="#829182" mask="url(#mask-2)"></path>
            <path d="M17.7646439,82.6503879 L52.9569015,82.6503879 L52.9569015,68.3540091 C52.9569015,68.3235545 52.9365985,65.2567818 51.5813712,61.9697212 C49.7947045,57.6370545 46.6385985,54.9753273 42.2034015,54.0566152 L28.0491439,54.0566152 C27.1091136,54.3276606 17.7646439,57.2990091 17.7646439,68.1844788 L17.7646439,82.6503879 Z M53.4644773,83.6655394 L17.2570682,83.6655394 C16.9768864,83.6655394 16.7494924,83.4381455 16.7494924,83.1579636 L16.7494924,68.1844788 C16.7494924,56.1752364 27.7364773,53.0881606 27.8481439,53.0587212 C27.8917955,53.0475545 27.935447,53.0414636 27.9801136,53.0414636 L42.2551742,53.0414636 C42.2886742,53.0414636 42.3231894,53.0445091 42.3566894,53.0516152 C53.8390682,55.3915394 53.972053,68.2240697 53.972053,68.3540091 L53.972053,83.1579636 C53.972053,83.4381455 53.7446591,83.6655394 53.4644773,83.6655394 Z" id="Fill-33" fill="#79655C" mask="url(#mask-2)"></path>
            <polygon id="Fill-34" fill="#F4C9A1" mask="url(#mask-2)" points="14.9745 86.3432045 55.6648182 86.3432045 55.6648182 83.1576591 14.9745 83.1576591"></polygon>
            <path d="M15.4810606,85.8356288 L55.1572424,85.8356288 L55.1572424,83.6652348 L15.4810606,83.6652348 L15.4810606,85.8356288 Z M55.6648182,86.8507803 L14.9734848,86.8507803 C14.6922879,86.8507803 14.4659091,86.6233864 14.4659091,86.3432045 L14.4659091,83.1576591 C14.4659091,82.8774773 14.6922879,82.6500833 14.9734848,82.6500833 L55.6648182,82.6500833 C55.945,82.6500833 56.1723939,82.8774773 56.1723939,83.1576591 L56.1723939,86.3432045 C56.1723939,86.6233864 55.945,86.8507803 55.6648182,86.8507803 Z" id="Fill-35" fill="#79655C" mask="url(#mask-2)"></path>
            <path d="M31.4999485,50.9585758 C31.4999485,51.4661515 31.087797,51.878303 30.5802212,51.878303 C30.0716303,51.878303 29.6604939,51.4661515 29.6604939,50.9585758 C29.6604939,50.451 30.0716303,50.0388485 30.5802212,50.0388485 C31.087797,50.0388485 31.4999485,50.451 31.4999485,50.9585758" id="Fill-36" fill="#F4C9A1" mask="url(#mask-2)"></path>
            <path d="M30.5800182,50.5462212 C30.3526242,50.5462212 30.1678667,50.7309788 30.1678667,50.9583727 C30.1678667,51.1857667 30.3526242,51.3705242 30.5800182,51.3705242 C30.8074121,51.3705242 30.9921697,51.1857667 30.9921697,50.9583727 C30.9921697,50.7309788 30.8074121,50.5462212 30.5800182,50.5462212 M30.5800182,52.3856758 C29.7932758,52.3856758 29.1527152,51.7461303 29.1527152,50.9583727 C29.1527152,50.1716303 29.7932758,49.5310697 30.5800182,49.5310697 C31.3667606,49.5310697 32.0073212,50.1716303 32.0073212,50.9583727 C32.0073212,51.7461303 31.3667606,52.3856758 30.5800182,52.3856758" id="Fill-37" fill="#79655C" mask="url(#mask-2)"></path>
            <path d="M34.5464182,50.9585758 C34.5464182,51.4661515 34.1352818,51.878303 33.6266909,51.878303 C33.1191152,51.878303 32.7069636,51.4661515 32.7069636,50.9585758 C32.7069636,50.451 33.1191152,50.0388485 33.6266909,50.0388485 C34.1352818,50.0388485 34.5464182,50.451 34.5464182,50.9585758" id="Fill-38" fill="#F4C9A1" mask="url(#mask-2)"></path>
            <path d="M33.6263864,50.5462212 C33.3989924,50.5462212 33.2142348,50.7309788 33.2142348,50.9583727 C33.2142348,51.1857667 33.3989924,51.3705242 33.6263864,51.3705242 C33.8537803,51.3705242 34.0385379,51.1857667 34.0385379,50.9583727 C34.0385379,50.7309788 33.8537803,50.5462212 33.6263864,50.5462212 M33.6263864,52.3856758 C32.8396439,52.3856758 32.1990833,51.7461303 32.1990833,50.9583727 C32.1990833,50.1716303 32.8396439,49.5310697 33.6263864,49.5310697 C34.4131288,49.5310697 35.0536894,50.1716303 35.0536894,50.9583727 C35.0536894,51.7461303 34.4131288,52.3856758 33.6263864,52.3856758" id="Fill-39" fill="#79655C" mask="url(#mask-2)"></path>
            <path d="M37.5938015,50.9585758 C37.5938015,51.4661515 37.18165,51.878303 36.6740742,51.878303 C36.1654833,51.878303 35.754347,51.4661515 35.754347,50.9585758 C35.754347,50.451 36.1654833,50.0388485 36.6740742,50.0388485 C37.18165,50.0388485 37.5938015,50.451 37.5938015,50.9585758" id="Fill-40" fill="#F4C9A1" mask="url(#mask-2)"></path>
            <path d="M36.6728561,50.5462212 C36.4454621,50.5462212 36.2607045,50.7309788 36.2607045,50.9583727 C36.2607045,51.1857667 36.4454621,51.3705242 36.6728561,51.3705242 C36.90025,51.3705242 37.0850076,51.1857667 37.0850076,50.9583727 C37.0850076,50.7309788 36.90025,50.5462212 36.6728561,50.5462212 M36.6728561,52.3856758 C35.8861136,52.3856758 35.245553,51.7461303 35.245553,50.9583727 C35.245553,50.1716303 35.8861136,49.5310697 36.6728561,49.5310697 C37.4595985,49.5310697 38.1001591,50.1716303 38.1001591,50.9583727 C38.1001591,51.7461303 37.4595985,52.3856758 36.6728561,52.3856758" id="Fill-41" fill="#79655C" mask="url(#mask-2)"></path>
            <path d="M40.6402712,50.9585758 C40.6402712,51.4661515 40.2281197,51.878303 39.7205439,51.878303 C39.211953,51.878303 38.8008167,51.4661515 38.8008167,50.9585758 C38.8008167,50.451 39.211953,50.0388485 39.7205439,50.0388485 C40.2281197,50.0388485 40.6402712,50.451 40.6402712,50.9585758" id="Fill-42" fill="#F4C9A1" mask="url(#mask-2)"></path>
            <path d="M39.7193258,50.5462212 C39.4919318,50.5462212 39.3071742,50.7309788 39.3071742,50.9583727 C39.3071742,51.1857667 39.4919318,51.3705242 39.7193258,51.3705242 C39.9467197,51.3705242 40.1314773,51.1857667 40.1314773,50.9583727 C40.1314773,50.7309788 39.9467197,50.5462212 39.7193258,50.5462212 M39.7193258,52.3856758 C38.9325833,52.3856758 38.2920227,51.7461303 38.2920227,50.9583727 C38.2920227,50.1716303 38.9325833,49.5310697 39.7193258,49.5310697 C40.5060682,49.5310697 41.1466288,50.1716303 41.1466288,50.9583727 C41.1466288,51.7461303 40.5060682,52.3856758 39.7193258,52.3856758" id="Fill-43" fill="#79655C" mask="url(#mask-2)"></path>
            <path d="M27.9796061,51.7303955 L21.6562273,51.7303955 C21.3760455,51.7303955 21.1486515,51.5030015 21.1486515,51.2228197 C21.1486515,50.9426379 21.3760455,50.7152439 21.6562273,50.7152439 L27.9796061,50.7152439 C28.2597879,50.7152439 28.4871818,50.9426379 28.4871818,51.2228197 C28.4871818,51.5030015 28.2597879,51.7303955 27.9796061,51.7303955" id="Fill-44" fill="#79655C" mask="url(#mask-2)"></path>
            <path d="M21.8689015,51.2228197 C21.8689015,52.6013955 21.4425379,53.7180621 20.9177045,53.7180621 C20.3908409,53.7180621 19.9654924,52.6013955 19.9654924,51.2228197 C19.9654924,49.8442439 20.3908409,48.7275773 20.9177045,48.7275773 C21.4425379,48.7275773 21.8689015,49.8442439 21.8689015,51.2228197" id="Fill-45" fill="#F4C9A1" mask="url(#mask-2)"></path>
            <path d="M20.8676576,49.224697 C20.8199455,49.3059091 20.4717485,49.9962121 20.4717485,51.2225152 C20.4717485,52.4498333 20.8199455,53.1391212 20.9651121,53.2213485 C21.0128242,53.1391212 21.3600061,52.4498333 21.3600061,51.2225152 C21.3600061,49.9962121 21.0128242,49.3059091 20.8676576,49.224697 M20.9163848,54.2263485 C19.9144303,54.2263485 19.456597,52.6691061 19.456597,51.2225152 C19.456597,49.7759242 19.9144303,48.219697 20.9163848,48.219697 C21.9183394,48.219697 22.3751576,49.7759242 22.3751576,51.2225152 C22.3751576,52.6691061 21.9183394,54.2263485 20.9163848,54.2263485" id="Fill-46" fill="#79655C" mask="url(#mask-2)"></path>
            <path d="M27.2629091,27.7895697 C27.3136667,27.3835091 25.3452879,30.1081758 24.9991212,33.7535848 C24.6103182,37.8344939 26.0213788,42.9985697 30.5804242,44.9202515 C30.5804242,44.9202515 25.8873788,38.7867061 27.2629091,27.7895697" id="Fill-47" fill="#79655C" mask="url(#mask-2)"></path>
            <path d="M24.937197,25.7171379 C24.8935455,25.7171379 24.8488788,25.7120621 24.8052273,25.6998803 C24.535197,25.6267894 24.3737879,25.3486379 24.4478939,25.0775924 C24.7757879,23.8583955 25.0854091,23.4127439 25.1442879,23.3366076 C25.3158485,23.1132742 25.6346061,23.071653 25.8559091,23.2421985 C26.076197,23.4107136 26.1198485,23.7243955 25.9564091,23.9456985 C25.942197,23.9660015 25.6985606,24.3334864 25.4265,25.3415318 C25.3666061,25.5679106 25.1615455,25.7171379 24.937197,25.7171379" id="Fill-48" fill="#79655C" mask="url(#mask-2)"></path>
            <path d="M23.7286591,32.2734939 C23.721553,32.2734939 23.714447,32.2734939 23.7073409,32.2734939 C23.4271591,32.2613121 23.2089015,32.0237667 23.2210833,31.7446 C23.2413864,31.2827061 23.4423864,27.2413879 24.4088106,27.2413879 L24.4138864,27.2413879 C24.6940682,27.2464636 24.9174015,27.476903 24.9133409,27.7570848 C24.9113106,27.8778879 24.8676591,27.9875242 24.7965985,28.072797 C24.6646288,28.4270848 24.3093258,30.0604636 24.2362348,31.7872364 C24.224053,32.0603121 23.9997045,32.2734939 23.7286591,32.2734939" id="Fill-49" fill="#79655C" mask="url(#mask-2)"></path>
            <path d="M32.5279924,25.5054788 C32.5036288,25.5054788 32.47825,25.5044636 32.4538864,25.500403 C32.1757348,25.459797 31.9838712,25.2019485 32.0244773,24.923797 C32.2498409,23.3939636 32.7574167,22.5980848 32.7777197,22.5645848 C32.9310076,22.3290697 33.2477348,22.2641 33.4791894,22.4153576 C33.7147045,22.5666152 33.7817045,22.8792818 33.6314621,23.114797 C33.6182652,23.1351 33.2172803,23.7959636 33.0294773,25.0720091 C32.9919167,25.3237667 32.7746742,25.5054788 32.5279924,25.5054788" id="Fill-50" fill="#79655C" mask="url(#mask-2)"></path>
            <path d="M31.2571242,36.8426909 C31.0094273,36.8426909 30.7921848,36.6599636 30.7556394,36.4071909 C30.6805182,35.8813424 30.579003,33.3089485 30.8348212,32.9231909 C30.9901394,32.6886909 31.3078818,32.6267667 31.5383212,32.7810697 C31.7383061,32.9130394 31.8134273,33.1627667 31.7352606,33.3769636 C31.6834879,33.6967364 31.6489727,35.4813727 31.7606394,36.2630394 C31.8002303,36.5411909 31.6073515,36.7980242 31.3292,36.8376152 C31.3058515,36.8416758 31.2804727,36.8426909 31.2571242,36.8426909" id="Fill-51" fill="#79655C" mask="url(#mask-2)"></path>
            <path d="M33.6263864,45.0050167 C33.4761439,45.0050167 33.3269167,44.9380167 33.2264167,44.8101076 C32.1209167,43.3960015 31.3128561,40.6530621 31.2783409,40.5373348 C31.1991591,40.2673045 31.3544773,39.9861076 31.6234924,39.9079409 C31.8874318,39.8257136 32.1737045,39.9840773 32.2518712,40.2520773 C32.2599924,40.2794864 33.0406439,42.9249712 34.0263561,44.1847742 C34.1989318,44.4060773 34.1593409,44.7248348 33.939053,44.8974106 C33.8466742,44.9694864 33.7360227,45.0050167 33.6263864,45.0050167" id="Fill-52" fill="#79655C" mask="url(#mask-2)"></path>
            <path d="M27.9796061,46.6967667 C27.858803,46.6967667 27.7369848,46.6541303 27.6395303,46.5668273 C26.0609697,45.1435848 25.1097727,42.4950545 25.0691667,42.3833879 C24.9757727,42.1194485 25.1138333,41.8291152 25.3777727,41.7347061 C25.6366364,41.640297 25.9320455,41.7793727 26.0254394,42.0433121 C26.0345758,42.0686909 26.934,44.5629182 28.3196818,45.8115545 C28.5277879,45.9993576 28.5450455,46.3211606 28.3562273,46.5292667 C28.2557273,46.6399182 28.1186818,46.6967667 27.9796061,46.6967667" id="Fill-53" fill="#79655C" mask="url(#mask-2)"></path>
            <path d="M36.6728561,45.1740394 C36.5246439,45.1740394 36.3784621,45.1100848 36.276947,44.9852212 C36.1023409,44.7669636 36.1368561,44.4471909 36.3551136,44.2715697 C37.3519924,43.4665545 38.1773106,41.5986758 38.487947,40.8951758 C38.5661136,40.7175242 38.621947,40.5987515 38.6473258,40.5561152 C38.7945227,40.3155242 39.1061742,40.2393879 39.3437197,40.3825242 C39.5812652,40.5246455 39.660447,40.8322364 39.5223864,41.0718121 C39.5010682,41.111403 39.466553,41.1926152 39.4168106,41.305297 C39.0787652,42.0707212 38.1813712,44.1020394 36.9905985,45.0613576 C36.8982197,45.1374939 36.7845227,45.1740394 36.6728561,45.1740394" id="Fill-54" fill="#79655C" mask="url(#mask-2)"></path>
            <path d="M39.7193258,38.7450848 C39.6370985,38.7450848 39.5538561,38.7247818 39.4777197,38.6831606 C39.2310379,38.5501758 39.1396742,38.2415697 39.2736742,37.995903 C39.500053,37.5776606 39.9883409,36.1432515 40.1568561,35.6265394 C40.2451742,35.3595545 40.5284015,35.2133727 40.7974167,35.3016909 C41.0633864,35.3879788 41.208553,35.6752667 41.1222652,35.9412364 C41.0562803,36.1412212 40.4766288,37.9055545 40.1649773,38.4791152 C40.0736136,38.6486455 39.8990076,38.7450848 39.7193258,38.7450848" id="Fill-55" fill="#79655C" mask="url(#mask-2)"></path>
            <path d="M44.752447,30.2650167 C44.7331591,30.2650167 44.7159015,30.2640015 44.6966136,30.2619712 C44.4184621,30.2315167 44.2174621,29.9817894 44.2469015,29.7026227 C44.324053,28.9818652 44.2469015,28.1859864 44.2469015,28.1778652 C44.2194924,27.8986985 44.4225227,27.6510015 44.7006742,27.6225773 C45.0021742,27.6043045 45.228553,27.7981985 45.2559621,28.0783803 C45.2600227,28.1149258 45.3452955,28.9879561 45.2559621,29.8122591 C45.228553,30.0721379 45.0082652,30.2650167 44.752447,30.2650167" id="Fill-56" fill="#79655C" mask="url(#mask-2)"></path>
            <path d="M43.5241136,37.5182742 C43.4784318,37.5182742 43.4307197,37.5121833 43.3840227,37.4989864 C43.1150076,37.4218348 42.9586742,37.1406379 43.0368409,36.8716227 C43.2743864,36.036153 43.4723409,34.1022894 43.4743712,34.0830015 C43.5017803,33.8028197 43.7535379,33.60385 44.0306742,33.6292288 C44.3088258,33.657653 44.5128712,33.9063652 44.4834318,34.1855318 C44.4753106,34.2687742 44.2753258,36.2290318 44.0113864,37.1497742 C43.948447,37.3731076 43.7454167,37.5182742 43.5241136,37.5182742" id="Fill-57" fill="#79655C" mask="url(#mask-2)"></path>
            <path d="M39.5487803,46.6967667 C39.4432045,46.6967667 39.3355985,46.6632667 39.2442348,46.5952515 C39.0198864,46.4267364 38.9752197,46.1089939 39.1427197,45.8846455 C40.85325,43.6046152 42.4825682,39.2059636 42.4977955,39.161297 C42.5962652,38.8983727 42.8845682,38.7643727 43.1505379,38.8608121 C43.4134621,38.9572515 43.5474621,39.2496152 43.4520379,39.5125394 C43.3830076,39.6983121 41.7557197,44.0939182 39.9548409,46.4937364 C39.8553561,46.6267212 39.7020682,46.6967667 39.5487803,46.6967667" id="Fill-58" fill="#79655C" mask="url(#mask-2)"></path>
            <path d="M12.6879727,22.0793424 C12.5133667,22.0793424 12.3357152,22.0346758 12.1743061,21.9392515 L2.02279091,15.9752364 C1.54059394,15.6920091 1.3781697,15.0697212 1.66241212,14.5865091 C1.94665455,14.1022818 2.56691212,13.9408727 3.05215455,14.2251152 L13.2036697,20.1891303 C13.6858667,20.4723576 13.8482909,21.0946455 13.5640485,21.5778576 C13.3752303,21.9006758 13.0361697,22.0793424 12.6879727,22.0793424" id="Fill-59" fill="#79655C" mask="url(#mask-2)"></path>
            <path d="M13.4512652,28.0433576 C13.3873106,28.0433576 13.3213258,28.0372667 13.2553409,28.0240697 L7.4182197,26.8820242 C6.86800758,26.7744182 6.50864394,26.2414636 6.61726515,25.6912515 C6.72385606,25.1420545 7.2507197,24.7796455 7.80803788,24.890297 L13.6451591,26.0323424 C14.1953712,26.1399485 14.5547348,26.672903 14.4461136,27.2231152 C14.3517045,27.7073424 13.9273712,28.0433576 13.4512652,28.0433576" id="Fill-60" fill="#79655C" mask="url(#mask-2)"></path>
            <path d="M12.6888864,34.2190318 L1.01464394,34.2190318 C0.453265152,34.2190318 -0.000507575758,33.7642439 -0.000507575758,33.2038803 C-0.000507575758,32.6435167 0.453265152,32.1887288 1.01464394,32.1887288 L12.6888864,32.1887288 C13.2502652,32.1887288 13.7040379,32.6435167 13.7040379,33.2038803 C13.7040379,33.7642439 13.2502652,34.2190318 12.6888864,34.2190318" id="Fill-61" fill="#79655C" mask="url(#mask-2)"></path>
            <path d="M10.5316894,41.8331758 C10.1063409,41.8331758 9.71043182,41.5641606 9.56932576,41.1388121 C9.39167424,40.6068727 9.67896212,40.032297 10.2109015,39.8546455 L14.6521894,38.3735394 C15.1881894,38.1938576 15.7576894,38.4841909 15.9353409,39.0161303 C16.1129924,39.5480697 15.8257045,40.1226455 15.2937652,40.300297 L10.8524773,41.7803879 C10.7458864,41.8159182 10.6372652,41.8331758 10.5316894,41.8331758" id="Fill-62" fill="#79655C" mask="url(#mask-2)"></path>
            <path d="M8.75618939,51.053797 C8.42423485,51.053797 8.09938636,50.8913727 7.90447727,50.5929182 C7.59790152,50.122903 7.73088636,49.4945242 8.20090152,49.1879485 L16.7027955,43.6472515 C17.1707803,43.3406758 17.8022045,43.4726455 18.1077652,43.9436758 C18.4143409,44.4126758 18.2813561,45.0420697 17.8113409,45.3476303 L9.30944697,50.8893424 C9.13890152,51.0010091 8.94602273,51.053797 8.75618939,51.053797" id="Fill-63" fill="#79655C" mask="url(#mask-2)"></path>
            <path d="M55.6653258,23.2213879 C55.3059621,23.2213879 54.95675,23.0305394 54.7730076,22.6914788 C54.5039924,22.1991303 54.6867197,21.5829333 55.1790682,21.3149333 L65.4990985,15.6960697 C65.9924621,15.4280697 66.6076439,15.6097818 66.8756439,16.1021303 C67.1446591,16.5944788 66.9619318,17.2116909 66.4705985,17.4796909 L56.1505682,23.0975394 C55.99525,23.181797 55.8287652,23.2213879 55.6653258,23.2213879" id="Fill-64" fill="#79655C" mask="url(#mask-2)"></path>
            <path d="M55.663397,29.9581364 C55.1730788,29.9581364 54.7406242,29.6018182 54.6624576,29.1013485 C54.5741394,28.5470758 54.9527909,28.0283333 55.5060485,27.9400152 L60.6660636,27.1248485 C61.2172909,27.0405909 61.7400939,27.416197 61.8263818,27.9704697 C61.9147,28.5237273 61.5360485,29.0434848 60.9827909,29.1307879 L55.8227758,29.9459545 C55.7689727,29.9540758 55.7161848,29.9581364 55.663397,29.9581364" id="Fill-65" fill="#79655C" mask="url(#mask-2)"></path>
            <path d="M64.5895227,38.0679788 C64.5397803,38.0679788 64.4890227,38.0649333 64.4392803,38.0568121 L54.541553,36.5767212 C53.9862652,36.4934788 53.6045682,35.9767667 53.6867955,35.4224939 C53.7700379,34.8682212 54.2887803,34.4824636 54.8400076,34.5687515 L64.7377348,36.0488424 C65.2930227,36.1320848 65.6747197,36.648797 65.5924924,37.2030697 C65.5173712,37.7065848 65.0839015,38.0679788 64.5895227,38.0679788" id="Fill-66" fill="#79655C" mask="url(#mask-2)"></path>
            <path d="M60.8243258,45.2171833 C60.7025076,45.2171833 60.5796742,45.19485 60.4598864,45.1491682 L55.2998712,43.1604864 C54.776053,42.9584712 54.5151591,42.3717136 54.7161591,41.8489106 C54.9191894,41.3240773 55.5089924,41.0652136 56.02875,41.2662136 L61.1887652,43.2538803 C61.7125833,43.4558955 61.9734773,44.0436682 61.7724773,44.5664712 C61.6161439,44.9694864 61.2314015,45.2171833 60.8243258,45.2171833" id="Fill-67" fill="#79655C" mask="url(#mask-2)"></path>
            <path d="M60.8234121,52.2379712 C60.662003,52.2379712 60.4975485,52.1993955 60.3442606,52.1171682 L50.9541091,47.084047 C50.4607455,46.8190924 50.2739576,46.2039106 50.5389121,45.7095318 C50.8038667,45.2161682 51.4190485,45.0293803 51.9144424,45.2943348 L61.3045939,50.3284712 C61.7979576,50.5924106 61.9847455,51.2086076 61.7197909,51.7029864 C61.5360485,52.0440773 61.1848061,52.2379712 60.8234121,52.2379712" id="Fill-68" fill="#79655C" mask="url(#mask-2)"></path>
            <path d="M29.2644833,63.8274485 C28.1660894,63.8274485 27.2717409,64.721797 27.2717409,65.8212061 C27.2717409,66.9196 28.1660894,67.8139485 29.2644833,67.8139485 C30.3638924,67.8139485 31.2582409,66.9196 31.2582409,65.8212061 C31.2582409,64.721797 30.3638924,63.8274485 29.2644833,63.8274485 M29.2644833,68.8291 C27.6057258,68.8291 26.2565894,67.4799636 26.2565894,65.8212061 C26.2565894,64.1624485 27.6057258,62.812297 29.2644833,62.812297 C30.9242561,62.812297 32.2733924,64.1624485 32.2733924,65.8212061 C32.2733924,67.4799636 30.9242561,68.8291 29.2644833,68.8291" id="Fill-69" fill="#79655C" mask="url(#mask-2)"></path>
            <path d="M27.2510318,67.415197 C27.1434258,67.415197 27.0348045,67.3806818 26.9424258,67.3106364 C26.7201076,67.1400909 26.6784864,66.8223485 26.8480167,66.5990152 L29.2569712,63.4500152 C29.4275167,63.2266818 29.7462742,63.1850606 29.9685924,63.3556061 C30.1909106,63.5251364 30.233547,63.8438939 30.0640167,64.0672273 L27.654047,67.2162273 C27.5545621,67.3471818 27.4033045,67.415197 27.2510318,67.415197" id="Fill-70" fill="#79655C" mask="url(#mask-2)"></path>
            <path d="M14.9729773,86.8324061 C14.8653712,86.8324061 14.75675,86.7978909 14.6643712,86.7278455 C14.442053,86.5573 14.4004318,86.2395576 14.5699621,86.0162242 L16.9789167,82.8682394 C17.1494621,82.6449061 17.4682197,82.6032848 17.6905379,82.7728152 C17.9128561,82.9433606 17.9554924,83.2621182 17.7859621,83.4844364 L15.3759924,86.6334364 C15.2765076,86.7643909 15.12525,86.8324061 14.9729773,86.8324061" id="Fill-71" fill="#79655C" mask="url(#mask-2)"></path>
            <path d="M18.4190106,86.8324061 C18.3114045,86.8324061 18.2027833,86.7978909 18.1104045,86.7278455 C17.8880864,86.5573 17.8464652,86.2395576 18.0159955,86.0162242 L20.4239348,82.8682394 C20.5954955,82.6449061 20.9122227,82.6032848 21.1355561,82.7728152 C21.3588894,82.9433606 21.4005106,83.2621182 21.2309803,83.4844364 L18.8220258,86.6334364 C18.7225409,86.7643909 18.5712833,86.8324061 18.4190106,86.8324061" id="Fill-72" fill="#79655C" mask="url(#mask-2)"></path>
            <path d="M21.8639273,86.8324061 C21.7563212,86.8324061 21.6477,86.7978909 21.5553212,86.7278455 C21.333003,86.5573 21.2913818,86.2395576 21.4609121,86.0162242 L23.8698667,82.8682394 C24.0414273,82.6449061 24.3591697,82.6032848 24.5814879,82.7728152 C24.8038061,82.9433606 24.8464424,83.2621182 24.6769121,83.4844364 L22.2669424,86.6334364 C22.1674576,86.7643909 22.0162,86.8324061 21.8639273,86.8324061" id="Fill-73" fill="#79655C" mask="url(#mask-2)"></path>
            <path d="M25.3099606,86.8324061 C25.2023545,86.8324061 25.0937333,86.7978909 25.0013545,86.7278455 C24.7790364,86.5573 24.7374152,86.2395576 24.9069455,86.0162242 L27.3148848,82.8682394 C27.4854303,82.6449061 27.8041879,82.6032848 28.0265061,82.7728152 C28.2498394,82.9433606 28.2914606,83.2621182 28.1219303,83.4844364 L25.7129758,86.6334364 C25.6134909,86.7643909 25.4622333,86.8324061 25.3099606,86.8324061" id="Fill-74" fill="#79655C" mask="url(#mask-2)"></path>
            <path d="M28.7548773,86.8324061 C28.6472712,86.8324061 28.53865,86.7978909 28.4462712,86.7278455 C28.223953,86.5573 28.1823318,86.2395576 28.3518621,86.0162242 L30.7608167,82.8682394 C30.9323773,82.6449061 31.2491045,82.6032848 31.4724379,82.7728152 C31.6947561,82.9433606 31.7373924,83.2621182 31.5678621,83.4844364 L29.1578924,86.6334364 C29.0584076,86.7643909 28.90715,86.8324061 28.7548773,86.8324061" id="Fill-75" fill="#79655C" mask="url(#mask-2)"></path>
            <path d="M32.2008091,86.8324061 C32.093203,86.8324061 31.9845818,86.7978909 31.892203,86.7278455 C31.6698848,86.5573 31.6282636,86.2395576 31.7977939,86.0162242 L34.2057333,82.8682394 C34.3762788,82.6449061 34.6950364,82.6032848 34.9173545,82.7728152 C35.1406879,82.9433606 35.1823091,83.2621182 35.0127788,83.4844364 L32.6038242,86.6334364 C32.5043394,86.7643909 32.3530818,86.8324061 32.2008091,86.8324061" id="Fill-76" fill="#79655C" mask="url(#mask-2)"></path>
            <path d="M35.6458273,86.8324061 C35.5382212,86.8324061 35.4296,86.7978909 35.3372212,86.7278455 C35.114903,86.5573 35.0732818,86.2395576 35.2428121,86.0162242 L37.6507515,82.8682394 C37.821297,82.6449061 38.1390394,82.6032848 38.3623727,82.7728152 C38.5857061,82.9433606 38.6273273,83.2621182 38.457797,83.4844364 L36.0488424,86.6334364 C35.9493576,86.7643909 35.7981,86.8324061 35.6458273,86.8324061" id="Fill-77" fill="#79655C" mask="url(#mask-2)"></path>
            <path d="M39.0917591,86.8324061 C38.984153,86.8324061 38.8755318,86.7978909 38.783153,86.7278455 C38.5608348,86.5573 38.5192136,86.2395576 38.6887439,86.0162242 L41.0966833,82.8682394 C41.2682439,82.6449061 41.5849712,82.6032848 41.8083045,82.7728152 C42.0316379,82.9433606 42.0732591,83.2621182 41.9037288,83.4844364 L39.4947742,86.6334364 C39.3952894,86.7643909 39.2440318,86.8324061 39.0917591,86.8324061" id="Fill-78" fill="#79655C" mask="url(#mask-2)"></path>
            <path d="M42.5367773,86.8324061 C42.4291712,86.8324061 42.32055,86.7978909 42.2281712,86.7278455 C42.005853,86.5573 41.9642318,86.2395576 42.1337621,86.0162242 L44.5417015,82.8682394 C44.712247,82.6449061 45.0310045,82.6032848 45.2533227,82.7728152 C45.4766561,82.9433606 45.5182773,83.2621182 45.348747,83.4844364 L42.9397924,86.6334364 C42.8403076,86.7643909 42.68905,86.8324061 42.5367773,86.8324061" id="Fill-79" fill="#79655C" mask="url(#mask-2)"></path>
            <path d="M45.9816939,86.8324061 C45.8740879,86.8324061 45.7654667,86.7978909 45.6730879,86.7278455 C45.4507697,86.5573 45.4091485,86.2395576 45.5786788,86.0162242 L47.9876333,82.8682394 C48.1581788,82.6449061 48.4769364,82.6032848 48.6992545,82.7728152 C48.9215727,82.9433606 48.9642091,83.2621182 48.7946788,83.4844364 L46.3847091,86.6334364 C46.2852242,86.7643909 46.1339667,86.8324061 45.9816939,86.8324061" id="Fill-80" fill="#79655C" mask="url(#mask-2)"></path>
            <path d="M49.4277273,86.8324061 C49.3201212,86.8324061 49.2115,86.7978909 49.1191212,86.7278455 C48.896803,86.5573 48.8551818,86.2395576 49.0247121,86.0162242 L51.4326515,82.8682394 C51.6042121,82.6449061 51.9209394,82.6032848 52.1442727,82.7728152 C52.3676061,82.9433606 52.4092273,83.2621182 52.239697,83.4844364 L49.8307424,86.6334364 C49.7312576,86.7643909 49.58,86.8324061 49.4277273,86.8324061" id="Fill-81" fill="#79655C" mask="url(#mask-2)"></path>
            <path d="M52.8726439,86.8324061 C52.7650379,86.8324061 52.6564167,86.7978909 52.5640379,86.7278455 C52.3417197,86.5573 52.3000985,86.2395576 52.4696288,86.0162242 L54.8785833,82.8682394 C55.0491288,82.6449061 55.3678864,82.6032848 55.5902045,82.7728152 C55.8125227,82.9433606 55.8551591,83.2621182 55.6856288,83.4844364 L53.2756591,86.6334364 C53.1761742,86.7643909 53.0249167,86.8324061 52.8726439,86.8324061" id="Fill-82" fill="#79655C" mask="url(#mask-2)"></path>
            <path d="M28.7340667,68.2726955 C28.6264606,68.2726955 28.5178394,68.2381803 28.4254606,68.1681348 C28.2031424,67.9975894 28.1615212,67.679847 28.3310515,67.4565136 L30.7389909,64.3075136 C30.9095364,64.0851955 31.2282939,64.0425591 31.4506121,64.2131045 C31.6739455,64.3826348 31.7155667,64.7013924 31.5460364,64.9247258 L29.1370818,68.0737258 C29.037597,68.2046803 28.8863394,68.2726955 28.7340667,68.2726955" id="Fill-83" fill="#79655C" mask="url(#mask-2)"></path>
            <path d="M32.1562439,5.71002424 L32.1562439,10.4020545" id="Fill-84" fill="#829182" mask="url(#mask-2)"></path>
            <path d="M32.1562439,10.9097318 C31.8760621,10.9097318 31.6486682,10.6823379 31.6486682,10.4021561 L31.6486682,5.71012576 C31.6486682,5.42994394 31.8760621,5.20255 32.1562439,5.20255 C32.4364258,5.20255 32.6638197,5.42994394 32.6638197,5.71012576 L32.6638197,10.4021561 C32.6638197,10.6823379 32.4364258,10.9097318 32.1562439,10.9097318" id="Fill-85" fill="#79655C" mask="url(#mask-2)"></path>
            <path d="M34.059653,5.71002424 L34.059653,10.4020545" id="Fill-86" fill="#829182" mask="url(#mask-2)"></path>
            <path d="M34.059653,10.9097318 C33.7794712,10.9097318 33.5520773,10.6823379 33.5520773,10.4021561 L33.5520773,5.71012576 C33.5520773,5.42994394 33.7794712,5.20255 34.059653,5.20255 C34.3398348,5.20255 34.5672288,5.42994394 34.5672288,5.71012576 L34.5672288,10.4021561 C34.5672288,10.6823379 34.3398348,10.9097318 34.059653,10.9097318" id="Fill-87" fill="#79655C" mask="url(#mask-2)"></path>
            <path d="M36.0265091,5.71002424 L36.0265091,10.4020545" id="Fill-88" fill="#829182" mask="url(#mask-2)"></path>
            <path d="M36.0265091,10.9097318 C35.7463273,10.9097318 35.5189333,10.6823379 35.5189333,10.4021561 L35.5189333,5.71012576 C35.5189333,5.42994394 35.7463273,5.20255 36.0265091,5.20255 C36.3066909,5.20255 36.5340848,5.42994394 36.5340848,5.71012576 L36.5340848,10.4021561 C36.5340848,10.6823379 36.3066909,10.9097318 36.0265091,10.9097318" id="Fill-89" fill="#79655C" mask="url(#mask-2)"></path>
            <path d="M37.9140818,5.71002424 L37.9140818,10.4020545" id="Fill-90" fill="#829182" mask="url(#mask-2)"></path>
            <path d="M37.9140818,10.9097318 C37.6339,10.9097318 37.4065061,10.6823379 37.4065061,10.4021561 L37.4065061,5.71012576 C37.4065061,5.42994394 37.6339,5.20255 37.9140818,5.20255 C38.1942636,5.20255 38.4216576,5.42994394 38.4216576,5.71012576 L38.4216576,10.4021561 C38.4216576,10.6823379 38.1942636,10.9097318 37.9140818,10.9097318" id="Fill-91" fill="#79655C" mask="url(#mask-2)"></path>
            <path d="M51.5641136,78.8475288 C51.5976136,78.9926955 51.8097803,78.9642712 51.8097803,78.8160591 L51.8097803,73.5555439 C51.8097803,73.5555439 51.9894621,69.8857712 49.5124924,69.10715 C46.8284318,68.2635591 48.2262955,69.2198318 49.9104318,73.6326955 C50.83625,76.0578924 51.318447,77.78365 51.5641136,78.8475288" id="Fill-92" fill="#F4C9A1" mask="url(#mask-2)"></path>
        </g>
    </g>
</svg>