<?xml version="1.0" encoding="UTF-8"?>
<svg width="96px" height="96px" viewBox="0 0 96 96" version="1.1" xmlns="http://www.w3.org/2000/svg" xmlns:xlink="http://www.w3.org/1999/xlink">
    <!-- Generator: Sketch 52.5 (67469) - http://www.bohemiancoding.com/sketch -->
    <title>Icon / Illustration / Coffee</title>
    <desc>Created with Sketch.</desc>
    <defs>
        <path d="M0.700296296,0.388814815 L0.700296296,2.83233333 C0.700296296,3.71092593 1.41348148,4.42303704 2.291,4.42303704 L29.2287778,4.42303704 C30.1073704,4.42303704 30.8194815,3.71092593 30.8194815,2.83233333 L30.8194815,0.388814815 L0.700296296,0.388814815 Z" id="path-1"></path>
    </defs>
    <g id="Icon-/-Illustration-/-Coffee" stroke="none" stroke-width="1" fill="none" fill-rule="evenodd">
        <g id="Group-50" transform="translate(25.000000, 3.000000)">
            <g id="Group-14" transform="translate(8.592593, 81.614056)">
                <mask id="mask-2" fill="white">
                    <use xlink:href="#path-1"></use>
                </mask>
                <g id="Clip-2"></g>
                <polygon id="Fill-1" fill="#8C786F" mask="url(#mask-2)" points="-12.164963 4.67437037 45.7727407 4.67437037 45.7727407 0.138555556 -12.164963 0.138555556"></polygon>
                <path d="M-12.1661444,5.37037037 C-12.3208111,5.37037037 -12.4733296,5.32203704 -12.6054407,5.22107407 C-12.9222926,4.97940741 -12.9824407,4.52507407 -12.7407741,4.20822222 L-9.31125556,-0.274962963 C-9.06744074,-0.592888889 -8.61310741,-0.650888889 -8.29625556,-0.409222222 C-7.9794037,-0.167555556 -7.92032963,0.286777778 -8.16092222,0.60362963 L-11.5915148,5.08681481 C-11.7343667,5.27262963 -11.9491815,5.37037037 -12.1661444,5.37037037" id="Fill-3" fill="#79655C" mask="url(#mask-2)"></path>
                <path d="M-7.25934444,5.37037037 C-7.41401111,5.37037037 -7.56652963,5.32203704 -7.69864074,5.22107407 C-8.01549259,4.97940741 -8.07564074,4.52507407 -7.83397407,4.20822222 L-4.40552963,-0.274962963 C-4.16064074,-0.592888889 -3.70845556,-0.650888889 -3.3916037,-0.409222222 C-3.07475185,-0.167555556 -3.0146037,0.286777778 -3.2551963,0.60362963 L-6.68471481,5.08681481 C-6.82756667,5.27262963 -7.04238148,5.37037037 -7.25934444,5.37037037" id="Fill-4" fill="#79655C" mask="url(#mask-2)"></path>
                <path d="M-2.35469259,5.37037037 C-2.50828519,5.37037037 -2.66187778,5.32203704 -2.79291481,5.22107407 C-3.11084074,4.97940741 -3.16991481,4.52507407 -2.92824815,4.20822222 L0.50127037,-0.274962963 C0.746159259,-0.592888889 1.19941852,-0.650888889 1.5151963,-0.409222222 C1.83204815,-0.167555556 1.8921963,0.286777778 1.65052963,0.60362963 L-1.78006296,5.08681481 C-1.92291481,5.27262963 -2.13665556,5.37037037 -2.35469259,5.37037037" id="Fill-5" fill="#575552" mask="url(#mask-2)"></path>
                <path d="M2.552,5.37037037 C2.39840741,5.37037037 2.24481481,5.32203704 2.11377778,5.22107407 C1.79585185,4.97940741 1.73677778,4.52507407 1.97844444,4.20822222 L5.40688889,-0.274962963 C5.64962963,-0.592888889 6.10396296,-0.650888889 6.42081481,-0.409222222 C6.73766667,-0.167555556 6.79674074,0.286777778 6.55614815,0.60362963 L3.12662963,5.08681481 C2.98377778,5.27262963 2.77003704,5.37037037 2.552,5.37037037" id="Fill-6" fill="#575552" mask="url(#mask-2)"></path>
                <path d="M7.45772593,5.37037037 C7.30305926,5.37037037 7.15054074,5.32203704 7.01842963,5.22107407 C6.70157778,4.97940741 6.64142963,4.52507407 6.8830963,4.20822222 L10.3126148,-0.274962963 C10.5575037,-0.592888889 11.0096889,-0.650888889 11.3276148,-0.409222222 C11.6444667,-0.167555556 11.7035407,0.286777778 11.4629481,0.60362963 L8.03235556,5.08681481 C7.8895037,5.27262963 7.67468889,5.37037037 7.45772593,5.37037037" id="Fill-7" fill="#575552" mask="url(#mask-2)"></path>
                <path d="M12.3645259,5.37037037 C12.2098593,5.37037037 12.0573407,5.32203704 11.9252296,5.22107407 C11.6083778,4.97940741 11.5482296,4.52507407 11.7898963,4.20822222 L15.2183407,-0.274962963 C15.4621556,-0.592888889 15.9164889,-0.650888889 16.2322667,-0.409222222 C16.5491185,-0.167555556 16.6092667,0.286777778 16.3686741,0.60362963 L12.9391556,5.08681481 C12.7963037,5.27262963 12.5814889,5.37037037 12.3645259,5.37037037" id="Fill-8" fill="#575552" mask="url(#mask-2)"></path>
                <path d="M17.2691778,5.37037037 C17.1155852,5.37037037 16.9619926,5.32203704 16.8309556,5.22107407 C16.5130296,4.97940741 16.4539556,4.52507407 16.6956222,4.20822222 L20.1240667,-0.274962963 C20.3668074,-0.592888889 20.8200667,-0.650888889 21.1379926,-0.409222222 C21.4548444,-0.167555556 21.5139185,0.286777778 21.2733259,0.60362963 L17.8438074,5.08681481 C17.7009556,5.27262963 17.4872148,5.37037037 17.2691778,5.37037037" id="Fill-9" fill="#575552" mask="url(#mask-2)"></path>
                <path d="M22.1758704,5.37037037 C22.0222778,5.37037037 21.8686852,5.32203704 21.7376481,5.22107407 C21.4197222,4.97940741 21.3606481,4.52507407 21.6023148,4.20822222 L25.0307593,-0.274962963 C25.2745741,-0.592888889 25.7267593,-0.650888889 26.0446852,-0.409222222 C26.361537,-0.167555556 26.4206111,0.286777778 26.1800185,0.60362963 L22.7505,5.08681481 C22.6076481,5.27262963 22.3939074,5.37037037 22.1758704,5.37037037" id="Fill-10" fill="#575552" mask="url(#mask-2)"></path>
                <path d="M27.0815963,5.37037037 C26.9269296,5.37037037 26.7744111,5.32203704 26.6423,5.22107407 C26.3254481,4.97940741 26.2653,4.52507407 26.5069667,4.20822222 L29.9354111,-0.274962963 C30.1792259,-0.592888889 30.6335593,-0.650888889 30.949337,-0.409222222 C31.2661889,-0.167555556 31.326337,0.286777778 31.0857444,0.60362963 L27.6562259,5.08681481 C27.5133741,5.27262963 27.2985593,5.37037037 27.0815963,5.37037037" id="Fill-11" fill="#575552" mask="url(#mask-2)"></path>
                <path d="M31.9873222,5.37037037 C31.8326556,5.37037037 31.679063,5.32203704 31.5480259,5.22107407 C31.2301,4.97940741 31.1710259,4.52507407 31.4126926,4.20822222 L34.8422111,-0.274962963 C35.0860259,-0.592888889 35.5403593,-0.650888889 35.856137,-0.409222222 C36.1729889,-0.167555556 36.233137,0.286777778 35.9925444,0.60362963 L32.5608778,5.08681481 C32.4180259,5.27262963 32.2042852,5.37037037 31.9873222,5.37037037" id="Fill-12" fill="#79655C" mask="url(#mask-2)"></path>
                <path d="M36.8930481,5.37037037 C36.7394556,5.37037037 36.585863,5.32203704 36.4548259,5.22107407 C36.1369,4.97940741 36.0778259,4.52507407 36.3194926,4.20822222 L39.747937,-0.274962963 C39.9917519,-0.592888889 40.443937,-0.650888889 40.761863,-0.409222222 C41.0787148,-0.167555556 41.1377889,0.286777778 40.8971963,0.60362963 L37.4676778,5.08681481 C37.3248259,5.27262963 37.1110852,5.37037037 36.8930481,5.37037037" id="Fill-13" fill="#79655C" mask="url(#mask-2)"></path>
            </g>
            <g id="Group-49" transform="translate(0.000000, 1.058500)">
                <path d="M7.61819259,62.2553741 L41.5288593,62.2553741 C45.0539704,66.531263 46.019563,71.9735963 43.9680815,76.1957815 C42.7178593,78.7660407 40.6577852,80.2257074 39.4129333,80.944263 L9.49567407,80.944263 C8.22934074,80.1483741 6.53982222,78.7821519 5.44319259,76.5985593 C3.30578519,72.3441519 4.03615556,66.7621889 7.61819259,62.2553741" id="Fill-15" fill="#8C786F"></path>
                <path d="M7.61819259,62.254837 C8.24008148,61.1088 8.97367407,59.9004667 9.83078519,58.6244667 C20.4608963,42.8033556 11.5954889,29.8220963 5.94585926,21.770837 C5.82771111,21.6011333 6.63863704,20.7203926 7.6138963,20.2768 C8.66111852,19.7999111 9.88234074,19.7644667 9.88234074,19.7644667 L41.786637,19.7644667 C43.0003407,19.7644667 43.7178222,21.1263926 43.0218222,22.1220593 C37.3668222,30.1969481 28.9074148,43.0310593 39.3839333,58.6244667 C40.2109704,59.8542815 40.9209333,61.0218 41.5288593,62.1313185 L7.61819259,62.254837 Z" id="Fill-17" fill="#F5F0ED"></path>
                <path d="M9.42124074,80.4081926 L39.7917593,80.4081926 C40.3180556,80.123563 42.8206481,78.6134148 43.761537,75.2139704 C44.9462407,70.931637 43.3233148,65.450637 38.9378704,58.924563 C27.9984259,42.6405259 37.4846481,29.0932296 42.5822037,21.8142296 C42.7895,21.5167111 42.8152778,21.1461556 42.6466481,20.8228593 C42.4758704,20.4974148 42.1557963,20.3019333 41.7863148,20.3019333 L9.88309259,20.3019333 C9.88738889,20.3019333 8.76712963,20.3416741 7.83483333,20.7648593 C7.2602037,21.0269333 6.7715,21.457637 6.55668519,21.7057481 C12.1246852,29.6442296 21.1200556,42.7844519 10.2762037,58.924563 C5.88216667,65.4635259 4.26138889,70.9531185 5.46005556,75.2386741 C6.41061111,78.6402667 8.89816667,80.1278593 9.42124074,80.4081926 Z M40.0409444,81.4822667 L9.0667963,81.4328593 C8.92609259,81.3673407 5.61687037,79.7916741 4.42572222,75.5276 C3.13790741,70.9251926 4.80701852,65.1380815 9.38472222,58.3252296 C19.9278333,42.6319333 10.9002407,29.7666741 5.50624074,22.0795259 L5.36231481,21.8722296 L5.42353704,21.5424889 C5.56638889,21.0194148 6.4857963,20.1988222 7.39016667,19.7874519 C8.52438889,19.2718963 9.81327778,19.2300074 9.86805556,19.2278593 L41.7863148,19.2278593 C42.5521296,19.2278593 43.2459815,19.6488963 43.5993519,20.326637 C43.9495,21.0011556 43.8979444,21.8077852 43.4607963,22.4307481 C36.6092778,32.2144889 30.1143519,43.8638963 39.8304259,58.3252296 C44.4070556,65.1380815 46.0750926,70.9251926 44.7894259,75.5276 C43.5961296,79.7916741 40.2879815,81.3673407 40.1472778,81.4328593 L40.0409444,81.4822667 Z" id="Fill-19" fill="#575552"></path>
                <path d="M9.82928148,81.4822667 L9.82928148,83.3876741 C9.82928148,83.9687481 10.3018741,84.4413407 10.8829481,84.4413407 L37.8218,84.4413407 C38.4028741,84.4413407 38.8743926,83.9687481 38.8743926,83.3876741 L38.8743926,81.4822667 L9.82928148,81.4822667 Z M37.8218,85.5154148 L10.8829481,85.5154148 C9.71005926,85.5154148 8.75520741,84.561637 8.75520741,83.3876741 L8.75520741,80.4081926 L39.9484667,80.4081926 L39.9484667,83.3876741 C39.9484667,84.561637 38.9936148,85.5154148 37.8218,85.5154148 Z" id="Fill-21" fill="#575552"></path>
                <path d="M11.3470556,53.740437 C9.7337963,52.9338074 10.9442778,51.3205481 13.1622407,47.185363 C15.3812778,43.0501778 13.1622407,39.3188444 11.5489815,37.3028074 C11.5328704,37.2824 11.5167593,37.2619926 11.5017222,37.2426593 C10.3750185,35.7915852 11.5017222,33.671363 13.3383889,33.671363 L35.3665741,33.671363 C37.2032407,33.671363 38.3299444,35.7915852 37.2032407,37.2426593 C37.1882037,37.2619926 37.1720926,37.2824 37.1559815,37.3028074 C35.5416481,39.3188444 33.3236852,43.0501778 35.5416481,47.185363 C37.7617593,51.3205481 38.9711667,52.9338074 37.3579074,53.740437 L11.3470556,53.740437 Z" id="Fill-23" fill="#8C786F"></path>
                <path d="M11.4823889,53.2034 L37.2225741,53.2034 C37.4481296,53.0691407 37.5093519,52.9477704 37.5351296,52.8650667 C37.7187963,52.2786222 36.9637222,50.9027333 35.9175741,48.9984 C35.6565741,48.5236593 35.3719444,48.0048815 35.0690556,47.4388444 C33.3065,44.1554 33.8822037,40.5346963 36.7360185,36.9666222 C37.1624259,36.4188444 37.2236481,35.7786963 36.9400926,35.2019185 C36.6404259,34.5896963 36.0367963,34.2094741 35.3655,34.2094741 L13.3383889,34.2094741 C12.6670926,34.2094741 12.064537,34.5896963 11.7648704,35.2008444 C11.4813148,35.7786963 11.542537,36.4188444 11.9249074,36.9129185 C14.8216852,40.5336222 15.398463,44.1543259 13.6359074,47.4388444 C13.3340926,48.0027333 13.049463,48.519363 12.789537,48.9941037 C11.7423148,50.9005852 10.9861667,52.2775481 11.1687593,52.8650667 C11.194537,52.9477704 11.2568333,53.0691407 11.4823889,53.2034 Z M37.4846481,54.2774741 L11.2203148,54.2774741 L11.106463,54.2205481 C10.5973519,53.9659926 10.2826481,53.6276593 10.1440926,53.1840667 C9.82509259,52.1615481 10.5436481,50.8533259 11.8475741,48.4774741 C12.1064259,48.0059556 12.3889074,47.4914741 12.6896481,46.9318815 C14.6390926,43.2982889 12.9173519,39.8719926 11.1290185,37.6379185 C10.4362407,36.746437 10.3331296,35.6831037 10.7992778,34.7282519 C11.281537,33.7454741 12.2535741,33.1354 13.3383889,33.1354 L35.3655,33.1354 C36.4503148,33.1354 37.4234259,33.7454741 37.9056852,34.7293259 C38.3718333,35.6831037 38.2676481,36.746437 37.6275,37.5713259 C35.7876111,39.8730667 34.0658704,43.299363 36.0153148,46.9318815 C36.3171296,47.4936222 36.5996111,48.0091778 36.859537,48.4817704 C38.1623889,50.8554741 38.8798704,52.1626222 38.5608704,53.1851407 C38.4223148,53.6276593 38.1076111,53.9659926 37.5974259,54.2205481 L37.4846481,54.2774741 Z" id="Fill-25" fill="#575552"></path>
                <path d="M5.10926296,53.1011481 C5.02333704,53.1011481 4.93741111,53.0807407 4.85685556,53.0377778 C4.59478148,52.8992222 4.49596667,52.5727037 4.6355963,52.3117037 C5.09315185,51.4513704 5.14470741,50.2580741 5.19948519,48.994963 C5.26392963,47.4977037 5.33052222,45.949963 6.04478148,44.5837407 C7.4153,41.963 10.6418185,42.3464444 12.156263,42.9189259 C12.4333741,43.022037 12.5730037,43.3313704 12.4698926,43.6095556 C12.3667815,43.8855926 12.0553,44.0284444 11.779263,43.9242593 C11.6364111,43.8716296 8.26811481,42.6493333 6.99748519,45.0821111 C6.39278148,46.2356667 6.33263333,47.662037 6.27248519,49.0411481 C6.21233704,50.4299259 6.15648519,51.7413704 5.58292963,52.8165185 C5.48733704,52.998037 5.30152222,53.1011481 5.10926296,53.1011481" id="Fill-27" fill="#575552"></path>
                <path d="M13.8361148,43.8927889 C13.8361148,44.7842704 13.113263,45.5071222 12.2217815,45.5071222 C11.3292259,45.5071222 10.6063741,44.7842704 10.6063741,43.8927889 C10.6063741,43.0002333 11.3292259,42.2773815 12.2217815,42.2773815 C13.113263,42.2773815 13.8361148,43.0002333 13.8361148,43.8927889" id="Fill-29" fill="#F5F0ED"></path>
                <path d="M12.2208148,42.8145259 C11.6257778,42.8145259 11.1424444,43.2978593 11.1424444,43.8928963 C11.1424444,44.4879333 11.6257778,44.9712667 12.2208148,44.9712667 C12.8158519,44.9712667 13.2991852,44.4879333 13.2991852,43.8928963 C13.2991852,43.2978593 12.8158519,42.8145259 12.2208148,42.8145259 M12.2208148,46.0453407 C11.035037,46.0453407 10.0683704,45.0797481 10.0683704,43.8928963 C10.0683704,42.7060444 11.035037,41.7404519 12.2208148,41.7404519 C13.4065926,41.7404519 14.3732593,42.7060444 14.3732593,43.8928963 C14.3732593,45.0797481 13.4065926,46.0453407 12.2208148,46.0453407" id="Fill-31" fill="#575552"></path>
                <path d="M0.873759259,53.3198296 C0.820055556,53.3198296 0.765277778,53.311237 0.711574074,53.2940519 C0.429092593,53.2049037 0.272277778,52.9030889 0.361425926,52.6216815 C0.423722222,52.4251259 1.92098148,47.8259407 6.03361111,47.1761259 C9.60275926,46.612237 11.5103148,43.9914963 11.5296481,43.9657185 C11.7025741,43.7240519 12.0376852,43.6692741 12.2793519,43.8411259 C12.5210185,44.0129778 12.5768704,44.3480889 12.4039444,44.5897556 C12.3158704,44.7122 10.2096111,47.6036074 6.20116667,48.2373111 C2.75016667,48.7818667 1.39898148,52.9030889 1.38609259,52.9449778 C1.31305556,53.1737556 1.10146296,53.3198296 0.873759259,53.3198296" id="Fill-33" fill="#575552"></path>
                <path d="M34.4134407,44.4298259 L13.8363296,44.4298259 C13.5388111,44.4298259 13.2992926,44.1892333 13.2992926,43.8927889 C13.2992926,43.5963444 13.5388111,43.3557519 13.8363296,43.3557519 L34.4134407,43.3557519 C34.7098852,43.3557519 34.9504778,43.5963444 34.9504778,43.8927889 C34.9504778,44.1892333 34.7098852,44.4298259 34.4134407,44.4298259" id="Fill-35" fill="#575552"></path>
                <path d="M31.7324444,46.445863 C31.7324444,46.445863 33.8591111,50.3544185 35.2285556,52.0600481 L32.8677407,52.0600481 C32.6067407,52.0600481 32.3715185,51.9225667 32.2361852,51.6991593 C31.7378148,50.8796407 30.6723333,48.7647889 31.2630741,46.445863 L31.7324444,46.445863 Z" id="Fill-37" fill="#F5F0ED"></path>
                <path d="M11.9669037,78.2123556 C9.30427407,77.7096889 7.20982963,75.5132074 7.04012593,72.8076148 C6.99394074,72.0589852 7.03582963,69.5896889 7.46223704,68.4801704 C7.46223704,68.4801704 10.4213111,77.8095778 11.9669037,78.2123556" id="Fill-39" fill="#575552"></path>
                <path d="M13.2749111,16.6607148 C13.1524667,16.6607148 13.0268,16.6392333 12.9043556,16.5941222 C12.3479852,16.3911222 12.0622815,15.7735296 12.2663556,15.2171593 C12.2749481,15.1903074 13.2426889,12.4911593 12.4629111,10.5642704 C12.2341333,9.99823333 11.9430593,9.72649259 11.5392074,9.35164074 C11.0322444,8.88012222 10.402837,8.29367778 9.92917037,7.11004815 C9.48665185,6.01234444 9.33520741,4.79864074 9.47805926,3.50545556 C9.54357778,2.91686296 10.054837,2.50012222 10.663837,2.55597407 C11.2535037,2.62149259 11.678837,3.15208519 11.6133185,3.74175185 C11.5091333,4.67941852 11.6133185,5.54297407 11.9215778,6.30986296 C12.2180222,7.04882593 12.5638741,7.37104815 13.0020963,7.77812222 C13.4918741,8.2346037 14.0471704,8.75123333 14.4542444,9.75871481 C15.5476519,12.4621593 14.3328741,15.8175667 14.2813185,15.9593444 C14.1212815,16.3921963 13.7109852,16.6607148 13.2749111,16.6607148" id="Fill-41" fill="#575552"></path>
                <path d="M20.6549815,16.6617889 C20.5164259,16.6617889 20.3757222,16.634937 20.2403889,16.5780111 C19.6926111,16.3481593 19.4348333,15.7198259 19.6636111,15.1720481 C20.4637963,13.2601963 20.6710926,11.5330852 20.2769074,10.0379741 C20.0910926,9.33015926 19.8193519,8.82856667 19.5304259,8.2969 C19.0610556,7.42904815 18.5745,6.53112222 18.6550556,5.04782593 C18.6572037,5.01667778 19.0213148,2.57208519 19.6303148,1.18223333 L19.6722037,1.04045556 L19.6926111,1.04475185 C19.8784259,0.653788889 20.0867963,0.365937037 20.3112778,0.273566667 L20.938537,0.0157888889 L21.4412037,0.471196296 C21.9492407,0.931974074 21.7763148,1.5066037 21.6839444,1.81593704 C21.6592407,1.89864074 21.6237963,1.97704815 21.5819074,2.04901111 C21.3305741,2.82664074 20.8354259,4.51723333 20.7999815,5.16382593 C20.7527222,6.04134444 21.0180185,6.5321963 21.4197222,7.27330741 C21.7397963,7.86404815 22.1028333,8.53427037 22.3541667,9.4901963 C22.8707963,11.4536037 22.6334259,13.6436407 21.6463519,16.0023074 C21.4734259,16.4136778 21.0749444,16.6617889 20.6549815,16.6617889" id="Fill-43" fill="#575552"></path>
                <path d="M28.722137,16.6612519 C28.3193593,16.6612519 27.9337667,16.4346222 27.7501,16.0468815 C26.9628037,14.3842148 26.6685074,12.7569926 26.8725815,11.2114 C27.0379889,9.96332593 27.4826556,9.09117778 27.8746926,8.32214074 C28.2345074,7.61862222 28.5459889,7.00962222 28.6748778,6.11706667 C28.8359889,4.99465926 28.6491,3.80136296 28.1142111,2.56832593 C27.8789889,2.02377037 28.1281741,1.39114074 28.6727296,1.15591852 C29.2194333,0.917474074 29.8499148,1.17095556 30.0862111,1.71443704 C30.780063,3.31802963 31.0206556,4.90228889 30.8004704,6.42425185 C30.6211,7.6691037 30.1775074,8.53588148 29.7876185,9.29954815 C29.4288778,10.0030667 29.1184704,10.6109926 29.0024704,11.4928074 C28.8531741,12.6227333 29.0851741,13.8450296 29.6920259,15.1274741 C29.9465815,15.663437 29.7167296,16.3035852 29.1807667,16.5581407 C29.0325444,16.6279556 28.8757296,16.6612519 28.722137,16.6612519" id="Fill-45" fill="#575552"></path>
                <path d="M35.576663,16.6612519 C35.3006259,16.6612519 35.025663,16.5559926 34.8162185,16.3454741 C34.3973296,15.9255111 34.3973296,15.2456222 34.8183667,14.8267333 C35.2727,14.3745481 35.5229593,13.9191407 35.5659222,13.4744741 C35.6131815,12.9750296 35.3951444,12.6044741 35.0052556,11.9944 C34.5509222,11.283363 33.9859593,10.3983259 34.2007741,9.15777037 C34.2340704,8.96551111 34.2963667,8.61214074 35.9622556,6.19117778 C36.2984407,5.70354815 36.9665148,5.57895556 37.4562926,5.91514074 C37.9439222,6.25132593 38.0674407,6.92047407 37.7312556,7.40917778 C36.7334407,8.85917778 36.4026259,9.44132593 36.3048852,9.62928889 C36.2823296,9.98480741 36.4735148,10.3027333 36.8150704,10.8376222 C37.2640333,11.5411407 37.8247,12.4175852 37.7033296,13.6774741 C37.6131074,14.6334 37.1534037,15.5324 36.3349593,16.3476222 C36.1255148,16.5570667 35.8516259,16.6612519 35.576663,16.6612519" id="Fill-47" fill="#575552"></path>
            </g>
        </g>
    </g>
</svg>