<?xml version="1.0" encoding="UTF-8"?>
<svg width="96px" height="96px" viewBox="0 0 96 96" version="1.1" xmlns="http://www.w3.org/2000/svg" xmlns:xlink="http://www.w3.org/1999/xlink">
    <!-- Generator: Sketch 52.5 (67469) - http://www.bohemiancoding.com/sketch -->
    <title>Icon / Illustration / Drawing Desk</title>
    <desc>Created with Sketch.</desc>
    <defs>
        <polygon id="path-1" points="0.15425641 0.554912821 5.97087179 0.554912821 5.97087179 24.6153846 0.15425641 24.6153846"></polygon>
        <polygon id="path-3" points="0.283241026 0.554912821 6.09985641 0.554912821 6.09985641 24.6153846 0.283241026 24.6153846"></polygon>
        <path d="M2.03702102,0.8 L0.966940038,2.31142973 L0.633435897,1.32430769 C0.546461538,1.06748718 0.738461538,0.8 1.01087179,0.8 L2.03702102,0.8 Z M3.04292287,0.8 L6.95189282,0.8 L2.55466102,7.01084477 L1.29184947,3.27311273 L3.04292287,0.8 Z M7.95779466,0.8 L11.8673334,0.8 L7.19293383,7.40184615 L3.28339505,7.40184615 L7.95779466,0.8 Z M12.8726665,0.8 L16.7822052,0.8 L12.1078056,7.40184615 L8.19826684,7.40184615 L12.8726665,0.8 Z M17.7877654,0.8 L21.6965082,0.8 L17.0224503,7.40184615 L13.1137075,7.40184615 L17.7877654,0.8 Z M22.7026372,0.8 L26.6116317,0.8 L21.9379156,7.40184615 L18.0285793,7.40184615 L22.7026372,0.8 Z M27.617509,0.8 L31.5268206,0.8 L26.852421,7.40184615 L22.9434511,7.40184615 L27.617509,0.8 Z M32.5321536,0.8 L36.4416924,0.8 L31.7672928,7.40184615 L27.857754,7.40184615 L32.5321536,0.8 Z M37.4472526,0.8 L41.3565642,0.8 L36.6821646,7.40184615 L32.7731947,7.40184615 L37.4472526,0.8 Z M42.3627177,0.8 L46.2716877,0.8 L41.5976298,7.40184615 L37.6883181,7.40184615 L42.3627177,0.8 Z M47.2775895,0.8 L51.1871283,0.8 L46.5127287,7.40184615 L42.6031899,7.40184615 L47.2775895,0.8 Z M52.1924613,0.8 L56.1020001,0.8 L51.4276005,7.40184615 L47.5180617,7.40184615 L52.1924613,0.8 Z M57.1075603,0.8 L61.0168719,0.8 L56.3424723,7.40184615 L52.4335024,7.40184615 L57.1075603,0.8 Z M62.0230254,0.8 L65.9314266,0.8 L61.2577104,7.40184615 L57.3486258,7.40184615 L62.0230254,0.8 Z M66.9373038,0.8 L70.8466155,0.8 L66.1722159,7.40184615 L62.263246,7.40184615 L66.9373038,0.8 Z M71.8519485,0.8 L75.7614873,0.8 L71.0870877,7.40184615 L67.1775489,7.40184615 L71.8519485,0.8 Z M76.7670474,0.8 L80.6763591,0.8 L76.0019595,7.40184615 L72.0929896,7.40184615 L76.7670474,0.8 Z M81.6819192,0.8 L84.4553846,0.8 C84.7187692,0.8 84.9091282,1.05025641 84.8393846,1.30379487 L84.586749,2.21913019 L80.9174247,7.40184615 L77.0078614,7.40184615 L81.6819192,0.8 Z M83.9441894,4.54721612 L83.2369231,7.10974359 C83.1893333,7.28205128 83.0326154,7.40184615 82.8529231,7.40184615 L81.9229848,7.40184615 L83.9441894,4.54721612 Z" id="path-5"></path>
    </defs>
    <g id="Icon-/-Illustration-/-Drawing-Desk" stroke="none" stroke-width="1" fill="none" fill-rule="evenodd">
        <g id="Group-46" transform="translate(6.000000, 5.066133)">
            <path d="M81.8080821,31.1237744 L3.54756923,31.1237744 C2.83864615,31.1237744 2.26510769,30.5494154 2.26510769,29.8413128 L2.26510769,26.4468513 C2.26510769,25.7387487 2.83864615,25.1635692 3.54756923,25.1635692 L81.8080821,25.1635692 C82.5161846,25.1635692 83.0905436,25.7387487 83.0905436,26.4468513 L83.0905436,29.8413128 C83.0905436,30.5494154 82.5161846,31.1237744 81.8080821,31.1237744" id="Fill-1" fill="#F5F0ED"></path>
            <path d="M81.8080821,31.3718154 L3.54756923,31.3718154 C2.61382564,31.3718154 1.85485128,30.6120205 1.85485128,29.6782769 L1.85485128,26.2846359 C1.85485128,25.3508923 2.61382564,24.5910974 3.54756923,24.5910974 L33.2484923,24.5910974 C33.4757744,24.5910974 33.6587487,24.7748923 33.6587487,25.0013538 C33.6587487,25.2286359 33.4757744,25.4116103 33.2484923,25.4116103 L3.54756923,25.4116103 C3.06674872,25.4116103 2.6753641,25.8029949 2.6753641,26.2846359 L2.6753641,29.6782769 C2.6753641,30.1599179 3.06674872,30.5513026 3.54756923,30.5513026 L81.8080821,30.5513026 C82.2889026,30.5513026 82.6802872,30.1599179 82.6802872,29.6782769 L82.6802872,26.2846359 C82.6802872,25.8029949 82.2889026,25.4116103 81.8080821,25.4116103 L51.5188513,25.4116103 C51.2923897,25.4116103 51.1085949,25.2286359 51.1085949,25.0013538 C51.1085949,24.7748923 51.2923897,24.5910974 51.5188513,24.5910974 L81.8080821,24.5910974 C82.7418256,24.5910974 83.5008,25.3508923 83.5008,26.2846359 L83.5008,29.6782769 C83.5008,30.6120205 82.7418256,31.3718154 81.8080821,31.3718154" id="Fill-3" fill="#575552"></path>
            <path d="M6.17665641,31.8533744 L6.17665641,51.8369641 L6.17665641,55.7622974 L6.17665641,66.4732718 C6.17665641,67.8500923 7.29255385,68.9659897 8.66937436,68.9659897 C9.95429744,68.9659897 10.9947077,67.924759 10.9947077,66.6406564 L10.9947077,55.7622974 L73.4431179,55.7622974 L73.4431179,66.4732718 C73.4431179,67.8500923 74.5590154,68.9659897 75.9358359,68.9659897 C77.2191179,68.9659897 78.2611692,67.924759 78.2611692,66.6406564 L78.2611692,55.7622974 L78.2611692,51.8369641 L78.2611692,31.8533744 L6.17665641,31.8533744 Z" id="Fill-5" fill="#8C786F"></path>
            <path d="M10.5845333,55.3521231 L73.8534564,55.3521231 L73.8534564,66.4733538 C73.8534564,67.6220718 74.7880205,68.5558154 75.9359179,68.5558154 C76.9919179,68.5558154 77.8501744,67.6967385 77.8501744,66.6407385 L77.8501744,32.2637128 L6.58781538,32.2637128 L6.58781538,66.4733538 C6.58781538,67.6220718 7.52155897,68.5558154 8.66945641,68.5558154 C9.72545641,68.5558154 10.5845333,67.6967385 10.5845333,66.6407385 L10.5845333,55.3521231 Z M75.9359179,69.3763282 C74.3350974,69.3763282 73.0329436,68.0741744 73.0329436,66.4733538 L73.0329436,56.1726359 L11.4050462,56.1726359 L11.4050462,66.6407385 C11.4050462,68.148841 10.177559,69.3763282 8.66945641,69.3763282 C7.06945641,69.3763282 5.76730256,68.0741744 5.76730256,66.4733538 L5.76730256,31.4432 L78.6706872,31.4432 L78.6706872,66.6407385 C78.6706872,68.148841 77.4440205,69.3763282 75.9359179,69.3763282 Z" id="Fill-7" fill="#575552"></path>
            <path d="M70.9450667,30.961559 L14.7415795,30.961559 L0.81665641,44.2226872 C0.43265641,44.5886359 0.691938462,45.2352 1.22198974,45.2352 L84.1331692,45.2352 C84.6599385,45.2352 84.920041,44.5952 84.5426051,44.2276103 L70.9450667,30.961559 Z" id="Fill-9" fill="#F5F0ED"></path>
            <path d="M14.9058462,31.3718154 L1.10071795,44.5197128 C1.02523077,44.5919179 1.04246154,44.6723282 1.05805128,44.7141744 C1.07528205,44.7552 1.11794872,44.8249436 1.22215385,44.8249436 L84.1333333,44.8249436 C84.2367179,44.8249436 84.2802051,44.7560205 84.2966154,44.7149949 C84.3138462,44.6731487 84.3310769,44.593559 84.2564103,44.5213538 L70.7794872,31.3718154 L14.9058462,31.3718154 Z M84.1333333,45.6454564 L1.22215385,45.6454564 C0.811897436,45.6454564 0.449230769,45.3993026 0.296615385,45.0185846 C0.144820513,44.6378667 0.237538462,44.2087385 0.534564103,43.9256615 L14.577641,30.5513026 L71.1126154,30.5513026 L71.2324103,30.6678154 L84.8307692,43.9338667 C85.1220513,44.2185846 85.2114872,44.6468923 85.0572308,45.0243282 C84.9037949,45.4017641 84.5403077,45.6454564 84.1333333,45.6454564 Z" id="Fill-11" fill="#575552"></path>
            <path d="M82.5965128,51.8369641 L2.71630769,51.8369641 C2.54482051,51.8369641 2.39384615,51.7286564 2.33887179,51.5661949 L0.377025641,45.7602462 C0.290051282,45.5026051 0.482051282,45.2351179 0.754461538,45.2351179 L84.1989744,45.2351179 C84.4615385,45.2351179 84.6527179,45.4853744 84.5829744,45.7389128 L82.9805128,51.5456821 C82.9329231,51.7171692 82.7762051,51.8369641 82.5965128,51.8369641" id="Fill-13" fill="#575552"></path>
            <path d="M6.67109744,75.0769231 L5.50432821,75.0769231 C4.44750769,75.0769231 3.59007179,74.2194872 3.59007179,73.1626667 L3.59007179,51.8367179 L8.58617436,51.8367179 L8.58617436,73.1626667 C8.58617436,74.2194872 7.72873846,75.0769231 6.67109744,75.0769231" id="Fill-15" fill="#F5F0ED"></path>
            <g id="Group-19" transform="translate(3.025641, 50.871795)">
                <mask id="mask-2" fill="white">
                    <use xlink:href="#path-1"></use>
                </mask>
                <g id="Clip-18"></g>
                <path d="M0.974769231,1.37542564 L0.974769231,22.2902974 C0.974769231,23.1198359 1.64923077,23.7951179 2.47958974,23.7951179 L3.64635897,23.7951179 C4.47589744,23.7951179 5.15035897,23.1198359 5.15035897,22.2902974 L5.15035897,1.37542564 L0.974769231,1.37542564 Z M3.64635897,24.6156308 L2.47958974,24.6156308 C1.19712821,24.6156308 0.15425641,23.572759 0.15425641,22.2902974 L0.15425641,0.554912821 L5.97087179,0.554912821 L5.97087179,22.2902974 C5.97087179,23.572759 4.928,24.6156308 3.64635897,24.6156308 Z" id="Fill-17" fill="#575552" mask="url(#mask-2)"></path>
            </g>
            <path d="M79.8257231,75.0769231 L78.6581333,75.0769231 C77.6013128,75.0769231 76.7438769,74.2194872 76.7438769,73.1626667 L76.7438769,51.8367179 L81.7399795,51.8367179 L81.7399795,73.1626667 C81.7399795,74.2194872 80.8825436,75.0769231 79.8257231,75.0769231" id="Fill-20" fill="#F5F0ED"></path>
            <g id="Group-24" transform="translate(76.051282, 50.871795)">
                <mask id="mask-4" fill="white">
                    <use xlink:href="#path-3"></use>
                </mask>
                <g id="Clip-23"></g>
                <path d="M1.10375385,1.37542564 L1.10375385,22.2902974 C1.10375385,23.1198359 1.77821538,23.7951179 2.60775385,23.7951179 L3.77452308,23.7951179 C4.60488205,23.7951179 5.27934359,23.1198359 5.27934359,22.2902974 L5.27934359,1.37542564 L1.10375385,1.37542564 Z M3.77452308,24.6156308 L2.60775385,24.6156308 C1.32611282,24.6156308 0.283241026,23.572759 0.283241026,22.2902974 L0.283241026,0.554912821 L6.09985641,0.554912821 L6.09985641,22.2902974 C6.09985641,23.572759 5.0561641,24.6156308 3.77452308,24.6156308 Z" id="Fill-22" fill="#575552" mask="url(#mask-4)"></path>
            </g>
            <polygon id="Fill-25" fill="#575552" points="48.3209026 10.292841 46.8062359 9.65940513 48.7779282 4.95130256 50.2917744 5.58555897"></polygon>
            <polygon id="Fill-27" fill="#575552" points="60.0931282 31.7234872 61.7341538 31.7234872 61.7341538 15.9737436 60.0931282 15.9737436"></polygon>
            <polygon id="Fill-29" fill="#575552" points="59.8185026 15.1950769 49.9165538 4.5825641 51.1169641 3.46338462 61.0189128 14.0758974"></polygon>
            <path d="M35.1494564,22.8845949 C34.9106872,22.8845949 34.6752,22.7820308 34.5127385,22.5826462 C34.2263795,22.2314667 34.2788923,21.7145436 34.6300718,21.4281846 L37.5510974,19.0478769 C37.9030974,18.7615179 38.4192,18.8148513 38.705559,19.1652103 C38.9919179,19.5163897 38.9385846,20.0333128 38.5874051,20.3196718 L35.6672,22.6999795 C35.5145846,22.8238769 35.3316103,22.8845949 35.1494564,22.8845949" id="Fill-30" fill="#575552"></path>
            <path d="M39.8409026,29.0003692 C39.7399795,29.0003692 39.6382359,28.9814974 39.5389538,28.9421128 C39.1172103,28.7755487 38.9112615,28.2988308 39.0778256,27.8770872 L41.438441,21.9127795 C41.6058256,21.4910359 42.0841846,21.2867282 42.5034667,21.4516513 C42.9252103,21.6182154 43.131159,22.0949333 42.9645949,22.5166769 L40.6039795,28.4818051 C40.4759795,28.8034462 40.1666462,29.0003692 39.8409026,29.0003692" id="Fill-31" fill="#575552"></path>
            <path d="M47.6357744,28.1438359 C47.259159,28.1438359 46.9202872,27.8837333 46.8349538,27.5013744 L45.8060308,22.8597333 C45.7075692,22.4166564 45.9865436,21.9785026 46.4288,21.8808615 C46.875159,21.7766564 47.3100308,22.0613744 47.4084923,22.5036308 L48.4382359,27.1452718 C48.5358769,27.5883487 48.2569026,28.0256821 47.8146462,28.1241436 C47.7547487,28.1380923 47.6940308,28.1438359 47.6357744,28.1438359" id="Fill-32" fill="#575552"></path>
            <path d="M15.1598769,35.7472 L9.08562051,41.6704821 C8.90346667,41.8485333 9.02900513,42.1570462 9.2833641,42.1570462 L32.9494154,42.1570462 C33.3079795,42.1570462 33.3629538,41.6393026 33.0101333,41.5720205 C28.7270564,40.7531487 21.5147487,38.9767385 16.3766974,35.6364308 C15.9910564,35.3853538 15.4889026,35.425559 15.1598769,35.7472" id="Fill-33" fill="#575552"></path>
            <path d="M52.9907692,4.02322051 C52.9907692,5.60188718 51.7107692,6.88188718 50.1321026,6.88188718 C48.5534359,6.88188718 47.2726154,5.60188718 47.2726154,4.02322051 C47.2726154,2.44455385 48.5534359,1.16455385 50.1321026,1.16455385 C51.7107692,1.16455385 52.9907692,2.44455385 52.9907692,4.02322051" id="Fill-34" fill="#8C786F"></path>
            <path d="M50.1325949,1.57489231 C48.7820308,1.57489231 47.6841846,2.67273846 47.6841846,4.02330256 C47.6841846,5.37304615 48.7820308,6.47171282 50.1325949,6.47171282 C51.483159,6.47171282 52.5810051,5.37304615 52.5810051,4.02330256 C52.5810051,2.67273846 51.483159,1.57489231 50.1325949,1.57489231 M50.1325949,7.29222564 C48.3299282,7.29222564 46.8636718,5.82596923 46.8636718,4.02330256 C46.8636718,2.2206359 48.3299282,0.754379487 50.1325949,0.754379487 C51.9352615,0.754379487 53.4015179,2.2206359 53.4015179,4.02330256 C53.4015179,5.82596923 51.9352615,7.29222564 50.1325949,7.29222564" id="Fill-35" fill="#575552"></path>
            <path d="M63.7720615,15.6045949 C63.7720615,17.1832615 62.4920615,18.4632615 60.9133949,18.4632615 C59.3347282,18.4632615 58.0539077,17.1832615 58.0539077,15.6045949 C58.0539077,14.0259282 59.3347282,12.7459282 60.9133949,12.7459282 C62.4920615,12.7459282 63.7720615,14.0259282 63.7720615,15.6045949" id="Fill-36" fill="#8C786F"></path>
            <path d="M60.9138872,13.1558564 C59.5633231,13.1558564 58.4654769,14.2545231 58.4654769,15.6042667 C58.4654769,16.9548308 59.5633231,18.0534974 60.9138872,18.0534974 C62.2644513,18.0534974 63.3622974,16.9548308 63.3622974,15.6042667 C63.3622974,14.2545231 62.2644513,13.1558564 60.9138872,13.1558564 M60.9138872,18.8740103 C59.1112205,18.8740103 57.6449641,17.4069333 57.6449641,15.6042667 C57.6449641,13.8024205 59.1112205,12.3353436 60.9138872,12.3353436 C62.7165538,12.3353436 64.1828103,13.8024205 64.1828103,15.6042667 C64.1828103,17.4069333 62.7165538,18.8740103 60.9138872,18.8740103" id="Fill-37" fill="#575552"></path>
            <path d="M65.3312821,37.6878769 L56.8430769,37.6878769 C55.8658462,37.6878769 55.0650256,36.8878769 55.0650256,35.9098256 L55.0650256,34.8267487 C55.0650256,33.8486974 55.8658462,33.0486974 56.8430769,33.0486974 L65.3312821,33.0486974 C66.3085128,33.0486974 67.1093333,33.8486974 67.1093333,34.8267487 L67.1093333,35.9098256 C67.1093333,36.8878769 66.3085128,37.6878769 65.3312821,37.6878769" id="Fill-38" fill="#8C786F"></path>
            <path d="M56.8433231,33.4591179 C56.0892718,33.4591179 55.4763487,34.0728615 55.4763487,34.8269128 L55.4763487,35.9099897 C55.4763487,36.664041 56.0892718,37.2777846 56.8433231,37.2777846 L65.3323487,37.2777846 C66.0864,37.2777846 66.6993231,36.664041 66.6993231,35.9099897 L66.6993231,34.8269128 C66.6993231,34.0728615 66.0864,33.4591179 65.3323487,33.4591179 L56.8433231,33.4591179 Z M65.3323487,38.0982974 L56.8433231,38.0982974 C55.6371692,38.0982974 54.6558359,37.1169641 54.6558359,35.9099897 L54.6558359,34.8269128 C54.6558359,33.6199385 55.6371692,32.6386051 56.8433231,32.6386051 L65.3323487,32.6386051 C66.5376821,32.6386051 67.5198359,33.6199385 67.5198359,34.8269128 L67.5198359,35.9099897 C67.5198359,37.1169641 66.5376821,38.0982974 65.3323487,38.0982974 Z" id="Fill-39" fill="#575552"></path>
            <path d="M48.0284718,12.976 L44.4789333,11.4941538 L45.2198564,9.71938462 C45.6284718,8.73887179 46.7550359,8.27610256 47.7355487,8.68553846 C48.715241,9.09497436 49.1780103,10.2215385 48.7685744,11.2012308 L48.0284718,12.976 Z" id="Fill-40" fill="#F5F0ED"></path>
            <path d="M45.0164513,11.2736 L47.8078359,12.4387282 L48.3912205,11.0430359 C48.712041,10.2733949 48.3477333,9.3856 47.5780923,9.06395897 C46.8076308,8.74313846 45.9206564,9.10744615 45.5981949,9.87790769 L45.0164513,11.2736 Z M48.2484513,13.5127795 L43.9424,11.7142154 L44.8408615,9.56201026 C45.3380923,8.37390769 46.7067077,7.8110359 47.8939897,8.30662564 C49.0804513,8.8030359 49.6433231,10.1716513 49.1485538,11.3589333 L48.2484513,13.5127795 Z" id="Fill-41" fill="#575552"></path>
            <path d="M63.7896205,32.8845949 L58.0361846,32.8845949 L58.0361846,30.9613128 C58.0361846,29.8995692 58.8977231,29.0388513 59.9594667,29.0388513 L61.8663385,29.0388513 C62.9289026,29.0388513 63.7896205,29.8995692 63.7896205,30.9613128 L63.7896205,32.8845949 Z" id="Fill-42" fill="#F5F0ED"></path>
            <path d="M58.4475077,32.4743385 L63.3804308,32.4743385 L63.3804308,30.9613128 C63.3804308,30.1276718 62.7018667,29.4482872 61.8674051,29.4482872 L59.9605333,29.4482872 C59.1260718,29.4482872 58.4475077,30.1276718 58.4475077,30.9613128 L58.4475077,32.4743385 Z M64.2009436,33.2948513 L57.6269949,33.2948513 L57.6269949,30.9613128 C57.6269949,29.6747487 58.6731487,28.6285949 59.9605333,28.6285949 L61.8674051,28.6285949 C63.1539692,28.6285949 64.2009436,29.6747487 64.2009436,30.9613128 L64.2009436,33.2948513 Z" id="Fill-43" fill="#575552"></path>
            <path d="M47.4346667,21.1258256 L38.8069744,17.5237744 C38.4836923,17.3892103 38.3310769,17.0175179 38.465641,16.6942359 L39.3238974,14.6388513 C40.4537436,11.9328 43.5626667,10.6552615 46.2687179,11.7842872 L46.2687179,11.7851077 C48.9747692,12.9141333 50.2531282,16.0238769 49.1232821,18.7299282 L48.2650256,20.7844923 C48.1304615,21.1085949 47.7587692,21.2612103 47.4346667,21.1258256" id="Fill-44" fill="#8C786F"></path>
            <path d="M47.5933538,20.747159 C47.7123282,20.7955692 47.8403282,20.7397744 47.8870974,20.6265436 L48.7453538,18.571159 C49.2499692,17.3633641 49.2524308,16.0324923 48.7560205,14.8222359 C48.2587897,13.6119795 47.3193026,12.6675692 46.1115077,12.1637744 C44.9045333,11.659159 43.572841,11.6558769 42.3617641,12.1522872 C41.1506872,12.6503385 40.2070974,13.5890051 39.7041231,14.7968 L38.8450462,16.8521846 C38.8228923,16.907159 38.8220718,16.9678769 38.8450462,17.0228513 C38.8672,17.0786462 38.9106872,17.1221333 38.9656615,17.1451077 L47.5933538,20.747159 Z M47.6786872,21.5849026 C47.5441231,21.5849026 47.4079179,21.5586462 47.2774564,21.5044923 L38.6505846,17.902441 C38.3921231,17.7949538 38.1919179,17.5931077 38.0852513,17.3346462 C37.9794051,17.0770051 37.9802256,16.7931077 38.0885333,16.5354667 L38.9467897,14.4800821 C39.5350974,13.0712615 40.6362256,11.9750564 42.0499692,11.3941333 C43.4628923,10.8132103 45.0177641,10.8164923 46.4274051,11.4056205 C49.3385846,12.6208 50.7178667,15.9775179 49.5018667,18.8878769 L48.6436103,20.9432615 C48.4762256,21.3436718 48.0873026,21.5849026 47.6786872,21.5849026 Z" id="Fill-45" fill="#575552"></path>
        </g>
        <g id="Group-49" transform="translate(5.743590, 49.373826)">
            <mask id="mask-6" fill="white">
                <use xlink:href="#path-5"></use>
            </mask>
            <use id="Combined-Shape" fill="#F5F0ED" xlink:href="#path-5"></use>
        </g>
        <path d="M18.2504205,58.8874256 C18.2504205,59.360041 17.867241,59.7432205 17.3946256,59.7432205 C16.9220103,59.7432205 16.5388308,59.360041 16.5388308,58.8874256 C16.5388308,58.4148103 16.9220103,58.0316308 17.3946256,58.0316308 C17.867241,58.0316308 18.2504205,58.4148103 18.2504205,58.8874256 Z M24.4130462,58.8874256 C24.4130462,59.360041 24.0298667,59.7432205 23.5572513,59.7432205 C23.0854564,59.7432205 22.7014564,59.360041 22.7014564,58.8874256 C22.7014564,58.4148103 23.0854564,58.0316308 23.5572513,58.0316308 C24.0298667,58.0316308 24.4130462,58.4148103 24.4130462,58.8874256 Z M30.5764923,58.8874256 C30.5764923,59.360041 30.1933128,59.7432205 29.7206974,59.7432205 C29.2480821,59.7432205 28.8649026,59.360041 28.8649026,58.8874256 C28.8649026,58.4148103 29.2480821,58.0316308 29.7206974,58.0316308 C30.1933128,58.0316308 30.5764923,58.4148103 30.5764923,58.8874256 Z M36.7392,58.8874256 C36.7392,59.360041 36.3560205,59.7432205 35.8834051,59.7432205 C35.4116103,59.7432205 35.0276103,59.360041 35.0276103,58.8874256 C35.0276103,58.4148103 35.4116103,58.0316308 35.8834051,58.0316308 C36.3560205,58.0316308 36.7392,58.4148103 36.7392,58.8874256 Z M42.9026462,58.8874256 C42.9026462,59.360041 42.5194667,59.7432205 42.0468513,59.7432205 C41.5742359,59.7432205 41.1910564,59.360041 41.1910564,58.8874256 C41.1910564,58.4148103 41.5742359,58.0316308 42.0468513,58.0316308 C42.5194667,58.0316308 42.9026462,58.4148103 42.9026462,58.8874256 Z M55.2287179,58.8874256 C55.2287179,59.360041 54.8455385,59.7432205 54.3729231,59.7432205 C53.9003077,59.7432205 53.5171282,59.360041 53.5171282,58.8874256 C53.5171282,58.4148103 53.9003077,58.0316308 54.3729231,58.0316308 C54.8455385,58.0316308 55.2287179,58.4148103 55.2287179,58.8874256 Z M67.5548718,58.8874256 C67.5548718,59.360041 67.1716923,59.7432205 66.6990769,59.7432205 C66.2264615,59.7432205 65.8432821,59.360041 65.8432821,58.8874256 C65.8432821,58.4148103 66.2264615,58.0316308 66.6990769,58.0316308 C67.1716923,58.0316308 67.5548718,58.4148103 67.5548718,58.8874256 Z M73.7174974,58.8874256 C73.7174974,59.360041 73.3343179,59.7432205 72.8617026,59.7432205 C72.3890872,59.7432205 72.0059077,59.360041 72.0059077,58.8874256 C72.0059077,58.4148103 72.3890872,58.0316308 72.8617026,58.0316308 C73.3343179,58.0316308 73.7174974,58.4148103 73.7174974,58.8874256 Z M61.3914256,58.8874256 C61.3914256,59.360041 61.0082462,59.7432205 60.5356308,59.7432205 C60.0630154,59.7432205 59.6798359,59.360041 59.6798359,58.8874256 C59.6798359,58.4148103 60.0630154,58.0316308 60.5356308,58.0316308 C61.0082462,58.0316308 61.3914256,58.4148103 61.3914256,58.8874256 Z M49.0652718,58.8874256 C49.0652718,59.360041 48.6820923,59.7432205 48.2094769,59.7432205 C47.7368615,59.7432205 47.3536821,59.360041 47.3536821,58.8874256 C47.3536821,58.4148103 47.7368615,58.0316308 48.2094769,58.0316308 C48.6820923,58.0316308 49.0652718,58.4148103 49.0652718,58.8874256 Z M79.8810256,58.8874256 C79.8810256,59.360041 79.4978462,59.7432205 79.0252308,59.7432205 C78.5526154,59.7432205 78.1694359,59.360041 78.1694359,58.8874256 C78.1694359,58.4148103 78.5526154,58.0316308 79.0252308,58.0316308 C79.4978462,58.0316308 79.8810256,58.4148103 79.8810256,58.8874256 Z M53.6350359,20.3017436 C53.8393436,20.8711795 54.1585231,22.2570256 53.2887795,23.9702564 C53.2018051,24.1433846 52.9827282,24.2123077 52.8087795,24.1277949 L51.9554462,23.7158974 C51.7601641,23.6215385 51.6969846,23.3745641 51.8266256,23.2006154 C52.2303179,22.662359 53.0098051,21.5308718 53.4266256,20.3074872 C53.4619077,20.2057436 53.5989333,20.2 53.6350359,20.3017436 Z" id="Combined-Shape" fill="#F5F0ED"></path>
        <path d="M17.7504204,58.8870974 L17.0388309,58.8870974 C17.0388308,59.0838987 17.1981526,59.2432205 17.3946256,59.2432205 C17.5910987,59.2432205 17.7504205,59.0838987 17.7504205,58.8874256 Z M16.0388308,58.8870974 L14.9961026,58.8870974 L14.5858462,57.5611487 L10,57.5611487 L9.58974359,57.3133538 L8.71589744,57.3133538 C8.36882051,57.3133538 8.06112821,57.0926359 7.95035897,56.7636103 L5.98933333,50.9576615 C5.90564103,50.7123282 5.9745641,49.6120205 6.37169231,49.1943795 C6.54974359,49.0056615 6.49476923,49.8909949 6.75405128,49.8909949 L90.2002051,49.8909949 C90.4537436,49.8909949 90.830359,48.9999179 91.0075897,49.2329436 C91.2693333,49.577559 91.0461538,50.6680205 90.9788718,50.9141744 L89.3764103,56.7201231 C89.2804103,57.0696615 88.9595897,57.3133538 88.5977436,57.3133538 L87.9462564,57.3133538 L87.3300513,57.5611487 L82.7442051,57.5611487 L82.3347692,58.8870974 L80.3810256,58.8870974 C80.3810256,59.6361834 79.7739885,60.2432205 79.0252308,60.2432205 C78.276473,60.2432205 77.6694359,59.6361834 77.6694359,58.8874256 L74.2174974,58.8870974 C74.2174974,59.6361834 73.6104603,60.2432205 72.8617026,60.2432205 C72.1129448,60.2432205 71.5059077,59.6361834 71.5059077,58.8874256 L68.0548718,58.8870974 C68.0548718,59.6361834 67.4478347,60.2432205 66.6990769,60.2432205 C65.9503192,60.2432205 65.3432821,59.6361834 65.3432821,58.8874256 L61.8914256,58.8870974 C61.8914256,59.6361834 61.2843885,60.2432205 60.5356308,60.2432205 C59.786873,60.2432205 59.1798359,59.6361834 59.1798359,58.8874256 L55.7287179,58.8870974 C55.7287179,59.6361834 55.1216808,60.2432205 54.3729231,60.2432205 C53.6241653,60.2432205 53.0171282,59.6361834 53.0171282,58.8874256 L49.5652718,58.8870974 C49.5652718,59.6361834 48.9582347,60.2432205 48.2094769,60.2432205 C47.4607192,60.2432205 46.8536821,59.6361834 46.8536821,58.8874256 L43.4026461,58.8870974 C43.4026462,59.6361834 42.795609,60.2432205 42.0468513,60.2432205 C41.2980935,60.2432205 40.6910564,59.6361834 40.6910564,58.8874256 L37.2392,58.8870974 C37.2392,59.6361834 36.6321629,60.2432205 35.8834051,60.2432205 C35.1352586,60.2432205 34.5276103,59.6359743 34.5276103,58.8874256 L31.0764923,58.8870974 C31.0764923,59.6361834 30.4694552,60.2432205 29.7206974,60.2432205 C28.9719397,60.2432205 28.3649026,59.6361834 28.3649026,58.8874256 L24.9130461,58.8870974 C24.9130462,59.6361834 24.306009,60.2432205 23.5572513,60.2432205 C22.8091047,60.2432205 22.2014564,59.6359743 22.2014564,58.8874256 L18.7504205,58.8870974 C18.7504205,59.6361834 18.1433834,60.2432205 17.3946256,60.2432205 C16.6458679,60.2432205 16.0388308,59.6361834 16.0388308,58.8874256 Z M23.913046,58.8870974 L23.2014565,58.8870974 C23.2014564,59.0835413 23.3612413,59.2432205 23.5572513,59.2432205 C23.7537243,59.2432205 23.9130462,59.0838987 23.9130462,58.8874256 Z M30.0764922,58.8870974 L29.3649027,58.8870974 C29.3649026,59.0838987 29.5242244,59.2432205 29.7206974,59.2432205 C29.9171704,59.2432205 30.0764923,59.0838987 30.0764923,58.8874256 Z M36.2391999,58.8870974 L35.5276104,58.8870974 C35.5276103,59.0835413 35.6873952,59.2432205 35.8834051,59.2432205 C36.0798781,59.2432205 36.2392,59.0838987 36.2392,58.8874256 Z M42.402646,58.8870974 L41.6910565,58.8870974 C41.6910564,59.0838987 41.8503783,59.2432205 42.0468513,59.2432205 C42.2433243,59.2432205 42.4026462,59.0838987 42.4026462,58.8874256 Z M54.7287178,58.8870974 L54.0171283,58.8870974 C54.0171282,59.0838987 54.1764501,59.2432205 54.3729231,59.2432205 C54.5693961,59.2432205 54.7287179,59.0838987 54.7287179,58.8874256 Z M67.0548717,58.8870974 L66.3432822,58.8870974 C66.3432821,59.0838987 66.5026039,59.2432205 66.6990769,59.2432205 C66.8955499,59.2432205 67.0548718,59.0838987 67.0548718,58.8874256 Z M73.2174973,58.8870974 L72.5059078,58.8870974 C72.5059077,59.0838987 72.6652296,59.2432205 72.8617026,59.2432205 C73.0581756,59.2432205 73.2174974,59.0838987 73.2174974,58.8874256 Z M60.8914255,58.8870974 L60.179836,58.8870974 C60.1798359,59.0838987 60.3391578,59.2432205 60.5356308,59.2432205 C60.7321038,59.2432205 60.8914256,59.0838987 60.8914256,58.8874256 Z M48.5652717,58.8870974 L47.8536822,58.8870974 C47.8536821,59.0838987 48.0130039,59.2432205 48.2094769,59.2432205 C48.4059499,59.2432205 48.5652718,59.0838987 48.5652718,58.8874256 Z M79.3810255,58.8870974 L78.669436,58.8870974 C78.6694359,59.0838987 78.8287578,59.2432205 79.0252308,59.2432205 C79.2217038,59.2432205 79.3810256,59.0838987 79.3810256,58.8874256 Z M54.0164103,15.7592205 C54.0164103,16.0152205 53.8088205,16.2236308 53.5528205,16.2236308 C53.296,16.2236308 53.0884103,16.0152205 53.0884103,15.7592205 C53.0884103,15.5032205 53.296,15.2956308 53.5528205,15.2956308 C53.8088205,15.2956308 54.0164103,15.5032205 54.0164103,15.7592205 Z M90.1870769,50.6959179 L6.75405128,50.7115077 L8.72820513,56.5010462 L88.5878974,56.492841 L90.1870769,50.6959179 Z" id="Combined-Shape" fill="#575552"></path>
    </g>
</svg>