<?xml version="1.0" encoding="utf-8"?>
<!-- Generator: Adobe Illustrator 23.0.1, SVG Export Plug-In . SVG Version: 6.00 Build 0)  -->
<svg version="1.1" id="Layer_1" xmlns="http://www.w3.org/2000/svg" xmlns:xlink="http://www.w3.org/1999/xlink" x="0px" y="0px"
	 viewBox="0 0 1440 95" style="enable-background:new 0 0 1440 95;" xml:space="preserve">
<style type="text/css">
	.st0{fill-rule:evenodd;clip-rule:evenodd;fill:#94A294;}
	.st1{fill-rule:evenodd;clip-rule:evenodd;fill:#F7D3B0;}
	.st2{fill-rule:evenodd;clip-rule:evenodd;fill:#94A294;stroke:#F7D3B0;stroke-width:2;}
	.st3{fill:#F7D3B0;}
	.st4{fill-rule:evenodd;clip-rule:evenodd;fill:#829182;}
	.st5{fill-rule:evenodd;clip-rule:evenodd;fill:#575552;}
	.st6{fill-rule:evenodd;clip-rule:evenodd;fill:#F4C9A1;}
	.st7{filter:url(#Adobe_OpacityMaskFilter);}
	.st8{fill-rule:evenodd;clip-rule:evenodd;fill:#FFFFFF;}
	.st9{mask:url(#mask-2_1_);fill-rule:evenodd;clip-rule:evenodd;fill:#575552;}
	.st10{filter:url(#Adobe_OpacityMaskFilter_1_);}
	.st11{mask:url(#mask-4_1_);fill-rule:evenodd;clip-rule:evenodd;fill:#F7D3B0;}
</style>
<title>Group 4</title>
<desc>Created with Sketch.</desc>
<g id="Portfolio">
	<g id="Group-4" transform="translate(-1.000000, 0.000000)">
		<rect id="Rectangle" x="1" class="st0" width="1440" height="95"/>
		<g id="Group-3-Copy" transform="translate(0.000000, 5.000000)">
			<rect x="1" y="49" class="st1" width="1440" height="41"/>
			<path id="Path-8" class="st2" d="M427.2,24.8c80,9.4,131.2,14.1,153.7,14.1c33.7,0,110.1,8.5,116.2,8.5
				c6.1,0,116.2,7.7,116.2,7.7s-24.3-9.4-48.7-16.2s-68.2-8.3-73.4-14.1C686.1,19,555.6-5.9,500.4,7.7
				C463.6,16.8,439.2,22.5,427.2,24.8z"/>
			<path id="Path-10" class="st2" d="M40.4,32.3c35.6-11.7,69.4-20,101.5-24.9C157,5.2,299.4-1.2,353.4,1
				c116.8,4.8,182,24.1,201.5,31.3C583.5,42.9,89.1,45,89.1,45S72.9,40.8,40.4,32.3z"/>
			<path id="Path-4" class="st3" d="M3,25v33.7c54.4-1.1,90.3-1.1,107.8,0c4.9,0.3,22.5,1.8,51.4,4.6s40.9,4.7,109.6,5.6
				c84.4,1.1,95-3.6,207.7-5.6s175.3-4.6,242.6-4.6s9.7-7.1-12.3-13.7c-22-6.6-67.1-29.6-115.6-24.7C545.9,25.2,388,4,308.6,15.4
				C255.6,23,153.8,26.2,3,25z M3,23c150.7,1.3,252.5-1.9,305.3-9.5c29.5-4.2,70.1-4.4,127.2-1.5c13.5,0.7,27,1.5,46,2.6
				c53.1,3.3,51,3.2,66.5,3.8c21.4,0.9,36.3,1,46.2,0c26.4-2.7,52.5,2.2,83.5,13c4.3,1.5,28,10.3,32.9,11.8c1.4,0.4,2.9,0.8,4.7,1.3
				c3.5,0.9,7.5,1.8,13.3,3.1c22.6,4.9,24.1,5.2,26.2,6.9c1.8,1.4,1.3,3.7-0.7,4.6c-1,0.5-2.8,0.8-5.3,1c-5.1,0.5-13.7,0.8-26.5,0.8
				c-5.7,0-11.4,0-17.2,0.1c-21.6,0.1-43.6,0.5-74,1.2c-7.8,0.2-68.2,1.6-88.8,2.1c-21.2,0.5-41.6,0.9-62.6,1.2
				c-32.1,0.6-57.4,1.3-83,2.5c-8.2,0.4-37.3,1.8-44.3,2c-26.4,1.1-48.6,1.5-80.4,1.1c-46.7-0.6-68-1.6-91.6-3.8
				c-3-0.3-14.9-1.5-18.2-1.8c-25.5-2.4-45.4-4.2-51.3-4.6c-17.4-1.1-53.3-1.1-107.7,0l-2,0V22.9L3,23z"/>
			<path id="Path-4-Copy" class="st0" d="M1,25c152.1,1.3,254.6-1.9,307.6-9.5C388,4,545.9,25.2,594.3,20.3
				c48.4-4.9,93.6,18.1,115.6,24.7c22,6.6,79.6,13.7,12.3,13.7s-130,2.6-242.6,4.6s-123.2,6.7-207.7,5.6
				c-68.7-0.9-80.6-2.8-109.6-5.6s-46.5-4.2-51.4-4.6c-17.5-1.1-54.1-1.1-109.8,0V25z"/>
			<g id="Group" transform="translate(217.700416, 1.000000)">
				<g id="Group-8">
					<g id="Group-21" transform="translate(0.000000, 0.032053)">
						<path id="Fill-1" class="st4" d="M3.6,9.3c0,0,50.3,18.8,113.9-7l-1.7,13.6c0,0-92.6,18.7-106.5,7.4L3.6,9.3z"/>
						<path id="Fill-3" class="st5" d="M9.5,23c13.6,10.7,101.1-6.5,106-7.5l1.6-12.9c-14.4,5.8-29.3,9.8-44.2,11.8
							c-12.1,1.7-24.3,2.1-36.2,1.2c-17.8-1.3-29.8-5-32.6-6L9.5,23z M29.5,27.2c-10.6,0-17.4-1.2-20.4-3.7l-0.1,0l0-0.1L3.1,8.8
							L3.7,9c0.1,0,12.8,4.7,33,6.2c11.9,0.9,24,0.4,36.1-1.2c15.1-2.1,30.1-6.1,44.5-12l0.5-0.2l-1.8,14.3l-0.2,0
							c-0.2,0-23.4,4.7-48.1,7.9C52,26.1,39.2,27.2,29.5,27.2z"/>
						<path id="Fill-5" class="st4" d="M1.2,11c0,0,0.3,14.3,2.8,16.4c2.8,2.3,39.6,9.4,64.3,7.3c23.5-2,43.5-12.6,48.7-15.2
							c0.7-0.4,1.2-1,1.4-1.8c0.7-3.3,2.4-12.4,1.6-15.6c0,0-16.7,15.7-58.6,18.2C19.6,22.8,1.2,11,1.2,11"/>
						<path id="Fill-7" class="st5" d="M1.5,11.5c0.1,4.3,0.8,14,2.7,15.6C7,29.5,41.6,36,65.6,34.6c0.9-0.1,1.8-0.1,2.7-0.2
							c22.5-1.9,41.6-11.6,47.9-14.8l0.7-0.4c0.6-0.3,1.1-0.9,1.2-1.6c0.5-2.7,2.2-11.4,1.7-15c-1.3,1-5.5,4.4-13.3,7.9
							c-8.6,3.9-23.4,8.8-45.1,10.1c-21.7,1.3-36.9-1.3-45.9-3.7C7.5,14.7,2.9,12.3,1.5,11.5 M65.5,35.2C40.9,36.6,6.7,30,3.8,27.6
							c-2.6-2.2-2.9-16-2.9-16.6l0-0.5l0.5,0.3c0,0,4.7,3,14.4,5.5c8.8,2.4,23.8,4.9,45,3.7c0.2,0,0.5,0,0.7,0
							c21.6-1.3,36.3-6.2,44.9-10c9.3-4.2,13.5-8.1,13.5-8.1l0.4-0.3l0.1,0.5c0.8,3.2-0.8,12-1.6,15.7c-0.2,0.9-0.7,1.6-1.5,2
							l-0.7,0.4c-6.3,3.2-25.5,13-48.1,14.9C67.4,35.1,66.5,35.1,65.5,35.2"/>
						<polygon id="Fill-9" class="st6" points="45.2,15.7 43.5,20.8 50.6,20.9 49.5,15.5 						"/>
						<path id="Fill-11" class="st5" d="M43.9,20.5l6.3,0.1l-0.9-4.8L45.4,16L43.9,20.5z M50.9,21.2l-7.8-0.1l1.8-5.6l4.8-0.3
							L50.9,21.2z"/>
						<polygon id="Fill-13" class="st6" points="81.2,12.9 83.4,17.8 76.4,18.7 76.8,13.2 						"/>
						<path id="Fill-15" class="st5" d="M77.1,13.5l-0.4,4.9l6.2-0.8L81,13.3L77.1,13.5z M76.1,19l0.5-6.1l4.8-0.3l2.4,5.4L76.1,19z
							"/>
						<path id="Fill-17" class="st6" d="M65.1,18.6c-36.5,3.4-61.4-8-61.4-8s20.8,8.2,58.5,5.8c29.3-1.9,50.5-11.7,54.6-13.7
							c0.1-0.1,0.2,0.1,0.1,0.2C113.9,5.2,99.7,15.4,65.1,18.6 M115.1,1.2c-5.6,2.5-28.2,12.1-58.4,13.3C26.4,15.7,9.3,9.9,4.9,8.9
							c-0.8-0.2-2.1-0.5-3.3,0c-1.4,0.6-1.5,2.6-0.2,3.3c6.1,3.3,27.2,12.1,60,9.5c39.6-3.1,54.1-14.9,57.9-18.2
							C121,2.1,120.7-1.3,115.1,1.2"/>
						<path id="Fill-19" class="st5" d="M12.9,13.5c8.3,2.4,21.9,5.4,38.8,5.4c4.3,0,8.7-0.2,13.4-0.6c14.7-1.4,27.4-4.1,37.7-8.2
							c6.3-2.5,10.3-4.9,12.5-6.4c-6.6,3-26.5,11.2-53,13c-19.5,1.3-34.4-0.4-43.4-2C16.6,14.3,14.6,13.9,12.9,13.5 M51.7,19.5
							c-28.8,0-47.9-8.6-48.1-8.7l0.2-0.5C4,10.4,25,18.5,62.2,16.1c29.3-1.9,50.5-11.8,54.5-13.7c0.2-0.1,0.4,0,0.5,0.1
							c0.1,0.2,0.1,0.4-0.1,0.5c-1.5,1.2-5.8,4.4-14.1,7.7c-10.4,4.1-23.1,6.8-37.9,8.2l0-0.3l0,0.3C60.5,19.3,56,19.5,51.7,19.5
							 M3,8.9C2.6,8.9,2.2,9,1.8,9.1c-0.6,0.2-0.9,0.7-0.9,1.3c0,0.6,0.3,1.2,0.8,1.5c3.8,2.1,24.8,12.2,59.9,9.5
							c26.4-2.1,46.4-8.4,57.7-18.2c0.7-0.6,0.9-1.5,0.6-2.1c-0.5-0.8-2.2-0.7-4.6,0.3c-8,3.6-29.8,12.2-58.6,13.3
							c-26.8,1.1-43.5-3.4-49.8-5.1C6,9.5,5.4,9.3,4.9,9.2l-0.2,0C4.2,9,3.6,8.9,3,8.9 M49.7,22.4c-28.1,0-44.9-8.2-48.3-10
							c-0.7-0.4-1.2-1.2-1.1-2c0-0.8,0.5-1.5,1.3-1.8c1.2-0.5,2.5-0.2,3.3,0l0.2,0c0.5,0.1,1.2,0.3,2,0.5c6.3,1.7,22.9,6.1,49.6,5
							C85.3,13.1,107,4.6,115,0.9c1.3-0.6,4.3-1.7,5.3-0.1c0.5,0.8,0.2,2-0.7,2.8c-11.4,9.9-31.5,16.2-58,18.3
							C57.4,22.3,53.4,22.4,49.7,22.4"/>
					</g>
					<g id="Group-24" transform="translate(0.618067, 0.342514)">
						<g id="Clip-23">
						</g>
						<defs>
							<filter id="Adobe_OpacityMaskFilter" filterUnits="userSpaceOnUse" x="-24" y="-10.3" width="155" height="51.4">
								<feColorMatrix  type="matrix" values="1 0 0 0 0  0 1 0 0 0  0 0 1 0 0  0 0 0 1 0"/>
							</filter>
						</defs>
						<mask maskUnits="userSpaceOnUse" x="-24" y="-10.3" width="155" height="51.4" id="mask-2_1_">
							<g class="st7">
								<path id="path-1_1_" class="st8" d="M56.2,14.2C26,15.4,8.9,9.7,4.5,8.6c-0.8-0.2-2.1-0.5-3.3,0c-1.4,0.6-1.5,2.6-0.2,3.3
									c6.1,3.3,27.2,12.1,60,9.5c39.6-3.1,54-15,57.9-18.3c1.2-1,1.3-3.1-1-3.1c-0.8,0-1.9,0.3-3.3,0.9
									C109.1,3.4,86.5,13.1,56.2,14.2z M61.8,16.1c29.3-1.9,50.5-11.8,54.6-13.8c0.1-0.1,0.2,0.1,0.1,0.2
									c-3,2.5-17.2,12.7-51.8,15.9c-36.5,3.4-61.4-8-61.4-8s15.8,6.3,44.6,6.3C52.3,16.6,56.9,16.5,61.8,16.1z"/>
							</g>
						</mask>
						<path id="Fill-22" class="st9" d="M119.5-9.2L119-9.6L79.6,34.8l0.4,0.4L119.5-9.2z M131-9.9l-0.4-0.4L91.1,34.1l0.4,0.4
							L131-9.9z M125.3-9l-0.4-0.4L85.4,35l0.4,0.4L125.3-9z M113.7-8.4l-0.4-0.4L73.9,35.6l0.4,0.4L113.7-8.4z M108-8.1l-0.4-0.4
							L68.1,35.9l0.4,0.4L108-8.1z M102.2-7.8l-0.4-0.4L62.4,36.2l0.4,0.4L102.2-7.8z M96.5-7.5L96-7.9L56.6,36.5l0.4,0.4L96.5-7.5z
							 M90.7-7.2l-0.4-0.4L50.8,36.8l0.4,0.4L90.7-7.2z M85-6.9l-0.4-0.4L45.1,37.1l0.4,0.4L85-6.9z M79.2-6.6L78.8-7L39.3,37.4
							l0.4,0.4L79.2-6.6z M73.5-6.3L73-6.7L33.6,37.7l0.4,0.4L73.5-6.3z M67.7-6l-0.4-0.4L27.8,38l0.4,0.4L67.7-6z M61.9-5.7
							l-0.4-0.4L22.1,38.3l0.4,0.4L61.9-5.7z M56.2-5.4l-0.4-0.4L16.3,38.6l0.4,0.4L56.2-5.4z M50.4-5.1L50-5.5L10.6,38.9l0.4,0.4
							L50.4-5.1z M44.7-4.8l-0.4-0.4L4.8,39.2l0.4,0.4L44.7-4.8z M33.1-4.4l-0.4-0.4L-6.7,39.6l0.4,0.4L33.1-4.4z M38.9-4.5
							l-0.4-0.4L-1,39.5l0.4,0.4L38.9-4.5z M27.4-3.9L27-4.3l-39.4,44.4l0.4,0.4L27.4-3.9z M21.6-3.6L21.2-4l-39.4,44.4l0.4,0.4
							L21.6-3.6z M-23.5,41.1l-0.4-0.4L15.5-3.7l0.4,0.4L-23.5,41.1z"/>
					</g>
					<g id="Group-44" transform="translate(11.125213, 12.245416)">
						<path id="Fill-25" class="st6" d="M103.3,0.8c0.1-0.2,0.4-0.1,0.4,0.1c0,1-0.1,3-1.3,4.3c-1.7,1.8-16.5,8.1-19.6,8.8
							C79.7,14.8,98.6,7.2,103.3,0.8"/>
						<path id="Fill-27" class="st6" d="M25.1,31.3c-0.5,0-0.9,0.5-0.7,0.9c0.4,1.2,0.3,2.2,1,2.1c1-0.1,2.2-1.2,4.8-1.4
							c2.6-0.2,49.1-4.7,50.1-4.3c0.5,0.2,5.9,2,9,2.1c4.2,0.1,4.2-0.3,8.3-0.6c5.3-0.4,8.1-1.3,9.4-1.8c0.6-0.2,0.8-0.8,0.6-1.4
							c-0.9-1.9-3-5.8-5.8-6.9c0,0-13,0.6-16.4,1.9c-3.4,1.4-5.8,4.7-5.8,4.7L30,31.5L25.1,31.3z"/>
						<g id="Group-31" transform="translate(23.970993, 19.779992)">
							<g id="Clip-30">
							</g>
							<defs>
								<filter id="Adobe_OpacityMaskFilter_1_" filterUnits="userSpaceOnUse" x="0.1" y="0" width="84" height="14.8">
									<feColorMatrix  type="matrix" values="1 0 0 0 0  0 1 0 0 0  0 0 1 0 0  0 0 0 1 0"/>
								</filter>
							</defs>
							<mask maskUnits="userSpaceOnUse" x="0.1" y="0" width="84" height="14.8" id="mask-4_1_">
								<g class="st10">
									<polygon id="path-3_1_" class="st8" points="0.1,0 84.2,0 84.2,14.9 0.1,14.9 									"/>
								</g>
							</mask>
							<path id="Fill-29" class="st11" d="M1.1,11.8c-0.1,0-0.2,0.1-0.3,0.2c-0.1,0.1-0.1,0.2-0.1,0.4c0.1,0.4,0.2,0.7,0.3,1
								c0.2,0.7,0.3,0.9,0.5,0.9c0.3,0,0.7-0.2,1.2-0.4c0.8-0.4,1.9-0.9,3.6-1c0.7,0,5-0.4,10.9-1c24.4-2.3,38.6-3.6,39.3-3.3
								c0.1,0,5.7,2,8.9,2.1c2.6,0.1,3.5-0.1,4.9-0.2c0.9-0.1,1.8-0.2,3.4-0.4c5.6-0.4,8.4-1.4,9.4-1.7c0.2-0.1,0.3-0.2,0.4-0.4
								c0.1-0.2,0.1-0.4,0-0.6c-0.8-1.7-2.8-5.7-5.6-6.7c-1,0-13,0.6-16.3,1.9c-3.3,1.3-5.7,4.5-5.7,4.6l-0.1,0.1l-0.1,0L6.1,12
								L1.1,11.8C1.1,11.8,1.1,11.8,1.1,11.8 M1.5,14.9c-0.7,0-0.8-0.7-1-1.4c-0.1-0.3-0.1-0.6-0.3-1c-0.1-0.3-0.1-0.7,0.1-0.9
								c0.2-0.3,0.5-0.4,0.8-0.4l4.9,0.1l49.5-4.7C56,6.1,58.3,3.3,61.4,2c3.4-1.4,16-1.9,16.5-2L78,0l0.1,0c2.9,1,5,4.9,6,7
								c0.2,0.3,0.2,0.7,0,1.1c-0.1,0.3-0.4,0.6-0.8,0.7c-1,0.3-3.9,1.4-9.5,1.8c-1.6,0.1-2.5,0.2-3.4,0.3c-1.3,0.2-2.4,0.3-5,0.2
								c-3.3-0.1-9.1-2.1-9.1-2.1c-1.1-0.2-25.8,2.1-39.1,3.4c-5.9,0.6-10.2,1-10.9,1c-1.6,0.1-2.6,0.6-3.4,0.9
								C2.4,14.6,2,14.9,1.5,14.9C1.5,14.9,1.5,14.9,1.5,14.9"/>
						</g>
						<path id="Fill-32" class="st0" d="M10.7,25.9c0.1,0,0.2-0.1,0.3-0.2c1.1-2.5,3.4-4.1,3.4-4.1c0.1-0.1,0.2-0.3,0.1-0.4
							c-0.1-0.1-0.3-0.2-0.4-0.1c-0.1,0.1-2.4,1.7-3.6,4.4c-0.1,0.1,0,0.3,0.1,0.4C10.7,25.9,10.7,25.9,10.7,25.9"/>
						<path id="Fill-34" class="st0" d="M10.9,26c0.1,0,0.3-0.1,0.3-0.2c0.5-3.8-1.1-5-1.1-5.1c-0.1-0.1-0.3-0.1-0.4,0
							c-0.1,0.1-0.1,0.3,0,0.4c0,0,1.3,1.2,0.9,4.6C10.6,25.9,10.7,26,10.9,26C10.9,26,10.9,26,10.9,26"/>
						<path id="Fill-36" class="st0" d="M10.9,26.2C10.9,26.2,11,26.2,10.9,26.2c0.2-0.1,0.3-0.2,0.3-0.4c-0.5-1.4-1.4-2.2-1.4-2.2
							c-0.1-0.1-0.3-0.1-0.4,0c-0.1,0.1-0.1,0.3,0,0.4c0,0,0.8,0.7,1.3,2C10.7,26.1,10.8,26.2,10.9,26.2"/>
						<path id="Fill-38" class="st0" d="M2.6,32L2.6,32c-0.2,0-0.3-0.1-0.3-0.3c-0.3-2-2.2-3.2-2.2-3.2C0,28.4,0,28.2,0,28.1
							c0.1-0.1,0.3-0.2,0.4-0.1c0.1,0,1.5,1,2.1,2.5c0.3-0.8,0.7-1.9,1.5-2.1c0.2-0.1,0.3,0,0.4,0.2c0.1,0.2,0,0.3-0.2,0.4
							c-0.7,0.2-1.2,1.8-1.3,2.8C2.9,31.9,2.8,32,2.6,32"/>
						<path id="Fill-40" class="st0" d="M29,29.4c0.1,0,0.3-0.1,0.3-0.2c0.1-0.3,0.7-1.1,1.1-1.6c0.1-0.1,0.1-0.3,0-0.4
							c-0.1-0.1-0.3-0.1-0.4,0c-0.1,0.1-0.5,0.5-0.8,1c-0.2-1.3-0.7-3.4-2.2-4c-0.2-0.1-0.3,0-0.4,0.2c-0.1,0.2,0,0.3,0.2,0.4
							c1.4,0.5,1.9,3.4,1.9,4.4C28.7,29.3,28.8,29.4,29,29.4C29,29.4,29,29.4,29,29.4"/>
						<path id="Fill-42" class="st0" d="M29,29.4c0,0,0.1,0,0.1,0c0.2-0.1,0.2-0.2,0.2-0.4c-0.9-2-2.2-2.5-2.3-2.5
							c-0.2-0.1-0.3,0-0.4,0.2c-0.1,0.2,0,0.3,0.2,0.4c0.1,0,1.2,0.5,2,2.2C28.8,29.3,28.9,29.4,29,29.4"/>
					</g>
				</g>
				<path id="Path-2" class="st0" d="M98.3,36.3c3.6-0.7,6.6-1.1,8.9-1.4c2.3-0.2,3.9-0.2,5,0c1.2,0.9,1.8,1.6,1.8,2.1
					c0,0.3-0.2-0.5-3.7-0.7C108.6,36.2,104.6,36.2,98.3,36.3z"/>
			</g>
			<path id="Path-6" class="st0" d="M0,0"/>
			<path id="Path-7" class="st2" d="M833.9,56c36.1-12.3,70.3-20.4,102.6-24.3c24.7-3,62.1,20.6,177.3,24.3
				c24.9,0.8,69.8-18,99.6-18.8c103.3-2.7,202.2,6.1,206.5,6.1C1427.6,43.4,1232.2,47.6,833.9,56z"/>
			<path id="Path-5" class="st3" d="M736.6,74.3h74.1c8.6,0,83.4-0.9,99.9,0c16.4,0.9,104.1,1.1,123.5,0c19.5-1.1,87.3-1.7,121-1.7
				c22.5,0,117.1-1.6,283.8-4.7V41h-107.7c-51.9,4.7-81.9,7-89.8,7h-65.9c-8.4,0-36.5-1.6-84.2-4.9l-70.2,2
				c-69.2-0.9-111-0.9-125.6,0c-21.9,1.3-25.4-1.1-46.7,0c-21.3,1.1-20.9,1.1-33.6,2.9c-12.7,1.8-12.1,2.2-42.5,10
				C742.4,65.7,727.6,74.3,736.6,74.3z M1441,23.5v46.4l-2,0c-166.8,3.1-261.4,4.7-283.9,4.7c-43.6,0-104.1,0.7-120.9,1.7
				c-18.4,1-105.9,0.9-123.7,0c-6.8-0.4-23.8-0.4-48.6-0.3c-7.7,0-15.9,0.1-25,0.2c1.1,0-24.1,0.2-26.1,0.2h-74.1
				c-1.5,0-2.5-0.2-3.3-0.7c-1.4-0.9-1.6-2.5-0.8-3.9c0.9-1.4,3.1-2.8,6.6-4.5c7.2-3.5,19.1-7.6,33.3-11.2
				c2.1-0.5,29.5-7.7,33.5-8.5c1.3-0.3,2.6-0.5,4.1-0.7c1.4-0.2,3.1-0.5,5.1-0.8c8.3-1.2,10.1-1.4,13.7-1.7
				c3.6-0.3,6.6-0.5,20.1-1.2c8.7-0.5,13.6-0.4,22.8,0.1c0.1,0,0.1,0,0.3,0c9.4,0.5,14.5,0.5,23.7-0.1c14.7-0.9,56.5-0.9,125.7,0
				l70.2-2l0.2,0c47.7,3.2,75.8,4.8,84.1,4.8h65.9c7.8,0,68.2-22.5,89.6-22.5"/>
			<path id="Path-5-Copy" class="st0" d="M736.6,74c-9.1,0,5.8-8.5,36.2-16.1s29.8-8.1,42.5-9.9c12.7-1.8,12.3-1.7,33.6-2.8
				c21.3-1.1,24.9,1.3,46.8,0c14.6-0.9,56.5-0.9,125.7,0l70.2-2c47.8,3.2,75.9,4.8,84.3,4.8c12.6,0,54,0,65.9,0
				c7.9,0,68.3-22.5,89.8-22.5c27.3,0,109.4,0,109.4,0v42.2c-167.9,3.1-263.1,4.6-285.6,4.6c-33.7,0-101.6,0.6-121.1,1.7
				c-19.5,1.1-107.2,0.9-123.6,0c-16.4-0.9-91.3,0-99.9,0S745.7,74,736.6,74z"/>
			<path id="Path-9" class="st0" d="M0,0"/>
		</g>
	</g>
</g>
</svg>
