<?xml version="1.0" encoding="UTF-8"?>
<svg width="48px" height="48px" viewBox="0 0 48 48" version="1.1" xmlns="http://www.w3.org/2000/svg" xmlns:xlink="http://www.w3.org/1999/xlink">
    <!-- Generator: Sketch 52.5 (67469) - http://www.bohemiancoding.com/sketch -->
    <title>Monogram</title>
    <desc>Created with Sketch.</desc>
    <g id="Portfolio" stroke="none" stroke-width="1" fill="none" fill-rule="evenodd">
        <g id="About-Me" transform="translate(-108.000000, -34.000000)">
            <g id="Header" transform="translate(108.000000, 24.000000)">
                <g id="Navigation" transform="translate(0.000000, 10.000000)">
                    <g id="Logo-/-Monogram">
                        <g id="monogram">
                            <g id="background" fill="#565451">
                                <path d="M44.0582769,24.1428275 C44.0582769,35.1582779 35.0597538,44.0884763 23.9592,44.0884763 C12.8593846,44.0884763 3.86086154,35.1582779 3.86086154,24.1428275 C3.86086154,13.1273771 12.8593846,4.19754504 23.9592,4.19754504 C35.0597538,4.19754504 44.0582769,13.1273771 44.0582769,24.1428275" id="Fill-1"></path>
                                <g id="Group-5" transform="translate(0.000000, 0.285802)">
                                    <path d="M23.9597169,2.40688855 C12.0405785,2.40688855 2.34420923,12.0292397 2.34420923,23.857026 C2.34420923,35.6844458 12.0405785,45.3071634 23.9597169,45.3071634 C35.8784862,45.3071634 45.5748554,35.6844458 45.5748554,23.857026 C45.5748554,12.0292397 35.8784862,2.40688855 23.9597169,2.40688855 M23.9597169,47.6338809 C10.74864,47.6338809 -3.69230769e-05,36.967255 -3.69230769e-05,23.857026 C-3.69230769e-05,10.7467969 10.74864,0.0805374046 23.9597169,0.0805374046 C37.1704246,0.0805374046 47.9191015,10.7467969 47.9191015,23.857026 C47.9191015,36.967255 37.1704246,47.6338809 23.9597169,47.6338809" id="Fill-3"></path>
                                </g>
                            </g>
                            <g id="gl" transform="translate(8.000000, 10.000000)" fill="#F5F0ED">
                                <path d="M30.8706585,19.8893069 C30.7222277,18.932971 30.2030892,18.2327573 29.9346585,17.9377954 C29.9346585,17.9377954 28.9189046,20.7357191 25.3218585,20.8958412 C25.3218585,20.8958412 25.5400738,20.6822229 25.7062277,20.2700092 C25.8158892,19.9970321 25.8465354,19.696574 25.8014892,19.3499481 C25.7793354,19.1762687 25.7217354,18.9908641 25.6316431,18.8080244 C25.5655508,18.6731847 25.4728738,18.536513 25.3938585,18.4328183 C25.2018585,18.1810931 24.8684431,17.9876275 24.8684431,17.9876275 C24.8174892,18.1722992 24.7207508,18.4416122 24.5246892,18.7208183 C24.4246277,18.8626198 24.2016123,19.1465893 23.7027815,19.450345 C23.5045046,19.5712611 22.8221662,19.9636885 21.6960123,20.0912 C20.9357662,20.1773069 20.3704738,20.0977954 19.6464123,19.9955664 C19.0412431,19.9101924 19.0076431,19.8647573 17.5757662,19.5639328 C16.8568738,19.412971 16.3927508,19.3155053 15.7657969,19.2151084 C14.8198277,19.0634137 14.0865354,18.997826 13.6209354,18.9575206 C13.3325662,18.9322382 12.6277046,18.874345 11.7105354,18.8453985 C11.3490585,18.8340397 10.5740431,18.8149863 9.57933538,18.8421008 C9.00776615,18.8574901 8.34868923,18.8882687 7.61539692,18.9461618 C6.81675077,19.0095511 6.02438154,19.1443908 5.24825846,19.3433527 C4.02979692,19.6555359 2.20284308,20.1945282 1.21736615,20.8302534 L1.12727385,21.4886962 L0.998412308,22.4267115 C2.04924308,21.777429 3.73035077,20.4847267 7.18708923,20.2949252 C7.68112,20.2678107 8.28444308,20.2711084 8.87225846,20.3044519 C9.14992,20.320574 9.88062769,20.4004519 10.6674585,20.5708336 C11.3996431,20.7291237 12.2178585,20.9837802 13.0936738,21.3901313 C13.54672,21.6000855 14.0566277,21.8774595 14.49232,22.1515359 C15.6232738,22.864574 16.2542892,23.4871084 16.7778585,24.0110779 C17.4638892,24.6977344 17.9254277,25.3924519 17.9254277,25.3924519 C17.9254277,25.3924519 18.0782892,25.2308641 18.1731815,25.0579176 C18.2917046,24.8424672 18.3581662,24.5977038 18.3777354,24.488513 C18.4131815,24.2917496 18.41872,24.0418565 18.3976738,23.9077496 C18.3769969,23.7795053 18.35152,23.6453985 18.3164431,23.5406046 C18.2440738,23.3251542 18.1554585,23.1903145 18.1554585,23.1903145 C21.1539815,24.7871389 25.2598277,26.5114748 28.9443815,23.9872611 C30.7868431,22.7253374 31.0574892,21.0937038 30.8706585,19.8893069" id="Fill-6"></path>
                                <path d="M15.3827938,12.9986687 C15.4928246,13.0430046 15.5714708,13.0701191 15.6711631,13.1397374 C15.7313477,13.1818748 15.8037169,13.2463634 15.8764554,13.3148824 C16.0547938,13.4826992 16.2098708,13.8623023 16.3280246,14.1997679 C16.4849477,14.6500885 16.6079015,15.1898137 16.6828554,15.8006229 C16.7515323,16.3652641 16.7987938,16.9060885 16.7984246,17.2578443 C16.7984246,17.6425771 16.7888246,17.9906687 16.77184,18.3131115 C16.9280246,18.3453557 17.0923323,18.3797985 17.2725169,18.4179053 C17.8721477,18.5435847 18.2284554,18.6249282 18.4832246,18.6835542 C18.5079631,18.6890504 18.5290092,18.6938137 18.5519015,18.6993099 L18.5519015,18.1577527 C18.5522708,14.2001344 19.0455631,12.8400122 19.9088246,12.0551573 C19.9088246,12.0551573 19.8165169,11.9983634 19.6906092,11.9459664 C19.5879631,11.9034626 19.4613169,11.8649893 19.3597785,11.8510656 C19.2224246,11.8316458 19.0684554,11.8136916 18.8579938,11.8459359 C18.7679015,11.8598595 18.6120862,11.8928366 18.4485169,11.964287 C18.3864862,11.9914015 18.3133785,12.0295084 18.2458092,12.072745 C18.1461169,12.1361344 18.0383015,12.2281038 18.0124554,12.2530198 C17.8691938,12.390058 17.76064,12.5296611 17.6805169,12.696745 C17.6029785,12.8579664 17.5730708,12.966058 17.5730708,12.966058 C17.5730708,12.966058 17.5084554,12.8495389 17.4069169,12.7348519 C17.3138708,12.6289588 17.2115938,12.5318595 17.0354708,12.4252336 C16.8851938,12.3343634 16.7205169,12.2757374 16.5635938,12.244226 C16.4155323,12.2145466 16.2737477,12.2097832 16.1980554,12.2141802 C16.1736862,12.2152794 15.9916554,12.2270046 15.8299323,12.2764702 C15.6955323,12.3178748 15.5341785,12.3889588 15.3772554,12.496684 C15.1357785,12.6626687 14.9648246,12.9396763 14.9648246,12.9396763 C14.9648246,12.9396763 15.2059323,12.9272183 15.3827938,12.9986687" id="Fill-8"></path>
                                <path d="M5.38509538,14.552 C5.39986462,14.802626 5.44897231,15.6457405 5.63838769,16.7336183 C5.70078769,17.0938015 5.78423385,17.4909924 5.88134154,17.8922137 C6.31924923,17.8156336 6.75789538,17.7581069 7.19284923,17.7236641 C7.85377231,17.6712672 8.52171077,17.6357252 9.17894154,17.6181374 C9.39789538,17.6122748 9.61869538,17.6089771 9.83949538,17.6067786 C9.71875692,17.1352061 9.61057231,16.653374 9.52121846,16.117313 C9.44478769,15.6607634 9.37574154,14.9719084 9.34952615,14.5996336 C9.24060308,13.0438473 9.28528,12.0578321 9.34398769,11.2161832 C9.40934154,10.2748702 9.51974154,9.51932824 9.70952615,8.65716031 C10.0067569,7.30766412 10.4206646,5.86070229 11.4847877,4.35035115 C11.97808,3.64867176 13.9379569,1.28128244 15.6216492,1.6700458 C15.7464492,1.69899237 16.0322338,1.78766412 16.2703877,1.93496183 C16.4771569,2.06283969 16.6481108,2.23505344 16.8065108,2.42815267 C16.9534646,2.60696183 17.0686646,2.81141985 17.1436185,3.02980153 C17.2462646,3.32842748 17.2850338,3.56366412 17.2691569,3.86668702 C17.2554954,4.12500763 17.2266954,4.37709924 17.04688,4.76329771 L16.6728492,5.68299237 C16.5820185,5.9061374 16.4764185,6.12268702 16.3704492,6.33887023 C16.2807262,6.52207634 16.2120492,6.76683969 16.4860185,6.76683969 C16.9250338,6.76683969 19.2150031,5.40781679 19.3383262,4.45331298 C19.4154954,3.85752672 19.1740185,3.29435115 18.9181415,2.80189313 C18.39088,1.78473282 17.5948185,1.25783206 17.3976492,1.12079389 C16.7086646,0.643358779 16.1430031,0.496427481 15.8022031,0.417648855 C10.3512492,-0.83621374 7.36749538,4.41960305 6.39863385,6.85734351 C5.77315692,8.43181679 5.55088,10.1711756 5.41869538,11.4371298 C5.37401846,11.8650992 5.35001846,12.6481221 5.34669538,13.2149618 C5.34374154,13.5832061 5.35444923,13.8605802 5.35666462,13.8902595 C5.36035692,13.9378931 5.38214154,14.5043664 5.38509538,14.552" id="Fill-10"></path>
                            </g>
                        </g>
                    </g>
                </g>
            </g>
        </g>
    </g>
</svg>