<?xml version="1.0" encoding="UTF-8"?>
<svg width="123px" height="116px" viewBox="0 0 123 116" version="1.1" xmlns="http://www.w3.org/2000/svg" xmlns:xlink="http://www.w3.org/1999/xlink">
    <!-- Generator: Sketch 52.5 (67469) - http://www.bohemiancoding.com/sketch -->
    <title>Stamp</title>
    <desc>Created with Sketch.</desc>
    <g id="Portfolio" stroke="none" stroke-width="1" fill="none" fill-rule="evenodd">
        <g id="Home" transform="translate(-104.000000, -1126.000000)" fill="#8C786F">
            <g id="Stamp" transform="translate(103.314318, 1125.830795)">
                <path d="M74.345546,79.9881812 L49.3704819,79.9881812 C48.8641453,79.9881812 48.450348,79.5823292 48.450348,79.0857149 C48.450348,78.5896162 48.8641453,78.1832485 49.3704819,78.1832485 L74.345546,78.1832485 C74.8518826,78.1832485 75.26568,78.5896162 75.26568,79.0857149 C75.26568,79.5823292 74.8518826,79.9881812 74.345546,79.9881812 Z M69.4819809,87.1650579 L54.234047,87.1650579 C53.7277105,87.1650579 53.3139131,86.7586902 53.3139131,86.2625915 C53.3139131,85.7659772 53.7277105,85.3601252 54.234047,85.3601252 L69.4819809,85.3601252 C69.9883175,85.3601252 70.4021149,85.7659772 70.4021149,86.2625915 C70.4021149,86.7586902 69.9883175,87.1650579 69.4819809,87.1650579 Z M63.9960898,94.3417283 L59.719833,94.3417283 C59.2134964,94.3417283 58.7996991,93.9353606 58.7996991,93.439262 C58.7996991,92.9431633 59.2134964,92.5367956 59.719833,92.5367956 L63.9960898,92.5367956 C64.5024263,92.5367956 64.9162237,92.9431633 64.9162237,93.439262 C64.9162237,93.9353606 64.5024263,94.3417283 63.9960898,94.3417283 Z M20.7934352,23.8879324 C20.813941,23.6336947 20.6835449,23.3825512 20.4022468,23.1345019 C20.125155,22.8905781 19.8575275,22.7951745 19.597261,22.8477754 C19.3364688,22.9003763 19.0798829,23.064883 18.8275033,23.3412956 L17.8079949,24.4541655 L19.3496136,25.811475 L20.3680704,24.6991207 C20.63044,24.4123942 20.7724035,24.14217 20.7934352,23.8879324 Z M16.9162536,23.6682463 L17.7380647,22.7704211 C17.9583711,22.5301072 18.0714161,22.3062956 18.0777256,22.0989862 C18.0840351,21.8916767 17.9799285,21.6941655 17.7659316,21.5054211 C17.5414189,21.3084256 17.3258447,21.2243673 17.1197347,21.2547933 C16.9125731,21.2852194 16.699102,21.4208472 16.4787957,21.6611611 L15.6564588,22.5589862 L16.9162536,23.6682463 Z M21.4391063,22.217596 C21.9291434,22.6497485 22.1683782,23.1422373 22.1568108,23.6955781 C22.1441918,24.2489189 21.8902348,24.7965871 21.3938883,25.3385826 L19.3422525,27.5792776 L13.8656153,22.755466 L15.7206053,20.7293001 C16.6575646,19.7066767 17.5666569,19.5834256 18.4478823,20.3595467 C18.9904984,20.837596 19.1960826,21.3744346 19.0651607,21.9705781 C19.9122098,21.4878875 20.7035249,21.569883 21.4391063,22.217596 Z M27.9136945,17.0967956 C27.9257877,16.5083875 27.6970687,15.9230736 27.2264859,15.3413696 C26.7564289,14.7591498 26.2274833,14.4069301 25.6412266,14.283679 C25.054444,14.1609436 24.4808062,14.3171992 23.9197874,14.7529615 C23.3598202,15.1887238 23.0732642,15.7002933 23.061171,16.2892171 C23.0490778,16.8776252 23.2788484,17.4624234 23.7483796,18.0446431 C24.2189624,18.6263472 24.7473822,18.9790826 25.3346905,19.101818 C25.9209473,19.2245534 26.4951109,19.0682978 27.0550781,18.6330512 C27.6155711,18.1972889 27.9021271,17.6852037 27.9136945,17.0967956 Z M26.1054999,20.4044637 C25.4756025,20.4947104 24.8588498,20.4121992 24.255242,20.1579615 C23.6516341,19.9032081 23.1142759,19.4849794 22.6447447,18.9027597 C22.1741619,18.3210557 21.8812964,17.7125355 21.7671998,17.0782306 C21.6520516,16.4434099 21.7109402,15.8359211 21.9443913,15.2557642 C22.1778424,14.6750915 22.565876,14.1733202 23.1100695,13.7504503 C23.6537373,13.3275803 24.2410456,13.0712799 24.8704172,12.9815489 C25.499263,12.8913023 26.1160157,12.9732978 26.7196235,13.2280512 C27.3237572,13.4828046 27.8605896,13.9010333 28.3311724,14.4827373 C28.8007036,15.064957 29.0935691,15.6729615 29.2087173,16.3077821 C29.3233397,16.9426028 29.2639253,17.5500915 29.031,18.1302485 C28.7975489,18.7109211 28.4089895,19.2126924 27.864796,19.6350467 C27.3211282,20.0579167 26.7343457,20.3147328 26.1054999,20.4044637 Z M33.5346087,11.2350445 C34.4016378,10.7698875 34.6435016,10.1928247 34.2602001,9.50540321 C34.0745959,9.17381128 33.8358869,8.97475298 33.5435472,8.90822832 C33.2506817,8.84221935 32.8826281,8.92782473 32.4399122,9.16556016 L31.5266136,9.65547047 L32.6675797,11.7002014 L33.5346087,11.2350445 Z M29.8057002,9.32130007 L32.1670268,8.05372159 C32.8563386,7.68396823 33.4888649,7.55401307 34.0656575,7.66385612 C34.6419242,7.77369917 35.1072491,8.14551531 35.4605805,8.77878886 C35.7066506,9.21919244 35.8118088,9.63071711 35.7781582,10.0133628 C35.743456,10.3965243 35.5988635,10.7662776 35.3422776,11.1231386 L38.2835514,13.0013001 L36.9643423,13.7088337 L34.4068957,12.0250893 L34.3606261,12.0498427 L33.2075668,12.6686767 L34.5199407,15.020762 L33.3390145,15.6545512 L29.8057002,9.32130007 Z M38.5825161,5.0197328 L39.8333725,4.59222159 L44.3662152,7.98033818 L42.8025133,3.57784939 L44.0738755,3.14363415 L46.4951422,9.96163863 L45.452499,10.3179839 L40.6141718,6.72823056 L42.2746193,11.403522 L41.0032571,11.8377373 L38.5825161,5.0197328 Z M56.4979446,3.11965433 C56.6357018,2.92523729 56.6945903,2.71844357 56.6756619,2.49875747 C56.657785,2.30073056 56.5889064,2.15633594 56.4679745,2.066605 C56.3475684,1.97687406 56.1861506,1.94025971 55.9831954,1.95779334 C55.7665695,1.97584267 55.5962133,2.05422832 55.4716009,2.19295029 C55.3464627,2.33115657 55.2944094,2.51680679 55.3149152,2.74938527 C55.3291116,2.913892 55.3822164,3.07324177 55.4731783,3.2274346 C55.5646659,3.38214312 55.7024231,3.55490096 55.888553,3.74622383 C56.1577579,3.52344357 56.3601874,3.31458706 56.4979446,3.11965433 Z M57.6425912,6.98221038 L55.6524729,5.13292787 C55.3228021,5.54084267 55.1776838,5.97041666 55.2176439,6.42268123 C55.2455108,6.73777092 55.3648654,6.99355567 55.5757075,7.1895198 C55.7865496,7.38496823 56.1225299,7.46335388 56.5836485,7.42467675 C57.037406,7.38548392 57.3902116,7.23851083 57.6425912,6.98221038 Z M55.1061763,8.25958706 C54.7265553,8.1090041 54.4347414,7.89189648 54.2307345,7.60929558 C54.0262019,7.32669469 53.907899,7.00696374 53.8763515,6.65061845 C53.8379688,6.21898168 53.9184148,5.83272608 54.1171637,5.49133594 C54.3153869,5.1504615 54.6008913,4.81886957 54.973677,4.49707585 C54.3926781,3.89783818 54.078781,3.33469917 54.0325114,2.80714312 C54.0020155,2.4642059 54.0698426,2.15685164 54.2354667,1.88404895 C54.4016166,1.61073056 54.6334903,1.39259155 54.9321395,1.22911621 C55.2307887,1.06564087 55.5583564,0.968690202 55.9148426,0.938779888 C56.4658713,0.891335942 56.909113,0.990349395 57.2440418,1.23427316 C57.5789705,1.47819693 57.766152,1.82319693 57.8055864,2.26824177 C57.8302985,2.54929558 57.7861321,2.80662742 57.6730871,3.04023729 C57.5605678,3.27436285 57.4149238,3.48012518 57.2372065,3.65700859 C57.0589634,3.83492339 56.8097385,4.05770366 56.4884803,4.32638079 L58.1010808,5.84561845 C58.1310509,5.55321935 58.1363088,5.24947496 58.1152771,4.93386957 C58.0942455,4.6177485 58.0821523,4.43622383 58.0774202,4.3877485 L59.3240703,4.28203101 C59.4087226,5.2340041 59.3077707,6.04312966 59.0222663,6.70940769 L60.2315852,7.84857809 L58.7225656,7.97698617 L58.367131,7.65570814 C57.891816,8.09611173 57.2671766,8.3498337 56.4916351,8.41584267 C55.9469158,8.46225522 55.4847457,8.40965433 55.1061763,8.25958706 Z M70.5391885,4.77446823 C71.5161079,4.92092563 72.0650335,4.60635164 72.1854396,3.83126195 C72.2438024,3.45738303 72.1765011,3.1572485 71.9851133,2.93034267 C71.7937254,2.70343684 71.4482809,2.55233818 70.9493054,2.47807809 L69.9198069,2.32440096 L69.5622692,4.62852652 L70.5391885,4.77446823 Z M68.7588608,1.03413191 L71.4204139,1.4322485 C72.1959554,1.54827989 72.780109,1.82159827 73.1702458,2.25168796 C73.5609084,2.68229334 73.7007687,3.25419917 73.5898269,3.96843684 C73.5125356,4.46453549 73.3421794,4.85440096 73.0782324,5.13854895 C72.8142854,5.42218123 72.4698924,5.63000635 72.0450534,5.76150859 L73.2222991,9.00471487 L71.7353626,8.7819346 L70.7442469,5.92137406 L70.6921936,5.91363863 L69.3924387,5.71973729 L68.9802187,8.37040993 L67.6499679,8.17135164 L68.7588608,1.03413191 Z M80.2406602,8.00638079 L80.1696784,5.27732249 L78.4876736,7.45716554 L80.2406602,8.00638079 Z M80.2827234,9.23218796 L77.7289574,8.43182922 L76.616384,9.88041666 L75.3744661,9.49106688 L80.1092125,3.39555119 L81.3211603,3.77561845 L81.5745915,11.4342059 L80.3326736,11.0453718 L80.2827234,9.23218796 Z M87.3516656,6.08288975 L88.5720261,6.63984043 L85.4682828,13.1860736 L84.2479223,12.6291229 L87.3516656,6.08288975 Z M89.4769121,15.2386947 C89.1346223,14.899883 88.8848716,14.6064525 88.7292375,14.3573718 L89.6188756,13.2481117 C90.1672754,14.1010714 90.7393359,14.7095915 91.3345311,15.0726409 C91.6500056,15.2649951 91.9349842,15.3562732 92.1894669,15.3454436 C92.4444755,15.334614 92.6453276,15.2123942 92.7936006,14.9787844 C92.9050683,14.8039637 92.9476573,14.6291431 92.9213678,14.4553539 C92.8950782,14.2815646 92.815158,14.0990086 92.6805556,13.9076857 C92.5459531,13.7163628 92.3203889,13.4270579 92.0049144,13.0397709 C91.7052136,12.6793001 91.4759688,12.3508023 91.3166542,12.055309 C91.1573396,11.7593001 91.075842,11.45504 91.0726872,11.1409817 C91.0695325,10.8274391 91.1715359,10.5071924 91.3792233,10.1797261 C91.7125747,9.6547485 92.1773738,9.3510041 92.7741463,9.27003998 C93.3703931,9.18856016 94.0349927,9.37111621 94.7674194,9.81770814 C95.1123381,10.0286274 95.4314932,10.2761611 95.725936,10.5613404 C96.0198531,10.8454884 96.2748616,11.1311835 96.4904359,11.4158472 L95.6460158,12.4926185 C95.3773367,12.109457 95.1144413,11.7850848 94.8578554,11.5195019 C94.6012695,11.2534032 94.3215487,11.0280445 94.0181674,10.8429099 C93.6785066,10.6356005 93.3845895,10.5329772 93.1353646,10.53504 C92.8861398,10.5371028 92.6952777,10.6433359 92.5617268,10.8532238 C92.4581461,11.0166992 92.4208149,11.1801745 92.4492076,11.3431341 C92.4776003,11.5066095 92.5517368,11.673179 92.6710913,11.8433584 C92.7904459,12.013022 92.9792048,12.2456005 93.2373681,12.5410938 C93.8173153,13.2022149 94.180111,13.7782463 94.3278582,14.269188 C94.4745539,14.759614 94.38885,15.2562283 94.0702207,15.7579996 C93.7668394,16.2370803 93.3320104,16.5506229 92.7673111,16.6996588 C92.2020859,16.8492104 91.4517824,16.6382911 90.5174521,16.0679324 C90.1662239,15.8534032 89.8192019,15.5769907 89.4769121,15.2386947 Z M100.301841,13.7729862 L103.895095,16.7614391 L103.051201,17.7371341 L100.509528,15.6222687 L99.4958037,16.7944436 L101.468571,18.4353853 L100.625202,19.4110803 L98.6524352,17.7696229 L97.4347036,19.1774705 L100.057348,21.3588606 L99.2139798,22.3345557 L95.5408051,19.2790624 L100.301841,13.7729862 Z M104.206784,25.8250893 C104.662119,26.3474884 105.176343,26.6063673 105.748403,26.6012104 C106.320989,26.5965691 106.902514,26.3459413 107.494029,25.8498427 C108.085017,25.353744 108.427833,24.8287664 108.521424,24.2754256 C108.61554,23.7215691 108.434142,23.1831835 107.978808,22.6607844 L107.063406,21.6108292 L103.290857,24.7746185 L104.206784,25.8250893 Z M107.09916,19.8430265 L108.889477,21.89704 C109.345338,22.4194391 109.640307,22.9794839 109.774383,23.5776902 C109.907934,24.1753808 109.864819,24.7658516 109.644513,25.3491028 C109.424207,25.9318382 109.026183,26.4645512 108.450442,26.9472418 C107.875753,27.4299324 107.276877,27.7326454 106.655392,27.8558965 C106.034433,27.9791476 105.432403,27.9296409 104.851404,27.7068606 C104.269879,27.4840803 103.751449,27.1117485 103.295589,26.5893494 L101.504745,24.5358516 L107.09916,19.8430265 Z M23.9301981,89.3033875 L24.7462254,90.3533427 L18.890493,94.7290153 L18.0749915,93.6790602 L23.9301981,89.3033875 Z M26.9499199,93.0369167 L27.9005497,93.9424772 L26.841607,99.4351454 L30.154615,96.0924099 L31.1199669,97.0124099 L25.9893001,102.189473 L25.1974591,101.434495 L26.3026714,95.5839346 L22.7840792,99.1339794 L21.8192531,98.2139794 L26.9499199,93.0369167 Z M32.7176875,105.636688 C33.3049959,106.011598 33.8723242,106.117831 34.4196724,105.954356 C34.9675465,105.790881 35.4533772,105.38967 35.8782162,104.749692 C36.3020036,104.110231 36.4797209,103.511509 36.4097907,102.954558 C36.3409121,102.397607 36.0122928,101.931419 35.4244587,101.556509 L34.2435325,100.802562 L31.5362355,104.883257 L32.7176875,105.636688 Z M33.7692692,99.0971588 L36.0785425,100.571015 C36.6658508,100.945926 37.1101441,101.4018 37.4108964,101.938123 C37.7116488,102.474446 37.8399417,103.053056 37.7963011,103.672921 C37.7526604,104.293818 37.524993,104.914715 37.1117214,105.537159 C36.6989756,106.159603 36.2120933,106.615993 35.6516003,106.906329 C35.0911073,107.196666 34.4995926,107.315791 33.8775821,107.26319 C33.2555715,107.211105 32.6509121,106.997092 32.0636037,106.622181 L29.7543304,105.148325 L33.7692692,99.0971588 Z M41.9139268,103.784157 L43.140071,104.329762 L40.0999484,110.904874 L38.8738042,110.359269 L41.9139268,103.784157 Z M48.4293163,110.762645 L48.286827,108.036166 L46.663185,110.257264 L48.4293163,110.762645 Z M48.5039786,111.986905 L45.929181,111.251009 L44.8549903,112.726928 L43.6030824,112.369035 L48.1774625,106.156973 L49.3994004,106.506098 L49.8521063,114.156435 L48.6001984,113.798027 L48.5039786,111.986905 Z M54.5092459,107.682605 L55.8279293,107.809466 L58.4936888,112.749825 L58.9574363,108.110116 L60.2971513,108.23904 L59.5794469,115.424219 L58.480544,115.318502 L55.6233967,110.069757 L55.1312565,114.996708 L53.7915415,114.8683 L54.5092459,107.682605 Z M67.4774034,112.274766 L66.3427468,109.781896 L65.6439708,112.427928 L67.4774034,112.274766 Z M67.9963589,113.390731 L65.32429,113.614027 L64.8652746,115.370484 L63.5660455,115.479296 L65.5498542,108.067726 L66.8175359,107.961493 L70.0516753,114.9373 L68.7524461,115.046112 L67.9963589,113.390731 Z M75.3950771,110.081257 C75.8430509,109.96471 76.1495869,109.778544 76.3157368,109.521728 C76.4818867,109.264912 76.5092278,108.931257 76.3977602,108.518701 C76.2862925,108.106661 76.0922757,107.831796 75.8162355,107.693589 C75.5391438,107.555899 75.1705644,107.546616 74.7094459,107.666773 L73.6321005,107.946796 L74.2877616,110.369531 L75.3950771,110.081257 Z M72.0431606,107.218634 L74.5737918,106.560092 C76.2610546,106.121235 77.3079041,106.653432 77.7138146,108.155136 C77.9246567,108.932805 77.8668198,109.566078 77.5429326,110.056504 C77.2185197,110.545899 76.649614,110.897087 75.8362156,111.108522 L74.5753692,111.435988 L75.2310304,113.858724 L73.9296981,114.19702 L72.0431606,107.218634 Z M86.4921553,107.787085 C86.6356962,107.215695 86.5436828,106.595314 86.2155893,105.926457 C85.8874959,105.257085 85.4510895,104.799148 84.9058444,104.552645 C84.3611251,104.306143 83.7664557,104.334506 83.1223619,104.638766 C82.4777424,104.942511 82.0833993,105.380336 81.9398584,105.951726 C81.7957917,106.523116 81.8878051,107.143497 82.2164243,107.812354 C82.5445178,108.481726 82.9809242,108.939663 83.5256435,109.186166 C84.0708886,109.432668 84.6650322,109.404305 85.3096518,109.100044 C85.9542713,108.7963 86.3486144,108.358475 86.4921553,107.787085 Z M83.9851847,110.623408 C83.3510809,110.575448 82.7679789,110.36195 82.2364044,109.98343 C81.7048299,109.60491 81.2742072,109.080964 80.9461137,108.411592 C80.6180202,107.742219 80.4692214,107.08574 80.5002431,106.442152 C80.5302132,105.798049 80.72423,105.218408 81.0822935,104.702713 C81.4398313,104.186502 81.9314457,103.781166 82.5571368,103.486188 C83.1823021,103.19121 83.8121995,103.067444 84.4463032,103.115403 C85.080407,103.163879 85.663509,103.376861 86.1956093,103.755381 C86.7271838,104.134417 87.1572807,104.657847 87.4853742,105.327219 C87.8134677,105.996592 87.9622665,106.653071 87.9317706,107.296659 C87.9018005,107.940762 87.7077837,108.520403 87.3497202,109.036098 C86.9916566,109.552309 86.500568,109.957645 85.8748769,110.252623 C85.2497116,110.548116 84.6192884,110.671367 83.9851847,110.623408 Z M88.3914695,100.427601 L89.4819597,99.6535422 L93.0946684,104.550067 L95.5480084,102.808565 L96.2509907,103.761053 L92.7071606,106.276614 L88.3914695,100.427601 Z M94.0549728,96.0429548 L95.0360985,95.139457 L100.0737,100.404188 L99.0925747,101.30717 L94.0549728,96.0429548 Z M103.739514,96.5843315 C103.354635,96.8756992 103.026016,97.0814615 102.754708,97.2016185 L101.743612,96.1975602 C102.675313,95.7705646 103.36147,95.2899368 103.80366,94.7556767 C104.037637,94.4730759 104.165405,94.2069772 104.186436,93.9578965 C104.207468,93.7088158 104.108619,93.4978965 103.890942,93.3246229 C103.727947,93.1946678 103.556539,93.1312373 103.37777,93.1348472 C103.198475,93.138457 103.003933,93.1936364 102.79309,93.300901 C102.582774,93.4076498 102.262042,93.5907216 101.830893,93.8501162 C101.428138,94.0961028 101.067971,94.2786588 100.749342,94.396753 C100.430187,94.5148472 100.112083,94.5555871 99.7939796,94.5194884 C99.476402,94.4839054 99.1651338,94.3441521 98.8601751,94.1017754 C98.3701381,93.7119099 98.1209132,93.2214839 98.1135522,92.6304974 C98.1056653,92.0400265 98.3732928,91.4165512 98.9164347,90.7595557 C99.1724949,90.4501386 99.4632572,90.1701162 99.7881959,89.9189727 C100.113135,89.6683449 100.433341,89.4563942 100.748816,89.2820893 L101.732045,90.2376723 C101.311412,90.4516857 100.950194,90.6672463 100.649441,90.8833225 C100.348163,91.0999144 100.085268,91.3443539 99.8597035,91.6166409 C99.6083755,91.920901 99.4674635,92.1942194 99.4380192,92.4371117 C99.4096265,92.6794884 99.4927015,92.8785467 99.6888215,93.0348023 C99.8413008,93.1559907 100.001667,93.2127171 100.170446,93.2054974 C100.338699,93.1982776 100.516416,93.1467081 100.703598,93.0518202 C100.890253,92.957448 101.149468,92.8027395 101.480191,92.5876947 C102.221556,92.1065512 102.849876,91.8249817 103.364625,91.7429862 C103.879374,91.6615063 104.370463,91.8064167 104.838943,92.1792642 C105.284813,92.5345781 105.548234,92.9966409 105.62868,93.5654525 C105.708601,94.1337485 105.402065,94.8371566 104.708546,95.6751611 C104.447754,95.9907664 104.124393,96.2934794 103.739514,96.5843315 Z M8.41474181,61.8219974 C8.41474181,62.0865489 8.45049559,62.2923113 8.52252893,62.4387687 C8.59456227,62.5857418 8.68394671,62.6976476 8.79173383,62.7739705 C8.89952095,62.8502933 9.0167723,62.9034099 9.14243631,62.9322889 C9.26810032,62.9616835 9.38535167,62.9941723 9.49313879,63.0292395 C9.60092591,63.0648225 9.69031035,63.1132978 9.76234369,63.1746655 C9.83385124,63.2365489 9.87013081,63.3376252 9.87013081,63.4789256 C9.87013081,64.2132754 9.48367456,64.7434099 8.71076204,65.0698449 C7.93837533,65.3957642 6.82106982,65.5587238 5.35937134,65.5587238 C4.65270847,65.5587238 4.02491423,65.5190153 3.4765144,65.440114 C2.92864036,65.3601812 2.46699601,65.2369301 2.09315874,65.0698449 C1.71879567,64.902244 1.43434284,64.6861678 1.23980023,64.4221319 C1.04420605,64.1575803 0.947460535,63.8430063 0.947460535,63.4789256 C0.947460535,63.3376252 0.983214311,63.2365489 1.05524765,63.1746655 C1.127281,63.1132978 1.21561385,63.0663696 1.32024623,63.0338808 C1.4248786,63.0019077 1.53897521,62.970966 1.66148447,62.9410557 C1.78451953,62.9121767 1.89809034,62.8606072 2.00324851,62.7868628 C2.10788088,62.7136341 2.19673953,62.6063696 2.26877287,62.4655848 C2.34028043,62.3242844 2.37655999,62.1216162 2.37655999,61.8570646 L2.37655999,55.2123337 C2.37655999,54.9539705 2.34028043,54.7528494 2.26877287,54.6084548 C2.19673953,54.4645759 2.10788088,54.3557642 2.00324851,54.2825355 C1.89809034,54.2087911 1.78451953,54.1577373 1.66148447,54.1283427 C1.53897521,54.098948 1.4248786,54.0680063 1.32024623,54.0355176 C1.21561385,54.0035445 1.127281,53.9561005 1.05524765,53.8947328 C0.983214311,53.8328494 0.947460535,53.7317732 0.947460535,53.5904727 C0.947460535,53.226392 1.04420605,52.9133651 1.23980023,52.6519077 C1.43434284,52.3904503 1.71879567,52.1759211 2.09315874,52.0088359 C2.46699601,51.841235 2.92864036,51.7174682 3.4765144,51.6385669 C4.02491423,51.5591498 4.65270847,51.5194413 5.35937134,51.5194413 C6.09022058,51.5194413 6.73746908,51.5591498 7.30059106,51.6385669 C7.86318724,51.7174682 8.3353474,51.841235 8.71549416,52.0088359 C9.09564093,52.1759211 9.38324851,52.3904503 9.5783169,52.6519077 C9.77285951,52.9133651 9.87013081,53.226392 9.87013081,53.5904727 C9.87013081,53.7317732 9.83385124,53.8328494 9.76234369,53.8947328 C9.69031035,53.9561005 9.60197749,54.0035445 9.49734512,54.0355176 C9.39218695,54.0680063 9.27756455,54.098948 9.15084896,54.1283427 C9.02571075,54.1577373 8.91003677,54.2087911 8.80540439,54.2825355 C8.70024623,54.3557642 8.61191337,54.4645759 8.53988003,54.6084548 C8.46837248,54.7528494 8.43209291,54.9539705 8.43209291,55.2123337 L8.41474181,61.8219974 Z M21.5657167,62.1657081 C21.5657167,62.4065377 21.5983158,62.5947664 21.6645654,62.7298785 C21.7302893,62.8649907 21.8128384,62.9665826 21.9116871,63.0336229 C22.0105358,63.101179 22.1167455,63.1486229 22.2308421,63.1749234 C22.3438872,63.2012238 22.4511485,63.2295871 22.5494714,63.258466 C22.6488458,63.2878606 22.7308692,63.3306633 22.7965931,63.3863584 C22.8628427,63.4425691 22.8954417,63.5348785 22.8954417,63.6638023 C22.8954417,64.3336902 22.5415845,64.8174122 21.8354474,65.1134211 C21.1282588,65.4104615 20.107173,65.5589817 18.7711385,65.5589817 C18.12389,65.5589817 17.5518296,65.5233987 17.0549573,65.4532642 C16.5575591,65.382614 16.1385039,65.2696767 15.7967398,65.1134211 C15.4555016,64.9581969 15.1962867,64.7612014 15.019621,64.523466 C14.8429553,64.2852149 14.7546224,63.9990041 14.7546224,63.6638023 C14.7546224,63.5348785 14.7872214,63.4425691 14.8529453,63.3863584 C14.9191949,63.3306633 15.0001667,63.2878606 15.0958606,63.258466 C15.1915546,63.2295871 15.2967127,63.2027709 15.4108094,63.1790489 C15.5243802,63.1558427 15.6290125,63.1104615 15.7252323,63.0429054 C15.8204004,62.9753494 15.901898,62.8783987 15.9676218,62.7515377 C16.0338715,62.6257081 16.0664705,62.4421207 16.0664705,62.2007754 L16.0664705,57.4945422 C16.0664705,57.259901 16.0338715,57.0778606 15.9676218,56.9484211 C15.901898,56.8189817 15.8204004,56.7204839 15.7252323,56.6529279 C15.6290125,56.5858875 15.5243802,56.5399907 15.4108094,56.5162687 C15.2967127,56.4930624 15.1915546,56.466762 15.0958606,56.4373673 C15.0001667,56.4079727 14.9191949,56.36517 14.8529453,56.309475 C14.7872214,56.2537799 14.7546224,56.1609548 14.7546224,56.0315153 C14.7546224,55.6968292 14.8429553,55.4106185 15.019621,55.1723673 C15.1962867,54.9346319 15.4555016,54.7376364 15.7967398,54.5818965 C16.1385039,54.4266723 16.5575591,54.3132194 17.0549573,54.2425691 C17.5518296,54.1724346 18.12389,54.1368516 18.7711385,54.1368516 C19.3584469,54.1368516 19.8253491,54.185327 20.1728968,54.2822776 C20.5204446,54.3792283 20.7896495,54.4864929 20.9820889,54.6040714 C21.2034469,54.7448561 21.3559262,54.9011117 21.4400527,55.0712911 C21.7513209,54.8536678 22.123055,54.6566723 22.5542035,54.4808202 C22.9254118,54.3281745 23.3791693,54.1899682 23.9154759,54.0662014 C24.4512568,53.9429503 25.0795768,53.8815826 25.7983329,53.8815826 C26.4571488,53.8815826 27.0244771,53.962031 27.5008435,54.1239593 C27.9766842,54.2853718 28.3815432,54.5024794 28.713843,54.7757978 C29.0466686,55.0491162 29.3142961,55.3662687 29.5177771,55.7277709 C29.721784,56.0887575 29.8789954,56.466762 29.9894115,56.8602373 C30.1003534,57.2542283 30.1755415,57.6523449 30.21445,58.0545871 C30.2528327,58.4568292 30.2728128,58.8405063 30.2728128,59.2045871 L30.2728128,62.1218741 C30.2728128,62.3683763 30.3054118,62.5612463 30.3716614,62.6989368 C30.4373853,62.8371431 30.520986,62.9428606 30.6235153,63.0160893 C30.7249929,63.0898337 30.8343574,63.1393404 30.9516087,63.1661566 C31.0678085,63.192457 31.177173,63.2218516 31.2791764,63.2543404 C31.3811798,63.2863135 31.4647806,63.3306633 31.5305044,63.3863584 C31.5967541,63.4425691 31.6298789,63.5348785 31.6298789,63.6638023 C31.6298789,64.3336902 31.277599,64.8174122 30.5740909,65.1134211 C29.870057,65.4104615 28.8500228,65.5589817 27.5139883,65.5589817 C26.8672656,65.5589817 26.2952052,65.5233987 25.7983329,65.4532642 C25.3009347,65.382614 24.8813537,65.2696767 24.5401154,65.1134211 C24.1983514,64.9581969 23.9396623,64.7612014 23.7629966,64.523466 C23.5858051,64.2852149 23.497998,63.9990041 23.497998,63.6638023 C23.497998,63.5348785 23.5300712,63.4425691 23.5963209,63.3863584 C23.6620447,63.3306633 23.7456455,63.2878606 23.8481747,63.258466 C23.9496523,63.2295871 24.0574394,63.2027709 24.1715361,63.1790489 C24.2851069,63.1558427 24.392894,63.1104615 24.4948974,63.0429054 C24.5969008,62.9753494 24.6805016,62.8783987 24.7467512,62.7515377 C24.8124751,62.6257081 24.8450741,62.4421207 24.8450741,62.2007754 L24.8450741,58.4377485 C24.8450741,58.0736678 24.8172072,57.7492956 24.759896,57.4636005 C24.7031106,57.1789368 24.6074166,56.9381072 24.4722884,56.7411117 C24.337686,56.5446319 24.1594429,56.3945646 23.9380849,56.2919413 C23.7162012,56.189318 23.440161,56.1377485 23.111016,56.1377485 C22.9012254,56.1377485 22.7035281,56.1712687 22.5184497,56.2388247 C22.3323198,56.3063808 22.1703762,56.400753 22.0331448,56.5209099 C21.8948618,56.6415826 21.7860231,56.7854615 21.7050513,56.9525467 C21.6240795,57.1201476 21.5835936,57.3006409 21.5835936,57.4945422 L21.5657167,62.1657081 Z M43.136443,63.5405512 C43.3756778,63.5405512 43.6122837,63.4992956 43.8462606,63.4173001 C44.0797117,63.3353046 44.2831928,63.2440265 44.4572296,63.1439817 C44.4446106,62.9913359 44.4393527,62.8371431 44.4393527,62.6808875 L44.4393527,62.2007754 L44.4393527,56.6219862 C44.2353458,56.5049234 44.0108331,56.3945646 43.764763,56.2919413 C43.5197445,56.189318 43.2678907,56.1377485 43.0102532,56.1377485 C42.7347388,56.1377485 42.5086488,56.1991162 42.331983,56.3223673 C42.1553173,56.4461341 42.0159828,56.6529279 41.9145051,56.9437799 C41.8119759,57.2346319 41.7420457,57.6255288 41.7026114,58.1159548 C41.6637029,58.6068965 41.6442487,59.216448 41.6442487,59.9446095 C41.6442487,60.3855288 41.6589708,60.8202597 41.6894667,61.249318 C41.7194367,61.6783763 41.7851606,62.0615377 41.887164,62.399318 C41.9886416,62.7370983 42.1390178,63.0119637 42.3367152,63.2233987 C42.5338867,63.4348337 42.8004627,63.5405512 43.136443,63.5405512 Z M49.9470115,62.1657081 C49.9470115,62.4065377 49.9801364,62.5947664 50.046386,62.7298785 C50.1121099,62.8649907 50.1930817,62.9665826 50.2893014,63.0336229 C50.3844695,63.101179 50.4906793,63.1486229 50.6079306,63.1749234 C50.7246562,63.2012238 50.8308659,63.2290714 50.9265599,63.258466 C51.0222538,63.2878606 51.1032256,63.3306633 51.1689494,63.3863584 C51.2351991,63.4425691 51.2683239,63.5348785 51.2683239,63.6638023 C51.2683239,64.3336902 50.9144667,64.8174122 50.2078038,65.1134211 C49.5006151,65.4104615 48.4795294,65.5589817 47.1434949,65.5589817 C46.783854,65.5589817 46.4699568,65.5321655 46.2002261,65.4795646 C45.9304954,65.426448 45.6986217,65.3516723 45.5040791,65.2547216 C45.3090107,65.1577709 45.1491703,65.0401924 45.0229805,64.9019862 C44.8978423,64.7642956 44.7953131,64.6101028 44.7180218,64.4394077 C44.5618619,64.5807081 44.3720514,64.7302597 44.147013,64.8890938 C43.9225003,65.0474122 43.6501406,65.1933539 43.3294082,65.3248561 C43.0086758,65.4573898 42.6406223,65.5662014 42.2241959,65.6512911 C41.8077696,65.7363808 41.3329805,65.7791835 40.8003544,65.7791835 C40.1946434,65.7791835 39.6604399,65.6966723 39.1961666,65.5321655 C38.7313675,65.3676588 38.3301891,65.1433315 37.9921056,64.8581521 C37.6529705,64.5729727 37.370095,64.2398337 37.1429534,63.8577037 C36.9147602,63.4760893 36.7323108,63.0676588 36.5950794,62.6329279 C36.4567964,62.1981969 36.3589993,61.7485108 36.3027397,61.2843853 C36.2459543,60.8202597 36.2170358,60.3618068 36.2170358,59.9095422 C36.2170358,59.4454167 36.2512122,58.9751028 36.3206166,58.4996319 C36.3894952,58.0236454 36.503066,57.562614 36.6623806,57.116022 C36.8206436,56.6694301 37.0241247,56.2491386 37.2733495,55.8556633 C37.5215228,55.4616723 37.8238525,55.1192507 38.1803387,54.8289144 C38.5368249,54.5375467 38.9532512,54.3075467 39.4296177,54.1368516 C39.9054584,53.9666723 40.4464972,53.8815826 41.0516824,53.8815826 C41.4770472,53.8815826 41.8629776,53.9125243 42.2105254,53.973892 C42.5575473,54.0357754 42.8709186,54.1167395 43.1495878,54.2162687 C43.4282569,54.3163135 43.6732754,54.4307978 43.8867465,54.5597216 C44.099166,54.6891611 44.2831928,54.8186005 44.4393527,54.9475243 L44.4393527,52.2947889 C44.4393527,52.054475 44.4078052,51.8708875 44.3447103,51.7440265 C44.2821412,51.6176812 44.2006436,51.5207306 44.1023208,51.4531745 C44.0029463,51.3861341 43.8983139,51.3402373 43.787372,51.3165153 C43.6764302,51.293309 43.5717978,51.2670086 43.4734749,51.237614 C43.3741005,51.2082194 43.2936545,51.1654167 43.2305596,51.1097216 C43.1679905,51.0540265 43.136443,50.9612014 43.136443,50.831762 C43.136443,50.4970759 43.2242501,50.2108651 43.4014416,49.972614 C43.5781073,49.7348785 43.8367964,49.537883 44.1785604,49.3821431 C44.5197987,49.2269189 44.9393797,49.113466 45.4367779,49.0428158 C45.9336502,48.9726812 46.5025559,48.9370983 47.1434949,48.9370983 C47.7907434,48.9370983 48.3012863,48.9695871 48.6756493,49.0340489 C49.0500124,49.0990265 49.3344652,49.2088696 49.5295336,49.3646095 C49.7240762,49.5203494 49.8486887,49.7302373 49.9023193,49.9947889 C49.9564758,50.2593404 49.9827653,50.591448 49.9827653,50.990596 L49.9470115,62.1657081 Z M57.6619403,51.1051835 C57.6619403,50.811753 57.7145194,50.5544211 57.8191518,50.3342194 C57.9237841,50.1135019 58.0589124,49.9232104 58.2234849,49.7612821 C58.3880574,49.5998696 58.5768163,49.4647575 58.7897616,49.3554301 C59.0021811,49.2471341 59.2167038,49.1604974 59.432278,49.0960355 C59.6478522,49.0315736 59.8560654,48.9856767 60.0569175,48.9593763 C60.2572438,48.9325602 60.4328579,48.9196678 60.5827083,48.9196678 C60.7436003,48.9196678 60.9281529,48.9325602 61.1347887,48.9593763 C61.3414245,48.9856767 61.5527924,49.0315736 61.7688924,49.0960355 C61.9844667,49.1604974 62.1963604,49.2471341 62.4061509,49.3554301 C62.6159414,49.4647575 62.803123,49.5998696 62.9682213,49.7612821 C63.132268,49.9232104 63.2642415,50.1135019 63.363616,50.3342194 C63.4619389,50.5544211 63.5113632,50.811753 63.5113632,51.1051835 C63.5113632,51.393457 63.4619389,51.6487261 63.363616,51.872022 C63.2642415,52.095318 63.132268,52.2861252 62.9682213,52.4449593 C62.803123,52.6032776 62.6159414,52.7373584 62.4061509,52.8456543 C62.1963604,52.954466 61.9844667,53.0411028 61.7688924,53.1055646 C61.5527924,53.1705422 61.3414245,53.2159234 61.1347887,53.2427395 C60.9281529,53.2685243 60.7436003,53.2819324 60.5827083,53.2819324 C60.4328579,53.2819324 60.2572438,53.2685243 60.0569175,53.2427395 C59.8560654,53.2159234 59.6478522,53.1705422 59.432278,53.1055646 C59.2167038,53.0411028 59.0021811,52.954466 58.7897616,52.8456543 C58.5768163,52.7373584 58.3880574,52.6032776 58.2234849,52.4449593 C58.0589124,52.2861252 57.9237841,52.0968651 57.8191518,51.8761476 C57.7145194,51.6559458 57.6619403,51.3991297 57.6619403,51.1051835 Z M63.2332199,62.2008785 C63.2332199,62.4360355 63.2658189,62.6180759 63.3315428,62.7475153 C63.3977924,62.8769548 63.4798158,62.9754525 63.5791902,63.0424929 C63.6775131,63.1100489 63.7842487,63.1559458 63.8978195,63.1791521 C64.0113903,63.2028741 64.1181258,63.2291745 64.2169745,63.2585691 C64.3158232,63.2879637 64.3983723,63.3307664 64.464622,63.3859458 C64.5303458,63.4421566 64.5629449,63.5349817 64.5629449,63.6639054 C64.5629449,64.3337933 64.2090876,64.8169996 63.5024248,65.1135243 C62.7957619,65.4105646 61.7741503,65.5585691 60.4386416,65.5585691 C59.7919189,65.5585691 59.2193327,65.5235019 58.7224604,65.4528516 C58.2245365,65.3827171 57.8054812,65.2692642 57.464243,65.1135243 C57.1230047,64.9583001 56.863264,64.7607889 56.6871241,64.5235691 C56.5104584,64.285318 56.4221255,63.9985915 56.4221255,63.6639054 C56.4221255,63.5349817 56.4547246,63.4421566 56.5209742,63.3859458 C56.5866981,63.3307664 56.6671441,63.2879637 56.7633638,63.2585691 C56.8590577,63.2291745 56.9642159,63.2028741 57.0777867,63.1791521 C57.1913575,63.1559458 57.2965157,63.1100489 57.3922096,63.0424929 C57.4879035,62.9754525 57.5688753,62.8785019 57.635125,62.7516409 C57.7008488,62.6252956 57.7339736,62.4417081 57.7339736,62.2008785 L57.7339736,57.4946454 C57.7339736,57.2600041 57.7008488,57.0779637 57.635125,56.9485243 C57.5688753,56.8190848 57.4879035,56.7205871 57.3922096,56.653031 C57.2965157,56.585475 57.1913575,56.5400938 57.0777867,56.5163718 C56.9642159,56.4931655 56.8590577,56.4663494 56.7633638,56.4369548 C56.6671441,56.4080759 56.5866981,56.3652732 56.5209742,56.3095781 C56.4547246,56.2533673 56.4221255,56.1610579 56.4221255,56.0316185 C56.4221255,55.6969324 56.5104584,55.4107216 56.6871241,55.1724705 C56.863264,54.934735 57.1230047,54.7377395 57.464243,54.5819996 C57.8054812,54.4262597 58.2245365,54.3133225 58.7224604,54.2426723 C59.2193327,54.172022 59.7919189,54.1369548 60.4386416,54.1369548 C61.0858901,54.1369548 61.5943299,54.1694436 61.966064,54.2339054 C62.3377981,54.2983673 62.6175188,54.4087261 62.8062777,54.564466 C62.9950366,54.7202059 63.1128138,54.9300938 63.1611865,55.1946454 C63.2090335,55.4586812 63.2332199,55.7907889 63.2332199,56.1904525 L63.2332199,62.2008785 Z M75.5218978,63.7520893 C75.7190694,63.7520893 75.8794356,63.7211476 76.0024707,63.6597799 C76.1249799,63.5978965 76.2190965,63.5097126 76.2853461,63.3952283 C76.35107,63.2802283 76.3947106,63.1394436 76.4157422,62.9723584 C76.4362481,62.8047575 76.4472897,62.6149817 76.4472897,62.4035467 C76.4472897,62.2215063 76.4441349,61.9894436 76.4378255,61.7073584 C76.4320418,61.4252732 76.4262581,61.1493763 76.4204744,60.8791521 C76.4083812,60.5614839 76.3989169,60.2329862 76.3931332,59.8921117 C76.3090067,59.8802507 76.2301381,59.8699368 76.15495,59.86117 C76.0802877,59.8524032 76.006677,59.847762 75.9346436,59.847762 C75.629685,59.847762 75.3736248,59.9080983 75.1664632,60.0287709 C74.9603532,60.1489279 74.7936775,60.3165288 74.6680135,60.5305422 C74.5423495,60.7455871 74.4540167,60.9982776 74.403015,61.288614 C74.3514875,61.5799817 74.3267753,61.8955871 74.3267753,62.2364615 C74.3267753,62.4417081 74.3383427,62.6371566 74.3625291,62.8222911 C74.3861897,63.0074256 74.4398203,63.1693539 74.5244726,63.3070445 C74.6080734,63.4452507 74.7290053,63.5540624 74.8883199,63.6329637 C75.0471087,63.7123808 75.2579508,63.7520893 75.5218978,63.7520893 Z M79.8523111,65.5585691 C79.5473524,65.5585691 79.2429195,65.5425826 78.9405898,65.5106095 C78.6382601,65.4781207 78.3506525,65.4121117 78.077767,65.3120669 C77.8054074,65.2125377 77.555131,65.0681431 77.3279893,64.8804301 C77.0997961,64.6922014 76.9052535,64.442605 76.7438357,64.1311252 C76.6239554,64.4075377 76.4309902,64.6483673 76.1644142,64.853614 C75.8973125,65.0593763 75.5949828,65.2316185 75.2563735,65.369309 C74.91829,65.5075153 74.5618038,65.6101386 74.1874407,65.6776947 C73.8125519,65.7452507 73.4544883,65.7792866 73.1137759,65.7792866 C72.5085906,65.7792866 71.9780677,65.7086364 71.5232586,65.5678516 C71.067398,65.4265512 70.6840965,65.2254301 70.3728283,64.9639727 C70.0610343,64.7025153 69.8275832,64.3894884 69.6719491,64.0254077 C69.5157893,63.661327 69.438498,63.2528965 69.438498,62.8001162 C69.438498,62.2658561 69.5299856,61.7589279 69.712435,61.2803628 C69.8948844,60.8012821 70.2066784,60.3825377 70.6472911,60.0241297 C71.0868522,59.6657216 71.6762638,59.3820893 72.4123709,59.1737485 C73.1495296,58.9654077 74.0717667,58.8607216 75.1801338,58.8607216 L76.4110101,58.8607216 C76.4110101,58.2083673 76.3884011,57.6684346 76.3437089,57.2393763 C76.2990167,56.810318 76.2285607,56.4694436 76.1328668,56.216753 C76.0366471,55.9640624 75.9172925,55.7882104 75.7737516,55.6881655 C75.629685,55.5881207 75.4556482,55.5380983 75.2516414,55.5380983 C75.0244997,55.5380983 74.8341634,55.60617 74.6811583,55.7407664 C74.528679,55.8763942 74.4056439,56.071327 74.3131047,56.3271117 C74.2200398,56.5823808 74.1537901,56.8912821 74.1154074,57.2522687 C74.0764989,57.6137709 74.0570446,58.0237485 74.0570446,58.4816857 C73.7994071,58.4816857 73.528099,58.4775602 73.2436462,58.4682776 C72.9591934,58.4600265 72.6778953,58.4378516 72.3992261,58.4022687 C72.120557,58.3672014 71.85661,58.3130534 71.6084367,58.239309 C71.3597377,58.1660803 71.1394313,58.0665512 70.9480435,57.9396902 C70.7561298,57.8133449 70.6036505,57.6534794 70.4900797,57.4595781 C70.375983,57.2656767 70.3186718,57.0305198 70.3186718,56.7546229 C70.3186718,56.3668202 70.4222526,55.9996454 70.6288884,55.6525826 C70.8355242,55.3065512 71.1525761,55.0022911 71.5816214,54.7408337 C72.0096151,54.4793763 72.5532828,54.2705198 73.2120988,54.1147799 C73.8709147,53.9595557 74.6559204,53.88117 75.5665901,53.88117 C76.6271101,53.88117 77.5404088,53.9868875 78.3070118,54.1988382 C79.0741406,54.4102732 79.7045638,54.7274256 80.1988072,55.1502956 C80.6930506,55.5736812 81.0579494,56.1063942 81.2945553,56.7499817 C81.531687,57.3930534 81.6494641,58.1469996 81.6494641,59.0107889 L81.6494641,62.1302283 C81.6494641,62.3834346 81.6841663,62.5799144 81.7535707,62.7206992 C81.8219235,62.8619996 81.90605,62.9692642 82.0048987,63.0430086 C82.1037474,63.1162373 82.2131119,63.1678068 82.3324664,63.1966857 C82.4528725,63.2260803 82.562237,63.2575377 82.6605599,63.2895108 C82.7599343,63.3219996 82.8435351,63.3658337 82.9124137,63.4215288 C82.9812923,63.4777395 83.0154687,63.5700489 83.0154687,63.6989727 C83.0154687,64.2868651 82.7473153,64.7432552 82.2115345,65.0696902 C81.6752278,65.3956095 80.8891706,65.5585691 79.8523111,65.5585691 Z M94.4955329,62.1657081 C94.4955329,62.4065377 94.528132,62.5947664 94.5943816,62.7298785 C94.6601054,62.8649907 94.7426546,62.9665826 94.8415033,63.0336229 C94.940352,63.101179 95.0465617,63.1486229 95.1606583,63.1749234 C95.2737033,63.2012238 95.3809647,63.2295871 95.4792876,63.258466 C95.578662,63.2878606 95.6606854,63.3306633 95.7264092,63.3863584 C95.7926589,63.4425691 95.8252579,63.5348785 95.8252579,63.6638023 C95.8252579,64.3336902 95.4714007,64.8174122 94.7652636,65.1134211 C94.058075,65.4104615 93.0369892,65.5589817 91.7009547,65.5589817 C91.0537062,65.5589817 90.4816458,65.5233987 89.9847734,65.4532642 C89.4873753,65.382614 89.06832,65.2696767 88.726556,65.1134211 C88.3853178,64.9581969 88.1261029,64.7612014 87.9494372,64.523466 C87.7727714,64.2852149 87.6844386,63.9990041 87.6844386,63.6638023 C87.6844386,63.5348785 87.7170376,63.4425691 87.7827615,63.3863584 C87.8490111,63.3306633 87.9299829,63.2878606 88.0256768,63.258466 C88.1213708,63.2295871 88.2265289,63.2027709 88.3406255,63.1790489 C88.4541964,63.1558427 88.5588287,63.1104615 88.6550485,63.0429054 C88.7502166,62.9753494 88.8317142,62.8783987 88.897438,62.7515377 C88.9636877,62.6257081 88.9962867,62.4421207 88.9962867,62.2007754 L88.9962867,57.4945422 C88.9962867,57.259901 88.9636877,57.0778606 88.897438,56.9484211 C88.8317142,56.8189817 88.7502166,56.7204839 88.6550485,56.6529279 C88.5588287,56.5858875 88.4541964,56.5399907 88.3406255,56.5162687 C88.2265289,56.4930624 88.1213708,56.466762 88.0256768,56.4373673 C87.9299829,56.4079727 87.8490111,56.36517 87.7827615,56.309475 C87.7170376,56.2537799 87.6844386,56.1609548 87.6844386,56.0315153 C87.6844386,55.6968292 87.7727714,55.4106185 87.9494372,55.1723673 C88.1261029,54.9346319 88.3853178,54.7376364 88.726556,54.5818965 C89.06832,54.4266723 89.4873753,54.3132194 89.9847734,54.2425691 C90.4816458,54.1724346 91.0537062,54.1368516 91.7009547,54.1368516 C92.288263,54.1368516 92.7551653,54.185327 93.102713,54.2822776 C93.4502608,54.3792283 93.7194657,54.4864929 93.9119051,54.6040714 C94.133263,54.7448561 94.2857424,54.9011117 94.3698689,55.0712911 C94.6811371,54.8536678 95.0528712,54.6566723 95.4840197,54.4808202 C95.855228,54.3281745 96.3089855,54.1899682 96.8452921,54.0662014 C97.381073,53.9429503 98.009393,53.8815826 98.728149,53.8815826 C99.386965,53.8815826 99.9542933,53.962031 100.43066,54.1239593 C100.9065,54.2853718 101.311359,54.5024794 101.643659,54.7757978 C101.976485,55.0491162 102.244112,55.3662687 102.447593,55.7277709 C102.6516,56.0887575 102.808812,56.466762 102.919228,56.8602373 C103.03017,57.2542283 103.105358,57.6523449 103.144266,58.0545871 C103.182649,58.4568292 103.202629,58.8405063 103.202629,59.2045871 L103.202629,62.1218741 C103.202629,62.3683763 103.235228,62.5612463 103.301478,62.6989368 C103.367201,62.8371431 103.450802,62.9428606 103.553331,63.0160893 C103.654809,63.0898337 103.764174,63.1393404 103.881425,63.1661566 C103.997625,63.192457 104.106989,63.2218516 104.208993,63.2543404 C104.310996,63.2863135 104.394597,63.3306633 104.460321,63.3863584 C104.52657,63.4425691 104.559695,63.5348785 104.559695,63.6638023 C104.559695,64.3336902 104.207415,64.8174122 103.503907,65.1134211 C102.799873,65.4104615 101.779839,65.5589817 100.443805,65.5589817 C99.7970818,65.5589817 99.2250214,65.5233987 98.728149,65.4532642 C98.2307509,65.382614 97.8111699,65.2696767 97.4699316,65.1134211 C97.1281676,64.9581969 96.8694785,64.7612014 96.6928128,64.523466 C96.5156213,64.2852149 96.4278142,63.9990041 96.4278142,63.6638023 C96.4278142,63.5348785 96.4598874,63.4425691 96.5261371,63.3863584 C96.5918609,63.3306633 96.6754617,63.2878606 96.7779909,63.258466 C96.8794685,63.2295871 96.9872556,63.2027709 97.1013522,63.1790489 C97.2149231,63.1558427 97.3227102,63.1104615 97.4247136,63.0429054 C97.526717,62.9753494 97.6103178,62.8783987 97.6765674,62.7515377 C97.7422913,62.6257081 97.7748903,62.4421207 97.7748903,62.2007754 L97.7748903,58.4377485 C97.7748903,58.0736678 97.7470234,57.7492956 97.6897122,57.4636005 C97.6329268,57.1789368 97.5372328,56.9381072 97.4021046,56.7411117 C97.2675021,56.5446319 97.0892591,56.3945646 96.8679011,56.2919413 C96.6460174,56.189318 96.3699772,56.1377485 96.0408322,56.1377485 C95.8310416,56.1377485 95.6333443,56.1712687 95.4482659,56.2388247 C95.2621359,56.3063808 95.1001924,56.400753 94.962961,56.5209099 C94.824678,56.6415826 94.7158393,56.7854615 94.6348675,56.9525467 C94.5538957,57.1201476 94.5134098,57.3006409 94.5134098,57.4945422 L94.4955329,62.1657081 Z M115.275575,63.7520893 C115.472747,63.7520893 115.633113,63.7211476 115.756148,63.6597799 C115.878657,63.5978965 115.972774,63.5097126 116.039023,63.3952283 C116.104747,63.2802283 116.148388,63.1394436 116.169419,62.9723584 C116.189925,62.8047575 116.200967,62.6149817 116.200967,62.4035467 C116.200967,62.2215063 116.197812,61.9894436 116.191503,61.7073584 C116.185719,61.4252732 116.179935,61.1493763 116.174151,60.8791521 C116.162058,60.5614839 116.152594,60.2329862 116.14681,59.8921117 C116.062684,59.8802507 115.983815,59.8699368 115.908627,59.86117 C115.833965,59.8524032 115.760354,59.847762 115.688321,59.847762 C115.383362,59.847762 115.127302,59.9080983 114.92014,60.0287709 C114.71403,60.1489279 114.547355,60.3165288 114.421691,60.5305422 C114.296027,60.7455871 114.207694,60.9982776 114.156692,61.288614 C114.105165,61.5799817 114.080452,61.8955871 114.080452,62.2364615 C114.080452,62.4417081 114.09202,62.6371566 114.116206,62.8222911 C114.139867,63.0074256 114.193497,63.1693539 114.27815,63.3070445 C114.361751,63.4452507 114.482682,63.5540624 114.641997,63.6329637 C114.800786,63.7123808 115.011628,63.7520893 115.275575,63.7520893 Z M119.605988,65.5585691 C119.30103,65.5585691 118.996597,65.5425826 118.694267,65.5106095 C118.391937,65.4781207 118.10433,65.4121117 117.831444,65.3120669 C117.559085,65.2125377 117.308808,65.0681431 117.081666,64.8804301 C116.853473,64.6922014 116.658931,64.442605 116.497513,64.1311252 C116.377633,64.4075377 116.184667,64.6483673 115.918091,64.853614 C115.65099,65.0593763 115.34866,65.2316185 115.010051,65.369309 C114.671967,65.5075153 114.315481,65.6101386 113.941118,65.6776947 C113.566229,65.7452507 113.208165,65.7792866 112.867453,65.7792866 C112.262268,65.7792866 111.731745,65.7086364 111.276936,65.5678516 C110.821075,65.4265512 110.437774,65.2254301 110.126505,64.9639727 C109.814711,64.7025153 109.58126,64.3894884 109.425626,64.0254077 C109.269466,63.661327 109.192175,63.2528965 109.192175,62.8001162 C109.192175,62.2658561 109.283663,61.7589279 109.466112,61.2803628 C109.648562,60.8012821 109.960356,60.3825377 110.400968,60.0241297 C110.840529,59.6657216 111.429941,59.3820893 112.166048,59.1737485 C112.903207,58.9654077 113.825444,58.8607216 114.933811,58.8607216 L116.164687,58.8607216 C116.164687,58.2083673 116.142078,57.6684346 116.097386,57.2393763 C116.052694,56.810318 115.982238,56.4694436 115.886544,56.216753 C115.790324,55.9640624 115.67097,55.7882104 115.527429,55.6881655 C115.383362,55.5881207 115.209325,55.5380983 115.005318,55.5380983 C114.778177,55.5380983 114.587841,55.60617 114.434835,55.7407664 C114.282356,55.8763942 114.159321,56.071327 114.066782,56.3271117 C113.973717,56.5823808 113.907467,56.8912821 113.869085,57.2522687 C113.830176,57.6137709 113.810722,58.0237485 113.810722,58.4816857 C113.553084,58.4816857 113.281776,58.4775602 112.997323,58.4682776 C112.71287,58.4600265 112.431572,58.4378516 112.152903,58.4022687 C111.874234,58.3672014 111.610287,58.3130534 111.362114,58.239309 C111.113415,58.1660803 110.893108,58.0665512 110.701721,57.9396902 C110.509807,57.8133449 110.357328,57.6534794 110.243757,57.4595781 C110.12966,57.2656767 110.072349,57.0305198 110.072349,56.7546229 C110.072349,56.3668202 110.17593,55.9996454 110.382566,55.6525826 C110.589201,55.3065512 110.906253,55.0022911 111.335299,54.7408337 C111.763292,54.4793763 112.30696,54.2705198 112.965776,54.1147799 C113.624592,53.9595557 114.409597,53.88117 115.320267,53.88117 C116.380787,53.88117 117.294086,53.9868875 118.060689,54.1988382 C118.827818,54.4102732 119.458241,54.7274256 119.952484,55.1502956 C120.446728,55.5736812 120.811627,56.1063942 121.048232,56.7499817 C121.285364,57.3930534 121.403141,58.1469996 121.403141,59.0107889 L121.403141,62.1302283 C121.403141,62.3834346 121.437843,62.5799144 121.507248,62.7206992 C121.575601,62.8619996 121.659727,62.9692642 121.758576,63.0430086 C121.857424,63.1162373 121.966789,63.1678068 122.086143,63.1966857 C122.20655,63.2260803 122.315914,63.2575377 122.414237,63.2895108 C122.513611,63.3219996 122.597212,63.3658337 122.666091,63.4215288 C122.734969,63.4777395 122.769146,63.5700489 122.769146,63.6989727 C122.769146,64.2868651 122.500992,64.7432552 121.965212,65.0696902 C121.428905,65.3956095 120.642848,65.5585691 119.605988,65.5585691 Z M56.4558287,31.9481947 L56.4894793,30.0138225 L69.2083594,24.8589346 L69.2083594,28.0273651 L56.0851462,33.3457283 C56.0867236,33.2910646 56.0893525,33.2358853 56.0909299,33.1807059 C56.0967136,32.9728808 56.1072294,32.7660871 56.0262576,32.5644503 C56.0068034,32.5154593 56.0330929,32.4257283 56.0698983,32.3798315 C56.1876754,32.2328584 56.3207005,32.0972306 56.4558287,31.9481947 C56.4568803,31.9492261 56.4579319,31.9502575 56.4589835,31.9507732 C56.4610866,31.9471633 56.4631898,31.9430377 56.4658188,31.9389122 L56.4558287,31.9481947 Z M56.5143492,28.6175781 L56.5706089,25.4269727 L69.2085171,20.3050893 L69.2085171,23.4730041 L56.5143492,28.6175781 Z M56.0306743,35.03004 C56.0354064,34.9372149 56.036458,34.8438741 56.0396127,34.7505333 L69.2080439,29.413605 L69.2080439,32.5815198 L54.3192251,38.6156678 C54.3328957,38.5888516 54.3386794,38.5604884 54.3534015,38.5336723 C54.3860006,38.474883 54.4038775,38.4078427 54.432796,38.346475 C54.5137677,38.17217 54.5237578,38.0019907 54.4222801,37.8307799 C54.3933616,37.7817889 54.3786395,37.7250624 54.3570821,37.6719458 C54.3718042,37.6642104 54.3828458,37.6538965 54.3875779,37.656475 C54.5847495,37.7621924 54.7225067,37.6430669 54.8460675,37.5218785 C55.0679513,37.3042552 55.2803708,37.0768337 55.4938418,36.8504436 C55.5322246,36.8097037 55.5837521,36.7705108 55.5164508,36.6921252 C55.4891097,36.6591207 55.5280182,36.5549503 55.5579883,36.4930669 C55.5795457,36.4487171 55.6305475,36.3992104 55.6757655,36.3904436 C55.9518056,36.3388741 55.9770436,36.1831341 55.9565378,35.926318 C55.9323514,35.6318561 56.0170037,35.3301745 56.0306743,35.03004 Z M56.5954788,24.0307283 L56.6517384,20.8401229 L66.7106426,16.7635534 C67.2511556,16.7506611 67.7911428,16.7377687 68.33113,16.7228135 C68.5109504,16.7176566 68.6902451,16.694966 68.8705913,16.6929032 C69.0735466,16.6908404 69.1692405,16.77954 69.1729211,16.9827238 C69.1766016,17.1812664 69.1497863,17.3803247 69.1539926,17.5788673 C69.1634568,18.027522 69.1792306,18.4766924 69.1923753,18.9253472 L56.5954788,24.0307283 Z M69.518944,33.8420333 C69.6782586,33.9415624 69.6950839,34.109679 69.5394498,34.255105 C69.508954,34.2834682 69.5031703,34.3474144 69.5031703,34.3948584 C69.5026445,34.4464279 69.5299856,34.4979974 69.5305114,34.5500826 C69.5320888,34.6480646 69.486345,34.7078853 69.3780321,34.6960243 C69.325453,34.6903516 69.2718223,34.6723023 69.219769,34.6753965 C69.1251267,34.6815848 69.0304843,34.6939615 68.9384709,34.7125265 C68.8522412,34.7295445 68.7675889,34.752235 68.6866171,34.7816297 C68.5756753,34.8213382 68.4594755,34.8564054 68.3622042,34.9182889 C68.2191891,35.0095669 68.0966798,35.1317866 67.9541905,35.2251274 C67.7370389,35.3664279 67.5814048,35.3427059 67.3884396,35.168401 C67.3216642,35.1080646 67.2459503,35.0152395 67.1718138,35.0131767 C66.9793743,35.0069884 66.7837801,35.0327732 66.5944954,35.0699032 C66.5571643,35.0776386 66.5156268,35.2003741 66.5240395,35.2632889 C66.5445453,35.4164503 66.5923923,35.5660019 66.630775,35.7160691 C66.7401395,36.1415176 66.5582159,36.5535579 66.1475732,36.7031095 C65.864172,36.8067642 65.7038058,36.9676611 65.6496493,37.2626386 C65.6249372,37.3967194 65.5492233,37.5256431 65.4771899,37.6452844 C65.3562581,37.8494996 65.1317454,37.9180871 64.9356254,37.80154 C64.8120646,37.7283113 64.7763108,37.7783337 64.7321443,37.8773472 C64.6869263,37.9784234 64.6222541,38.0707328 64.5801908,38.1723247 C64.5328696,38.2878404 64.4855485,38.4064503 64.4650426,38.5281543 C64.4319178,38.7189615 64.421402,38.9128628 64.4014219,39.1057328 C64.3803903,39.3022126 64.2626131,39.4022575 64.077009,39.4507328 C64.0149657,39.467235 63.9466129,39.5105534 63.9092817,39.5616072 C63.7936077,39.7183785 63.629561,39.7292081 63.5102065,39.5739839 C63.4781332,39.5316969 63.4571016,39.4749705 63.4160899,39.4455759 C63.3713977,39.4141185 63.3056738,39.3842081 63.2562495,39.3924593 C62.963384,39.441966 62.5853404,39.2026835 62.5190908,38.9144099 C62.5012139,38.8344772 62.4854402,38.7535131 62.4665117,38.6617194 C62.3087744,38.7189615 62.1568209,38.7725938 62.0069705,38.831383 C61.9885678,38.8391185 61.9848873,38.8803741 61.9701652,38.9035803 C61.9023381,39.0113606 61.8492333,39.1351274 61.7609004,39.2222799 C61.6531133,39.3285131 61.5847605,39.4290736 61.5963279,39.5884234 C61.6163079,39.8658673 61.6089469,39.8658673 61.3555157,39.9829301 C61.3355356,39.9922126 61.314504,40.0123247 61.3055656,40.0324368 C61.1630762,40.3408225 60.8865103,40.4372575 60.5820774,40.4759346 C60.3512552,40.5053292 60.1162267,40.5027507 59.8848787,40.5300826 C59.5956938,40.5651498 59.308612,40.6187821 59.0199528,40.659522 C58.8906083,40.6780871 58.7596864,40.6920108 58.6287645,40.6940736 C58.5751338,40.695105 58.4973168,40.6770557 58.4694498,40.6394099 C58.3295895,40.4496341 58.1166442,40.4491185 57.9189469,40.4176611 C57.5882244,40.3650602 57.2559246,40.3222575 56.923099,40.2810019 C56.8121572,40.2675938 56.6985864,40.2639839 56.5871187,40.272235 C56.5429523,40.2758449 56.48827,40.314522 56.4614547,40.3531992 C56.3184396,40.5589615 56.0113777,40.5971229 55.882559,40.3227732 C55.8688884,40.2928628 55.7931746,40.2686252 55.7516371,40.2768763 C55.5229181,40.3201947 55.2941991,40.3681543 55.0696864,40.429522 C55.0171073,40.4439615 54.9608477,40.5079077 54.9392903,40.5620557 C54.8262452,40.8492978 54.6033099,40.8972575 54.3914162,40.671383 C54.2284211,40.4975938 54.1232629,40.307818 54.0680549,40.1041185 L69.518944,33.8420333 Z M63.1627113,16.814762 L56.6791847,19.442744 C56.6949584,18.7083942 56.7107321,17.9848741 56.7265058,17.2623853 C56.8158903,17.2489772 56.8947589,17.2360848 56.9752049,17.2237081 C57.2643899,17.5625198 57.6140408,17.7002104 58.0735819,17.6419368 C58.664045,17.5661297 59.1735363,17.3335512 59.6435933,16.9895826 C59.8486518,16.8395153 60.0857834,16.7796947 60.3308019,16.7817575 C60.7640536,16.7848516 61.1973052,16.8255915 61.6305569,16.8261072 C62.1416255,16.8261072 62.6521684,16.8188875 63.1627113,16.814762 Z" id="Combined-Shape"></path>
            </g>
        </g>
    </g>
</svg>