<?xml version="1.0" encoding="UTF-8"?>
<svg width="160px" height="93px" viewBox="0 0 160 93" version="1.1" xmlns="http://www.w3.org/2000/svg" xmlns:xlink="http://www.w3.org/1999/xlink">
    <!-- Generator: Sketch 52.5 (67469) - http://www.bohemiancoding.com/sketch -->
    <title>wordmark</title>
    <desc>Created with Sketch.</desc>
    <g id="00.-Symbols" stroke="none" stroke-width="1" fill="none" fill-rule="evenodd">
        <g id="Logo-/-Wordmark" fill="#575552">
            <g id="wordmark">
                <path d="M152.717296,47.3504789 L152.717296,49.1454085 C152.717296,49.1454085 154.72969,49.1166761 154.72969,51.6056901 L154.72969,61.279493 C154.72969,61.5487887 154.375324,61.6479437 154.235042,61.4180845 L146.833352,49.3724507 C145.755606,47.6186479 145.755606,47.6186479 143.868282,47.6901972 L138.76631,47.8828732 L138.76631,49.6783662 C138.76631,49.6783662 140.698704,50.0642817 140.698704,52.4586479 L140.708845,65.4738592 C140.708845,70.2006197 138.691944,70.2969577 138.691944,70.2969577 L138.691944,72.088507 L140.708845,72.0118873 L140.708845,72.0107606 L145.871662,71.8163944 L145.871662,70.0028732 C145.871662,70.0028732 143.864901,70.260338 143.864901,65.5335775 L143.841239,56.1673803 L150.158423,66.4209014 C150.158423,66.4209014 153.310535,71.5414648 157.902085,71.3673803 C157.902085,71.3673803 157.911662,51.8654085 157.911662,51.4761127 C157.911662,48.9392113 159.924056,48.8631549 159.924056,48.8631549 L159.924056,47.0682254 L152.717296,47.3504789 Z" id="Fill-1"></path>
                <path d="M122.602873,64.4898028 L125.289634,52.0768451 C125.299211,52.0171268 125.383718,52.0131831 125.399493,52.0717746 L128.366817,64.2700845 C128.366817,64.2700845 124.015831,64.4283944 122.602873,64.4898028 M133.897521,66.2188169 L133.366817,64.0937465 C133.366817,64.0937465 130.540338,52.4543099 130.393859,51.8357183 C130.056958,50.4081127 130.219211,49.9686761 131.108225,49.9292394 L131.108225,48.1348732 L121.022028,48.5106479 L121.022028,50.3050141 C121.022028,50.3050141 122.919493,50.2334648 122.469915,52.3912113 L119.498085,65.5619155 C119.388789,66.0402254 118.197803,71.0238873 115.926817,71.1095211 L115.926817,72.9540282 L123.734704,72.6588169 L123.734704,70.8255775 C121.452451,70.9112113 122.087944,66.6875493 122.087944,66.6875493 L128.895268,66.4176901 C128.895831,66.420507 130.152169,70.5827606 128.410197,70.6492394 L128.410197,72.4886761 L137.087944,72.1354366 L137.087944,70.3027606 C136.065408,70.3416338 134.740338,69.8098028 133.897521,66.2188169" id="Fill-4"></path>
                <path d="M59.2176338,50.9029296 L59.2176338,52.6978592 C59.2176338,52.6978592 61.2300282,52.6691268 61.2300282,55.1581408 L61.2300282,64.8319437 C61.2300282,65.1012394 60.8762254,65.2003944 60.7359437,64.9705352 L53.3342535,52.9249014 C52.256507,51.1710986 52.256507,51.1710986 50.3691831,51.2426479 L45.2672113,51.4353239 L45.2672113,53.2313803 C45.2672113,53.2313803 47.1990423,53.6167324 47.1990423,56.0110986 L47.2091831,69.0263099 C47.2091831,73.7530704 45.1922817,73.8499718 45.1922817,73.8499718 L45.1922817,75.6409577 L47.2091831,75.564338 L47.2091831,75.5632113 L52.3725634,75.3694085 L52.3725634,73.5553239 C52.3725634,73.5553239 50.3652394,73.8133521 50.3652394,69.0865915 L50.3421408,59.7203944 L56.6587606,69.9733521 C56.6587606,69.9733521 59.8114366,75.0939155 64.4029859,74.919831 C64.4029859,74.919831 64.4125634,55.4178592 64.4125634,55.0291268 C64.4125634,52.491662 66.4249577,52.4156056 66.4249577,52.4156056 L66.4249577,50.6212394 L59.2176338,50.9029296 Z" id="Fill-6"></path>
                <path d="M76.4046197,72.6255211 L76.4046197,52.0418592 C78.2727887,51.8711549 81.2868732,51.6869296 81.6389859,61.3139718 C81.9049014,68.5714366 80.5268732,72.4317183 76.4046197,72.6255211 M87.8029296,60.4424225 C87.2665915,54.8159437 83.4744789,49.9731268 78.8153239,50.1427042 C74.1567324,50.3134085 68.6615211,50.5415775 68.6615211,50.5415775 L68.6615211,52.3359437 C68.6615211,52.3359437 70.6739155,52.3077746 70.6739155,54.7967887 L70.6739155,68.115662 C70.6739155,72.8424225 68.6575775,72.9393239 68.6575775,72.9393239 L68.6575775,74.7303099 C68.6575775,74.7303099 78.6288451,74.3455211 80.2992676,74.2818592 C85.2987042,74.0925634 88.4541972,67.2666479 87.8029296,60.4424225" id="Fill-8"></path>
                <path d="M40.3950423,69.2909296 L40.3950423,66.4148732 C40.4339155,65.6582535 40.6423662,64.4075493 41.5775775,64.1021972 C41.5775775,64.1021972 41.3905352,63.0131831 40.3950423,63.1252958 L40.3950423,55.9675493 C40.3950423,53.4300845 42.4074366,53.3540282 42.4074366,53.3540282 L42.4074366,51.5590986 L32.652507,51.9281127 L32.652507,53.7224789 C32.652507,53.7224789 34.6649014,53.6943099 34.6649014,56.1833239 L34.6649014,59.9151549 C34.6649014,59.9151549 32.8688451,59.1055775 32.5336338,61.0593803 C32.5336338,61.0593803 34.6649014,60.6554366 34.6649014,65.0790986 L34.6649014,69.5021972 C34.6649014,74.2289577 32.6485634,74.3258592 32.6485634,74.3258592 L32.6485634,76.1174085 L42.4113803,75.747831 L42.4113803,73.9568451 C42.4113803,73.9568451 40.3950423,74.0176901 40.3950423,69.2909296" id="Fill-10"></path>
                <path d="M100.678366,64.7583099 L105.424282,55.7121127 L105.429915,66.8259155 C105.429915,71.5526761 103.413014,71.6495775 103.413014,71.6495775 L103.413014,73.4411268 L113.196676,73.0597183 L113.196676,71.2687324 C113.196676,71.2687324 111.180338,71.3295775 111.180338,66.6028169 L111.180338,53.2788732 C111.180338,50.7419718 113.192732,50.6653521 113.192732,50.6653521 L113.192732,48.8709859 L111.058648,48.9492958 C105.811324,49.1391549 105.811324,49.1391549 104.848507,50.9707042 L102.074423,56.2140845 C101.955549,56.4315493 101.647944,56.4456338 101.510479,56.2388732 L98.9087887,51.1960563 C97.9870986,49.8135211 97.5347042,49.4529577 95.2828732,49.5385915 L89.8282254,49.771831 L89.8282254,51.5661972 C89.8282254,51.5661972 91.8406197,51.5053521 91.8406197,53.9943662 L91.8406197,67.3132394 C91.8406197,72.04 89.8242817,72.1380282 89.8242817,72.1380282 L89.8242817,73.9504225 L97.1780845,73.6766197 L97.1780845,71.8653521 C97.1780845,71.8653521 95.0130141,71.9504225 95.0231549,67.4433803 L95.0366761,55.6360563 L99.7775211,64.7566197 C99.9668169,65.1211268 100.48738,65.1216901 100.678366,64.7583099" id="Fill-12"></path>
                <path d="M70.5661408,81.6770141 C70.2636056,79.7153239 69.2072676,78.2787042 68.6602254,77.6741972 C68.6602254,77.6741972 66.5926197,83.4133521 59.2709296,83.7418028 C59.2709296,83.7418028 59.716,83.3029296 60.0534648,82.4572958 C60.2765634,81.8984225 60.339662,81.2815211 60.2483944,80.5710986 C60.2021972,80.2139155 60.0850141,79.8341972 59.9013521,79.4584225 C59.7672676,79.1818028 59.5779718,78.9018028 59.4179718,78.6899718 C59.0269859,78.1727887 58.3481127,77.776169 58.3481127,77.776169 C58.2450141,78.1547606 58.0472676,78.7074366 57.647831,79.279831 C57.4450141,79.5710986 56.9909296,80.1530704 55.9757183,80.7767324 C55.5717746,81.0246197 54.1830423,81.8296901 51.8912113,82.0910986 C50.3430423,82.268 49.1920563,82.1040563 47.7182535,81.8950423 C46.4861408,81.719831 46.4179718,81.6263099 43.504169,81.0094085 C42.040507,80.7001127 41.0957183,80.5001127 39.8190986,80.2939155 C37.8934648,79.9829296 36.400507,79.8482817 35.4534648,79.7649014 C34.8664225,79.7136338 33.431493,79.5953239 31.5644507,79.536169 C30.8292394,79.512507 29.2517746,79.4736338 27.2264225,79.5288451 C25.487831,79.5756056 23.3509296,79.6933521 20.9052958,79.9637746 L20.9052958,76.7175775 C20.0929014,76.9446197 19.2602254,77.1023662 18.412338,77.1823662 C18.0190986,77.2201127 17.6016338,77.2381408 17.1779718,77.2381408 C16.3430423,77.2381408 15.4838873,77.164338 14.7120563,77.0308169 C14.0929014,79.8015211 12.8106479,82.5232113 10.2055775,83.6065915 L10.0213521,84.9575775 L9.75938028,86.8820845 C11.8990986,85.5496901 15.320507,82.8978592 22.3576901,82.5091268 C23.3633239,82.4527887 24.591493,82.4601127 25.7875493,82.5288451 C26.3526197,82.5609577 27.8399437,82.7254648 29.4416338,83.0747606 C30.9312113,83.399831 32.5971268,83.9220845 34.3802254,84.7553239 C35.3019155,85.1868732 36.3407887,85.7547606 37.2264225,86.3175775 C39.5295211,87.7801127 40.8134648,89.0567324 41.8799437,90.1310986 C43.2765634,91.5395493 44.2162817,92.9649014 44.2162817,92.9649014 C44.2162817,92.9649014 44.5272676,92.6330704 44.7199437,92.2787042 C44.9610704,91.8364507 45.0968451,91.3350423 45.1362817,91.1108169 C45.207831,90.7074366 45.2202254,90.1947606 45.1768451,89.919831 C45.1345915,89.6567324 45.0827606,89.3818028 45.0112113,89.1665915 C44.864169,88.724338 44.6838873,88.4482817 44.6838873,88.4482817 C50.7875493,91.7232113 59.1447324,95.2601127 66.6455775,90.0826479 C70.3954366,87.4939155 70.9469859,84.1468732 70.5661408,81.6770141" id="Fill-14"></path>
                <path d="M15.1744225,49.4499155 C16.0932958,49.3209014 17.4307606,49.2172394 18.5456901,49.4623099 C19.3890704,49.6482254 20.1924507,50.0099155 20.9051268,50.5011831 L20.9051268,42.9287887 L20.9051268,28.7862535 C20.9051268,23.1783662 23.2454085,20.1175211 24.4347042,18.9242817 C24.6425915,18.715831 24.4701972,18.3631549 24.1772394,18.3930141 C21.9045634,18.6200563 16.1338592,19.6363944 14.2251268,24.1451268 C14.2251268,24.1451268 15.1744225,29.9282254 15.1744225,43.4437183 L15.1744225,49.4499155 Z" id="Fill-16"></path>
                <path d="M20.3207324,60.1316056 C20.2170704,59.7141408 19.9162254,59.0566761 19.4091831,58.5693521 C19.0041127,58.179493 18.1421408,57.544 16.8643944,57.6583662 C16.6176338,57.6809014 16.3291831,57.7434366 16.0311549,57.8392113 C15.776507,57.9209014 15.4689014,58.0809014 15.1742535,58.3017465 L15.1742535,60.3107606 C15.2643944,60.3823099 15.3489014,60.4578028 15.4221408,60.5383662 C15.8559437,61.0132958 16.063831,61.5851268 16.0384789,62.2352676 L16.0148169,62.840338 L15.4345352,63.0127324 C15.4334085,63.0132958 15.3325634,63.0448451 15.1742535,63.1079437 L15.1742535,73.2538592 C16.7629859,73.8696338 18.4334085,73.5614648 19.0649577,73.4454085 C19.680169,73.3310423 20.3010141,73.144 20.9049577,72.9062535 L20.9049577,60.7800563 C20.6187606,60.668507 20.3967887,60.4318873 20.3207324,60.1316056" id="Fill-18"></path>
                <path d="M148.196,40.8751549 L147.002197,40.9089577 C147.002197,40.9089577 146.751493,42.5286761 142.746423,42.6717746 L136.935155,42.8948732 L136.935155,24.8244507 C136.935155,22.2869859 138.947549,22.2109296 138.947549,22.2109296 L138.947549,20.4165634 L131.205014,20.7095211 L129.19262,20.7850141 L129.19262,22.5793803 C129.19262,22.5793803 131.205014,22.5512113 131.205014,25.0402254 L131.205014,38.359662 C131.205014,43.0858592 129.188676,43.1827606 129.188676,43.1827606 L129.188676,44.9743099 L148.196,44.2582535 L148.196,40.8751549 Z" id="Fill-20"></path>
                <path d="M117.526423,23.0059718 L121.281915,22.8634366 C125.355718,22.7090704 125.560225,24.3411831 125.560225,24.3411831 L126.754028,24.2961127 L126.754028,20.8611831 L111.795718,21.4341408 C111.795718,21.4341408 109.783324,21.5096338 109.783324,21.5096338 L109.783324,23.3045634 C109.783324,23.3045634 111.795718,23.275831 111.795718,25.7648451 L111.795718,39.0842817 C111.795718,43.8104789 109.77938,43.9079437 109.77938,43.9079437 L109.77938,45.6989296 L126.754028,45.052169 L126.754028,41.668507 L125.560225,41.7023099 C125.560225,41.7023099 125.308394,43.3220282 121.304451,43.4651268 L117.526423,43.6104789 L117.526423,33.3287887 L121.281352,33.1862535 C122.62107,33.1637183 122.988958,34.1017465 122.988958,34.1017465 C123.837408,33.2735775 123.155718,32.7766761 122.988958,32.6735775 C122.973183,32.664 122.97431,32.6442817 122.990648,32.6352676 C123.154028,32.5479437 123.817127,32.1389296 123.883042,31.2690704 C123.988958,29.8730141 122.480789,29.8561127 122.480789,29.8561127 C122.480789,29.8561127 122.849239,31.332169 121.281352,31.3918873 C120.089239,31.4369577 118.528113,31.4961127 117.526423,31.5344225 L117.526423,23.0059718 Z" id="Fill-22"></path>
                <path d="M104.844282,39.3393239 L104.844282,36.4632676 C104.882592,35.7066479 105.091042,34.4559437 106.026254,34.1505915 C106.026254,34.1505915 105.839211,33.0615775 104.844282,33.1731268 L104.844282,26.0153803 C104.844282,23.4784789 106.856113,23.4018592 106.856113,23.4018592 L106.856113,21.607493 L97.1011831,21.976507 L97.1011831,23.7708732 C97.1011831,23.7708732 99.1135775,23.7427042 99.1135775,26.2311549 L99.1135775,29.9635493 C99.1135775,29.9635493 97.3175211,29.1539718 96.9823099,31.1077746 C96.9823099,31.1077746 99.1135775,30.703831 99.1135775,35.1269296 L99.1135775,39.5505915 C99.1135775,44.2773521 97.0972394,44.3742535 97.0972394,44.3742535 L97.0972394,46.1652394 L106.86062,45.7962254 L106.86062,44.0052394 C106.86062,44.0052394 104.844282,44.0660845 104.844282,39.3393239" id="Fill-24"></path>
                <path d="M82.7365634,32.776 L82.7365634,24.3230423 C82.7365634,24.3230423 86.1990986,23.8790986 86.1990986,28.2993803 C86.1990986,33.5129014 82.7365634,32.776 82.7365634,32.776 M95.2886761,45.1438873 C94.9940282,44.9027606 94.7202254,45.2610704 94.016,45.1647324 C93.3258592,45.0700845 92.7771268,44.5647324 92.6188169,44.3095211 C91.6869859,42.804169 91.8667042,41.6830423 92.3489577,38.5585352 C92.439662,37.971493 92.4920563,37.3681127 92.2875493,36.6300845 C92.1945915,36.2943099 92.0509296,35.8329014 91.7669859,35.4593803 C91.4824789,35.0858592 91.171493,34.7095211 90.8819155,34.4621972 C90.4740282,34.1140282 90.0976901,33.9512113 89.7990986,33.8019155 C89.4503662,33.6272676 88.6700845,33.4695211 88.1512113,33.4779718 C88.1444507,33.4779718 87.9286761,33.4864225 87.9067042,33.4779718 C87.8317746,33.4481127 87.8148732,33.3799437 87.9061408,33.3326197 C90.7692394,31.8520563 91.5737465,27.9236056 90.1433239,25.1833239 C88.5467042,22.307831 84.7529014,22.451493 84.7529014,22.451493 L74.9940282,22.8210704 L74.9917746,24.620507 C75.4086761,24.6571268 77.0064225,24.936 77.0064225,27.0757183 L77.0064225,40.5444507 C76.9692394,44.5303662 75.3788169,45.1331831 74.9917746,45.2188169 L74.9917746,47.011493 L77.0064225,46.9399437 L84.7529014,46.6357183 L84.7529014,44.844169 C84.7529014,44.844169 82.7365634,44.9179718 82.7365634,40.1917746 L82.7365634,34.6413521 C83.1157183,34.5590986 85.3540282,34.1055775 86.6171268,35.3957183 C88.1512113,36.8092394 87.7912113,39.6757183 86.8943099,42.0537465 C86.2199437,43.8424789 86.4774085,44.8227606 86.7669859,45.6937465 C86.8357183,45.8993803 87.0289577,46.3179718 87.3168451,46.7421972 C87.5613521,47.1033239 87.8948732,47.4599437 88.1512113,47.6588169 C88.9100845,48.2469859 89.4407887,48.4695211 90.072338,48.6261408 C90.912338,48.8351549 91.7033239,48.7630423 92.2548732,48.6244507 C92.9506479,48.4498028 94.1320563,47.9630423 94.8165634,46.9883944 C95.2965634,46.3055775 95.6238873,45.4171268 95.2886761,45.1438873" id="Fill-26"></path>
                <path d="M63.5557746,45.5772394 L63.5557746,35.2966761 C63.5557746,35.2966761 68.0205634,34.5563944 68.0205634,40.4245634 C68.0205634,45.9789296 63.5557746,45.5772394 63.5557746,45.5772394 Z M63.5557746,24.9924507 C63.5557746,24.9924507 67.3095775,24.2955493 67.3095775,28.4031549 C67.3095775,33.7761127 63.5557746,33.5209014 63.5557746,33.5209014 L63.5557746,24.9924507 Z M72.0752113,38.0470986 C70.568169,35.2234366 67.7,34.4634366 66.5540845,34.3175211 C66.5152113,34.3124507 66.5202817,34.2589296 66.5591549,34.2555493 C72.3540845,33.7693521 72.3090141,27.6549859 70.0678873,25.4149859 C67.6752113,23.0234366 65.396338,23.1169577 63.5557746,23.179493 L55.8126761,23.4831549 L55.8126761,25.2775211 C55.8126761,25.2775211 57.8250704,25.2493521 57.8250704,27.7383662 L57.8250704,28.2848451 L57.8250704,41.0572394 C57.8250704,45.784 55.8087324,45.8809014 55.8087324,45.8809014 L55.8087324,47.6718873 L63.5557746,47.3682254 C73.1653521,46.9963944 73.3653521,40.4634366 72.0752113,38.0470986 Z" id="Fill-28"></path>
                <path d="M39.3315493,40.1497465 L42.0177465,27.7367887 C42.0278873,27.6770704 42.1123944,27.6731268 42.1276056,27.7317183 L45.095493,39.9300282 C45.095493,39.9300282 40.7439437,40.088338 39.3315493,40.1497465 M50.6256338,41.8787606 L50.095493,39.7536901 C50.095493,39.7536901 47.2684507,28.1142535 47.1225352,27.495662 C46.7856338,26.0680563 46.9478873,25.6286197 47.836338,25.5891831 L47.836338,23.7948169 L37.7501408,24.1705915 L37.7501408,25.9649577 C37.7501408,25.9649577 39.648169,25.8934085 39.1980282,28.0511549 L36.2261972,41.2218592 C36.1174648,41.700169 34.9264789,46.683831 32.6549296,46.7694648 L32.6549296,48.6139718 L40.4628169,48.3187606 L40.4628169,46.4855211 C38.1805634,46.5711549 38.8160563,42.347493 38.8160563,42.347493 L45.6239437,42.0776338 C45.624507,42.0804507 46.8808451,46.2427042 45.1383099,46.3091831 L45.1383099,48.1486197 L53.8160563,47.7953803 L53.8160563,45.9627042 C52.7935211,46.0015775 51.4690141,45.4697465 50.6256338,41.8787606" id="Fill-30"></path>
                <path d="M31.0668169,5.28067606 C29.9930141,3.19447887 28.3732958,2.11335211 27.9716056,1.83278873 C26.5687887,0.853070423 25.4178028,0.551661972 24.7231549,0.390535211 C13.628507,-2.18129577 7.55470423,8.5995493 5.58287324,13.5995493 C4.30850704,16.8294085 3.85611268,20.3972958 3.58794366,22.9933521 C3.49611268,23.871662 3.44822535,25.4778592 3.44033803,26.6406761 C3.43470423,27.3956056 3.45667606,27.9646197 3.4611831,28.0254648 C3.46850704,28.1229296 3.51301408,29.2851831 3.51921127,29.3826479 C3.54907042,29.8970141 3.64935211,31.6260282 4.03470423,33.8581408 C4.20315493,34.8378592 4.44709859,35.9494085 4.73047887,37.0395493 C4.73498592,37.0564507 4.58456338,36.9865915 4.19132394,36.9691268 C3.90738028,36.956169 3.54005634,36.9815211 3.31414085,37.0389859 C3.31414085,37.0389859 4.75301408,38.2739155 6.56878873,41.9572958 C6.7811831,42.3888451 7.16315493,43.0558873 7.43808451,43.4541972 C8.12428169,44.448 8.82512676,45.2575775 9.55977465,45.9167324 C10.0938592,46.3956056 10.6561127,46.7933521 11.1913239,47.1353239 C12.0870986,47.7071549 13.2268169,48.2491268 14.3293521,48.579831 L14.3293521,43.4440563 C14.3293521,42.4902535 14.3237183,41.579831 14.3152676,40.7020845 C13.9310423,39.9110986 13.527662,38.9978592 13.1642817,37.7556056 C12.6696338,36.0665915 12.2532958,34.492507 11.9383662,32.5939155 C11.7828732,31.6570141 11.6420282,30.2440563 11.5890704,29.4806761 C11.3670986,26.2896901 11.4583662,24.2671549 11.5772394,22.5409577 C11.7118873,20.6096901 11.9361127,19.059831 12.3220282,17.2913803 C12.9265352,14.5229296 13.7693521,11.5556056 15.9349859,8.45701408 C16.9406197,7.01814085 20.9293521,2.16123944 24.355831,2.9595493 C24.6099155,3.01870423 25.1918873,3.20067606 25.6775211,3.50264789 C26.0978028,3.7651831 26.4454085,4.11842254 26.767662,4.51447887 C27.0668169,4.88180282 27.3011831,5.30039437 27.4544225,5.74884507 C27.6634366,6.36123944 27.7417465,6.84349296 27.7096338,7.46546479 C27.6820282,7.99504225 27.624,8.51222535 27.2572394,9.30433803 L26.4961127,11.1910986 C26.3113239,11.6485634 26.0966761,12.092507 25.8809014,12.5358873 C25.6972394,12.9122254 25.5580845,13.4141972 26.1163944,13.4141972 C27.0093521,13.4141972 31.6701972,10.6260282 31.9220282,8.66884507 C32.0792113,7.44630986 31.5873803,6.29138028 31.0668169,5.28067606" id="Fill-32"></path>
                <path d="M33.0832113,24.2614648 C33.0832113,24.2614648 32.8950423,24.1448451 32.6387042,24.0378028 C32.4302535,23.9499155 32.171662,23.8716056 31.9649014,23.8423099 C31.6865915,23.8034366 31.3727887,23.7656901 30.9440563,23.832169 C30.7609577,23.860338 30.4432113,23.928507 30.1108169,24.0749859 C29.9840563,24.1307606 29.8353239,24.2090704 29.6978592,24.2969577 C29.4956056,24.4270986 29.2758873,24.615831 29.2223662,24.667662 C28.9310986,24.9487887 28.7102535,25.2349859 28.5468732,25.5775211 C28.3891268,25.907662 28.3282817,26.1296338 28.3282817,26.1296338 C28.3282817,26.1296338 28.1970141,25.8907606 27.9902535,25.6552676 C27.8003944,25.4383662 27.592507,25.239493 27.2336338,25.020338 C26.9282817,24.8344225 26.592507,24.7138592 26.2736338,24.6496338 C25.9722254,24.5887887 25.6832113,24.5786479 25.5299718,24.587662 C25.479831,24.5899155 25.1096901,24.6135775 24.7801127,24.7161127 C24.5063099,24.8006197 24.1784225,24.9459718 23.8595493,25.1668169 C23.3677183,25.5070986 23.0201127,26.0755493 23.0201127,26.0755493 C23.0201127,26.0755493 23.5096901,26.0501972 23.8702535,26.1966761 C24.0939155,26.2873803 24.2539155,26.3431549 24.4572958,26.4862535 C24.5795493,26.5724507 24.7265915,26.7042817 24.8753239,26.8456901 C25.2381408,27.1893521 25.5541972,27.9690704 25.7941972,28.6609014 C26.1141972,29.5842817 26.3637746,30.6918873 26.5158873,31.9442817 C26.6567324,33.1031549 26.752507,34.2118873 26.7519437,34.9330141 C26.7508169,37.7189296 26.5299718,39.6445634 26.1406761,41.1623099 C25.9710986,41.8186479 25.7919437,42.3825915 25.5823662,42.8969577 C25.4787042,43.1504789 25.3812394,43.4062535 25.2482817,43.6270986 C25.1051831,43.8642817 24.9147606,44.1916056 24.7401127,44.4034366 C24.5789859,44.599493 24.3547606,44.7887887 24.1564507,44.9549859 C23.9885634,45.0952676 23.8409577,45.2225915 23.7485634,45.2918873 C23.0741972,45.7944225 22.4426479,46.0727324 21.7496901,46.2411831 L21.7496901,48.6400563 C21.8691268,48.6068169 21.9818028,48.5696338 22.0595493,48.5448451 C22.5846197,48.3769577 23.5778592,48.0186479 24.6437746,47.408507 C25.7344789,46.7837183 26.9603944,45.8265352 27.8133521,44.8423099 C28.0713803,45.9910423 28.3491268,48.2378028 28.3491268,53.4907606 C28.3491268,55.8383662 28.3282817,58.2710423 28.3282817,59.820338 C28.2020845,59.7166761 27.9992676,59.5617465 27.6702535,59.460338 C27.4105352,59.380338 27.2195493,59.3814648 26.9891268,59.4051268 C26.5457465,59.4513239 26.072507,59.7386479 25.8268732,60.0862535 C25.8268732,60.0862535 28.6409577,60.7110423 28.2696901,64.4389296 C28.1603944,65.5313239 27.903493,66.4732958 27.5694085,67.3380845 C27.2708169,68.1127324 26.8708169,68.8197746 26.5158873,69.3899155 C25.9418028,70.3116056 24.8544789,71.5797746 23.3665915,72.5763944 C22.1727887,73.3763944 20.7265915,73.9966761 19.228,74.2744225 C18.5446197,74.4011831 16.6567324,74.7549859 14.8223662,74.0265352 C13.2882817,73.4163944 12.3908169,72.3690704 12.016169,71.839493 C11.7294085,71.4327324 11.1851831,70.5538592 10.9603944,69.3425915 C10.6156056,67.4823099 11.1547606,65.9228732 11.7694085,64.9082254 C12.1384225,64.2992113 12.9113803,63.3730141 13.9147606,62.7854085 C14.6178592,62.3730141 15.1941972,62.2023099 15.1941972,62.2023099 C15.2088451,61.820338 15.1158873,61.4563944 14.7975775,61.107662 C14.4437746,60.719493 13.7395493,60.4569577 13.023493,60.8355493 C13.051662,60.3549859 13.0713803,59.7256901 13.6296901,58.7645634 C14.1744789,57.8265352 15.1429296,57.2366761 15.7722254,57.0344225 C16.1372958,56.9172394 16.4860282,56.844 16.7891268,56.8169577 C18.1271549,56.6963944 19.2477183,57.2417465 19.9947606,57.9589296 C20.6539155,58.5932958 21.0127887,59.4124507 21.1406761,59.9251268 C21.1609577,60.0062535 21.2657465,60.0344225 21.3254648,59.9752676 C22.5553239,58.7623099 22.9406761,56.964 22.9406761,56.0800563 C22.9406761,54.707662 22.5727887,53.5724507 21.816169,52.5363944 C21.0403944,51.4513239 20.0646197,50.9470986 19.5784225,50.7290704 C17.8539155,49.9549859 15.6882817,50.1600563 14.2888451,50.4637183 C13.9164507,50.5448451 12.7429296,50.8175211 11.3603944,51.4930141 C10.3372958,51.9932958 9.61842254,52.5099155 9.33898592,52.7172394 C9.20377465,52.8180845 8.81391549,53.112169 8.34123944,53.5409014 C7.82405634,54.0101972 7.45898592,54.4130141 7.29785915,54.5944225 C6.65616901,55.319493 6.2251831,55.9713239 5.98969014,56.347662 C5.6195493,56.9386479 5.26349296,57.627662 4.95870423,58.3837183 C4.86630986,58.6141408 4.65898592,59.1673803 4.48659155,59.7797746 C4.35476056,60.2507606 4.24884507,60.7696338 4.19307042,61.1189296 C4.05222535,61.992169 4.02687324,62.740338 4.0195493,62.9454085 C4.0195493,62.9454085 3.79419718,62.5949859 3.42461972,62.3459718 C3.21898592,62.2068169 2.94292958,62.0699155 2.62743662,62.0006197 C2.32095775,61.9335775 1.97560563,61.9307606 1.67870423,61.9938592 C1.31025352,62.0710423 0.922647887,62.2648451 0.674197183,62.4806197 C0.176732394,62.9116056 -0.000169014085,63.4479437 -0.000169014085,63.4479437 C-0.000169014085,63.4479437 2.68095775,63.8242817 5.59983099,69.5296338 C6.06011268,70.4299155 7.09898592,71.9144225 8.3795493,73.0462535 C8.99701408,73.5910423 9.66349296,74.0879437 10.324338,74.4901972 C10.9609577,74.8783662 11.5953239,75.1775211 12.0392676,75.368507 C12.6837746,75.6456901 13.4302535,75.895831 14.3767324,76.107662 C15.4415211,76.3465352 16.9699718,76.4699155 18.3322254,76.3409014 C20.0184225,76.1820282 21.4871549,75.7324507 22.7727887,75.1256901 C24.7733521,74.1809014 26.4792676,72.7048451 27.6787042,71.0834366 C28.1496901,70.4468169 28.9981408,69.187662 29.6319437,67.2507606 C29.9739155,66.2051268 30.199831,65.0789296 30.2544789,63.6417465 C30.3271549,61.7234366 30.3209577,55.884 30.3209577,55.884 L30.3209577,36.7786479 C30.3220845,28.6609014 31.3254648,25.8710423 33.0832113,24.2614648" id="Fill-35"></path>
            </g>
        </g>
    </g>
</svg>