<svg xmlns="http://www.w3.org/2000/svg" viewBox="0 0 302.72 302.72"><defs><style>.a,.c{fill:#fff;}.b{fill:#003963;}.c,.d{stroke:#fff;}.c{stroke-width:1.35px;}.d{fill:none;stroke-width:1.3px;}.e,.f{fill:#ffce34;}.f{isolation:isolate;}</style></defs><title>BMV Seal</title><circle class="a" cx="151.36" cy="151.36" r="151.36"/><path class="b" d="M295,151.48A143.55,143.55,0,1,1,151.41,7.93,143.55,143.55,0,0,1,295,151.48Z"/><circle class="c" cx="151.41" cy="151.48" r="111.16" transform="translate(-0.66 302.3) rotate(-89.78)"/><path class="b" d="M107.58,223.66V189.58h9.5q5.74,0,8.87,2.32a7.7,7.7,0,0,1,3.13,6.57,8.18,8.18,0,0,1-1.22,4.47,10,10,0,0,1-3.77,3.31,9.32,9.32,0,0,1,4.25,3.22,8.83,8.83,0,0,1,1.37,5.07q0,4.67-2.81,6.89c-1.87,1.49-4.78,2.23-8.71,2.23Zm7.1-19.87h2.92a3.91,3.91,0,0,0,3.08-1.23,5,5,0,0,0,1.11-3.46,4.8,4.8,0,0,0-1.12-3.53,5.15,5.15,0,0,0-3.65-1.09h-2.34Zm0,15h3.11a4.48,4.48,0,0,0,3.42-1.17,7,7,0,0,0-.14-7.69,5.62,5.62,0,0,0-4-1.2h-2.34Z"/><path class="b" d="M135.58,223.66V189.58h9.58l4.69,18.88a17,17,0,0,1,.44,2.43,23.32,23.32,0,0,1,.14,2.68,15.55,15.55,0,0,1,.19-2.42,26.51,26.51,0,0,1,.5-2.65l4.5-18.92h9.7v34.08h-6.73V202.14c0-.61,0-1.44.15-2.47s.23-2.19.4-3.47c-.11.46-.25,1.08-.42,1.89-.34,1.52-.58,2.51-.71,2.95l-5.89,22.62h-3.6L142.89,201c-.21-.91-.44-1.91-.7-3s-.39-1.69-.42-1.82c.15,1.16.26,2.25.35,3.27s.12,1.9.12,2.67v21.52Z"/><path class="b" d="M169.57,189.58h7l4.3,20.18a33.81,33.81,0,0,1,.6,3.63,33,33,0,0,1,.18,3.46v.61c.06-1.49.17-2.9.31-4.21s.3-2.47.5-3.49l4.17-20.18h7l-8.23,34.08h-7.55Z"/><path class="a" d="M34.36,134.11,15,130.52l.73-4a5,5,0,0,1,2-3.44,5.17,5.17,0,0,1,4-.61,6,6,0,0,1,2.45,1,5,5,0,0,1,1.6,1.92A4.29,4.29,0,0,1,27.87,124a6.65,6.65,0,0,1,3,0,5.75,5.75,0,0,1,3.7,1.89,4.8,4.8,0,0,1,.6,3.86Zm-10.78-5.06.23-1.21a1.43,1.43,0,0,0-.47-1.4,3.58,3.58,0,0,0-1.87-.83,3.36,3.36,0,0,0-2.08.1,1.8,1.8,0,0,0-.9,1.4l-.17,1Zm8.52,1.58.23-1.29a1.61,1.61,0,0,0-.4-1.54,4,4,0,0,0-2-.84,4,4,0,0,0-2.35.09,2,2,0,0,0-1,1.55l-.18,1Z"/><path class="a" d="M18.92,112.61l1-3,14.5,4.8a2,2,0,0,0,1.44,0,1.46,1.46,0,0,0,.86-1,1.35,1.35,0,0,0-.13-1.23,2.14,2.14,0,0,0-1.18-.83l-14.5-4.79,1-3,14,4.63a5.94,5.94,0,0,1,3.42,2.4,4.28,4.28,0,0,1,.24,3.73,4.33,4.33,0,0,1-2.42,2.87,6.15,6.15,0,0,1-4.25-.14Z"/><path class="a" d="M37.16,97l7.44,3.64-1.34,2.73L25.55,94.75l2-4a4.47,4.47,0,0,1,2.81-2.67,6.89,6.89,0,0,1,4.4.91,8.35,8.35,0,0,1,2.5,1.73,4,4,0,0,1,1,2.14l9.2,2-1.38,2.83-8.27-2Zm-7.71-3.77,5.16,2.52.53-1.08a1.64,1.64,0,0,0,.07-1.6,4.49,4.49,0,0,0-1.94-1.41,3.87,3.87,0,0,0-2.12-.56,1.82,1.82,0,0,0-1.22,1.14Z"/><path class="a" d="M50.52,89.69,34,78.87l4.35-6.64,2.39,1.56-2.69,4.1,4.32,2.84,1.93-3,2.38,1.56-1.93,3,4.92,3.23,2.7-4.1,2.48,1.63Z"/><path class="a" d="M57.76,79.1l-13-15.23,2.56-3L64.5,71.14l-2,2.37-3.65-2.29-2,2.34,2.84,3.26ZM55,71.46l1.5-1.77-7-4.53-.12.14Z"/><path class="a" d="M55,52.67l2.29-2.09L67.58,61.87a2,2,0,0,0,1.26.71,1.48,1.48,0,0,0,1.21-.41,1.4,1.4,0,0,0,.5-1.14,2.16,2.16,0,0,0-.63-1.3L59.64,48.45l2.29-2.09,9.93,10.89A6,6,0,0,1,73.66,61a4.3,4.3,0,0,1-1.61,3.37,4.35,4.35,0,0,1-3.53,1.31,6.11,6.11,0,0,1-3.64-2.21Z"/><path class="a" d="M80.43,38.41a5,5,0,0,1-.74-3.79,4.66,4.66,0,0,1,2.36-2.91,4.3,4.3,0,0,1,3.58-.51,5.28,5.28,0,0,1,2.93,2.58l5.07,8.73a5.91,5.91,0,0,1,1,4.07,5,5,0,0,1-6,3.49,6.05,6.05,0,0,1-3.09-2.93Zm10.82,6.21-5.52-9.5A2.47,2.47,0,0,0,84.61,34a1.37,1.37,0,0,0-1.27.14,1.42,1.42,0,0,0-.76,1A2.55,2.55,0,0,0,83,36.69l5.52,9.5a2.47,2.47,0,0,0,1.12,1.13,1.36,1.36,0,0,0,1.27-.14,1.39,1.39,0,0,0,.76-1A2.48,2.48,0,0,0,91.25,44.62Z"/><path class="a" d="M102.12,43.92,94.38,25.79l7.28-3.11,1.12,2.62-4.5,1.92,2,4.75,3.23-1.38,1.13,2.62-3.24,1.39,3.48,8.13Z"/><path class="a" d="M123.41,36.41,119.8,17l4-.75,4,10.38c.15.42.3.87.44,1.36s.24,1,.34,1.51a12,12,0,0,1-.18-1.39c0-.49-.07-1-.08-1.55l-.15-11.11,4.05-.76,3.61,19.4-2.8.52-2.29-12.24c-.06-.35-.13-.83-.2-1.42s-.14-1.27-.2-2q0,.4,0,1.11c0,.89,0,1.47,0,1.73l0,13.33-1.49.28-4.73-12.46c-.19-.5-.4-1-.61-1.64s-.35-.93-.38-1c.19.65.35,1.26.5,1.83s.25,1.07.34,1.51l2.28,12.25Z"/><path class="a" d="M142.12,18.3a5.13,5.13,0,0,1,1.15-3.7,4.64,4.64,0,0,1,3.46-1.44,4.3,4.3,0,0,1,3.39,1.24,5.31,5.31,0,0,1,1.36,3.67l.35,10.1a5.93,5.93,0,0,1-1.09,4,4.35,4.35,0,0,1-3.42,1.52,4.31,4.31,0,0,1-3.52-1.28,6.12,6.12,0,0,1-1.33-4Zm6.61,10.61-.37-11a2.57,2.57,0,0,0-.45-1.52,1.39,1.39,0,0,0-1.19-.47,1.41,1.41,0,0,0-1.16.55,2.52,2.52,0,0,0-.34,1.55l.37,11a2.62,2.62,0,0,0,.45,1.53,1.41,1.41,0,0,0,1.2.48,1.37,1.37,0,0,0,1.14-.56A2.46,2.46,0,0,0,148.73,28.91Z"/><path class="a" d="M158.41,16.46l.24-2.85,9.31.8-.24,2.84L164.57,17,163.13,33.8l-3-.26,1.44-16.82Z"/><path class="a" d="M174.29,19.94a5,5,0,0,1,2-3.31,4.64,4.64,0,0,1,3.71-.58,4.33,4.33,0,0,1,3,2,5.3,5.3,0,0,1,.44,3.88l-2.08,9.9a5.88,5.88,0,0,1-2,3.66,5,5,0,0,1-6.8-1.42,6.1,6.1,0,0,1-.33-4.24Zm3.89,11.89L180.44,21a2.5,2.5,0,0,0-.07-1.59,1.43,1.43,0,0,0-1.05-.74,1.39,1.39,0,0,0-1.26.26,2.53,2.53,0,0,0-.71,1.42l-2.26,10.79a2.49,2.49,0,0,0,.08,1.59,1.41,1.41,0,0,0,1.05.75,1.37,1.37,0,0,0,1.26-.27A2.5,2.5,0,0,0,178.18,31.83Z"/><path class="a" d="M192.47,31.74l-2.77,7.83-2.87-1L193.42,20l4.21,1.49a4.46,4.46,0,0,1,3,2.48,6.86,6.86,0,0,1-.4,4.47,8.58,8.58,0,0,1-1.43,2.69,3.93,3.93,0,0,1-2,1.25l-1,9.4-3-1.06,1-8.45Zm2.87-8.09-1.92,5.41,1.14.41a1.64,1.64,0,0,0,1.59-.11,4.73,4.73,0,0,0,1.17-2.09,3.81,3.81,0,0,0,.31-2.17A1.8,1.8,0,0,0,196.37,24Z"/><path class="a" d="M218.8,31l2.55,1.55-4.53,10.91c-.28.7-.58,1.35-.88,1.93s-.63,1.17-1,1.75l-.18.3c.47-.73.93-1.39,1.38-2s.85-1.16,1.23-1.62L225,34.73l2.55,1.55-13.25,15-2.71-1.65Z"/><path class="a" d="M221.88,56.47,234.13,41l6.22,4.92-1.77,2.23-3.83-3-3.22,4.07,2.77,2.19-1.77,2.22-2.76-2.18L226.11,56l3.83,3-1.84,2.32Z"/><path class="a" d="M246.88,51.77l2.1,2.15-5.75,5.62,2.12,2.17,5.75-5.63,2.14,2.19-14.11,13.8L237,69.89l6.32-6.18-2.12-2.17-6.31,6.18-2.11-2.15Z"/><path class="a" d="M243.6,77.43l15.53-12.17,1.9,2.43L245.5,79.86Z"/><path class="a" d="M253.63,82.36,262.21,77a5.09,5.09,0,0,1,3.76-.86,4.62,4.62,0,0,1,3,2.28,4.28,4.28,0,0,1,.63,3.55,5.32,5.32,0,0,1-2.49,3l-1.6,1-1.66-2.65,1.84-1.15a2.48,2.48,0,0,0,1.09-1.14,1.58,1.58,0,0,0-1.24-2,2.41,2.41,0,0,0-1.51.48l-9.33,5.82a2.52,2.52,0,0,0-1.1,1.15,1.35,1.35,0,0,0,.18,1.27,1.38,1.38,0,0,0,1.06.72,2.61,2.61,0,0,0,1.51-.49l2.28-1.42,1.65,2.65-1.75,1.09a5.82,5.82,0,0,1-4,1.08,5,5,0,0,1-3.69-5.89A6.17,6.17,0,0,1,253.63,82.36Z"/><path class="a" d="M257.35,98.81l17.88-8.31,1.27,2.73-15.29,7.11,2,4.28-2.59,1.21Z"/><path class="a" d="M262.6,111l18.75-6.17,2.48,7.54-2.71.89-1.54-4.66-4.89,1.61,1.1,3.36-2.71.9-1.1-3.36L266.36,113l1.54,4.66-2.81.93Z"/><path class="a" d="M271.36,122.66l1,2.77a4.43,4.43,0,0,0-2.07,1,1.66,1.66,0,0,0-.42,1.56,1.83,1.83,0,0,0,.78,1.22,1.86,1.86,0,0,0,1.46.24c1-.2,2.15-1.26,3.43-3.18l.22-.34a18.49,18.49,0,0,1,3-3.74,5.77,5.77,0,0,1,2.56-1.21,4.84,4.84,0,0,1,3.71.67,4.47,4.47,0,0,1,2.05,3,4.19,4.19,0,0,1-.68,3.36,5.74,5.74,0,0,1-3.23,2.07l-1-2.84a3.83,3.83,0,0,0,1.76-.83,1.33,1.33,0,0,0,.33-1.28,1.5,1.5,0,0,0-.71-1.06,1.92,1.92,0,0,0-1.4-.18q-1.68.33-3.84,3.68l-.14.21a14.08,14.08,0,0,1-2.74,3.35,6.31,6.31,0,0,1-2.72,1.21,4.9,4.9,0,0,1-3.73-.62,4.55,4.55,0,0,1-2-3.06,4.66,4.66,0,0,1,.72-3.8A6.06,6.06,0,0,1,271.36,122.66Z"/><path class="a" d="M102.88,279.51l6.84-18.14,2.86,1.07-6.86,18.15Z"/><path class="a" d="M115.44,283.75,120,264.88l2.62.64,1,12.16c0,.23,0,.54,0,.92s0,.78,0,1.22c0-.57.08-1.1.13-1.58a9.87,9.87,0,0,1,.15-1.05l2.59-10.73,2.74.66L124.7,286l-2.73-.66-1-11.27c0-.05,0-.12,0-.21a19.22,19.22,0,0,1-.1-2c-.06.69-.11,1.25-.16,1.71a8.92,8.92,0,0,1-.14,1l-2.38,9.86Z"/><path class="a" d="M133.4,287.43l2-19.31,4.23.43a4.76,4.76,0,0,1,3.51,1.67,5.9,5.9,0,0,1,.77,4.13L143,283a6.21,6.21,0,0,1-1.54,4,4.54,4.54,0,0,1-3.69.92Zm3.26-2.55,1.49.15a1.35,1.35,0,0,0,1.21-.38,2.46,2.46,0,0,0,.54-1.49l.95-9.28a2.31,2.31,0,0,0-.4-1.8,2.48,2.48,0,0,0-1.73-.74l-.69-.07Z"/><path class="a" d="M149.94,288.54l.32-19.39,3.05,0-.31,19.4Z"/><path class="a" d="M160.26,288.37l1.16-19.62,3.88-.4,5.18,19-3.06.32-1-4.12-3,.31-.21,4.25Zm3.2-7.32,2.27-.24-1.85-7.95-.19,0Z"/><path class="a" d="M177,286.21l-4.37-18.89,2.61-.61,6.31,10.43c.11.2.27.47.45.81s.37.69.58,1.07c-.23-.52-.42-1-.59-1.46a9.19,9.19,0,0,1-.33-1l-2.49-10.75,2.73-.63,4.37,18.89-2.73.63-6-9.61s-.06-.11-.11-.18c-.41-.66-.73-1.24-1-1.73q.39,1,.63,1.59c.16.43.26.75.31.94l2.28,9.88Z"/><path class="a" d="M192.68,282.18,189,262.88l3.67-1.35,9.68,17.1-2.88,1.07-2-3.73-2.82,1,.84,4.17ZM194,274.3l2.14-.79-3.76-7.25-.17.06Z"/><polygon class="d" points="19.85 144.05 23.04 148.66 28.41 147.07 25 151.52 28.18 156.14 22.89 154.28 19.47 158.73 19.61 153.12 14.33 151.25 19.7 149.66 19.85 144.05"/><polygon class="d" points="22.23 177.47 26.48 181.14 31.27 178.24 29.1 183.41 33.34 187.08 27.75 186.61 25.57 191.78 24.3 186.31 18.7 185.84 23.5 182.93 22.23 177.47"/><polygon class="d" points="32.97 209.22 38 211.7 41.91 207.68 41.11 213.23 46.14 215.71 40.61 216.66 39.81 222.22 37.19 217.25 31.66 218.2 35.58 214.18 32.97 209.22"/><polygon class="d" points="51.36 237.23 56.85 238.36 59.63 233.48 60.26 239.06 65.75 240.19 60.64 242.51 61.26 248.09 57.48 243.94 52.36 246.26 55.13 241.38 51.36 237.23"/><polygon class="d" points="76.23 259.69 81.83 259.4 83.28 253.98 85.3 259.23 90.89 258.93 86.53 262.46 88.54 267.7 83.84 264.64 79.48 268.17 80.92 262.75 76.23 259.69"/><polygon class="d" points="282.97 144.05 279.78 148.66 274.41 147.07 277.82 151.52 274.64 156.14 279.93 154.28 283.34 158.73 283.2 153.12 288.49 151.25 283.11 149.66 282.97 144.05"/><polygon class="d" points="280.59 177.47 276.34 181.14 271.54 178.24 273.72 183.41 269.48 187.08 275.07 186.61 277.25 191.78 278.52 186.31 284.12 185.84 279.31 182.93 280.59 177.47"/><polygon class="d" points="269.85 209.22 264.82 211.7 260.9 207.68 261.7 213.23 256.68 215.71 262.2 216.66 263.01 222.22 265.62 217.25 271.16 218.2 267.24 214.18 269.85 209.22"/><polygon class="d" points="251.46 237.23 245.96 238.36 243.18 233.48 242.56 239.06 237.07 240.19 242.18 242.51 241.55 248.09 245.34 243.94 250.45 246.26 247.68 241.38 251.46 237.23"/><polygon class="d" points="226.59 259.69 220.99 259.4 219.53 253.98 217.52 259.23 211.92 258.93 216.28 262.46 214.27 267.7 218.98 264.64 223.34 268.17 221.89 262.75 226.59 259.69"/><polygon class="e" points="151.41 79.42 154.09 87.66 162.76 87.66 155.74 92.76 158.42 101 151.41 95.91 144.4 101 147.08 92.76 140.06 87.66 148.73 87.66 151.41 79.42"/><polygon class="e" points="111.76 170 113.79 176.26 120.37 176.26 115.05 180.13 117.08 186.39 111.76 182.53 106.43 186.39 108.47 180.13 103.14 176.26 109.72 176.26 111.76 170"/><polygon class="e" points="190.22 170 192.26 176.26 198.84 176.26 193.52 180.13 195.55 186.39 190.22 182.53 184.9 186.39 186.93 180.13 181.61 176.26 188.19 176.26 190.22 170"/><polygon class="e" points="151.41 52.13 152.99 56.99 158.1 56.99 153.96 59.99 155.54 64.85 151.41 61.84 147.28 64.85 148.85 59.99 144.72 56.99 149.83 56.99 151.41 52.13"/><polygon class="e" points="93.12 141.75 95.16 148.01 101.73 148.01 96.41 151.88 98.45 158.14 93.12 154.27 87.8 158.14 89.83 151.88 84.51 148.01 91.09 148.01 93.12 141.75"/><polygon class="e" points="108.06 62.9 109.64 67.76 114.75 67.76 110.62 70.76 112.2 75.62 108.06 72.62 103.93 75.62 105.51 70.76 101.38 67.76 106.49 67.76 108.06 62.9"/><polygon class="e" points="75.54 90.4 77.12 95.25 82.23 95.25 78.09 98.26 79.67 103.11 75.54 100.11 71.41 103.11 72.98 98.26 68.85 95.25 73.96 95.25 75.54 90.4"/><polygon class="e" points="59.78 128.62 61.36 133.48 66.47 133.48 62.33 136.48 63.91 141.34 59.78 138.34 55.64 141.34 57.23 136.48 53.09 133.48 58.2 133.48 59.78 128.62"/><polygon class="e" points="66.15 171.88 67.73 176.74 72.84 176.74 68.7 179.74 70.28 184.6 66.15 181.59 62.02 184.6 63.59 179.74 59.46 176.74 64.57 176.74 66.15 171.88"/><polygon class="e" points="90.63 205.42 92.21 210.27 97.32 210.27 93.18 213.27 94.76 218.13 90.63 215.13 86.5 218.13 88.08 213.27 83.94 210.27 89.05 210.27 90.63 205.42"/><polygon class="e" points="128.52 226.21 130.1 231.06 135.21 231.06 131.08 234.06 132.66 238.92 128.52 235.92 124.39 238.92 125.97 234.06 121.84 231.06 126.94 231.06 128.52 226.21"/><polygon class="e" points="209.69 141.75 207.66 148.01 201.08 148.01 206.4 151.88 204.37 158.14 209.69 154.27 215.02 158.14 212.98 151.88 218.31 148.01 211.73 148.01 209.69 141.75"/><polygon class="e" points="194.75 62.9 193.17 67.76 188.06 67.76 192.2 70.76 190.62 75.62 194.75 72.62 198.88 75.62 197.31 70.76 201.44 67.76 196.33 67.76 194.75 62.9"/><polygon class="e" points="227.28 90.4 225.7 95.25 220.59 95.25 224.72 98.26 223.14 103.11 227.28 100.11 231.41 103.11 229.83 98.26 233.96 95.25 228.86 95.25 227.28 90.4"/><polygon class="e" points="243.04 128.62 241.46 133.48 236.35 133.48 240.48 136.48 238.9 141.34 243.04 138.34 247.18 141.34 245.59 136.48 249.73 133.48 244.62 133.48 243.04 128.62"/><polygon class="e" points="236.66 171.88 235.09 176.74 229.98 176.74 234.11 179.74 232.53 184.6 236.66 181.59 240.8 184.6 239.22 179.74 243.35 176.74 238.25 176.74 236.66 171.88"/><polygon class="e" points="212.19 205.42 210.61 210.27 205.5 210.27 209.63 213.27 208.05 218.13 212.19 215.13 216.32 218.13 214.74 213.27 218.87 210.27 213.77 210.27 212.19 205.42"/><polygon class="e" points="174.29 226.21 172.72 231.06 167.61 231.06 171.74 234.06 170.16 238.92 174.29 235.92 178.43 238.92 176.85 234.06 180.98 231.06 175.87 231.06 174.29 226.21"/><path class="e" d="M149.87,101.07v7.23a1.13,1.13,0,1,0,2.25,0v-7.23a1.13,1.13,0,0,0-2.25,0Z"/><line class="f" x1="139.93" y1="114.34" x2="114.1" y2="78.8"/><path class="e" d="M113.44,77.88a1.14,1.14,0,0,0-.25,1.58L139,115a1.13,1.13,0,0,0,1.83-1.33L115,78.13A1.14,1.14,0,0,0,113.44,77.88Z"/><line class="f" x1="132.55" y1="120.38" x2="83.26" y2="101.26"/><path class="e" d="M82.2,100.86a1.12,1.12,0,0,0,.65,1.45l49.29,19.12a1.13,1.13,0,0,0,.81-2.1L83.66,100.22A1.13,1.13,0,0,0,82.2,100.86Z"/><line class="f" x1="132.21" y1="129.43" x2="70.51" y2="136.81"/><path class="e" d="M132.08,128.31l-61.7,7.38a1.11,1.11,0,0,0-1,1.25,1.13,1.13,0,0,0,1.25,1l61.7-7.38a1.13,1.13,0,0,0-.27-2.24Z"/><line class="f" x1="164.74" y1="107.64" x2="187.88" y2="76.45"/><path class="e" d="M187,75.78,163.83,107a1.13,1.13,0,0,0,.24,1.58,1.11,1.11,0,0,0,1.57-.24l23.14-31.18a1.12,1.12,0,0,0-.23-1.57A1.13,1.13,0,0,0,187,75.78Z"/><line class="f" x1="170.11" y1="119.04" x2="216.71" y2="100.59"/><path class="e" d="M216.3,99.54,169.69,118a1.12,1.12,0,1,0,.83,2.09l46.61-18.44a1.13,1.13,0,0,0-.83-2.1Z"/><line class="f" x1="170.77" y1="128.76" x2="228.45" y2="135.8"/><path class="e" d="M169.66,128.62a1.13,1.13,0,0,0,1,1.26l57.68,7a1.13,1.13,0,0,0,.27-2.24l-57.68-7A1.12,1.12,0,0,0,169.66,128.62Z"/><path class="e" d="M168,137.9a1.52,1.52,0,0,1-1.51,1.51H136.32a1.51,1.51,0,0,1-1.51-1.51h0a1.51,1.51,0,0,1,1.51-1.51H166.5A1.52,1.52,0,0,1,168,137.9Z"/><path class="e" d="M159,162.79a1.5,1.5,0,0,1-1.51,1.51H145.37a1.51,1.51,0,0,1-1.51-1.51h0a1.51,1.51,0,0,1,1.51-1.51h12.07a1.5,1.5,0,0,1,1.51,1.51Z"/><path class="e" d="M137.58,132.11c.9,1.39,7.2,2.85,6.37,1.51s-3.19-4.86-3.7-8.55-.49-4.36-.32-5.19-1.18-1-2.35,1.33S135.39,128.76,137.58,132.11Z"/><path class="e" d="M145,130.77a6.47,6.47,0,0,0,6.2,3.52c3.35,0,5.53-1.34,6-3.69A23.31,23.31,0,0,0,156,119.37c-1.51-4.19,0-6.87.84-8.72s-.51-2.68-3.19-.5-9.22,7.88-9.9,11.74S145,130.77,145,130.77Z"/><path class="e" d="M159.88,130.27c-.67,1.62-1.35,3.69.16,3.69s4.37-.34,5.2-3.69-.5-5.87-2.34-9.39-1.52-4.19-1.18-5-1.34-1.34-1.84.67S161.88,125.41,159.88,130.27Z"/><path class="e" d="M151.41,141.67H138.92c1.67,6.37,6.37,7,6.37,9.73v6.66h12.24V151.4c0-2.69,4.7-3.36,6.37-9.73Z"/><polygon class="e" points="145.96 167.12 147.13 187.28 155.68 187.28 156.85 167.12 145.96 167.12"/><path class="e" d="M149,226.14s.67,19.78,2.43,19.78,2.43-19.78,2.43-19.78Z"/></svg>