<svg xmlns="http://www.w3.org/2000/svg" viewBox="0 0 187.71 34.58"><defs><style>.a{fill:#fff;}</style></defs><title>copy_two_2</title><path class="a" d="M0,.21h9.3V2.82H3.81V5H8.53V7.4H3.81v5H0Z"/><path class="a" d="M19.44.21H23.2V7.46a6.13,6.13,0,0,1-.34,2,4.34,4.34,0,0,1-1.05,1.68,4.26,4.26,0,0,1-1.51,1,7.62,7.62,0,0,1-2.63.4,17.22,17.22,0,0,1-1.94-.12A5.17,5.17,0,0,1,14,12a4.52,4.52,0,0,1-1.29-1.05,4,4,0,0,1-.8-1.4,7.4,7.4,0,0,1-.35-2.06V.21h3.76V7.63a2.14,2.14,0,0,0,.55,1.56,2.07,2.07,0,0,0,1.53.56,2,2,0,0,0,1.52-.56,2.08,2.08,0,0,0,.55-1.56Z"/><path class="a" d="M25.84.21H29.6V9.38h5.87v3H25.84Z"/><path class="a" d="M37.35.21h3.76V9.38H47v3H37.35Z"/><path class="a" d="M62.16,10.37H57.89l-.59,2H53.46L58,.21h4.1l4.58,12.17H62.77Zm-.78-2.63L60,3.36,58.71,7.74Z"/><path class="a" d="M68.1.21h3.51l4.58,6.73V.21h3.55V12.38H76.19L71.63,5.7v6.68H68.1Z"/><path class="a" d="M82.44.21H88a6.69,6.69,0,0,1,2.67.45,4.29,4.29,0,0,1,1.68,1.28,5.26,5.26,0,0,1,1,2,9,9,0,0,1,.29,2.36,8.15,8.15,0,0,1-.44,3A5.24,5.24,0,0,1,92,11.08a4.05,4.05,0,0,1-1.7,1,8.36,8.36,0,0,1-2.24.34H82.44ZM86.2,3V9.61h.92a3.85,3.85,0,0,0,1.68-.26,1.78,1.78,0,0,0,.78-.91,5.94,5.94,0,0,0,.28-2.11,4.1,4.1,0,0,0-.63-2.65A2.66,2.66,0,0,0,87.14,3Z"/><path class="a" d="M109.52.21h3.75V7.46a6.13,6.13,0,0,1-.33,2,4.49,4.49,0,0,1-1.06,1.68,4.32,4.32,0,0,1-1.5,1,7.62,7.62,0,0,1-2.63.4,17.08,17.08,0,0,1-1.94-.12,5.17,5.17,0,0,1-1.76-.49,4.52,4.52,0,0,1-1.29-1.05,3.85,3.85,0,0,1-.8-1.4,7.4,7.4,0,0,1-.35-2.06V.21h3.75V7.63a2.14,2.14,0,0,0,.56,1.56,2,2,0,0,0,1.53.56A2.06,2.06,0,0,0,109,9.19a2.08,2.08,0,0,0,.55-1.56Z"/><path class="a" d="M115.9.21h6.25a4.27,4.27,0,0,1,3.06,1,3.64,3.64,0,0,1,1,2.76,3.74,3.74,0,0,1-1.11,2.88,4.77,4.77,0,0,1-3.38,1h-2.06v4.52H115.9Zm3.78,5.19h.92A2.41,2.41,0,0,0,122.13,5a1.24,1.24,0,0,0,.44-1,1.34,1.34,0,0,0-.39-1,1.94,1.94,0,0,0-1.43-.4h-1.07Z"/><path class="a" d="M128.4,12.38V.21h6.26a9.1,9.1,0,0,1,2.67.3,2.82,2.82,0,0,1,1.48,1.11,3.3,3.3,0,0,1,.57,2A3.45,3.45,0,0,1,139,5.33a3.5,3.5,0,0,1-1.19,1.2,4.72,4.72,0,0,1-1.32.48,3.8,3.8,0,0,1,1,.45,3.37,3.37,0,0,1,.6.63,5.18,5.18,0,0,1,.53.76l1.82,3.53h-4.25l-2-3.72a2.89,2.89,0,0,0-.68-.94,1.56,1.56,0,0,0-.92-.28h-.34v4.94Zm3.77-7.24h1.59a5.82,5.82,0,0,0,1-.17,1,1,0,0,0,.62-.38,1.16,1.16,0,0,0,.23-.71,1.11,1.11,0,0,0-.37-.9,2.27,2.27,0,0,0-1.4-.31h-1.66Z"/><path class="a" d="M141.89.21h3.77V12.38h-3.77Z"/><path class="a" d="M154.63,8V5.44h5.81v5.18a11.94,11.94,0,0,1-2.95,1.55,9.88,9.88,0,0,1-3.05.41,7.43,7.43,0,0,1-3.53-.73,5.18,5.18,0,0,1-2.12-2.2A7.29,7.29,0,0,1,148,6.29a7,7,0,0,1,.83-3.46,5.27,5.27,0,0,1,2.4-2.24A7.92,7.92,0,0,1,154.6,0a9.16,9.16,0,0,1,3,.37,3.88,3.88,0,0,1,1.66,1.13,5,5,0,0,1,1,2l-3.63.64a1.93,1.93,0,0,0-.76-1,2.3,2.3,0,0,0-1.36-.37,2.46,2.46,0,0,0-2,.86,4.15,4.15,0,0,0-.74,2.72,4.21,4.21,0,0,0,.75,2.82,2.58,2.58,0,0,0,2.07.85,4,4,0,0,0,1.2-.18,6.54,6.54,0,0,0,1.31-.62V8Z"/><path class="a" d="M162.84.21h3.76V4.47h4.11V.21h3.78V12.38h-3.78V7.46H166.6v4.92h-3.76Z"/><path class="a" d="M176.28.21h11.43v3h-3.83v9.17h-3.76V3.21h-3.84Z"/><path class="a" d="M0,22.21H6.25a4.27,4.27,0,0,1,3.06,1,3.64,3.64,0,0,1,1,2.76,3.74,3.74,0,0,1-1.11,2.88,4.77,4.77,0,0,1-3.38,1H3.78v4.52H0ZM3.78,27.4H4.7A2.41,2.41,0,0,0,6.23,27a1.24,1.24,0,0,0,.44-1,1.34,1.34,0,0,0-.39-1,1.94,1.94,0,0,0-1.43-.4H3.78Z"/><path class="a" d="M12,28.3a6.3,6.3,0,0,1,1.66-4.64A6.25,6.25,0,0,1,18.26,22a6.36,6.36,0,0,1,4.68,1.63,6.17,6.17,0,0,1,1.64,4.57,7.48,7.48,0,0,1-.72,3.5,5.12,5.12,0,0,1-2.07,2.13,6.93,6.93,0,0,1-3.38.75A7.74,7.74,0,0,1,15,33.93a5.15,5.15,0,0,1-2.19-2.08A6.86,6.86,0,0,1,12,28.3Zm3.76,0A4,4,0,0,0,16.42,31a2.32,2.32,0,0,0,1.86.81A2.32,2.32,0,0,0,20.16,31a4.51,4.51,0,0,0,.66-2.83,3.78,3.78,0,0,0-.69-2.51,2.36,2.36,0,0,0-1.88-.79,2.31,2.31,0,0,0-1.83.8A4.11,4.11,0,0,0,15.73,28.32Z"/><path class="a" d="M26.11,30.35l3.57-.22a2.77,2.77,0,0,0,.48,1.33,2,2,0,0,0,1.66.73,1.85,1.85,0,0,0,1.24-.37,1.15,1.15,0,0,0,.43-.88,1.13,1.13,0,0,0-.41-.85,4.82,4.82,0,0,0-1.93-.7,8.15,8.15,0,0,1-3.53-1.48,3,3,0,0,1-1.06-2.35,3.15,3.15,0,0,1,.55-1.77,3.55,3.55,0,0,1,1.63-1.31,7.62,7.62,0,0,1,3-.48,6.11,6.11,0,0,1,3.56.87,3.76,3.76,0,0,1,1.46,2.76l-3.55.21a1.64,1.64,0,0,0-1.84-1.57,1.54,1.54,0,0,0-1,.27.88.88,0,0,0-.33.68.66.66,0,0,0,.27.52,3.14,3.14,0,0,0,1.27.45,16.2,16.2,0,0,1,3.53,1.08,3.65,3.65,0,0,1,1.55,1.35,3.42,3.42,0,0,1,.49,1.8,3.88,3.88,0,0,1-.65,2.16,4.11,4.11,0,0,1-1.81,1.49,7.33,7.33,0,0,1-2.93.51c-2.07,0-3.51-.39-4.3-1.19A4.68,4.68,0,0,1,26.11,30.35Z"/><path class="a" d="M39.34,22.21h3.77V34.38H39.34Z"/><path class="a" d="M45.1,22.21H56.53v3H52.7v9.17H48.94V25.21H45.1Z"/><path class="a" d="M58.54,22.21h3.77V34.38H58.54Z"/><path class="a" d="M64.68,28.3a6.3,6.3,0,0,1,1.66-4.64A6.25,6.25,0,0,1,71,22a6.36,6.36,0,0,1,4.68,1.63,6.14,6.14,0,0,1,1.64,4.57,7.62,7.62,0,0,1-.71,3.5,5.14,5.14,0,0,1-2.08,2.13,6.9,6.9,0,0,1-3.38.75,7.77,7.77,0,0,1-3.41-.65,5.15,5.15,0,0,1-2.19-2.08A6.86,6.86,0,0,1,64.68,28.3Zm3.77,0A4,4,0,0,0,69.13,31a2.59,2.59,0,0,0,3.74,0,4.51,4.51,0,0,0,.66-2.83,3.78,3.78,0,0,0-.69-2.51A2.36,2.36,0,0,0,71,24.85a2.31,2.31,0,0,0-1.83.8A4.12,4.12,0,0,0,68.45,28.32Z"/><path class="a" d="M79.5,22.21H83l4.58,6.73V22.21h3.54V34.38H87.59L83,27.7v6.68H79.5Z"/><path class="a" d="M93.57,31h3.61v3.39H93.57Z"/></svg>