<svg xmlns="http://www.w3.org/2000/svg" viewBox="0 0 132.27 26.14"><defs><style>.a{fill:#89aee2;}</style></defs><title>copy_one_2</title><path class="a" d="M.33,8V.13H3.82a4.37,4.37,0,0,1,1.6.22,1.73,1.73,0,0,1,.88.75,2.19,2.19,0,0,1,.33,1.18A2,2,0,0,1,6.09,3.7a2.82,2.82,0,0,1-1.68.73A2.46,2.46,0,0,1,5,4.82a5.49,5.49,0,0,1,.86,1L7.27,8H6l-1-1.64a13.06,13.06,0,0,0-.75-1.08,2.37,2.37,0,0,0-.53-.53,1.56,1.56,0,0,0-.48-.21,2.65,2.65,0,0,0-.58,0H1.38V8Zm1-4.4H3.62a3.3,3.3,0,0,0,1.11-.15A1.13,1.13,0,0,0,5.34,3a1.28,1.28,0,0,0,.21-.71,1.18,1.18,0,0,0-.4-.92A1.9,1.9,0,0,0,3.87,1H1.38Z"/><path class="a" d="M10.25,8V.13H16v.93H11.29V3.47h4.36V4.4H11.29V7.08h4.84V8Z"/><path class="a" d="M21.55,8V1.06H19V.13H25.2v.93H22.59V8Z"/><path class="a" d="M33.41.13h1.05V4.68a5.41,5.41,0,0,1-.27,1.89,2.35,2.35,0,0,1-1,1.13,3.37,3.37,0,0,1-1.84.44,3.83,3.83,0,0,1-1.81-.38,2.16,2.16,0,0,1-1-1.1,5.28,5.28,0,0,1-.3-2V.13h1V4.68a4.3,4.3,0,0,0,.2,1.51,1.44,1.44,0,0,0,.65.75,2.34,2.34,0,0,0,1.14.26,2.14,2.14,0,0,0,1.63-.52,3,3,0,0,0,.49-2Z"/><path class="a" d="M38.17,8V.13h3.5a4.44,4.44,0,0,1,1.6.22,1.75,1.75,0,0,1,.87.75,2.19,2.19,0,0,1,.33,1.18,2,2,0,0,1-.54,1.42,2.79,2.79,0,0,1-1.68.73,2.46,2.46,0,0,1,.63.39,5.92,5.92,0,0,1,.87,1L45.11,8H43.8l-1-1.64A13.06,13.06,0,0,0,42,5.29a2.18,2.18,0,0,0-.53-.53A1.51,1.51,0,0,0,41,4.55a2.77,2.77,0,0,0-.58,0H39.22V8Zm1-4.4h2.24a3.26,3.26,0,0,0,1.11-.15A1.19,1.19,0,0,0,43.19,3a1.28,1.28,0,0,0,.21-.71A1.19,1.19,0,0,0,43,1.36,1.9,1.9,0,0,0,41.71,1H39.22Z"/><path class="a" d="M48.06,8V.13h1.07l4.14,6.19V.13h1V8H53.2L49.06,1.82V8Z"/><path class="a" d="M58.16,8V.13h1V8Z"/><path class="a" d="M63,8V.13h1.07l4.13,6.19V.13h1V8H68.14L64,1.82V8Z"/><path class="a" d="M76.62,4.92V4H80V6.91a5.7,5.7,0,0,1-1.58.92,4.59,4.59,0,0,1-1.68.31,4.52,4.52,0,0,1-2.11-.49,3.42,3.42,0,0,1-1.43-1.44,4.57,4.57,0,0,1-.48-2.1A4.9,4.9,0,0,1,73.15,2,3.21,3.21,0,0,1,74.53.48,4.4,4.4,0,0,1,76.61,0a4,4,0,0,1,1.55.28,2.5,2.5,0,0,1,1.08.77,3.51,3.51,0,0,1,.6,1.29l-.94.25a3.05,3.05,0,0,0-.44-.94,1.85,1.85,0,0,0-.76-.55A2.67,2.67,0,0,0,76.62.89a3.12,3.12,0,0,0-1.24.22,2.31,2.31,0,0,0-.84.57,2.69,2.69,0,0,0-.49.78A3.94,3.94,0,0,0,73.75,4a3.9,3.9,0,0,0,.36,1.77,2.32,2.32,0,0,0,1,1.05,3.27,3.27,0,0,0,1.47.34A3.39,3.39,0,0,0,78,6.94a3.4,3.4,0,0,0,1-.55V4.92Z"/><path class="a" d="M88.51,8V.13h3a7,7,0,0,1,1.19.08,2.39,2.39,0,0,1,1,.37,1.91,1.91,0,0,1,.63.76,2.37,2.37,0,0,1,.24,1.07,2.44,2.44,0,0,1-.64,1.7,3.05,3.05,0,0,1-2.31.7h-2V8Zm1-4.13h2A2.16,2.16,0,0,0,93,3.5a1.34,1.34,0,0,0,.42-1.06,1.37,1.37,0,0,0-.25-.84,1.13,1.13,0,0,0-.66-.47,4.8,4.8,0,0,0-1-.07h-2Z"/><path class="a" d="M97.84,8V.13h5.7v.93H98.89V3.47h4.35V4.4H98.89V7.08h4.83V8Z"/><path class="a" d="M106.28,8l3-7.88h1.12L113.64,8h-1.18l-.92-2.39h-3.29L107.38,8Zm2.27-3.24h2.67l-.83-2.18c-.25-.66-.43-1.2-.55-1.63a9.86,9.86,0,0,1-.43,1.5Z"/><path class="a" d="M122.08,5.25l1,.26a3.5,3.5,0,0,1-1.18,2,3.24,3.24,0,0,1-2.08.67,3.69,3.69,0,0,1-2.07-.52,3.16,3.16,0,0,1-1.22-1.5A5.29,5.29,0,0,1,116.16,4a4.53,4.53,0,0,1,.47-2.14A3.22,3.22,0,0,1,118,.47,4,4,0,0,1,119.87,0a3.24,3.24,0,0,1,2,.6A3.11,3.11,0,0,1,123,2.29l-1,.25a2.46,2.46,0,0,0-.8-1.26,2.12,2.12,0,0,0-1.31-.39,2.58,2.58,0,0,0-1.52.44,2.31,2.31,0,0,0-.85,1.16A4.61,4.61,0,0,0,117.23,4a4.9,4.9,0,0,0,.29,1.75,2.22,2.22,0,0,0,.91,1.12,2.53,2.53,0,0,0,1.34.37,2.26,2.26,0,0,0,1.48-.5A2.62,2.62,0,0,0,122.08,5.25Z"/><path class="a" d="M126.39,8V.13h5.69v.93h-4.65V3.47h4.36V4.4h-4.36V7.08h4.84V8Z"/><path class="a" d="M0,22.17A4.3,4.3,0,0,1,1.05,19.1,3.58,3.58,0,0,1,3.77,18a3.78,3.78,0,0,1,2,.53A3.34,3.34,0,0,1,7.07,20a5,5,0,0,1,0,4.25,3.41,3.41,0,0,1-1.37,1.44,4,4,0,0,1-1.91.48,3.77,3.77,0,0,1-2-.53A3.44,3.44,0,0,1,.45,24.14,4.48,4.48,0,0,1,0,22.17Zm1.07,0a3.14,3.14,0,0,0,.77,2.24,2.5,2.5,0,0,0,1.92.82,2.54,2.54,0,0,0,1.94-.83,3.36,3.36,0,0,0,.76-2.34,4,4,0,0,0-.33-1.68,2.41,2.41,0,0,0-1-1.11,2.54,2.54,0,0,0-1.4-.4,2.66,2.66,0,0,0-1.91.76A3.41,3.41,0,0,0,1.07,22.19Z"/><path class="a" d="M10.91,26V18.13h5.31v.93H12V21.5h3.69v.93H12V26Z"/><path class="a" d="M24.56,26V18.13h1.56L28,23.71c.17.52.3.91.37,1.17.09-.29.23-.71.42-1.27l1.89-5.48h1.4V26h-1V19.42L28.78,26h-.94L25.56,19.3V26Z"/><path class="a" d="M35.9,26V18.13h1V26Z"/><path class="a" d="M40.75,26V18.13h1.07L46,24.32V18.13h1V26H45.88l-4.13-6.19V26Z"/><path class="a" d="M50.67,26V18.13h2.71a6.18,6.18,0,0,1,1.4.12,2.62,2.62,0,0,1,1.16.56,3.18,3.18,0,0,1,.93,1.35A5.16,5.16,0,0,1,57.18,22,5.47,5.47,0,0,1,57,23.62a3.78,3.78,0,0,1-.54,1.14,2.86,2.86,0,0,1-.71.72,3.09,3.09,0,0,1-.94.39,5.36,5.36,0,0,1-1.27.14Zm1-.93h1.68a4,4,0,0,0,1.23-.15,1.7,1.7,0,0,0,.7-.4,2.49,2.49,0,0,0,.58-1A4.81,4.81,0,0,0,56.11,22a3.7,3.7,0,0,0-.41-1.9,2.1,2.1,0,0,0-1-.89,4.23,4.23,0,0,0-1.34-.16H51.71Z"/><path class="a" d="M67.41,26v-7H64.82v-.93h6.24v.93h-2.6v7Z"/><path class="a" d="M73.58,22.17a4.26,4.26,0,0,1,1.06-3.07A3.56,3.56,0,0,1,77.35,18a3.75,3.75,0,0,1,2,.53A3.34,3.34,0,0,1,80.65,20a5,5,0,0,1,0,4.25,3.35,3.35,0,0,1-1.37,1.44,4,4,0,0,1-1.91.48,3.8,3.8,0,0,1-2-.53A3.5,3.5,0,0,1,74,24.14,4.48,4.48,0,0,1,73.58,22.17Zm1.08,0a3.14,3.14,0,0,0,.76,2.24,2.67,2.67,0,0,0,3.86,0A3.31,3.31,0,0,0,80,22.08a4,4,0,0,0-.33-1.68,2.41,2.41,0,0,0-.95-1.11,2.49,2.49,0,0,0-1.4-.4,2.63,2.63,0,0,0-1.9.76A3.36,3.36,0,0,0,74.66,22.19Z"/><path class="a" d="M89.65,26V18.13h1V26Z"/><path class="a" d="M96.51,26v-7H93.92v-.93h6.24v.93H97.55v7Z"/><path class="a" d="M102.85,23.48l1-.09a2.06,2.06,0,0,0,.32,1A1.78,1.78,0,0,0,105,25a2.94,2.94,0,0,0,1.21.24,2.82,2.82,0,0,0,1-.18,1.38,1.38,0,0,0,.68-.49,1.11,1.11,0,0,0,.23-.67,1.06,1.06,0,0,0-.22-.65,1.56,1.56,0,0,0-.71-.46c-.21-.08-.68-.21-1.4-.39a6.71,6.71,0,0,1-1.52-.49,2.16,2.16,0,0,1-.84-.73,1.84,1.84,0,0,1-.28-1,2.07,2.07,0,0,1,.34-1.12,2.17,2.17,0,0,1,1-.78,3.75,3.75,0,0,1,1.45-.27,3.92,3.92,0,0,1,1.54.28,2.26,2.26,0,0,1,1,.83,2.32,2.32,0,0,1,.38,1.24l-1,.08a1.63,1.63,0,0,0-.55-1.13,2.09,2.09,0,0,0-1.37-.38,2.22,2.22,0,0,0-1.38.34,1,1,0,0,0-.43.84.91.91,0,0,0,.3.7,4.29,4.29,0,0,0,1.58.56,10.94,10.94,0,0,1,1.74.5,2.32,2.32,0,0,1,1,.8,2,2,0,0,1,.33,1.12,2.16,2.16,0,0,1-.36,1.19,2.31,2.31,0,0,1-1,.86,3.56,3.56,0,0,1-1.52.31,4.49,4.49,0,0,1-1.79-.31,2.49,2.49,0,0,1-1.13-.94A2.64,2.64,0,0,1,102.85,23.48Z"/></svg>