<svg xmlns="http://www.w3.org/2000/svg" viewBox="0 0 209.58 34.58"><defs><style>.a{fill:#fff;}</style></defs><title>copy_four</title><path class="a" d="M8.7,10.37H4.43l-.59,2H0L4.57.21H8.68l4.57,12.17H9.31ZM7.92,7.74,6.58,3.36,5.25,7.74Z"/><path class="a" d="M14.64.21h3.51l4.58,6.73V.21h3.55V12.38H22.73L18.17,5.7v6.68H14.64Z"/><path class="a" d="M29,.21h5.58a6.65,6.65,0,0,1,2.67.45,4.29,4.29,0,0,1,1.68,1.28,5.26,5.26,0,0,1,1,2,9,9,0,0,1,.3,2.36,8.13,8.13,0,0,1-.45,3,5.1,5.1,0,0,1-1.23,1.8,4.08,4.08,0,0,1-1.69,1,8.49,8.49,0,0,1-2.25.34H29ZM32.74,3V9.61h.92a3.85,3.85,0,0,0,1.68-.26,1.78,1.78,0,0,0,.78-.91,5.94,5.94,0,0,0,.28-2.11,4.1,4.1,0,0,0-.63-2.65A2.66,2.66,0,0,0,33.68,3Z"/><path class="a" d="M48.1.21h4.95L55,7.61l1.9-7.4h4.94V12.38H58.71V3.1l-2.37,9.28H53.55L51.18,3.1v9.28H48.1Z"/><path class="a" d="M71.84,10.37H67.57l-.59,2H63.14L67.71.21h4.1l4.58,12.17H72.45Zm-.78-2.63L69.72,3.36,68.39,7.74Z"/><path class="a" d="M77.77.21h3.76v4.6L85.47.21h5L86,4.8l4.64,7.58H86l-2.57-5-1.94,2v3H77.77Z"/><path class="a" d="M92.06.21h10.07v2.6h-6.3V4.74h5.85V7.22H95.83v2.4h6.49v2.76H92.06Z"/><path class="a" d="M103.84,8.35l3.58-.22a2.77,2.77,0,0,0,.47,1.33,2,2,0,0,0,1.66.73,1.84,1.84,0,0,0,1.24-.37,1.16,1.16,0,0,0,.44-.88,1.11,1.11,0,0,0-.42-.85,4.75,4.75,0,0,0-1.92-.7,8.1,8.1,0,0,1-3.53-1.48,3,3,0,0,1-1.06-2.35,3.22,3.22,0,0,1,.54-1.77A3.58,3.58,0,0,1,106.48.48a7.55,7.55,0,0,1,3-.48A6.08,6.08,0,0,1,113,.87a3.73,3.73,0,0,1,1.46,2.76l-3.54.21a1.91,1.91,0,0,0-.6-1.2,1.88,1.88,0,0,0-1.25-.37,1.53,1.53,0,0,0-1,.27.89.89,0,0,0-.34.68.67.67,0,0,0,.28.52,3.14,3.14,0,0,0,1.26.45,16.2,16.2,0,0,1,3.53,1.08,3.65,3.65,0,0,1,1.55,1.35,3.33,3.33,0,0,1,.49,1.8,3.88,3.88,0,0,1-.65,2.16,4.05,4.05,0,0,1-1.81,1.49,7.3,7.3,0,0,1-2.93.51c-2.07,0-3.5-.39-4.3-1.19A4.73,4.73,0,0,1,103.84,8.35Z"/><path class="a" d="M130.67.21h3.75V7.46a5.89,5.89,0,0,1-.34,2A4.34,4.34,0,0,1,133,11.17a4.26,4.26,0,0,1-1.51,1,7.62,7.62,0,0,1-2.63.4,17.22,17.22,0,0,1-1.94-.12A5.11,5.11,0,0,1,125.2,12a4.52,4.52,0,0,1-1.29-1.05,4,4,0,0,1-.81-1.4,7.35,7.35,0,0,1-.34-2.06V.21h3.75V7.63a2.14,2.14,0,0,0,.55,1.56,2.37,2.37,0,0,0,3.06,0,2.12,2.12,0,0,0,.55-1.56Z"/><path class="a" d="M136.41,8.35,140,8.13a2.77,2.77,0,0,0,.48,1.33,2,2,0,0,0,1.66.73,1.85,1.85,0,0,0,1.24-.37,1.15,1.15,0,0,0,.43-.88,1.1,1.1,0,0,0-.41-.85,4.82,4.82,0,0,0-1.93-.7,8,8,0,0,1-3.52-1.48,3,3,0,0,1-1.07-2.35,3.15,3.15,0,0,1,.55-1.77A3.55,3.55,0,0,1,139,.48,7.62,7.62,0,0,1,142,0a6.11,6.11,0,0,1,3.56.87,3.76,3.76,0,0,1,1.46,2.76l-3.55.21a1.9,1.9,0,0,0-.59-1.2,1.9,1.9,0,0,0-1.25-.37,1.54,1.54,0,0,0-1,.27.88.88,0,0,0-.33.68.66.66,0,0,0,.27.52,3.14,3.14,0,0,0,1.27.45,16.2,16.2,0,0,1,3.53,1.08A3.65,3.65,0,0,1,147,6.62a3.42,3.42,0,0,1,.49,1.8,3.88,3.88,0,0,1-.65,2.16A4.11,4.11,0,0,1,145,12.07a7.33,7.33,0,0,1-2.93.51c-2.07,0-3.5-.39-4.3-1.19A4.68,4.68,0,0,1,136.41,8.35Z"/><path class="a" d="M162.8,10.37h-4.27l-.6,2h-3.84L158.67.21h4.1l4.57,12.17H163.4ZM162,7.74l-1.35-4.38-1.33,4.38Z"/><path class="a" d="M168.71.21h3.76V9.38h5.87v3h-9.63Z"/><path class="a" d="M180.22.21H184V9.38h5.87v3h-9.63Z"/><path class="a" d="M205,10.37h-4.27l-.59,2h-3.84L200.9.21H205l4.58,12.17h-3.94Zm-.78-2.63-1.34-4.38-1.33,4.38Z"/><path class="a" d="M1.22,22.21H5v9.17h5.87v3H1.22Z"/><path class="a" d="M12.88,22.21h3.77V34.38H12.88Z"/><path class="a" d="M18.64,22.21H30.07v3H26.24v9.17H22.48V25.21H18.64Z"/><path class="a" d="M31.07,22.21H42.5v3H38.67v9.17H34.91V25.21H31.07Z"/><path class="a" d="M44.36,22.21h3.76v9.17H54v3H44.36Z"/><path class="a" d="M55.86,22.21H65.94v2.6H59.63v1.93h5.85v2.48H59.63v2.4h6.49v2.76H55.86Z"/><path class="a" d="M73.46,30.35,77,30.13a2.88,2.88,0,0,0,.47,1.33,2,2,0,0,0,1.66.73,1.84,1.84,0,0,0,1.24-.37,1.09,1.09,0,0,0,0-1.73,4.82,4.82,0,0,0-1.93-.7A8.1,8.1,0,0,1,75,27.91a3,3,0,0,1-1.06-2.35,3.22,3.22,0,0,1,.54-1.77,3.63,3.63,0,0,1,1.64-1.31,7.58,7.58,0,0,1,3-.48,6.11,6.11,0,0,1,3.56.87,3.75,3.75,0,0,1,1.45,2.76l-3.54.21a1.64,1.64,0,0,0-1.84-1.57,1.54,1.54,0,0,0-1,.27.88.88,0,0,0-.33.68.66.66,0,0,0,.27.52,3.14,3.14,0,0,0,1.26.45,16.33,16.33,0,0,1,3.54,1.08A3.71,3.71,0,0,1,84,28.62a3.41,3.41,0,0,1,.48,1.8,3.87,3.87,0,0,1-.64,2.16,4.16,4.16,0,0,1-1.81,1.49,7.36,7.36,0,0,1-2.93.51c-2.07,0-3.51-.39-4.3-1.19A4.74,4.74,0,0,1,73.46,30.35Z"/><path class="a" d="M94,32.37H89.76l-.59,2H85.33L89.9,22.21H94l4.58,12.17H94.64Zm-.78-2.63-1.34-4.38-1.33,4.38Z"/><path class="a" d="M100,22.21h9.3v2.61h-5.52V27h4.71V29.4h-4.71v5H100Z"/><path class="a" d="M111.44,22.21h10.08v2.6h-6.31v1.93h5.85v2.48h-5.85v2.4h6.49v2.76H111.44Z"/><path class="a" d="M123.93,34.38V22.21h6.27a9,9,0,0,1,2.66.3,2.84,2.84,0,0,1,1.49,1.11,3.74,3.74,0,0,1,.13,3.71,3.42,3.42,0,0,1-1.19,1.2A4.72,4.72,0,0,1,132,29a3.64,3.64,0,0,1,1,.45,3.37,3.37,0,0,1,.6.63,5.18,5.18,0,0,1,.53.76l1.82,3.53h-4.25l-2-3.72a2.75,2.75,0,0,0-.68-.94,1.56,1.56,0,0,0-.92-.28h-.33v4.94Zm3.78-7.24h1.58a5.89,5.89,0,0,0,1-.17,1,1,0,0,0,.61-.38,1.22,1.22,0,0,0-.14-1.61,2.27,2.27,0,0,0-1.4-.31h-1.65Z"/><path class="a" d="M137.06,31h3.61v3.39h-3.61Z"/></svg>