<svg xmlns="http://www.w3.org/2000/svg" viewBox="0 0 196.48 12.58"><defs><style>.a{fill:#003963;}</style></defs><title>copy_two</title><path class="a" d="M0,.21H6.25a4.27,4.27,0,0,1,3.06,1,3.64,3.64,0,0,1,1,2.76A3.74,3.74,0,0,1,9.22,6.82a4.77,4.77,0,0,1-3.38,1H3.78v4.52H0ZM3.78,5.4H4.7A2.41,2.41,0,0,0,6.23,5a1.24,1.24,0,0,0,.44-1,1.34,1.34,0,0,0-.39-1,1.94,1.94,0,0,0-1.43-.4H3.78Z"/><path class="a" d="M12.44.21H22.52v2.6H16.21V4.74h5.85V7.22H16.21v2.4H22.7v2.76H12.44Z"/><path class="a" d="M24.93,12.38V.21h6.26a9.1,9.1,0,0,1,2.67.3,2.82,2.82,0,0,1,1.48,1.11,3.3,3.3,0,0,1,.57,2,3.45,3.45,0,0,1-.43,1.74,3.5,3.5,0,0,1-1.19,1.2A4.72,4.72,0,0,1,33,7a3.8,3.8,0,0,1,1,.45,3.74,3.74,0,0,1,.6.63,5.18,5.18,0,0,1,.53.76l1.82,3.53H32.65l-2-3.72A2.89,2.89,0,0,0,30,7.72,1.56,1.56,0,0,0,29,7.44H28.7v4.94ZM28.7,5.14h1.59a5.82,5.82,0,0,0,1-.17,1,1,0,0,0,.62-.38,1.16,1.16,0,0,0,.23-.71,1.11,1.11,0,0,0-.37-.9,2.29,2.29,0,0,0-1.41-.31H28.7Z"/><path class="a" d="M38.29.21h9.29V2.82H42.06V5h4.72V7.4H42.06v5H38.29Z"/><path class="a" d="M49.77.21H59.85v2.6H53.54V4.74h5.85V7.22H53.54v2.4H60v2.76H49.77Z"/><path class="a" d="M70.31,7.4l3.29,1a6,6,0,0,1-1,2.32,4.54,4.54,0,0,1-1.77,1.4,6.6,6.6,0,0,1-2.7.47A7.91,7.91,0,0,1,64.85,12a5.16,5.16,0,0,1-2.17-2,6.88,6.88,0,0,1-.91-3.72,6.32,6.32,0,0,1,1.6-4.64A6.14,6.14,0,0,1,67.92,0a6.14,6.14,0,0,1,3.61.93,5.46,5.46,0,0,1,2,2.86l-3.32.73a2.82,2.82,0,0,0-.37-.81A2,2,0,0,0,69,3.05a2.13,2.13,0,0,0-1-.24,2.22,2.22,0,0,0-2,1,4.42,4.42,0,0,0-.51,2.4A4.54,4.54,0,0,0,66.15,9a2.44,2.44,0,0,0,3.36.15A3.79,3.79,0,0,0,70.31,7.4Z"/><path class="a" d="M74.75.21H86.18v3H82.34v9.17H78.58V3.21H74.75Z"/><path class="a" d="M102,7.4l3.29,1a6,6,0,0,1-1,2.32,4.4,4.4,0,0,1-1.77,1.4,6.52,6.52,0,0,1-2.69.47A7.91,7.91,0,0,1,96.5,12a5.16,5.16,0,0,1-2.17-2,6.88,6.88,0,0,1-.92-3.72A6.32,6.32,0,0,1,95,1.62,6.12,6.12,0,0,1,99.56,0a6.18,6.18,0,0,1,3.62.93,5.39,5.39,0,0,1,1.95,2.86l-3.32.73a2.59,2.59,0,0,0-.36-.81,2.11,2.11,0,0,0-.77-.66,2.35,2.35,0,0,0-3,.79,4.32,4.32,0,0,0-.52,2.4A4.53,4.53,0,0,0,97.8,9a2.42,2.42,0,0,0,3.35.15A3.8,3.8,0,0,0,102,7.4Z"/><path class="a" d="M114.73,10.37h-4.27l-.59,2H106L110.6.21h4.1l4.57,12.17h-3.93ZM114,7.74,112.6,3.36l-1.32,4.38Z"/><path class="a" d="M120.69,12.38V.21H127a9,9,0,0,1,2.66.3,2.84,2.84,0,0,1,1.49,1.11,3.37,3.37,0,0,1,.56,2,3.35,3.35,0,0,1-.43,1.74,3.42,3.42,0,0,1-1.19,1.2,4.72,4.72,0,0,1-1.32.48,3.64,3.64,0,0,1,1,.45,3.37,3.37,0,0,1,.6.63,5.18,5.18,0,0,1,.53.76l1.82,3.53h-4.25l-2-3.72a2.75,2.75,0,0,0-.68-.94,1.56,1.56,0,0,0-.92-.28h-.33v4.94Zm3.78-7.24h1.58a5.89,5.89,0,0,0,1-.17,1,1,0,0,0,.61-.38,1.11,1.11,0,0,0,.24-.71,1.11,1.11,0,0,0-.38-.9,2.27,2.27,0,0,0-1.4-.31h-1.65Z"/><path class="a" d="M134.08,12.38V.21h6.27a9,9,0,0,1,2.66.3,2.84,2.84,0,0,1,1.49,1.11,3.3,3.3,0,0,1,.57,2,3.36,3.36,0,0,1-.44,1.74,3.47,3.47,0,0,1-1.18,1.2,4.93,4.93,0,0,1-1.33.48,3.64,3.64,0,0,1,1,.45,3.68,3.68,0,0,1,.61.63,4.93,4.93,0,0,1,.52.76l1.82,3.53H141.8l-2-3.72a2.75,2.75,0,0,0-.68-.94,1.54,1.54,0,0,0-.92-.28h-.33v4.94Zm3.78-7.24h1.59a5.82,5.82,0,0,0,1-.17,1,1,0,0,0,.61-.38,1.11,1.11,0,0,0,.24-.71,1.14,1.14,0,0,0-.37-.9,2.29,2.29,0,0,0-1.41-.31h-1.65Z"/><path class="a" d="M145.47.21h4.17l2.46,4.1,2.45-4.1h4.16L154,7.28v5.1h-3.77V7.28Z"/><path class="a" d="M157.77,6.63h4.92V9.25h-4.92Z"/><path class="a" d="M164,6.3a6.3,6.3,0,0,1,1.66-4.64A6.25,6.25,0,0,1,170.27,0,6.36,6.36,0,0,1,175,1.63a6.17,6.17,0,0,1,1.64,4.57,7.62,7.62,0,0,1-.71,3.5,5.2,5.2,0,0,1-2.08,2.13,6.93,6.93,0,0,1-3.38.75,7.74,7.74,0,0,1-3.41-.65,5.15,5.15,0,0,1-2.19-2.08A6.86,6.86,0,0,1,164,6.3Zm3.76,0A4,4,0,0,0,168.43,9a2.59,2.59,0,0,0,3.74,0,4.51,4.51,0,0,0,.66-2.83,3.78,3.78,0,0,0-.69-2.51,2.36,2.36,0,0,0-1.88-.79,2.31,2.31,0,0,0-1.83.8A4.11,4.11,0,0,0,167.74,6.32Z"/><path class="a" d="M178.8.21h3.51l4.58,6.73V.21h3.54V12.38h-3.54L182.33,5.7v6.68H178.8Z"/><path class="a" d="M192.87,9h3.61v3.39h-3.61Z"/></svg>